<?xml version="1.0" encoding="utf-8"?>
<!-- Generator: Adobe Illustrator 19.1.0, SVG Export Plug-In . SVG Version: 6.00 Build 0)  -->
<svg version="1.1" xmlns="http://www.w3.org/2000/svg" xmlns:xlink="http://www.w3.org/1999/xlink" x="0px" y="0px"
	 viewBox="0 0 800 600" style="enable-background:new 0 0 800 600;" xml:space="preserve">
<style type="text/css">
	.st0{clip-path:url(#SVGID_2_);fill:#A51931;}
	.st1{clip-path:url(#SVGID_2_);fill:#F4F5F8;}
	.st2{clip-path:url(#SVGID_2_);fill:#2D2A4A;}
	.st3{font-family:'Roboto-Regular';}
	.st4{font-size:14px;}
</style>
<g id="Thailand">
	<g>
		<defs>
			<path id="SVGID_1_" d="M289.41,489.11l-0.38,2.636l-1.464-0.037l-1.492,1.686l-0.69,0.224l-1.213-5.369l1.394-7.526l0.739-1.077
				l1.032,1.994l2.998,0.895l-1.29,4.336L289.41,489.11z M350.565,34.079l-0.268,2.231l0.885,0.464l1.227-1.034l1.568-2.529
				l1.711-1.427l1.854-0.325l1.969,1.722l2.084,3.77l2.144,2.142l0.997,0.233l0.729,1.722l0.111,1.651l-1.018,3.487l-1.725,4.055
				l-2.447,5.009l0.802,4.207l3.336,3.428l3.995,2.018l4.228-0.561l2.245-1.024l1.833-1.623l1.708-0.765l2.158-0.204l6.717,1.19
				l2.043,1.162l0.317,2.323l-0.83,5.969l1.035,4.375l1.903,4.605l0.23,4.195l-2.349,6.913l-1.962,6.535l-2.112,3.173l-1.638,2.041
				l-0.481,1.384l0.129,1.307l1.506,1.962l1.596,2.529l0.401,2.417l-0.171,2.97l-1.095,4.071l-4.078,8.813l-3.231,7.942l1.69,1.592
				l3.207,1.159l2.123,1.132l2.224-0.725l4.72-4.688l4.068-3.49l5.047-3.487l0.307-0.304l4.42-2.568l2.022-2.359l1.095-3.011
				l1.565-1.166l2.029,0.68l2.569-1.308l3.109-3.297l2.388-1.524l1.67,0.254l2.977,2.049l4.291,3.845l3.817,2.288l3.346,0.728
				l1.631,1.429l-0.077,2.13l0.739,1.352l1.565,0.573l0.694-0.229l-0.174-1.03l1.513-1.509l3.207-1.988l3.256-1.169l3.311-0.348
				l2.14-1.577l1.422-4.095l2.046-3.118l1.826-1.41l2.266-0.71l0.586-0.991l-1.095-1.27l0.101-1.29l1.304-1.305l2.809-0.559
				l4.319,0.194l5.058,1.331l5.803,2.469l3.803,0.792l1.813-0.885l3.538,3.822l5.263,8.522l4.514,6.433l3.764,4.353l3.967,3.339
				l4.162,2.328l2.991,3.164l2.726,5.999l-2.036,8.286l-0.551,7.15l0.251,8.774l2.454,6.717l4.66,4.664l2.708,3.768l0.763,2.871
				l3.625,2.463l6.494,2.055l2.698,1.861l-1.094,1.67l-0.084,1.936l0.917,2.206l2.252,1.824l3.583,1.443l2.13,1.522l0.676,1.599
				l-0.077,2.601l-0.83,3.595l-1.495,2.762l-2.161,1.926l-0.261,1.518l-0.551,2.318v4.742l1.534,3.159l0.474,4.007l-0.844,3.272
				l-0.816,6.678l-0.101,2.586l-0.777,2.219l-1.889,2.143l-2.872,2.012l-3.517,1.788l-2.154,0.792l-0.505,0.372l-1.541,2.018
				l-1.851,1.958l-1.443,0.002l-1.081-0.99l-0.749-1.281l-0.453-2.806l-3.245-1.387l-3.562-0.873l-7.254,1.384l-5.859,0.749
				l-6.563-0.949l-6.19,1.2l-2.586,0.177l-2.97-0.179l-2.865,0.023l-2.729-0.44l-5.051-1.718l-1.927,0.134l-4.068,1.421
				l-4.245,0.999l-4.071,0.685l-6.009,2.931l-4.347,4.237l-1.286,2.993l-2.158,3.013l-2.994,4.771l-3.873,4.563l-2.701,2.08
				l0.742,1.226l-0.666,1.484l-4.224,0.661l-3.29,0.265l-0.592,0.741l0.394,9.179l1.15,3.471l2.13,4.188l1.394,2.291l1.035,6.794
				l0.317,5.758l4.643,3.636l2.628,2.776l1.868,2.442l-0.652,1.557l-1.112,4.637l1.084,6.018l6.476,12.965l0.565,0.92l-0.77,0.103
				l-1.021-2.496l-3.287-4.198l-1.021-4.489l-3.859-4.946l-2.168-1.966l-0.69,1.64l-1.234,1.762l-3.789-2.54l-3.245-2.661
				l-3.001-5.146l-0.38,1.195l-0.673,1.081l-3.406-4.044l-3.562-3.228l-3.207-1.155l-1.98-1.075l-1.903-1.712l-4.001-1.78
				l-9.948,2.559l-12.66-1.988l-4.873,1.904l-1.997-1.184l-1.23-2.206l1.182-3.77l0.268-7.887l1.506-5.548l-0.708-4.218l0.739-1.988
				l0.561-2.713l-2.004-1.109l-8.941-2.148l-1.896-1.71l-2.374,1.959l-10.736,1.094l-4.043,1.638l-3.743,3.149l-0.962,3.999
				l2.161,2.631l1.387,4.573l-3.852,9.976l-0.645,2.961l1.488,12.181l-0.593,6.676l-2.098,4.474l-3.325,4.019l-1.37,6.806
				l-2.614,3.151l-3.503,7.199l-2.356,8.959l-1.677,4.142l-0.98,7.624l-7.215,11.565l-1.694,6.528l-2.579,2.462l0.903,1.945
				l0.153,3.258l-0.903,8.689l-0.307,7.203l1.091,3.845l3.461,7.642l-0.83,2.215l-0.397,3.153l2.91,1.43l2.084,0.421l11.778-3.61
				l3.988,0.928l1.499,3.368l0.969,2.936l1.997,15.851l1.032,2.942l2.381,2.8l2.607,2.978l0.885-0.534l0.171-1.104l0.164-1.241
				l2.328,3l1.809,5.598l6.215,29.574l1.792,3.754l1.481,3.946l-3.778-1.925l-1.021-6.562l-1.084-2.761l-1.335-0.407l-2.112,0.049
				l-0.136-1.174l1.583-2.142l-0.247-2.568l-2.168-2.109l-3.513,1.674l0.091,4.61l1.576,3.531l5.943,7.881l1.861,3.299l2.363,0.946
				l3.444-0.522l4.12,3.359l3.245,3.119l8.041,4.777l4.873-0.508l5.267-1.184l3.531,0.312l3.465,1.224l4.151,3.975l6.602,9.971
				l10.774,8.29l-1.168,2.053l-0.47,3.138l-4.249,4.183l-0.676,2.423l-1.555,3.068l-2.959,1.638l-2.541,0.312l-1.467-0.292
				l-1.014-0.613l-1.736-2.892l-0.878-0.886l-0.739-0.205l-5.42,2l-5.253,2.221l-0.972,1.984l-1.398,2.314l-1.534,0.915L385.955,570
				l-1.15-1.359l-2.018-1.768l-1.555-1.658l0.397-2.678l2.956-3.932l0.39-2.752l-0.377-4.72l-0.802-2.729l-0.861-0.098l-1.45-0.441
				l-4.099,0.437l-2.05-3.076l-0.812-3.373l-1.401-1.209l-1.387-0.735l-3.074,1.166l-2.342-0.697l-7.797-2.94l-2.998-4.741
				l-1.6-0.139l-1.422,0.528l-0.554,1.079l-0.83,5.458l-0.673,1.666l-8.941-10.99l-6.163-4.526l0.868-8.2l-1.875-1.596l-2.332-0.159
				l-1.764-2.268l1.569-4.891l-2.423,0.934l-3.353-0.175l-2.733-1.353l-2.077-6.763l-1.311-2.065l-2.865-3.543h-3.775l-1.248-1.702
				l0.3-4.374l-2.754-2.683l-3.622-2.189l-2.991-1.285l-3.039-7.054l-2.398-1.73l-2.039-1.407l-2.834,0.948l-0.92,2.54l-1.893,2.461
				l-2.151-0.313l-1.973-1.406l-2.402-7.055l-0.401-4.322l0.53-8.042l3.005-7.216l1.621-11.549l2.562-7.271l1.778-2.467l2.461-9.932
				l5.019-12.707l0.568-2.725l1.014-3.057l0.767-2.885l0.251-4.55l-0.648-2.401v-1.348l1.06-1.715l3.576-2.883l4.936-4.753
				l5.88-6.695l6.02-10.275l2.994-5.969l1.258-2.103l1.332-0.658l2.056-2.046l1.415-2.264l0.08-1.143l-3.276-11.181l-2.144-3.649
				l-1.087-4.311l-0.575-3.115l-0.788-2.862l0.387-2.698l-1.182-1.684l-2.663-2.131l-2.768-3.158l-1.652-5.171v-2.889l-1.771-2.527
				l-0.589-2.649l1.06-2.531l1.394-2.188l-0.16-9.619l-0.558-2.877l-0.687-5.143l-1.806-3.873l-2.555-4.546l-2.893-3.753
				l-7.581-6.799l-5.396-4.545l-2.677-4.138l-3.385-4.766l-2.429-3.428l-3.074-4.338l-1.565-5.916l-0.864-6.299l0.467-2.083
				l1.471-1.37l1.924-1.111l1.544-0.257l4.381-2.898l3.039,0.246l0.701-0.625l0.296-1.32l-0.383-5.749l0.132-7.693l0.565-6.269
				l0.655-4.135l8.052-4.805l1.698-2.078l0.819-2.255l-0.007-1.989l-0.676-1.563l-1.21-0.865l-5.218,4.146l-1.018-0.924
				l-2.395-6.819l-1.032-2.078l-1.485-2.489l-1.607-3.483l-0.247-6.033l-1.154-2.991l-6.508-6.382l-2.924-3.425l-3.981-4.957
				l-4.775-5.95l-4.866-5.507l-2.28-3.523l-0.809-0.793l-0.282-1.357l1.478-3.793l-0.721-3.808l-2.433-5.088l-1.039-3.148
				l0.349-1.208l-1.175-0.473l-2.694,0.265l-2.607-2.383l-2.503-5.034l-0.24-0.886l0.826,0.016l3.137,0.871l1.077-0.132l2.22-1.158
				l3.364-1.217l2.004-0.404l0.648-0.605l0.289-1.221l-1.711-11.653l0.289-2.427l3.203-5.03l-0.37-5.087l0.83-7.299l3.555-5.004
				l2.67-2.292l0.85-3.61l1.213-0.762l2.213,0.285l4.57,2.694l1.948,0.129l2.771-0.072l2.987-0.199l1.387-0.259l9.523-2.63
				l2.102-0.278l2.008,0.335l1.46-0.125l1.474-1.208l1.049-2.129l1.189-6.81l0.68-1.202l1.23-0.972l2.018-0.651l2.36,0.055
				l3.099,1.312l1.934,0.057l2.189-0.55l1.868-0.939l1.227-1.192l0.561-1.432l-0.505-2.757l-1.412-3.458l0.39-0.416l2.597,0.765
				l3.82,0.846l2.907-0.188l1.9-0.6l1.851-1.634L342.28,30l2.283,0.34l1.76,1.357L350.565,34.079z"/>
		</defs>
		<clipPath id="SVGID_2_">
			<use xlink:href="#SVGID_1_"  style="overflow:visible;"/>
		</clipPath>
		<rect x="-5" y="30" class="st0" width="810" height="540"/>
		<rect x="-5" y="120" class="st1" width="810" height="360"/>
		<rect x="-5" y="210" class="st2" width="810" height="180"/>
		<use xlink:href="#SVGID_1_"  style="overflow:visible;fill:none;stroke:#000000;stroke-width:0.25;stroke-miterlimit:10;"/>
	</g>
</g>
<g id="Copyright">
	<text transform="matrix(1 0 0 1 681.6426 577.5916)" class="st3 st4">© Vemaps.com</text>
</g>
</svg>
