<?xml version="1.0" encoding="utf-8"?>
<!-- Generator: Adobe Illustrator 19.1.0, SVG Export Plug-In . SVG Version: 6.00 Build 0)  -->
<svg version="1.1" xmlns="http://www.w3.org/2000/svg" xmlns:xlink="http://www.w3.org/1999/xlink" x="0px" y="0px"
	 viewBox="0 0 800 600" style="enable-background:new 0 0 800 600;" xml:space="preserve">
<style type="text/css">
	.st0{clip-path:url(#SVGID_2_);fill:#FFFFFF;}
	.st1{clip-path:url(#SVGID_2_);fill:#01411C;}
	.st2{font-family:'Roboto-Regular';}
	.st3{font-size:14px;}
</style>
<g id="Pakistan">
	<g>
		<defs>
			<path id="SVGID_1_" d="M674.563,89.673l1.611,3.865l2.438,5.842l1.598,3.82l1.796,4.29l0.898,2.143l1.55,3.694l-0.631,2.031
				l-1.046,3.003l-3.833,2.272l-3.819,1.642l-0.891,0.953l-0.298,1.289l-1.851,2.581l-3.576,2.173l-2.966-0.214l-1.869-0.648
				l-9.98,3.757l-4.615-0.093l-3.607,2.437l-2.674,2.22l-5.369,2.426l-3.637,0.014l-5.372-1.441l-6.617-2.744l-2.688-1.599
				l-2.424,0.093l-5.849-0.384l-5.725-1.355l-6.833-1.617l-3.377-0.691l-6.936-1.418l-4.508,1.892l-4.076,1.71l-3.322,1.156
				l-2.743,5.282l-1.159,1.855l-1.334,2.667l-0.617,1.87l0.542,2.238l4.025,1.586l1.676,2.166l0.25,1.915l-1.447,1.965l-1.207,1.552
				l0.007,1.364l0.641,1.376l0.967,1.023l5.712,0.636l3.384,0.012l1.316,0.558l0.154,1.858l-1.238,2.506l-4.817,2.016l-2.719,2.123
				l-0.86,2.812l0.038,2.246l0.929,1.486l2.307,1.709l2.16,1.955l0.658,1.597l-0.261,2.162l-0.871,2.982l-2.366,3.466l-1.971,2.469
				l-0.154,0.877l0.49,1.325l1.591,1.922l2.708,2.835l3.363,2.298l2.16,0.633l0.703,0.555l0.672,2.658l0.254,2.794l-0.86,2.095
				l1.724,1.735l4.522-0.095l3.682,0.738l1.55-0.734l1.083,0.55l-0.699,6.225l0.507,3.68l0.98,1.042l3.62,1.49l6.966-0.182
				l4.1,1.732l4.549,1.996l2.42,2.201l1.083,1.641l-0.309,2.64l-2.479,3.094l-4.049,1.466l-2.362,0.636l-11.656,5.79l-3.641,2.432
				l-2.815,2.928l-1.039,2.196l-0.562,2.144l2.523,7.754l0.425,2.399l-2.071,8.346l-0.607,3.096l0.775,2.161l2.479,0.809
				l0.542,1.799l0.247,1.39l-4.32,3.056l-4.543,2.698l-1.44-0.006l-4.344,5.067l-7.254,10.123l-3.85,3.418l-0.271,1.673
				l-0.312,1.696l1.471,2.853l0.309,2.409l-1.646,2.427l-2.715,2.773l-5.307,2.428l-6.689,2.481l-3.014,1.504l-2.259,6.499
				l-2.088,6.526l-0.936,2.412l-3.61,7.49l-6.305,11.01l-1.594,2.4l-9.75,5.294l-9.959,5.75l-1.752,2.176l-2.04,5.23l-1.92,5.724
				l-1.779,2.995l-6.336,6.703l-2.078,5.141l-0.651,3.361l-5.393,1.874l-6.099,1.787l-8.876,0.577l-3.699,0.933l-10.878,4.625
				l-2.702,0.191l-2.126-0.765l-1.608-1.578l-1.491-2.62l-0.703-4.034l-2.102-1.832l-2.832-1.557l-2.979-0.075l-2.993,1.717
				l-2.602,1.878l-1.769,1.551l-1.735,1.811l-3.326,6.09l-5.389,8.711l-6.02,6.33l-2.228,1.894l-1.395,1.431l-1.882,2.099
				l-1.087,2.027l-1.491,6.618l-0.86,5.861l0.394,1.308l0.902,1.108l3.288,1.703l4.752,2.816l6.161,1.598l5.194,0.288l1.94,1.199
				l1.159,1.624l0.322,1.366l-0.267,4.829l-0.583,5.17l-1.927,5.555l0.031,3.184l0.758,3.106l5.773,7.893l2.125,0.806l4.33,0.17
				l2.012-0.153l2.235-0.8l1.591,0.545l1.179,0.967l0.309,1.594l-0.182,7.85l1.773,3.549l3.439,4.834l2.712,5.51l2.568,6.601
				l2.451,5.152l0.953,2.688l-1.598,1.3l-0.912,1.35l-0.23,1.8l0.332,1.896l-0.213,1.345l1.159,1.652l1.371,0.55l-0.045,1.146
				l-2.15,1.497l-1.92-0.05l-1.471,0.713l-2.849,3.133l-1.327,0.634l-1.79,0.284l-1.995-0.31l-2.815-1.262l-0.823-1.994l0.322-2.096
				l-0.641-1.247l-2.019,0.236l-7.028,2.141l-6.699,2.636l-1.162,1.797l-1.546,1.877l-3.065,0.772l-4.515,0.235l-3.123-0.282
				l-2.88-2.013l-2.633-1.834l-4.063-0.088l-7.316,0.273l-4.056-0.015l-2.386-0.677l-2.352,0.507l-2.941-0.741l-1.31,0.993
				l-1.234,0.095l-0.994-1.726l-0.662-0.178l-0.778,0.249l-0.679,0.584l-0.404,1.01l-0.141,11.51l-4.827-0.073l-3.439-0.024
				l-3.771,0.625l-3.466,0.875l-1.697,1.048l-2.427,1.65l-0.569,2.294L370.845,570l-1.676-2.479l-1.08-1.14l-1.248,0.846
				l-1.772-0.097l-3.195-2.828l-1.437,2.848l-5.286,0.652l-0.665-2.149l-0.13-2.008l-2.904,1.452l-2.088-2.223l-0.939-2.989
				l-0.806-0.827l-0.922-0.954l-2.191-1.023l-1.961-3.183l-0.178-3.372l-0.549-4.018l-4.114-14.906l-2.489-1.378l-13.957-2.654
				l-0.73-2.614l0.97-7.03l-0.394-4.436l-4.519-5.878l-1.265-4.092l-3.696-3.52l-3.665-1.025l-3.692,0.461l-1.992,1.393
				l-1.094,2.346l7.909-0.546l1.779,0.863l2.126,1.537l-2.273-0.059l-2.619-0.733l-3.288,0.055l-12.325,1.729l-7.158,2.487
				l-9.599-0.736l-12.109,2.443l-9.994,0.145l-4.131,4.757l-2.28-0.857l-1.766-1.172l-13.751-3.737l-0.953-1.564l-2.3-1.121l-2.53,2
				l-1.817,0.334l-7.536-1.675l-5.766,1.264l-2.139,2.15l-0.151,3.346l-7.22-0.646l-4.063-1.053l-5.441,1.167l-12.298-1.549
				l-3.24,0.388l-4.484,2.218l-1.879,1.725l-2.664,0.68l-2.338-2.409l-1.759-1.061l-1.632,0.703l-2.201,1.98l-6.373,0.927
				l-5.766-0.266l-6.205-1.857l0.737-0.618l0.967-3.234l0.867-11.54l1.097-4.173l-0.336-2.282l0.24-0.687l2.424-2.02l0.586-0.864
				l0.926-5.92l1.025-6.587l1.138-2.36l0.963-0.642l7.697-2.953l1.296-1.977l3.98,0.466l0.36-0.476l0.353-2.271l1.848-2.472
				l2.554-2.02l1.903-0.719l6.922-1.273l4.042-1.777l1.231-0.185l10.755,0.452l2.276-0.681l0.36-0.618l0.634-6.727l1.947-1.063
				l0.308-0.568l-0.665-4.657l0.374-3.118l2.215-1.839l-0.127-1.056l-1.591-2.216l-2.112-1.415l-1.028-0.336l-8.825,1.339
				l-3.644-0.433l-1.707-0.815l-0.36-0.606l0.343-1.358l0.062-2.223l1.286-3.453l0.391-2.066l-1.042-11.966l-1.495-7.963
				l0.799-7.918l-0.158-1.645l-0.302-0.37l-1.118,0.004l-5.372,0.699l-4.587-5.105l-2.839-2.02l-7.81-2.544l-3.425-0.485
				l-5.026-2.207l-4.628-4.819l-4.738-4.936l-1.906-3.161l-2.112-5.394l-5.993-10.354l0.055-2.675l-0.741-1.636l-5.835-6.824
				l-4.142-4.849l-6.699-7.857l13.377,4.399l10.429,3.367l16.833,5.433l13.076,4.214l3.62,0.683l38.302-3.596l14.162,2.725
				l4.484,1.529l0.675-0.895l1.903-1.849l3.298-1.869l4.481-1.501l4.471-0.81l6.404-0.106l4.347,0.12l3.216,0.457l6.198-0.269
				l2.983-0.73l10.199-2.97l6.853-2l10.371-3.121l7.563-2.282l1.903-1.213l1.954-2.188l0.929-1.957l-2.324-3.023l-0.305-2.669
				l1.522-3.387l0.83-5.164l-0.158-7.365l-0.494-4.257l2.105-7.917l1.766-4.453l3.517-2.132l2.438-1.305l1.018-0.953l0.998-1.063
				l3.761-6.059l3.439-2.825l3.336-1.715l3.631,0.22l3.096,2.343l6.017,1.025l5.811-0.686l5.04-1.76l2.287-1.443l2.681-1.266
				l-0.154-1.444l-3.034-1.257l-1.738-1.775l-0.679-2.178l1.704-1.323l3.97-0.386l9.737-5.324l3.967-3.504l1.083-1.632l1.858-0.181
				l3.716,1.632l4.333,0.542l2.719-1.629l2.701-0.363l2.654,1.778l1.419,2.122l2.41,2.53l3.041,0.501l3.668-1.361l3.85-2.919
				l3.644-4.094l3.243-4.062l-0.799-12.893l-0.531-7.612l1.704-4.018l2.441-2.478l1.611-3.833l-0.027-3.386l1.704-2.85l1.701-7.795
				l2.324-1.838l4.772-1.275l7.597-0.741l5.972-3.572l6-3.798l0.809-3.347l-2.263-3.585l-3.003-6.962l-2.722-4.162l-6.62-7.477
				l0.758-4.618l3.689-1.878l9.089,3.197l2.53,0.626l3.161,0.45l8.365-0.078l6.826-1.247l7.131-2.859l1.395-2.977l-0.079-3.538
				l0.116-2.925l0.117-4.07l-2.554-2.614l-1.546-2.337l-0.466-1.87l1.779-1.03l1.731-1.909l1.673-3.482l3.949-4.165l2.4-3.754
				l2.246-1.785l3.404-2.444l2.177-3.592l0.998-2.148l1.971-2.105l0.662-1.382l-0.535-1.23l-0.984-1.55l-1.114-1.749v-1.698
				l0.929-1.795l1.004-1.608l-0.463-2.27l-0.542-3.692l-1.858-2.178l-1.245-5.037l-1.968-5.132l-1.053-2.003l-1.92-2.518
				l-4.306-2.684l-1.234-1.789l1.68-3.446l2.798-2.139l5.29-5.29l2.9-3.663l2.619-2.553l3.367,0.431l1.975-0.229l1.742-2.358
				l3.456-2.092l6.14-4.334l2.146-2.926l3.267-1.476l2.708-0.334l3.658-1.023l3.517-1.579l3.212-1.205l5.033-0.237l7.988-0.725
				l4.32-0.74l10.333-0.574l11.259-0.267l1.31-0.03l4.868,1.553l3.301,1.303l1.299-0.115l5.472-3.108l8.297-3.797l3.874-1.684
				L598.512,30l3.216,0.041l2.592,1.007l2.64,1.472l1.687,1.166l2.102-0.696l3.679-0.823l3.206,0.609l7.073,2.614l1.059,1.302
				l1.663,6.351l1.265,0.575l3.984-1.495l3.281,0.756l3.685,2.053l2.39,1.97l1.57,2.133l1.687,3.444l0.662,2.76l0.792,3.288
				l-0.202,9.26l-1.214,1.511l-1.025,1.967l0.26,1.708l1.152,1.357l2.294,0.918l2.122,0.576l1.138,1.459l1.563,5.186l1.052,0.796
				l2.592-0.017l4.707-1.13l4.083-1.771l1.728-0.381l0.429,4.917l2.4,1.878l3.36,2.184L674.563,89.673z"/>
		</defs>
		<clipPath id="SVGID_2_">
			<use xlink:href="#SVGID_1_"  style="overflow:visible;"/>
		</clipPath>
		<rect x="27.797" y="30" class="st0" width="810.001" height="540"/>
		<rect x="230.297" y="30" class="st1" width="607.501" height="540"/>
		<circle class="st0" cx="449.04" cy="322.758" r="74.631"/>
		<circle class="st1" cx="468.117" cy="305.801" r="68.412"/>
		<polygon class="st0" points="476.254,266.912 507.691,302.279 461.47,292.145 504.82,273.176 480.899,314.003 		"/>
		<use xlink:href="#SVGID_1_"  style="overflow:visible;fill:none;stroke:#000000;stroke-width:0.5;stroke-miterlimit:10;"/>
	</g>
</g>
<g id="Copyright">
	<text transform="matrix(1 0 0 1 681.6426 577.5916)" class="st2 st3">© Vemaps.com</text>
</g>
</svg>
