<?xml version="1.0" encoding="utf-8"?>
<!-- Generator: Adobe Illustrator 19.1.0, SVG Export Plug-In . SVG Version: 6.00 Build 0)  -->
<svg version="1.1" xmlns="http://www.w3.org/2000/svg" xmlns:xlink="http://www.w3.org/1999/xlink" x="0px" y="0px"
	 viewBox="0 0 800 600" style="enable-background:new 0 0 800 600;" xml:space="preserve">
<style type="text/css">
	.st0{clip-path:url(#SVGID_2_);fill:#DE2910;}
	.st1{clip-path:url(#SVGID_2_);}
	.st2{fill:#FFDE00;}
	.st3{font-family:'Roboto-Regular';}
	.st4{font-size:14px;}
</style>
<g id="China">
	<g>
		<defs>
			<path id="SVGID_1_" d="M612.495,394.605l-0.988,0.4l-3.131-1.204l-2.205-1.322l-1.317-1.607l-0.189-0.665l1.536,0.113
				l1.504,0.576l0.332,0.883l0.607,0.277l0.412,0.514l2.785,1.195l0.425,0.362L612.495,394.605z M617.701,415.873l-0.173,0.27
				l-1.487-0.793l-1.608-0.167l-0.555-0.697l-0.101-1.096l1.696,0.047l2.09,0.991l0.454,0.506L617.701,415.873z M587.959,476.746
				l-0.892,0.613l-0.557-0.291l-0.01-0.821l0.284-0.74l-0.325-0.534l0.319-0.636l0.665-0.19l0.235,0.397l0.375,0.21l0.116,0.216
				l0.003,0.416l-0.356,0.687l0.281,0.374L587.959,476.746z M445.578,528.209l-0.772-0.674l-1.278-1.089l-0.514-0.127l-1.421,0.528
				l-2.039,0.2l-0.455-0.565l-0.989,0.429l-0.951-1.308l-1.124-0.083l-1.405-0.992l-0.502-0.523l-0.161-0.754l-0.426-0.393
				l-0.55,0.049l-0.609-0.401l-0.966-0.396l-0.777-0.237l-0.383,0.182l-0.41,0.094l-0.07-0.507l0.028-1.525l-0.07-1.355
				l-0.212-0.609l-0.521-0.464l-0.475-0.222l-0.208-0.694l0.169-1.37l0.385-0.93l0.609-0.166l0.823-0.669l0.418-0.948l0.528-0.881
				l-1.878-1.236l-0.988-0.442l-1.092,0.188l-1.355,0.395l-0.71,0.078l-0.356-0.155l-0.786-1.112l-0.427-0.194l-0.961-0.071
				l-0.811,0.01l-0.465,0.484l-0.717,0.162l-0.717,0.028l-0.729-0.604l-1.095-0.786l-1.719-0.555l-0.208-0.641l-0.437-0.765
				l-0.654-0.708l-1.077-0.941l-0.902-0.489l-0.44,0.3l-0.597,0.534l-2.324,1.128l-1.028,0.439l-0.546,0.314l-0.459,0.47
				l-0.142,1.161l-0.229,1.293l-0.669,0.657l-0.634,0.496l-0.668,0.052l-0.651-0.023l-0.609,0.206l-1.864,1.296l-0.883-0.103
				l-0.722-0.732l-0.31-0.53l-0.834,0.12l-1.072,0.62l-0.495,1.113l-0.263,1.038l-0.234,0.461l-0.359,0.135l-0.318,0.024
				l-3.338-3.001l-0.205-0.156l-0.595,0.617l-0.545,1.591l-0.39,0.305l-0.264-0.122l-1.381-2.037l-0.353-0.195l-0.313,0.07
				l-0.412,0.659l-0.877,0.971l-0.67,0.59l-0.015,0.656l-0.726,0.578l-0.847,0.576l-0.282,0.061l-0.562-0.232l-0.732-0.766
				l-0.53-0.799l-1.311-0.794l-1.472-0.672l-0.978-0.526l-0.556-0.128l-0.516,0.235l-0.258,0.321l-0.368,0.795l-0.884,1.302
				l-0.784,1.034l-0.734,0.664l-0.583,0.458l-0.432-0.427l-0.806-0.348l-0.949-0.003l-1.245,0.658l-0.984-1.317l-0.255-0.064
				l-0.376,0.112l-0.433,0.314l-0.304,0.735l-0.316,1.008l-0.625,0.66l-0.521,0.293l0.154,0.565l0.295,0.612l-0.019,0.535
				l0.187,0.846l0.326,0.845l1.162,1.381l0.444,0.72l0.089,0.624l0.04,2.214l-0.046,0.924l-0.231,1.782l-0.015,1.027l0.482,0.462
				l0.468,0.55l-0.018,0.3l-0.205,0.108l-0.665,0.612l-0.281,0.08l-0.435-0.25l-0.563-0.19l-0.454-0.245l-0.499-0.394l-1.188,0.044
				l-1.948,0.598l-0.404-0.169l-0.282-0.339l-0.151-0.698l0.097-0.823l-0.172-0.524l-0.363-0.311l0.256-1.471l-0.695-0.583
				l0.101-0.182l-0.23-1.587l0.033-0.391l-0.122-0.136l-0.492-0.126l-0.727,0.251l-2.213,1.044l-1.899,1.93l-0.872,0.426
				l-0.88,0.176l-1.029-0.333l-1.143-0.218l-1.632,0.488l-0.806-0.225l-0.371-0.394l-0.331-0.6l0.198-0.76l-0.123-0.56l-0.652-0.284
				l-0.757-0.242l-0.451-0.735l-0.182-0.798l0.178-1.04l0.089-1.117l-0.363-0.512l-1.109-0.28l-2.797-0.509l-2.452-0.279
				l-1.028,0.131l-0.838-0.123l-0.486-0.204l-0.235-0.353l-0.013-0.505l0.397-1.163l0.453-1.134l1.137-1.651l0.066-1.145
				l-0.059-1.322l0.563-1.768l0.981-1.325l0.485-0.413l-0.118-0.59l-0.393-0.541l-0.559-0.299l-0.928-0.346l-1.448-0.096
				l-1.986-0.354l-2.299-0.789l0.262-1.511l-0.035-0.948l-0.285-0.778l-0.471-0.553l-0.263-0.494l0.413-1.355l-0.535-1.481
				l-0.633-0.591l-0.651-0.767l-0.049-0.827l0.298-0.771l1.591-1.655l0.013-0.401l-0.393,0.033l-0.457,0.034l-2.175,0.605
				l-0.231-0.38l-0.778-0.221l-1.588-0.044l-1.86,0.11l-2.35,0.592l-2.154,1.036l-0.986,0.711l-0.837,0.442l-0.677,0.143
				l-0.783-0.312l0.045-1.013l1.47-1.863l0.211-1.283l-0.451-1.101l-0.049-0.882l-0.516-0.564l-0.725-0.274l-0.383-0.628
				l-0.025-1.833l0.648-1.889l1.05-0.596l0.638-0.288l0.169-0.367l-0.326-1.324l0.051-0.843l0.63-1.633l0.627-1.239l1.183,0.208
				l0.529-0.306l0.586-0.439l0.641-0.746l0.427-0.883l0.52-2.057l0.357-0.311l1.49,0.34l0.447-0.237l0.816-1.209l0.767-1.471
				l1.116-0.456l0.805-0.046l0.371-0.49l-0.019-0.72l-0.765-1.142l-0.324-0.914l0.095-0.554l1.096-0.338l0.269-0.664l-0.164-1.455
				l0.452-1.75l0.269-2.053l0.09-1.534l-0.011-1.173l-0.108-1.228l-0.156-2.247l-0.501-1.957l0.091-0.735l-0.068-2.376l-0.307-2.029
				l-0.617-0.356l-1.145-0.659l-0.624-0.129l-0.525,0.24l-0.198,0.707l-0.503,0.66l-0.621-0.162l-0.296-0.66l-0.399-0.865
				l-1.328-4.114l-0.145-1.187l-0.234-1.18l-0.448-0.591l-0.473-0.348l-1.06-1.388l-0.559-0.58l-0.272-0.096l-0.582,0.098
				l-0.57,0.003l-0.468-0.693l-0.426-0.846l-0.43-0.417l-0.717-0.232l-0.737,0.093l-0.43,0.733l-0.293,0.417l-0.556,0.975
				l-0.901,1.35l-0.408,0.496l-0.397-0.256l-1.734-1.405l-0.838-0.389l-1.136,0.424l-1.777-0.336l-0.688-0.063l-1.477-1.124
				l-0.603-0.138l-2.102,0.733l-0.465,0.518l-0.272,0.009l-0.56-0.261l-0.461-0.347l-0.03-0.219l0.568-0.549l0.045-0.384
				l-0.03-0.389l0.82-1.105l2.226-2.141l-0.371-0.899l-0.875-1.772l-0.121-0.86l-0.377-0.389l-1.068,0.318l-2.219,1.609
				l-0.302-0.176l0.052-0.558l-0.229-1.622l0.703-0.487l1.077-0.596l0.832-0.665l0.194-0.538l-0.224-0.163l-1.229,0.208
				l-0.484-0.365l-0.796-1.494l-0.588-0.586l-0.532-0.316l-1.806,0.772l-2.099,1.058l-2.338,1.473l0.014,0.755l-0.279,0.194
				l-0.447,0.475l-0.437,0.657l-0.372,0.231l-0.434,0.021l-0.89-0.187l-1.615-0.745l-1.753-0.617l-0.377,0.07l-2.38-0.436
				l-0.076-0.348l-0.357-0.69l-0.677-0.622l-0.649-0.211l-1.862,1.318l-2.101,0.98l-1.199,1.159l-0.985,1.149l-1.128,0.224
				l-0.053,0.71l-0.477,0.638l-0.858,0.786l-1.701,1.002l-1.151,0.539l-3.658,0.493l-1.305,0.335l-0.546,0.527l-0.586,1.335
				l-0.464,1.23l-1.013,1.014l-1.84,1.351l-2.163,1.099l-0.593,0.729l-0.109,0.431l0.266,0.158l0.263,0.327l0.004,0.498
				l-0.282,0.542l-1.414,0.943l-0.793,0.45l-0.791,0.288l-0.887,0.052l-0.852-0.128l-0.236-0.152l-0.339,0.197l-0.777,0.199
				l-0.677,0.063l-1.486,1.044l-0.82,0.009l-1.018-0.226l-1.347-0.181l-0.969-0.002l-0.031-0.553l0.15-1.655l-0.437-0.385
				l-1.348-0.407l-1.512-0.539l-0.73-0.574l-0.406-0.194l-0.567,0.096l-0.913,0.603l-0.867,0.708l-0.684,0.06l-0.701-0.332
				l-0.671-0.432l-2.294-0.613l-1.029-0.093l-1.835,0.104l-1.497-0.127l-0.236-0.187l0.008-0.341l0.221-0.665l0.13-0.656
				l-0.177-0.372l-1.531-0.459l-1.398-0.33l-1.483-0.124l-1,0.231l-0.973,0.514l-0.806,0.924l-1.167,0.405l-1.392,0.69l-0.676,0.643
				l-1.019,1.378l-1.481,1.691l-1.348,1.647l-0.698,1.602l-0.924,1.007l-0.936,0.726l-0.675,1.992l-0.708-0.629l-0.813-0.903
				l-0.19-1.24l0.972-3.313l0.228-1.369l-0.243-0.522l-0.299-1.349l-0.57-0.444l-1.624-0.706l-0.519-0.021l-0.556,0.488l-0.547,0.31
				l-0.723,0.309l-1.812,0.58l-1.611,0.27l-0.386,0.215l-0.121,0.385l0.13,0.459l-1.039-0.173l-1.081-0.1l-0.873,0.064l-2.139,0.875
				l-0.723,0.084l-0.809-0.09l-1.095-0.027l-2.084,0.026l-1.794-0.222l-1.458-1.222l-1.037-0.539l-1.098-0.416l-1.105-0.31
				l-0.37-0.658l-0.35-0.329l-0.914-0.11l-0.721,0.242l-0.452,1.648l-0.384,0.324l-0.917,0.147l-0.962-0.418l-1.33-0.847
				l-0.526-0.943l-0.447-0.307l-0.701,0.417l-0.039,1.206l-0.136,0.81l-0.837,0.329l-0.486-0.241l-0.39-0.832l-0.979-1.973
				l-0.971-1.157l-0.975-0.771l-3.217,0.019l-2.386-0.225l-1.077-0.317l-0.407-0.765l0.395-1.523l0.465-1.192l-0.013-0.277
				l-0.393-0.142l-0.688-0.096l-2.572,0.763l-0.699-0.09l-0.451-0.259l-0.542-0.222l-0.451-0.354l-0.314-0.518l-2.225-1.272
				l-0.657-0.695l-1.185-0.876l-1.002-0.596l-0.638-1.703l-0.574-1.641l-0.318-0.872l-0.954-0.464l-1.034-0.351l-1.749,0.713
				l-1.434,0.546l-1.053,0.055l-1.525-1.682l-1.219-1.822l-1.442-1.586l-0.958-0.798l-1.7-0.075l-1.919-0.899l-2.565-2.036
				l-1.854-1.521l-3.194-1.689l-0.742-0.709l-0.284-0.605l-0.438-1.191l-0.668-1.131l-2.265-0.494l-2.56-0.348l-2.7,0.691
				l-1.948,3.38l-0.937,0.738l-0.803,0.042l-0.658-0.859l-0.545-0.906l-0.298-1.005l-1.345-0.74l-1.523-0.967l-0.777-0.755
				l-0.88-0.472l-0.816-0.203l-1.58-0.638l-1.786-0.72l-0.838-0.098l-0.06-0.513l0.251-1.09l-0.154-1.05l-0.54-0.426l-0.817,0.11
				l-1.886-1.488l-0.072-0.016l-0.023-0.06l-0.537-0.424l-0.928-0.609l-1.567,0.042l-1.188,0.225l-0.868-0.622l-1.258-0.984
				l-0.227-0.22l-0.371-0.36l-1.276-1.901l-1.508-2.252l-0.762-0.33l-0.392,0.17l-0.447,1.197l-0.336-0.12l-0.559,0.082
				l-0.661,0.418l-0.636,0.11l-0.406-0.124l-0.171-0.298l0.181-1.58l-0.383-0.494l0.34-1.101l0.575-0.951l-0.589-0.707l-0.726-1.012
				l-0.077-0.916l0.393-1.156l0.189-0.991l-0.118-0.364l-0.575-0.554l-2.185-2.721l-0.117-0.289l-0.371-0.907l-0.168-1.374
				l-0.286-0.982l-0.334-0.754l0.025-0.353l0.25-0.184l1.368-0.186l1.264-0.116l0.833-0.256l0.431,0.548l0.202,0.839l0.214,0.442
				l0.8,0.795l0.974,0.761l0.946-0.098l0.833-0.326l0.725-1.241l0.512-0.304l0.594-0.055l-0.004-0.092l-0.031-0.801l0.209-1.975
				l-0.072-0.792l-0.269-0.715l0.048-0.794l-0.088-1.157l-0.682-0.79l-0.444-0.302l-0.069-0.426l0.227-0.793l0.162-0.912
				l-0.272-0.777l-0.553-0.345l-0.648-0.588l-0.771-0.788l-0.381-0.576l-0.621-0.635l-0.759-0.984l-0.143-2.163l-0.074-2.279
				l-0.265-1.135l-0.421-1.814l0.061-0.609l0.256-0.464l2.148-1.464l0.467-0.568l0.076-0.432l-0.082-0.645l-0.405-0.714l-0.86-0.556
				l-1.223-0.908l-1.109-0.947l-1.864-0.578l-2.268-0.704l-0.54-0.691l-0.552-1.687l-0.933-2.576l-0.994-2.753l-0.764-1.7
				l-0.036-0.819l0.46-2.091l-0.057-0.446l-0.399-0.154l-0.764,0.273l-0.613,0.332l-0.521-0.173l-0.488-0.349l-0.101-0.121
				l-0.038-0.046l-0.906,0.225l-1.82,0.128l-0.631-0.024l-0.884-0.032l-1.823-0.479l-2.461-0.645l-2.537-0.901l-1.346-0.713
				l-0.473-0.249l-1.15-0.747l-0.821-0.643l-0.147-1.683l-0.591,0.131l-1.398,0.606l-1.611,0.387l-0.887,0.006l-0.36-0.272
				l-0.535-1.775l-0.39-0.5l-0.726-0.197l-0.785-0.314l-0.394-0.465l-0.089-0.585l0.351-0.673l0.415-0.517l0.069-3.17l-0.271-1.125
				l-0.227-0.945l-0.577-1.179l-0.537-0.73l-0.818-0.674l-1.262-0.703l-1.123-0.259l-1.364,0.512l-0.433-0.197l-0.569-2.174
				l-0.363-0.446l-2.421-0.895l-1.097-0.208l-1.259,0.281l-0.719,0.238l-0.577-0.399l-0.904-0.504l-0.887-0.345l-1.101-0.014
				l-0.711,0.217l-0.18-0.127l-0.343-0.398l-1.463-1.202l-0.048-0.306l2.245-1.185l1.321-0.452l0.694-0.361l0.148,0.076l0.341,0.548
				l0.875,0.362l0.614-0.099l0.323-0.276l1.084-0.655l0.848-0.76l0.478-0.627l-0.256-0.988l-1.334-1.193l-0.849-0.641l-0.259-0.432
				l0.217-1.298l0.312-1.289l-0.204-0.492l-0.252-0.42l-0.114-1.411l-0.581-1.705l-0.635-0.996l-0.175-1.343l-0.036-1.262
				l0.768-1.977l-0.284-0.856l-0.809-0.76l-2.775-1.377l-2.844-0.916l-1.083,0.034l-0.673-0.056l-0.793,0.807l-0.478,1.051
				l-0.668,0.094l-1.212-0.447l-0.811-0.673l-0.571-1.41l-0.448-1.816l-0.249-0.569l0.129-0.491l0.278-0.438l0.776-0.409
				l0.129-0.421l-0.116-0.516l-0.623-0.653l-0.641-0.925l-0.999-1.924l0.19-1.061l0.158-1.53l-0.056-0.809l1.01-0.207l1.289-0.414
				l0.598-0.688l0.413-0.702l0.09-0.435l-0.386-1.68l-0.514-0.752l-0.053-0.581l0.251-0.444l0.34-0.768l0.651-1.575l0.635-1.005
				l0.347-0.254l0.777-0.234l1.893-0.277l2.034-0.707l2.417-2.115l0.803-0.603l1.056-0.303l0.753,0.022l0.136-0.259l-0.487-1.313
				l0.119-0.476l0.289-0.375l0.366-0.171l1.669,0.692l1.284-0.072l1.558-0.412l3.362-2.32l0.418,0.037l0.336,0.313l0.407,1.398
				l0.464,2.946l0.255,0.368l2.341,0.041l1.59-1.071l0.697-0.253l1.134,0.174l0.594-0.502l0.628-0.352l0.724,1.234l0.935-0.59
				l1.007-0.939l0.489-0.971l0.685-1.05l0.532-1.332l0.212-1.261l0.256-0.591l0.568-0.608l1.39-2.601l1.006-0.664l0.948-0.238
				l2.348,0.451l1.225-0.057l3.578,0.342l1.653-0.5l1.153-0.497l1.697,0.078l2.007-0.396l2.678-3.273l0.031-0.697l0.163-0.74
				l0.967-0.732l1.205-0.671l2.396-1.607l4.877-2.548l1.744-1.022l0.731,0.028l1.797-0.641l3.151-1.252l0.893-1.559l0.832-0.31
				l3.684-0.281l0.228-0.178l0.133-0.264l-0.204-1.13l-0.238-0.972l0.284-0.287l0.313-0.446l-0.048-0.627l-0.593-2.029l-0.318-1.93
				l-0.209-1.743l0.038-0.651l0.447-1.123l0.577-1.024l2.088-0.955l1.381-0.29l0.057-0.625l-1.118-0.39l-0.809-0.626l-0.146-0.357
				l0.039-0.406l0.189-0.372l1.403-0.699l1.321-0.697l1.612,0.423l0.319-0.27l0.096-0.699l-0.345-0.702l-0.327-1.149l-0.745-0.589
				l-0.028-0.707l0.461-1.22l-0.637-2.263l-0.689-2.001l-1.171-3.434l-0.774-0.992l-0.43-1.588l-0.487-0.835l0.045-1.235
				l0.076-0.869l-0.126-1.727l-0.223-1.875l0.225-1.908l0.432-1.258l-0.115-0.482l0.23-0.362l0.66-0.121l0.313-0.515l-0.313-0.53
				l-1.137-0.409l-1.271-0.638l-1.529,0.073l-1.57,0.11l-0.782-0.472l-0.683-0.602l-0.041-0.388l0.941-1.02l1.31-1.056l2.031-0.467
				l2.244-0.697l1.132-0.507l1.509-0.365l1.746-0.153l0.88,0.106l2.247-0.677l3.538-1.31l3.212-1.1l1.081-0.656l0.804,0.656
				l0.37,1.443l0.935,0.747l0.931,0.361l0.533-0.017l1.604-0.561l1.729-0.412l0.683,0.225l0.88,0.738l0.986,0.66l0.514-0.032
				l0.451-0.508l0.456-1.029l0.29-1.313l0.056-1.385l-0.17-0.85l-0.35-0.313l-1.573-0.502l-1.502-0.819l-0.174-0.749l0.036-0.534
				l0.395-1.312l0.98-2.409l0.986-3.338l0.521-2.64l1.648-3.951l1.296-4.139l2.102-5.977l0.351-1.185l0.192-1.899l0.113-0.784
				l0.731-0.413l1.235,0.402l3.01,1.373l2.29,1.151l0.96,0.39l1.426,0.408l2.204,0.48l1.274-0.142l1.118-0.283l1.487-0.025
				l2.326,0.358l0.719,0.014l0.893,0.046l0.636,0.579l0.318,1.315l0.482,0.589l0.866-0.218l1.851-1.158l1.182-0.912l1.477-1.32
				l1.465-0.182l1.555-0.295l0.54-0.656l0.571-1.545l0.954-1.167l0.158-1.479l-0.337-1.044l-0.663-1.705l0.02-1.15l-0.32-3.343
				l-0.428-3.019l0.436-2.438l0.77-2.731l0.303-0.837l0.488-1.103l0.688-1.32l0.967-0.415l2.719-0.283l2.517-0.557l1.285-0.573
				l1.331-0.346l0.794-0.42l1.374-1.937l0.651-1.118l0.479-2.974l-0.351-1.433l0.294-1.268l0.663-0.747l0.933-0.747l0.625-0.128
				l1.329-0.226l2.18,0.074l1.116,0.367l1.128,0.168l0.715-0.272l0.477-0.567l0.73-0.182l1.103-0.272l1.131-0.341l0.622,0.064
				l0.131,0.842l-0.107,0.66l0.221,0.884l0.451,0.581l-0.148,0.632l-0.637,0.365l-0.627,0.492l-0.138,0.673l0.793,0.836l0.272,0.802
				l1.326,0.479l1.03,0.54l0.386,0.516l-0.118,0.583l-0.475,0.628l-0.461,0.673L205.175,125l0.148,0.469l0.996,0.313l1.149,0.52
				l1.824,0.669l1.25,1.24l1.239,0.342l0.597,1.209l0.11,1.751l1.272,0.892l1.88,1.236l0.955,0.228l0.641,0.7l0.92,0.849
				l0.817,0.266l0.969,0.122l1.605-0.787l1.794-0.075l0.982,0.45l0.932,1.697l0.657,0.535l0.39,0.476l0.631,0.455l0.64,0.066
				l0.951-0.376l0.58-0.75l0.832,0.154l0.312,0.486l0.152,0.837l0.44,1.037l1.055,0.771l1.469,0.462l0.209,0.374l0.202,1.035
				l0.399,0.716l0.535,0.932l0.508,1.7l0.108,1.404l0.237,0.771l0.682,1.256l1.087,2.003l0.867,1.696l1.003,0.329l0.852,0.538
				l0.488,1.249l0.904,2.35l0.146,1.536l0.077,1.14l0.296,0.517l0.06,0.646l-0.75,2.452l-0.639,1.106l-0.081,0.93l0.433,1.616
				l0.591,1.25l0.06,1.195l-0.505,0.875l-0.873,1.093l-0.417,0.624l-0.68,0.548l-1.036,2.108l-0.468,2.325l-0.107,1.196l0.392,0.864
				l0.663,0.951l0.163,0.824l1.082,1.835l0.289,1.136l0.441,0.036l0.477-0.374l1.158-0.026l1.054,0.399l1.01,0.839l1.085,0.448
				l1.549-0.113l0.83,0.45l0.893,0.369l1.844,0.128l1.382-0.007l2.127,0.014l1.717,0.564l3.018,0.446l1.864-0.035l2.511-0.419
				l1.54,0.264l4.546,0.627l2.666,0.655l1.685,0.736l1.188,1.167l1.357,1.817l1.078,0.83l2.901,0.501l1.988,2.113l1.557,0.789
				l2.616,2.04l1.851,0.795l2.209,0.734l3.611-0.312l0.198,0.277l-0.278,1.105l-0.217,1.511v1.092l0.371,0.556l1.38,0.329
				l0.652,0.536l0.5,1.026l0.289,0.642l1.155,3.143l1.859,4.63l0.211,1.773l0.636,1.142l2.016,1.811l1.06,1.338l1.575,1.404
				l0.516,1.298l0.118,1.673l0.398,0.431l2.882-0.383l2.496-0.268l4.478-0.482l6.168,0.873l6.361,0.843l5.625,0.746l2.771,0.366
				l6.261,0.781l3.479-0.996l2.72-0.78l1.232,0.107l5.2,0.878l3.046,0.472l3.839,0.593l2.665,0.218l2.182-0.014l1.007,0.247
				l0.972,0.382l0.648,0.556l1.995,2.812l1.118,1.237l2.207,0.933l5.03,1.066l2.784,0.647l3.197,0.742l2.103,1.117l2.426,1.298
				l3.142,1.679l3.438-0.733l3.7-0.79l2.32-0.496v3.504l3.309,0.281l1.042-0.042l1.462,0.773l0.824-0.327l0.779-0.759l0.981-1.199
				l1.41-0.527l2.436-1.347l0.593-0.327l3.619-1.913l5.403-2.364l2.422-1.147l0.725-0.255l1.371-0.586l0.924-0.407l1.635-0.326
				l2.219-0.205l2.423-0.449l5.484-0.838l0.688-0.079l3.081-0.346l1.309-0.326l1.956,0.171l2.554,0.121l1.692,0.214l2.25-0.168
				l3.09-0.229l2.502,0.036l1.242-0.285l1.831-0.886l1.232-0.703l1.932-0.853l2.394-0.884l1.669-0.805l1.106-0.533l1.34-0.505
				l0.351-0.651l0.386-0.499l0.711-0.835l1.281-1.558l0.974-1.365l0.48-0.605l1.094-1.367l0.886-1.032l1.129-1.391l0.953-0.45
				l1.205-0.383l3.176-1.367l0.63-0.295l0.527-0.058l1.123-1.105l0.948-0.958l0.617-0.719l1.286-0.258l0.662-0.518l0.116-0.68
				l-0.134-1.037l-0.618-1.062l-0.521-0.927l-1.84-1.772l-0.975-1.1l-0.996-1.415l-0.403-1.333l-0.681-0.849l-0.329-0.752
				l0.104-0.87l0.944-1.55l0.304-0.979l0.393-1.734l0.887-2.601l0.723-1.217l0.837-1.19l1.766-1.602l1.617-0.298l0.965,0.317
				l2.153-0.002l1.433,0.082l1.057,0.801l1.171,1.579l1.321,0.579l4.118,1.235l1.763,0.262l1.26,0.054l1.859,0.409l0.628,0.086
				l0.951,0.281l0.789-0.3l1.196-1.054l1.501-1.187l0.647-0.273l1.195-0.512l0.601-0.483l1.047-1.333l1.366-1.035l1.659-1.557
				l0.819-1.176l0.18-0.759l0.18-0.823l0.516-0.433l1.012-0.397l1.135-0.108l2.169,0.706l2.924-0.204l0.659-0.102l2.667-0.406
				l1.202-0.333l1.702-0.32l1.299-1.308l1.743-1.563l1.266-0.87l0.845-0.167l1.055-0.903l0.516-0.973l-0.138-0.855l-0.194-0.708
				l0.62-1.311l1.118-2.304l1.048-1.075l0.864-0.87l0.552-1.398l0.682-0.404l0.836-0.154l1.179-0.949l0.866-0.196l1.439,0.454
				l2.129,0.116l1.359,0.049l0.773-0.169l0.283-0.509l-0.007-0.788l0.431-1.756l0.161-0.58l0.391-0.267l1.307-0.036l0.885,0.632
				l0.608,0.521l0.843,0.068l0.868-0.34l1.165-1.423l1.933-0.825l1.028-0.209l1.825-0.672l1.15,0.242l2.116,0.197l0.82-0.171
				l0.892,0.171l0.81-0.964l0.644-0.23l1.36,0.443l0.858,0.746l1.605,0.934l2.04,0.434l1.709-0.224l1.757,0.396l1.039-0.036
				l0.491-0.37l1.439-0.785l0.345-1.06l-0.141-1.025l0.164-1.162l-0.423-0.855l-0.892-1.267l-0.344-0.847l-0.032-1.108l-0.554-1.056
				l-1.333-1.277l-0.88-0.59l-1.806-2.208l-0.609-0.518l-0.209-0.364l-0.214-0.743l-0.668-0.353l-0.875-0.578l-0.474-0.591
				l-0.309-1.026l-0.184-0.674l-0.773-0.555l-0.775-0.313l-0.875-0.395l-1.446-0.579l-0.834-1.153l-1.475-2.161l-0.833-0.729
				l-3.11-0.278l-1.112-0.527l-1.264,0.178l-0.753,0.346l-1.668-0.004l-0.866,0.214l-1.102,1.424l-1.458,1.85l-1.205,1.129
				l-0.854,1.168l-0.399,0.419l-0.779-0.252l-1.068-1.316l-1.53-1.179l-1.419-0.538l-0.607-0.295l-1.69-0.298l-1.305,0.094
				l-1.664,0.445l-1.625-0.08l-0.733-0.282l-1.034,0.03l-1.879,1.225l-0.973,1.394l-1.149,0.435l-1.04-0.914l-1.202-1.082
				l-1.145-1.354l-0.706-1.255l-0.391-3.33l1.374-0.994l1.756-1.115l0.133-1.767l-0.059-1.974l0.346-2.198l1.602-2.033l0.861-1.688
				l0.107-1.051l0.768-1.751l0.738-1.85l1.006-2.433l1.908-4.333l2.254-5.146l1.124-2.578l2.471,1.596l1.595,0.831l2.691,1.261
				l2.783,0.285l2.659,1.36l1.372,0.412l0.731,0.001l3.764-3.315l3.184-2.815l3.658-2.202l2.686-0.298l2.018-0.644l1.351-0.99
				l0.796-1.654l0.243-2.323l-0.537-1.407l-1.318-0.487l-0.339-0.492l0.637-0.499l0.471-0.973l0.298-1.448l0.762-1.376l1.222-1.304
				l0.674-1.447l0.127-1.591l0.735-1.59l1.34-1.587l0.733-1.48l0.128-1.371l0.679-1.675l1.848-2.976l1.201-3.439l2.044-2.363
				l3.287-2.432l2.054-2.419l0.821-2.406l-0.063-2.128l-0.951-1.849l-0.181-1.884l0.587-1.921l-0.517-1.439l-1.623-0.955
				l-1.935-0.236l-2.251,0.484l-1.264-0.601l-0.279-1.687l0.603-1.366l1.486-1.045l2.441-2.548l3.399-4.065l3.381-2.258l5.047-0.651
				l4.068-1.337l4.145-1.365l2.991-0.676l0.509,0.453l1.63,0.111l2.751-0.232l2.558-0.588l2.361-0.945L629.882,30l1.375,0.501
				l0.786,0.027l0.544,0.06l0.3-0.004l0.577-0.401l1.6,0.717l3.05,2.122l1.918,0.943l0.789-0.229l0.859,0.587l0.934,1.403
				l1.163,0.828l2.09,0.38l2.073,1.536l0.839,0.082l0.295-0.858l0.772-0.493l1.251-0.127l1.81,0.757l2.366,1.64l1.484,0.721
				l0.601-0.197l0.637,0.303l0.513,0.769l0.043,0.944l-0.175,0.507l0.569,0.797h0.657l1.07,0.381l0.838,1.406l0.753,0.65
				l0.527,0.563l0.095,0.467l0.049,0.472l-0.157,0.366l-0.286,0.602l-0.087,0.648l0.359,0.728l1.331,0.527l0.454,0.542l0.102,0.695
				l0.417,0.768l0.905,0.886l0.346,0.741l-0.21,0.596l0.265,0.498l0.447,0.387l0.096,1.41l0.04,0.812l0.73,0.909l0.15,1.856
				l0.51,2.052l1.72,2.805l0.566,1.515l-0.146,1.799l0.246,0.841l0.785,0.41l0.372,0.759l-0.045,1.109l0.307,0.688l0.245,0.732
				l-0.168,1.137l0.248,1.026l0.4,0.598l0.286,1.106l0.16,1.379l1.149,2.178l2.137,2.973l1.307,2.302l0.479,1.638l0.004,1.345
				l-0.468,1.054l-0.026,0.766l0.418,0.479l0.124,0.648l-0.168,0.817l0.698,0.968l2.342,1.679l-0.936,2.567l-0.246,1.802
				l0.128,1.891l0.581,1.331l1.033,0.772l0.642,0.806l0.252,0.838l1.239,0.914l2.227,0.989l2.854,0.172l3.481-0.646l2.13-0.109
				l0.781,0.429l0.264,0.648l-0.249,0.87l0.589,0.571l1.429,0.274l0.986,0.547l0.539,0.821l0.661,0.232l0.782-0.356l0.76,0.05
				l0.738,0.456l0.484-0.156l0.415-0.499h0.674l0.69,0.012l0.427,1.203l0.694,0.676l0.958,0.15l1.46,1.462l2.938,4.146l1.909,1.47
				l1.914,0.461l2.378,0.094l0.77,1.601l-0.62,1.69l-0.162,1.408l0.542,0.504l0.744,1.651l1.054,0.958l0.2,0.757l0.49,0.846
				l-0.205,1.565l-0.902,2.282l0.246,1.944l1.394,1.607l0.803,1.546l0.209,1.482l0.35,0.899l0.491,0.318l1.432-0.11l2.373-0.537
				l1.741,0.093l1.111,0.722l2.746,0.027l4.381-0.667l2.768-0.205l1.155,0.258l1.029-0.953l0.901-2.17l0.845-1.022l0.789,0.128
				l1.253-0.698l1.718-1.528l1.489-0.74l1.888,0.075l2.009,0.078l1.26-0.643l1.184-1.342l2.048-1.188l4.37-1.553l1.051-0.244
				l0.5,0.083l1.456,0.244l1.291,0.605l1.222,1.221l0.188,0.782l-0.138,1.027l-0.265,0.595l-0.503,0.668l-0.473,1.083l0.304,0.847
				l0.709,1.805l0.581,1.3l0.646,1.532l-0.291,0.551l-0.388,1.06l-1.197,1.793l-0.653,0.687l-0.702,0.67l-1.213,0.162l-0.518,0.155
				l-0.585,0.282l-0.37,0.634l-0.419,0.444l-0.691,0.891l-0.056,0.767l0.316,1.138l0.155,1.166l-0.784,1.04l-0.607,1.597
				l-0.181,0.48l-0.305,1.207l-0.089,0.417l-0.191,2.536l-0.783,1.727l-1.093,2.006l0.242,1.192l0.193,1.105l-0.27,0.536
				l-0.066,0.467l-0.162,1.063l-0.343,0.407l-0.993,0.663l-0.595,0.799l0.125,1.211l-0.305,1.047l-0.455,0.926l-0.479,0.601
				l-0.683,0.388l-0.458,0.327l-0.342,1.175l-0.107,0.907l-0.32,0.902l0.198,0.923l-0.351,0.797l-0.973,0.556l-0.552,0.327
				l-0.512,0.134l-0.973,0.862l-0.873,2.958l-0.198,1.719l0.2,1.525l-1.223,0.953l-0.91,0.757l-0.568-0.273l-0.602-0.256
				l-1.388-0.33l-0.691-0.223l-1.401-0.494l-2.236-0.631l-2.183-0.736l-1.37-0.386l-1.08-0.307l-0.82-0.506l-0.69-0.905
				l-0.684,0.368l-0.635,1.066l-1.059,0.633l-0.481,1.169l-0.424,0.898l-1.096,1.195l-0.488,0.493l-2.146,0.811l-0.485,0.27
				l-1.75,0.172l-0.593,0.357l-0.617,0.753l-0.167,0.749l0.434,0.788l0.682,1.576l0.316,1.077l0.467,2.125l1.556,6.65l-0.505,1.144
				l-0.469,4.952l0.113,0.892l-0.042,1.386l0.028,1.016l0.321,0.25l0.418,0.353l0.215,0.594l-0.054,0.906l-0.216,0.666l-0.33,1.314
				l-0.437,1.898l-0.481,0.731l-0.319,0.576l-0.275,0.399l-0.032,1.339l-0.18,0.884l-0.757,0.313l-0.753,0.512l-0.893-0.189
				l-0.784,0.106l-0.972,0.343l-1.745,0.395l-1.013,0.531l-0.483,0.386l-0.336,0.462l-0.059,0.443l0.232,0.233l0.978,0.183
				l0.672,0.831l0.095,0.909l-0.691,0.519l-0.345-0.571l-0.576-0.182l-1.076-0.8l-0.783-0.881l-0.588-0.975l0.026-2.086
				l-0.102-0.314l-1.07-0.428l-0.318-0.622l-0.507-0.297l-0.725,0.189l-0.544-0.201l-0.43-0.34l-0.516-0.041l-0.447,0.541
				l-0.235,1.159l-0.749,1.921l-0.069,1.159l-0.324,1.655l-0.322,2.093l-0.263,0.436l-0.84,0.063l-0.289,0.136l-0.436,0.71
				l-0.527,0.12l-0.467-0.416l-0.736-0.415l-0.695-0.054l-0.627,0.416l-0.735,0.903l-0.418,0.731l-0.149,0.682l-0.119,0.843
				l-0.743,0.807l-0.678,0.422l-1.401,1.187l-0.447,0.493l-1.005,0.006l-1.091-0.046l-1.469,0.32l-2.398,0.163l-1.435-0.24
				l-1.774,0.226l-1.381,0.389l-0.198,0.578l0.05,0.855l0.278,0.558l0.338,0.373l0.574,1.147l0.598,1.108l0.914,0.716l0.378,0.768
				l0.02,0.714l-0.433,0.9l-0.656,1.175l-0.611,0.722l-0.459-0.024l-0.703-0.421l-0.477-0.528l-1.135-0.199l-2.775,0.338
				l-1.388-0.236l-0.663-0.431l-1.162-0.033l-1.797-0.576l-1.095-0.184l-0.516-0.371l-0.1-0.846l-0.518-0.583l-0.289-0.698
				l-0.654-0.877l-0.627-0.44l-0.616-0.186l-0.676,0.531l-0.716,0.478l-0.536-0.107l-0.258,0.133l-0.296,0.395l-1.15,0.816
				l-0.276,0.747l-0.459,1.58l-0.319,1.622l-0.278,0.573l-0.468,0.099l-0.477,0.487l-0.999,1.524l-0.902,1.398l-1.311,0.946
				l-0.617,0.867l-0.317,0.787l-0.934,1.1l-1.372,0.196l-1.093,0.32l-0.669,0.084l-0.481,0.444l-0.35,0.677l-0.169,0.268h-0.616
				l-0.616,0.575l-1.51,1.305l-1.231,0.241l-1.544,0.871l-1.358,0.661l-0.564,0.372l-0.151,0.41l-0.198,0.521l-0.656,0.104
				l-0.636-0.026l-1.411,1.196l-0.716,1.013l-2.78,2.158l-1.135,1.212l-0.295,1.567l-0.146-0.118l-0.992,1.365l-1.943,1.297
				l-4.153,0.29l-1.313-0.923l-0.477,0.636l-0.367,0.852l-1.089,0.284l-1.705,0.077l-0.952,0.561l-0.509,0.627l-2.335,0.203
				l-0.857,0.833l-1.453,0.297l-6.071,3.64l-1.32,1.528l-1.251,1.783l-0.88,0.896l-0.785,0.626l-0.717,0.257l-0.701,0.617
				l-0.711,0.078l-0.725-0.281l-0.812,0.096l-0.534,0.748l0.452,0.97l-0.246,0.411l-1.595,0.527l-2.368,0.347l-1.007,0.633
				l-0.347,0.36l-0.527,0.182l-0.503-1.253l-0.18-1.653l0.98-0.398l0.901-0.209l5.006-2.287l-0.628-1.721l0.444-0.751l1.121-1.219
				l0.729-0.603l-0.397-0.222l-3.28,0.402l-1.885-0.03l-0.963-0.123l0.292-1.045l-0.162-1.043l-0.226-0.392l1.67-1.189l0.758-0.294
				l0.577,0.018l-0.04-0.72l-0.481-1.084l0.519-1.401l3.408-1.649l0.817-1.498l1.368-1.4l2.501-3.488l0.149-0.594l0.728-1.638
				l0.134-0.656l-1.157-0.96l-0.46-1.348l-3.385-2.432l-0.287-2.094l-0.316,0.091l-0.516,1.467l-0.437,0.471l-1.567,0.043
				l-0.743-0.554l-4.357-0.362l-1.064,0.945l-0.997,1.462l-0.969,1.043l-0.973,0.535l-0.848,0.949l-3.504,5.63l-1.324,0.425
				l-6.232,3.386l-3.116,1.324l-2.403,2.34l-0.826,1.414l-0.733,1.565l-0.441,2.37l-2.217,2.873l-0.759,0.615l-0.777,0.25
				l-1.032-0.088l-0.889,0.179l-1.515-0.253l-1.855,0.908l-2.092,0.785l-1.803-1.975l-1.285-0.49l-2.105,0.548l-0.974,0.877
				l-2.018,4.336l-0.756,2.478l0.048,1.016l1.181,3.074l1.33,1.718l2.983,1.955l6.349,1.346l1.488-0.478l1.597-0.005l1.683,1.276
				l1.052,2.107l0.097,1.437l0.034,0.495l0.383,0.423l0.227,0.724l-0.669,0.6l-0.513,0.297l-0.432,2.223l-0.027,2.455l0.547,0.813
				l1.366,1.141l2.11,0.944l1.953,0.203l3.733-0.455l1.526-1.477l-0.09-0.638l0.035-0.828l3.28-2.173l1.871-1.927l-0.293-0.511
				l-0.359-0.34l0.33-0.198l1.027-0.135l4.565-2.012l3.593,1.646l2.049,1.89l2.026,0.32l1.408,0.965l1.622,0.825l2.117,0.056
				l1.784,0.171l0.544-0.76l0.559-0.5l0.636,0.099l0.716,0.998l2.026,0.767l1.87-0.04l1.311-0.278l0.777,0.355l-1.125,1.278
				l0.168,2.057l-0.863,0.65l-0.827,1.046l0.489,0.687l0.433,0.294l-0.045,0.836l-0.753,0.474l-1.395,1.24l-0.802-0.024l-0.384-0.24
				l-0.271-0.444l-0.198-0.713l-0.491-0.471l-1.357-0.181l-1.404,0.169l-3.161,1.842l-3.083,1.464l-3.233,1.163l-1.084,0.732
				l-0.767,0.2l-1.339-0.555l-0.813,0.035l-0.17,0.381l1.033,1.018l0.269,0.798l-0.11,0.612l-0.586,0.269l-0.852-0.449l-0.777,0.64
				l-0.352,1.078l-0.015,2.557l-0.518,0.569l-1.425,0.315l-1.517,0.812l-0.539-0.375l-0.216-0.458l0.158-1.176l-0.189-0.574
				l-0.692,0.03l-1.043,0.352l-0.797,0.773l-0.275,0.465l1.049,1.501l1.001,0.152l0.24,0.337l-0.79,0.732l-1.975,1.09l-0.327,0.911
				l-0.586,0.872l-0.805,0.693l-0.547,0.73l-0.669,0.382l-1.091,0.427l-1.338,1.747l-0.985,1.634l-1.163,0.838l-0.923,2.747
				l-1.647,1.491l-0.607,2.378l0.428,1.462l1.807-0.014l0.906,0.513l1.877,1.919l2.245,1.249l2.331,0.702l2.858,1.77l0.784,0.748
				l0.672,1.519l1.238,4.368l0.891,2.157l0.06,1.125l1.332,2.12l1.428,3.636l1.642,3.144l0.316,2.469l-0.533,1.126l0.002,1.46
				l1.643,1.339l3.646,1.556l0.581,0.457l0.712,0.753l0.035,2.344l0.563,0.748l0.478,0.455l2.207,0.989l0.924,0.82l0.978,1.312
				l0.288,1.173l0.12,1.588l-1.235,0.057l-0.994-0.178l-3.953-2.063l-1.028-0.055l-1.449,0.287l-2.07-0.381l-2.185-2.288
				l-1.576-0.696l-1.688-0.35l-4.038,1.971l-1.026-0.138L591,388.025l-0.456,0.338l1.871,0.422l1.873-0.645l1.799-0.955l2.624,0.509
				l0.441,0.858l0.427,1.452l1.799,0.979l1.416,0.433l1.797,1.284l1.756,2.003l3.721,2.32l1.506,2.194l0.583,1.414l0.522,2.017
				l-1.304,0.65l-1.132,0.092l-1.774,0.318l-1.305,0.712l-1.31,1.253l-3.753,1.966l-0.714,1.229l-0.49,1.069l-0.913,0.526
				l-2.301-0.502l-2.165,0.042l-2.455,1.445l-0.611,0.585l0.407-0.114l0.385-0.187l1.106,0.216l1.706-0.771l1.669,2.351l3.258-0.38
				l3.063-1.953l1.185-0.033l0.993,0.301l1.107,0.771l2.947,3.421l1.615,0.372l1.587,0.801l0.877,0.088l0.789,0.239l-2.129,1.25
				l-2.754,2.696l-1.225,0.643l-0.822,0.721l2.213-0.363l1.58-1.287l0.794-0.318l0.64,0.301l0.326,1.584l-0.608,4.876l-0.772,0.084
				l-0.753-1.325l-0.881-0.42l-0.739,0.277l-1.469-0.008l-0.56,0.597l-0.474,0.846l0.88,0.176l1.731,1.475l0.177,0.785l-0.465,0.508
				l-1.213-0.218l1.472,1.099l-0.39,1.139l-0.478,0.451l-0.856,0.288l-0.528,0.985l0.756,1.638l0.769,2.1l0.095,1.011l-1.202-0.436
				l-1.867,1.281l-0.989,0.105l-0.667-1.684l-0.854,0.265l-0.568,0.491l-0.757,1.808l-0.924,1.63l-0.794,0.448l-0.955-0.128
				l-0.785,0.046l0.19,0.44l0.836,0.537v0.627l-1.777,1.985l-0.286,0.766l0.042,0.654l-0.929,0.792l0.5,1.33l-0.259,0.939
				l-0.813,1.266l-0.856,0.835l-1.01,1.354l-1.272,0.785l-1.684,2.829l-0.494,1.413l-0.129,1.46l-0.526,0.505l-0.904,0.635
				l-1.028-0.322l-0.033-0.97l-0.446-0.084l-0.253-0.637l-0.074-0.813l0.109-0.653l-0.427,0.199l-0.264,0.76l-0.676,0.616
				l-0.708-0.249l-0.762-0.505l0.021,0.729l0.405,0.73l0.175,0.731l1.055,0.157l0.706,0.839l0.557,1.288l0.11,0.481l0.434,0.577
				l0.055,0.491l-1.007,0.454l-1.257,0.849l-1.509,1.453l-1.25,0.967l-1.122,0.009l-0.681-0.113l-0.973-0.557l-1.114-0.231
				l1.494,1.955l0.82,0.347l1.03-0.075l0.999-0.729l1.416,0.075l0.354,1.128l-0.377,1.272l-0.77,1.648l-0.161,1.424l0.958,2.037
				l0.04,0.612l-0.357,0.306l-1.124-0.537l-0.931-0.675l-0.938,0.177l-0.969-0.288l-0.997,0.241l-0.406,0.47l0.277,0.775
				l0.892,0.644l0.505,0.989l-0.601,0.347l-2.535-0.231l-0.566,0.187l-0.758,1.089l0.495,1.61l-0.56,1l-1.046,0.234l-1.377,0.808
				l-0.848,0.188l0.04,0.348l0.62,0.352l0.329,0.476l-0.746,1.64l-1.162,0.54l-1.783-0.268l-1.402,0.368l-1.211-0.698l-1.291-0.015
				l-0.88,0.882l-0.095,1.024l-0.852,0.102l-0.459-0.074l-0.651,0.073l0.067,0.549l0.37,0.48l1.745,0.213l0.317,0.689l0.066,1.063
				l-1.826,1.829l-0.777,1.232l-1.175-0.033l-0.887,0.988l-0.477,1.34l-0.589-0.265L559.665,498l-0.4,0.638l0.318,0.264l0.032,0.46
				l-0.543,1.504l-0.593,0.422l-0.252-0.615l-0.191-0.953l-0.48-0.073l-0.791,0.878l-0.924,0.629l-0.789,0.261l-0.597-0.583
				l-1.468-0.303l-0.597,2.524l-1.218,0.919l-0.57,0.287l-0.994,0.086l0.636,0.344l0.198,0.645l-0.357,0.645l-0.994,0.129
				l-0.578,0.501l-0.222,2.249l-0.59,0.788l-1.504,0.063l-1.125-0.523l-0.358,0.413l-0.189,0.401l-0.588,0.405l-1.139,0.108
				l-2.529,1.005l-1.157-0.29l-1.387-0.382l-0.953,0.372l-0.318,0.771l-0.436,0.6h-1.392l-1.113-0.74l-1.131-0.535l-1.253,0.461
				l-0.954,0.943l-1.173,0.315l-0.217,0.584l-0.512,0.294l-1.243-0.123l-0.472-1.456l-0.715-0.214l-0.708,0.736l-0.25,0.575
				l-0.331,0.433l0.117,1.187l-0.697,0.024l-0.914-0.727l-0.955-0.129l-0.897,0.676l-0.454-0.168l-0.481-0.143h-0.785l-0.3,0.178
				l-0.57,0.107l-0.386,0.369l-0.034,0.033l-1.013-0.247l-1.236-0.986l-0.887-1.637l-1.122-0.881l-0.499-0.775l-0.195-1.394
				l-0.205-0.664l0.07-0.739l0.34-0.657l-1.211,0.33l-0.894,0.611l0.181,0.771l-0.222,0.715l-1.332,0.371l0.081,0.301l0.085,0.314
				l1.048,0.975l0.214,0.82l0.42,0.437l0.82,1.273l-0.019,2.456l0.449,0.693l-0.149,0.687l-0.329,0.93l-0.028,0.014l-0.237-0.282
				l-0.395,0.057l-0.157,0.311l-0.026,0.283l-0.066,0.014l-0.694,0.207l-0.581,0.174l-0.476,0.251l-0.737,0.73l-1.411,0.178
				l-0.724-1.715l-0.968,1.143l-0.293,2.334l-0.359,0.398l-0.602,0.333l-1.144-0.814l-1,0.545l-0.777,0.552l-0.32,0.51l-0.574,0.554
				l-1.101-0.534l-0.883-0.802l0.218-0.602l-0.122-0.396l-0.399-0.299l-0.438,0.043l0.214,0.78l0.148,1.497l-0.4,0.433l-0.618,0.333
				l-1.341-0.276l-0.915-0.558l-1.105-0.47l-0.976-0.086l-0.21,0.944l-0.637,0.761l-0.587,0.095l-0.584-0.122l-0.77,0.823
				l-0.364,0.601l-0.948,0.635l-2.528,0.308l-0.88,0.629l-1.184-0.1l-0.918,0.15l-0.525-0.032l-0.474-0.337l-0.532-0.009
				l-0.242,1.046l-1.427,0.44l-1.285,0.121l-1.429,1.378l-1.021,0.834l-0.756,0.085l-0.556-0.297l-0.282-1.235l-0.284-0.144
				l-0.162,1.159l-0.275,0.966l-0.522,0.525l-1.654,1.2l-0.475,1.19l0.317,1.1l2.224,0.268l0.277,0.602l-0.216,0.492l-0.533,0.41
				l-0.157,0.616l2.385,1.958l0.073,0.743l-0.368,0.423l-0.449,0.911l-1.259,0.772l-2.663,0.396l-2.219-0.4l-0.672-0.878l0.04-0.625
				l0.55,0.182l0.628-0.056l-0.187-0.572l-0.264-0.334l-1.026-0.509l-0.83-1.373l0.16-1.144l-0.455-0.884l-0.494-0.742l-0.499-0.446
				l-0.266-0.553l0.503-1.738l-0.279-1.01l0.948-1.239l0.234-1.399l1.7-0.5l0.116-1.336l-1.216-0.039l-0.844-0.982l-0.192,0.412
				l-0.678,0.043l-1.113-1.893l-0.336-0.239l-0.54-0.036l0.271,1.998l-1.304,0.751l-1.068,0.328l-1.517,0.135l-0.863,0.229
				l-0.806-0.189l0.199-0.604l0.425-0.722l-0.381-0.602l-0.855-0.463l-1.307,0.027l-0.906-0.129l-0.898,0.052l-0.333-0.267
				l-0.834-0.944l-0.705-0.589l-0.318-0.586l0.318-0.681l-0.265-0.414l-1.368-0.046l0.012,0.976l0.141,1.15l0.398,0.875
				l-0.283,0.488l-0.695,0.336l-0.739-0.924l-0.339-0.228l-0.358,0.044l-0.272,0.92l-0.671,0.816l-1.21-0.087l-0.94,0.504
				L445.578,528.209z M480.621,547.577l0.595,0.564l0.39,0.816l0.324,1.506l0.192,1.386l-1.213,0.88l-1.087,0.357l-2.179,3.378
				l-0.454,1.065l-0.372,0.445l-0.116,0.464l0.042,0.463l-0.561,1.621l-0.501,1.99l-0.317,0.816l-0.622,0.626l-0.791,0.316
				l-0.515,0.047l-0.469,0.174l-1.148,1.083l-1.294,0.814l0.215,0.373l0.012,0.353l-0.567,0.394l-0.631-0.073l-1.827,0.32
				l-0.671,0.609l-0.685,1.122l-0.26,0.151l-1.1,0.262L464.165,570l-1.433-0.79l-0.711-0.233l-1.895-0.321l-1.842-0.536
				l-1.293-0.608l-2.652-1.5l-0.306-2.71l-0.457-1.465l-0.029-0.523l0.173-4.517l0.187-0.494l0.337-0.433l1.171-1.011l1.344-0.8
				l1.924-1.676l1.396-0.768l1.172-1.104l-0.686,0.047l-0.506-0.14l0.499-0.944l0.535-0.506l0.617-0.276l1.242,0.198l1.148-0.196
				l0.849-0.84l0.806-0.179l3.063,0.275l2.124-0.384l1.064-0.773l0.502-0.03l1.569,0.219l0.581,0.804l-0.052-0.539l0.067-0.524
				l0.289,0.057l2.05,0.996l0.007-1.222l0.115-0.32l0.642-0.511l0.322,0.009l0.793,0.987l0.776,0.573L480.621,547.577z"/>
		</defs>
		<clipPath id="SVGID_2_">
			<use xlink:href="#SVGID_1_"  style="overflow:visible;"/>
		</clipPath>
		<rect x="-5" y="30" class="st0" width="810" height="540"/>
		<g transform="translate(5,5) scale(3)" class="st1">
			<path id="s" class="st2" d="M170.598,244.035l35.725,109.95l-93.529-67.953h115.609l-93.529,67.953L170.598,244.035z"/>
		</g>
		<g transform="translate(10,2) rotate(23.036243)" class="st1">
			<path class="st2" d="M279.825,225.391l-3.383,38.387l-19.827-33.045l35.463,15.08l-37.554,8.645L279.825,225.391z"/>
		</g>
		<g transform="translate(12,4) rotate(45.869898)" class="st1">
			<path class="st2" d="M326.958,270.448l-18.014,34.066l-5.45-38.149l26.832,27.66l-37.966-6.606L326.958,270.448z"/>
		</g>
		<g transform="translate(12,7) rotate(69.945396)" class="st1">
			<path class="st2" d="M331.447,338.386l-30.344,23.754l10.587-37.054l13.215,36.2l-31.969-21.519L331.447,338.386z"/>
		</g>
		<g transform="translate(10,9) rotate(20.659808)" class="st1">
			<path class="st2" d="M279.045,366.896l-1.788,38.495l-21.18-32.194l36.058,13.596l-37.163,10.195L279.045,366.896z"/>
		</g>
	</g>
</g>
<g id="Copyright">
	<text transform="matrix(1 0 0 1 681.6426 577.5916)" class="st3 st4">© Vemaps.com</text>
</g>
</svg>
