<?xml version="1.0" encoding="utf-8"?>
<!-- Generator: Adobe Illustrator 19.1.0, SVG Export Plug-In . SVG Version: 6.00 Build 0)  -->
<svg version="1.1" xmlns="http://www.w3.org/2000/svg" xmlns:xlink="http://www.w3.org/1999/xlink" x="0px" y="0px"
	 viewBox="0 0 800 600" style="enable-background:new 0 0 800 600;" xml:space="preserve">
<style type="text/css">
	.st0{clip-path:url(#SVGID_2_);fill:#FF9933;}
	.st1{clip-path:url(#SVGID_2_);fill:#FFFFFF;}
	.st2{clip-path:url(#SVGID_2_);fill:#128807;}
	.st3{clip-path:url(#SVGID_2_);}
	.st4{fill:#000088;}
	.st5{fill:#FFFFFF;}
	.st6{font-family:'Roboto-Regular';}
	.st7{font-size:14px;}
</style>
<g id="India">
	<g>
		<defs>
			<path id="SVGID_1_" d="M146.436,262.306l1.202-0.817l0.84-0.519l1.716-0.433l1.867-0.309l1.702,0.012l2.39,0.036l0.07-5.698
				l0.2-0.5l0.336-0.289l0.385-0.123l0.327,0.088l0.492,0.855l0.611-0.047l0.648-0.492l1.456,0.367l1.164-0.251l1.181,0.335
				l2.008,0.007l3.622-0.135l2.011,0.044l1.303,0.908l1.426,0.996l1.546,0.14l2.235-0.117l1.517-0.382l0.766-0.929l0.575-0.89
				l3.316-1.305l3.48-1.06l1-0.117l0.317,0.617l-0.16,1.038l0.407,0.987l1.394,0.625l0.988,0.154l0.886-0.141l0.657-0.314
				l1.41-1.551l0.728-0.353l0.951,0.025l1.064-0.741l0.022-0.567l-0.679-0.272l-0.574-0.818l0.105-0.666l-0.165-0.939l0.114-0.891
				l0.452-0.669l0.791-0.644l-0.472-1.33l-1.214-2.551l-1.271-3.268l-1.342-2.728l-1.702-2.393l-0.877-1.757l0.09-3.886
				l-0.153-0.789l-0.584-0.479l-0.788-0.27l-1.107,0.396l-0.996,0.076l-2.144-0.084l-1.052-0.399l-2.858-3.908l-0.375-1.538
				l-0.015-1.576l0.954-2.75l0.288-2.56l0.132-2.391l-0.16-0.676l-0.574-0.804l-0.961-0.594l-2.571-0.143l-3.05-0.791l-2.352-1.394
				l-1.628-0.843l-0.446-0.548l-0.195-0.648l0.426-2.902l0.738-3.276l0.538-1.004l0.932-1.039l0.691-0.708l1.103-0.938l2.98-3.134
				l2.668-4.313l1.646-3.015l0.859-0.897l0.876-0.768l1.288-0.93l1.482-0.85l1.475,0.037l1.402,0.771l1.04,0.907l0.348,1.997
				l0.738,1.297l0.796,0.781l1.052,0.379l1.337-0.094l5.385-2.29l1.831-0.462l4.394-0.285l3.02-0.885l2.67-0.928l0.322-1.664
				l1.029-2.545l3.137-3.318l0.881-1.483l0.951-2.834l1.01-2.589l0.867-1.077l4.931-2.847l4.827-2.621l0.789-1.188l3.121-5.451
				l1.787-3.708l0.463-1.194l1.034-3.231l1.118-3.218l1.492-0.744l3.311-1.229l2.627-1.202l1.344-1.373l0.815-1.202l-0.153-1.193
				l-0.728-1.412l0.154-0.84l0.134-0.828l1.906-1.692l3.591-5.012l2.15-2.509l0.713,0.003l2.249-1.336l2.139-1.513l-0.122-0.688
				l-0.268-0.89l-1.227-0.4l-0.384-1.07l0.3-1.533l1.025-4.132l-0.211-1.188l-1.249-3.839l0.278-1.062l0.514-1.087l1.394-1.45
				l1.802-1.204l5.771-2.867l1.169-0.315l2.005-0.726l1.227-1.532l0.153-1.307l-0.536-0.812l-1.198-1.09l-2.252-0.988l-2.03-0.858
				l-3.449,0.09l-1.792-0.738l-0.485-0.516l-0.251-1.822l0.346-3.082l-0.536-0.272l-0.767,0.364l-1.823-0.366l-2.239,0.047
				l-0.854-0.859l0.426-1.037l-0.126-1.383l-0.333-1.316l-0.348-0.275l-1.069-0.313l-1.665-1.138l-1.341-1.404l-0.787-0.951
				l-0.243-0.656l0.076-0.434l0.976-1.222l1.171-1.716l0.431-1.476l0.129-1.071l-0.326-0.79L249.061,70l-1.142-0.846l-0.46-0.736
				l-0.019-1.112l0.426-1.392l1.346-1.051l2.385-0.998l0.613-1.241l-0.076-0.92l-0.652-0.276l-1.675-0.006l-2.828-0.315
				l-0.479-0.507l-0.317-0.681l-0.003-0.675l0.597-0.768l0.716-0.973l-0.124-0.948l-0.83-1.072l-1.993-0.785l-0.268-1.108
				l0.305-0.925l0.66-1.321l0.574-0.919l1.358-2.615l1.645-0.572l2.018-0.847l2.232-0.937l3.434,0.702l1.672,0.342l3.383,0.8
				l2.834,0.671l2.896,0.19l1.2-0.046l1.331,0.792l3.276,1.358l2.66,0.714l1.801-0.007l2.658-1.201l1.324-1.099l1.786-1.207
				l2.285,0.046l4.941-1.86l0.925,0.321l1.468,0.106l1.77-1.076l0.917-1.278l0.148-0.638l0.441-0.472l1.891-0.813l1.897-1.125
				l0.518-1.487l0.312-1.006l2.084-1.304l2.162-1.355l2.268-1.421l2.575-1.616l2.179-1.369l1.78-1.118l0.054,0.066l0.146,0.175
				l0.706,0.504l0.754,0.25l0.886-0.48l1.105-0.395l0.577,0.222l0.083,0.645l-0.665,3.024l0.053,1.185l1.105,2.458l1.438,3.982
				l1.349,3.725l0.798,2.44l0.781,0.999l3.281,1.018l2.695,0.836l1.604,1.369l1.769,1.313l1.244,0.804l0.586,1.033l0.119,0.932
				l-0.11,0.625l-0.676,0.821l-3.106,2.117l-0.37,0.671l-0.088,0.881l0.609,2.623l0.383,1.642l0.107,3.296l0.207,3.128l1.098,1.423
				l0.898,0.919l0.552,0.833l1.115,1.14l0.937,0.85l0.799,0.499l0.394,1.123l-0.234,1.318l-0.328,1.147l0.1,0.617l0.642,0.437
				l0.986,1.143l0.127,1.673l-0.07,1.149l0.389,1.034l0.104,1.146l-0.302,2.856l0.044,1.158l0.005,0.133l-0.859,0.079l-0.74,0.439
				l-1.049,1.795l-1.205,0.472l-1.368,0.142l-1.409-1.101l-1.157-1.15l-0.309-0.64l-0.292-1.213l-0.623-0.793l-1.205,0.371
				l-1.828,0.167l-1.979,0.269l-0.362,0.267l-0.036,0.51l0.484,1.09l0.414,1.421l0.243,1.986l0.536,1.312l0.17,0.418l3.16,3.936
				l0.832,0.801l0.171,0.527l-0.273,1.433l-0.569,1.672l0.112,1.325l1.051,1.464l0.852,1.022l-0.832,1.376l-0.492,1.592l0.553,0.715
				l-0.261,2.285l0.248,0.431l0.587,0.179l0.92-0.159l0.956-0.604l0.808-0.119l0.486,0.174l0.647-1.732l0.567-0.245l1.102,0.478
				l2.181,3.257l1.845,2.75l0.536,0.521l0.328,0.317l1.819,1.423l1.256,0.9l1.718-0.326l2.266-0.061l1.343,0.88l0.777,0.613
				l0.034,0.087l0.104,0.023l2.727,2.152l1.181-0.159l0.781,0.616l0.222,1.519l-0.363,1.576l0.087,0.742l1.212,0.142l2.583,1.041
				l2.285,0.922l1.18,0.294l1.273,0.683l1.124,1.091l2.203,1.399l1.945,1.071l0.431,1.453l-0.767-0.311l-1.017,0.162l-1.034,0.643
				l-0.49,0.408l-2.361,2.498l-1.237,0.768l-1.11,1.118l-2.558,3.379l-1.477,3.148l-1.078,2.955l0.019,2.09l-0.399,2.445
				l-1.103,1.392l-0.679,0.473l-0.798,2.101l-0.572,2.447l0.331,0.792l1.371,1.068l1.338,1.04l1.707,1.122l1.629,1.072l1.052,0.14
				l0.29-0.609l0.384-0.579l1.202,0.307l1.465,1.051l0.954,0.833l0.428,0.28l2.526,1.4l2.094,1.16l2.648,1.465l0.648,0.896
				l0.569,0.953l1.249,1.266l3.045,2.238l2.599,1.601l2.115,1.305l1.658,0.914l0.769-0.144l0.84-0.485l0.738-0.284l0.857,0.258
				l1.302,0.697l3.055,2.119l2.845,1.654l3.103-0.297l0.825,0.266l0.582,1.498l0.392,1.515l3.466,1l2.281,0.451l2.604,0.823
				l1.319,0.609l1.385-0.764l0.253-0.673l1.098-0.4l1.816,0.175l3.395,1.176l1.422,0.353l1.188-1.115l2.218-0.518l1.151-0.579
				l2.412,1.238l4.364,1.551l2.247,0.964l0.531,0.95l0.244,0.898l-0.017,2.175l0.548,0.984l4.377,2.214l1.441,0.938l1.168,0.302
				l0.662,0.038l0.455,0.278l0.392,1.261l0.307,0.29l0.842,0.314l0.917,0.181l2.841-1.088l1.947-0.826l1.39,0.21l0.895,0.917
				l0.131,1.336l0.519,1.41l0.995,0.688l1.063,0.077l2.636-0.951l2.122,0.728l1.95,0.265l2.164,0.456l0.84,0.35l2.245,1.165
				l2.741,1.177l1.063-0.133l4.413-2.192l0.374,0.267l0.898,2.094l1.343,0.752l2.096,0.655l2.193-1.209l1.729,0.347l2.091,0.113
				l2.006-0.582l1.745-0.147l2.536,1.053l0.553-0.244l0.485-0.676l0.984-3.021l0.869-2.677l-0.075-1.598l-0.803-2.348l-2.049-3.058
				l-0.153-0.929l0.691-5.348l0.76-3.089l0.655-1.464l0.72-2.085l0.127-0.967l-0.07-0.872l-0.704-0.534l-0.188-0.664l0.175-0.557
				l0.558-0.311l2.33-0.39l2.621-0.838l1.046-0.447l0.791-0.449l0.805-0.705l0.75,0.03l2.349,1.022l0.825,0.642l0.433,1.951
				l0.351,0.755l-0.329,1.98l-1.405,4.792l0.275,1.793l1.176,1.305l1.023,0.91l-0.17,0.362l-2.108,1.543l-0.375,0.827l0.467,0.803
				l0.833,0.684l0.375,0.649l0.39,2.02l1.069,0.567l2.117,1.302l1.865,0.947l3.196-0.629l0.905,0.428l1.572,0.448l1.225,0.139
				l0.713,0.335l0.401,0.324l-0.053,0.408l0.066,0.42l1.755,0.107l0.92,0.239l3.116-0.433l3.125-0.593l1.444-1.8l0.631-0.129
				l1.799-0.701l1.769,0.766l1.95,1.05l1.051,0.317l2.074,0.165l2.018-0.117l4.834-0.497l2.653,0.261l2.437-1.495l0.506,0.004
				l1.073,1.154l2.677,0.103l1.427-0.557l1.536-0.43l0.983-0.137l0.784-0.015l0.949,0.114l0.893-0.385l0.412-0.775l-0.092-1.17
				l-0.648-1.273l-0.56-0.747l-0.11-0.4l0.178-0.922l0.497-1.301l0.908-1.484l-0.669-1.441l-0.94-1.665l-0.692-0.158l-1.733,0.383
				l-1.881-0.076l-1.477-0.995l-1.102-1.249l-0.268-1.049l0.319-1.28l0.49-1.178l0.105-0.443l1.402,0.003l1.948,0.261l1.472,0.327
				l1.186-0.013l2.149-1.509l0.979-0.091l1.124-0.287l0.491-0.285l0.341,0.221l1.232,0.185l1.283-0.075l1.144-0.417l1.147-0.65
				l2.045-1.364l0.407-0.784l-0.005-0.72l-0.38-0.473l-0.385-0.229l0.158-0.624l0.857-1.054l3.128-1.589l2.661-1.954l1.465-1.467
				l0.67-1.778l0.847-1.931l0.789-0.762l1.887-0.484l5.29-0.713l1.665-0.78l2.459-1.449l1.241-1.136l0.689-0.923l0.076-1.027
				l1.631-0.323l1.424-1.662l1.735-1.676l3.038-1.418l2.694-1.907l0.939,0.305l0.979,0.9l0.516,0.997l0.11,0.503l3.442,0.63
				l0.545-0.102l2.536,0.893l2.335,1.078l1.287,0.27l0.628-0.03l0.538-0.334l0.631-0.95l0.647-0.687l0.404-0.28l-0.02-1.093
				l3.381-2.13l3.036-1.53l2.612-1.117l0.769,0.458l0.85,0.848l1.151,2.16l0.699,0.528l1.777-0.301l0.324,0.236l-0.28,0.778
				l-1.203,0.962l-1.558,0.862l-1.017,0.704l0.331,2.345l-0.075,0.807l0.436,0.255l3.21-2.327l1.544-0.46l0.545,0.562l0.175,1.244
				l1.266,2.562l0.536,1.301l-3.22,3.097l-1.186,1.598l0.044,0.562l-0.065,0.556l-0.822,0.794l0.044,0.317l0.667,0.502l0.81,0.378
				l0.394-0.012l0.672-0.749l3.04-1.06l0.872,0.2l2.137,1.626l0.995,0.091l2.57,0.485l1.643-0.614l1.212,0.562l2.509,2.033
				l0.574,0.37l-0.212,1.231l-0.131,1.357l0.633,1.08l0.076,0.95l-0.146,0.873l-0.504,0.6l-1.392,0.333l-1.186,1.04l-1.879,1.502
				l-1.511,1.206l-1.096,1.063l-0.397,1.115l0.117,1.402l0.319,1.466l3.507,5.375l-0.029,0.931l-1.112,0.26l-1.472-0.607
				l-1.271-0.865l-1.432-2.301l-1.151-0.687l-1.146-0.151l-6.805,1.185l-1.449,0.332l-2.249,0.859l-1.573,1.73l-1.141,1.582
				l-1.181,0.637l-1.719,1.229l-4.771,3.767l-2.76,1.622l-1.801,0.597l-1.265,0.854l-0.682,1.387l-0.516,0.995l-0.154,2.446
				l0.314,3.01l0.686,1.92l0.363,0.404l0.054,0.561l-0.686,1.038l-0.908,0.884l-0.443,0.545l-0.404,2.736l-0.805,1.347l-1.47,1.976
				l-1.309,1.492l-2.052,1.158l-0.781,0.936l-0.747,1.725l-0.443,1.46l-0.024,0.53l0.234,0.463l0.854,0.514l1.037,0.497l0.494,0.777
				l0.068,0.937l-0.771,2.245l-1.377,3.12l-1.58,2.465l-1.629,2.349l-0.385,0.766l-1.463,2.882l-1.275,3.955l-0.859,2.66
				l-0.742,1.819l-0.918,0.083l-1.112-0.583l-2.7-0.775l-1.731-0.624l-1.259-0.561l-0.871,0.022l-1.203,0.365l-1.222,0.25
				l-0.723-0.275l-1.679-1.641l-0.509,0.188l-0.329,0.801l1.134,4.682l0.737,1.738l-0.119,2.905l-0.292,3.557l-0.44,3.886
				l-0.289,0.894l-0.72,1.025l-0.947,0.28l-0.862-0.404l-0.691,0.094l-0.229,0.652l0.2,1.677l-0.839,1.918l-0.618,1.64l0.165,1.591
				l0.294,1.612l0.99,3.495l0.007,1.276l-0.195,1.144l-0.516,0.475l-0.884-0.079l-0.48,0.475l-0.365,0.714l-0.998,2.647
				l-0.957,0.277l-0.959-0.396l-1.441-1.764l-0.876-0.516l-0.557,0.027l-0.248,0.465l-0.384,1.057l-0.387,0.708l-0.964,0.62
				l-0.238-1.304l-0.511-6.763l-0.387-2.158l-0.316-2.99l-0.469-0.918l-0.591-1.638l-0.648-1.41l-0.548-0.6l-0.355-2.644
				l-0.129-3.243l0.007-1.532l-0.779-3.176l-0.752-3.604l-1.025,0.152l-0.604-0.875l-0.44,0.017l-1.443,0.816l-1.139-0.268
				l-0.85,0.113l-0.002,1.655l0.146,1.764l-0.326,0.634l-2.244,2.072l-0.623,1.388l0.065,1.458l0.277,1.949l-0.397,0.988
				l-0.974,0.914l-1.31,0.472l-1.147-0.223l-0.735-0.791l-0.693-2.021l-0.611-1.102l-0.64-0.263l-0.501,0.298l-0.066,1.269
				l0.032,1.051l-0.161,0.116l-0.356-0.162l-0.411-0.515l-1.068-5.064l-1.534-3.908l-0.088-1.501l0.557-1.93l0.687-2.977l1.814-1.86
				l0.239-0.789l0.294-0.625l0.445-0.125l2.324,0.177l0.782-0.299l0.691-0.876l1.001-0.706l1.005-0.284l0.798-0.105l1.281,0.67
				l0.535-0.379l0.383-1.239l0.557-1.23l0.358-0.592l0.859-0.269l1.096-0.066l0.363-0.224l0.294-0.415l0.27-1.631l1.4-3.646
				l0.497-1.622l0.068-0.29l-0.039-1.812l0.399-0.261l2.324,0.882l1.012-0.012l0.553-0.364l0.182-0.663l-0.297-0.778l-1.65-1.354
				l-2.933-1.828l-2.694-1.118l-4.975,0.169l-4.932,0.353l-1.443-0.181l-1.799-0.504l-4.43,0.075l-5.355,0.279l-2.035-0.158
				l-1.005,0.021l-2.015,0.17l-3.284-0.52l-2.273-0.669l-2.013-0.733l-2.39-0.665l-0.574,0.007l-0.334-0.241l-0.229-0.588
				l-0.08-0.759l0.497-3.529l-0.44-5.361l0.406-1.956l-1.966-4.422l-0.677-0.82l-0.901-0.036l-0.579,0.571l-0.226,1.034l0.324,1.153
				l-0.721,1.292l-1.443,0.418l-1.689-0.434l-1.399-0.606l-1.787-1.316l-1.358-1.854l-0.11-2.045l-0.611-1.322l-0.837-0.644
				l-0.613-0.179l-0.547,0.143l-0.484,0.714l0.419,0.716l0.579,1l-0.194,0.68l-0.516,0.106l-0.769-0.292l-1.19,0.16l-1.149-0.524
				l-0.691-0.047l-0.684-0.19l-0.037-1.182l-1.052-1.499l-1.77-1.682l-1.74-1.039l-0.839,0.143l-0.417,1.146l0.097,0.429
				l0.604,0.213l0.878,0.665l0.193,0.697l-0.129,0.609l-1.085,1.109l-0.765,1.051l-1.718,1.531l-1.466,1.751l-0.378,1.327
				l-0.55,1.19l-0.222,1.309l0.384,0.905l0.71,0.57l1.833,0.415l1.915,1.758l1.551,2.373l0.871,0.717l1.582,0.799l3.053,0.093
				l0.457,0.655l0.433,1.736l0.599,0.612l1.553,0.818l0.131,0.602l-0.38,0.693l-0.689,0.547l-1.266,0.347l-1.212,0.139l-1.217-0.22
				l-1.802-0.142l-2.043-0.01l-1.448,4.33l-1.035,1.519l-0.589-0.002l-1.575-0.737l-0.679,0.113l-1.82,3.839l-0.258,0.924
				l-0.119,0.696l0.967,1.481l1.154,1.218l1.382,0.477l1.079-0.363l0.876,0.491l1.034,1.226l1.765,0.809l2.498,0.392l1.412,0.969
				l0.175,0.834l-0.122,0.847l-0.222,2.208l-0.243,1.27l-1.343,3.331l-0.959,2.869l0.497,1.362l0.355,0.555l0.336,0.429l1.076,1.074
				l0.75,1.063l-0.64,2.707l0.355,0.712l1.446,0.476l1.555,0.363l0.54,0.447l-1.348,2.745l0.285,1.908l0.569,1.789l0.412,2.923
				l0.061,0.307l-0.109,0.732l0.883,2.266l1.365,4.417l0.102,1.65l-0.076,1.736l-0.409,2.907l-1.366-0.014l1.222,1.942l0.389,1.395
				l0.168,1.945l-1.47,0.237l-1.037-0.218l-0.867-1.704l-0.402,1.549l-1.553,1.431l-0.557-0.699l-0.317-0.752l-0.061-1.322
				l0.852-5.063l-0.173-0.572l-0.382-0.374l-0.847-0.201l-0.312-1.026l-1.3,5.401l0.574,2.202l-0.263,1.005l-2.41,0.845
				l-2.442-2.028l-0.312-0.648l-0.144,1.141l-0.443,1.386l-2.288-0.251l-1.134-1.085l0.74-1.849l1.419-4.458l0.265-1.989
				l-1.897-1.459l-1.611-0.895l-0.922-2.029l0.351,2.228l0.854,0.791l1.256,0.559l1.326,1.138l-0.959,1.387l-0.927,0.863
				l-1.779,3.271l-2.167,1.825l-2.529,1.373l-8.3,2.019l-1.738,0.819l-2.548,2.514l-1.643,2.385l-0.3,2.416l0.93,2.606l0.757,4.077
				l0.628,0.83l-0.886,1.484l-1.539,1.577l-1.276,2.124l0.117,1.165l-0.328,0.786l-4.374,2.608l-0.92,1.522l-1.203,1.511
				l-1.441-0.865l-0.842,0.013l1.159,1.2l-0.156,0.793l-0.407,0.464l-1.1,0.434l-6.314,1.911l-4.831,1.814l-1.358-0.074l0.248-0.55
				l0.845-0.488l-0.081-2.083l-0.886-0.382l-0.767-0.151l-3.673,2.539l-1.492,2.51l0.312,0.477l0.83-0.118l2.475-1.423l1.147,0.404
				l0.081,0.556l-3.754,2.167l-7.901,7.011l-0.368,1.377l-1.025,1.56l-1.416,1.468l-2.548,3.551l-4.885,5.269l-1.349,1.964
				l-7.818,4.051l-1.426,1.204l-3.203,3.938l-3.296,3.222l-3.849,2.666l-6.669,3.401l-4.06,3.214l-1.27,2.134l-0.08,0.758
				l0.44,1.039l0.743,0.963l0.17,0.765l-0.367,1.376l-0.2,0.761l-1.188,1.883l-2.039,1.342l-6.597,2.807l-0.872-0.09l-5.385-0.554
				l-2.011,0.507l-0.826,1.316l-1.85,5.433l-1.774,1.443l-0.636,1.305l-0.256,0.904l-1.059-0.024l-0.922-0.405l-0.674,0.293
				l-0.767-1.821l-1.287-0.373l-1.064-0.125l-4.549,1.836l-1.589,1.472l-3.344,6.939l-0.828,4.467l0.786,4.93l1.161,3.935
				l0.231,1.775l-0.149,2.299l-0.589,1.12l-0.426,1.325l0.555,2.73l1.404,3.572l0.343,1.507l0.029,1.558l1.056,3.567l-0.711-0.644
				l-0.56-1.501l-1.341-1.92l-1.636,1.911l0.906,1.377l3.06,1.634l0.905,1.338l-1.969,11.894l-1.495,4.217l-1.835,2.762
				l-0.969,1.067l-2.142,4.357l-1.514,5.267l-0.3,2.026l0.682,2.267l-0.772,1.34l-0.969,1.023l1.84-0.46l0.63,1.23l0.232,1.267
				l0.027,7.529l-0.209,7.839l-1.412,0.32l-1.556,0.081l-1.37-0.222l-0.99-0.303l-2.452,0.416l-1.32,0.865l-1.059,1.437l0.073,2.449
				l-4.545,6.171l-0.979,2.055l-0.362,1.976l0.591,1.034l1.161,1.058l1.514,0.427l2.928,0.425l1.405,0.568l0.957,1.045l-3.451-1.113
				l-4.055-0.22l-9.7,2.86l-2.554,2.008l-1.426,1.736l-0.981,3.975l-0.168,2.655l-1.151,2.213l-5.038,3.398l-3.182,1.046
				l-1.21,0.899l-3.756-1.168l-4.094-2.976l-1.721-1.594l-6.076-7.681l-1.11-0.974l-1.226-3.286l-0.193-1.225l-0.338-0.489
				l-0.579-0.333l-0.277-0.507l-1.365-3.767l-0.56-3.929l-0.869-4.392l0.735,0.302l1.015,1.446l0.508,2.102l0.058,2.933l0.764,0.34
				l0.682-0.276l-1.952-6.76l-1.699-1.68l-0.451-0.111l-0.472-1.085l-0.051-1.362l0.153-0.647l-1.358-2.218l-0.474-1.321
				l-3.016-6.708l-1.354-4.81l-2.099-5.355l-1.351-1.879l-2.113-4.137l-1.77-1.924l-1.877-2.581l-1.475-1.146l-0.575-0.603
				l-4.365-8.962l-1.343-4.957l-1.135-2.344l-0.563-1.781l-1.533-7.623l-0.012-1.364l-0.187-1.491l-1.084-3.237l-1.911-3.5
				l-0.553-2.182l0.005-0.849l-1.214-3.403l-0.26-1.557l-0.82-1.44l-0.951-1.322l-0.996-1.06l-2.334-3.453l-0.837-0.843
				l-1.589-2.242l-1.129-4.147l-1.451-1.621h2.279l-1.39-1.532l-0.662-1.006l-0.732-0.618l1.061-1.548l-1.738,0.044l-0.92-0.932
				l-1.254-2.912l-2.288-3.29l-0.389-1.759l-2.018-5.539l-1.711-13.331l-1.567-5.953l0.122-1.712l-1.893-5.166l-0.925-3.469
				l-0.38-2.938l-0.502-1.935l-0.451-3.834l-0.725-1.216l-0.08-0.734l0.484-1.749l1.358-2.706l0.499-1.715l-0.582-2.417
				l-1.241,2.538l-1.147,0.711l-0.55-1.895l-0.005-2.55l-0.143-0.61l0.297-0.857l3.052,0.393l-3.464-1.566l-0.416-0.919
				l-0.131-0.684l0.747-1.27l-1.266-1.072l-0.506-3.281l-0.373-0.75l-0.143-0.606l0.716-4.541l2.992-8.939l0.219-2.023l-0.258-2.878
				l-0.667-2.293l-0.282-2.427l-0.182-0.622l-1.083-0.222l-1.029-0.898l-1.191-3.603l1.09-1.184l0.839-0.651l-1.154,0.276
				l-0.957-0.11l1.813-1.661l1.616-1.276l3.683-1.482l1.565-0.945l-2.318,0.851l-2.422,0.324l-5.156-0.173l0.859-3.368l0.896-1.125
				l0.976-0.632l-1.438,0.19l-1.655-0.27l0.535-3.426l1.302-0.74l1.405-0.141l1.745-0.488l-1.864-0.566l-1.943-0.271l-2.332,0.561
				l-2.144-0.413l-2.604,0.009l1.039,0.458l1.11,1.044l-0.557,1.856l-0.523,1.158l-1.436,0.798l-1.169,1.208l-0.328,1.061
				l-0.667,0.744l1.142,0.53l1.181,0.377l0.686,0.858l0.805,1.246l-0.046,2.42l-3.084,5.695l-1.066,1.267l-7.719,3.428l-3.035,1.864
				l-6.463,2.42l-2.519,0.45l-2.787-0.479l-4.072-1.844l-6.217-4.709l-1.616-1.559l-4.97-6.064l-3.588-3.212l-2.721-2.995
				l-3.368-2.83l-3.179-3.828l-0.675-1.746l0.236-1.777l1.185-0.97l1.385,0.393l1.093,1.498l0.776,0.67l0.655,0.275l4.739-2.296
				l1.842,0.091l1.258-1.153l1.59,0.251l3.247-1.795l1.361-0.109l1.617-0.36l2.616-4.552l1.959-2.899l1.27-0.604l-0.071-0.707
				l-0.35-0.927l-0.951,0.233l-0.665,0.882l-0.492,1.063l-0.496,0.633L182.693,279l-1.034,0.098l-1.276,0.35l-4.666,1.699
				l-1.915,1.523l-1.303,0.302l-7.451-1.677l-7.28-3.85l-3.065-2.56l-1.938-3.276l-1.942-3.908l0.631-1.094l3.013-2.353l2.6-1.85
				l-2.335,0.824l-2.529,1.143l-1.251,0.801l-1.417,1.674l-1.884,0.375l-0.747-2.49L146.436,262.306z M593.541,568.568L592.477,570
				l-2.078-4.382l-0.891-0.268l-0.029-2.091l0.484-0.824l2.403-0.923l0.635,0.518l1.227,4.06L593.541,568.568z M569.431,503.511
				l-0.524,0.6l-1.792-0.468l0.132-1.813l-0.423-1.767l0.311-0.745l1.341-1.266l1.086-0.561l0.759,1.717l0.353,1.68L569.431,503.511
				z M573.254,486.247l-0.382,0.415l-0.563-0.461l-1.612-3.165l-0.277-2.033l-0.448-0.705l0.567-1.008l0.713-0.335l0.423-1.136
				l0.153-1.737l0.623-1.416l0.317-0.394l1.295-0.016l0.331-0.18l-0.185-1.357l-0.757-0.59l-0.263-0.378l0.031-3.253l0.197-1.316
				l0.472-0.946l-0.333-1.957l0.227-0.731l0.937-1.027l0.414-2.192l-0.38-0.655l0.889-3.387l-0.049-2.263l1.169-2.268l1.821-1.03
				l0.572-0.029l0.076,1.936l0.173,0.635l-1.054,1.145l1.005,1.492l-0.134,0.541l-0.402,1.183l-0.665,1.162l-0.927,0.476
				l-0.72,1.547l-0.412,0.583l1.37,1.626l0.438,5.522l-1.001,1.511l-1.198,0.301l0.275,3.679l-0.214,0.821l-1.188,1.805
				l-0.219,0.787l-0.67,0.74l0.284,0.924l0.57,0.404l0.013,0.757l-0.531,1.941l-0.041,2.213L573.254,486.247z"/>
		</defs>
		<clipPath id="SVGID_2_">
			<use xlink:href="#SVGID_1_"  style="overflow:visible;"/>
		</clipPath>
		<rect x="-47.637" y="30" class="st0" width="775.273" height="516.849"/>
		<rect x="-47.637" y="202.283" class="st1" width="775.273" height="172.283"/>
		<rect x="-47.637" y="374.566" class="st2" width="775.273" height="195.434"/>
		<g transform="translate(112.5,75)" class="st3">
			<circle class="st4" cx="227.5" cy="213.424" r="68.913"/>
			<circle class="st5" cx="227.5" cy="213.424" r="60.299"/>
			<circle class="st4" cx="227.5" cy="213.424" r="12.06"/>
			<g id="d">
				<g id="c">
					<g id="b">
						<g id="a">
							<circle class="st4" cx="287.283" cy="221.295" r="3.015"/>
							<path class="st4" d="M227.5,273.723l2.067-36.179l-2.067-17.228l-2.067,17.228L227.5,273.723z"/>
						</g>
						<g transform="rotate(15)">
							<g>
								<circle class="st4" cx="283.209" cy="236.5" r="3.015"/>
								<path class="st4" d="M211.893,271.669l11.361-34.412l2.462-17.176l-6.456,16.106L211.893,271.669z"/>
							</g>
						</g>
					</g>
					<g transform="rotate(30)">
						<g>
							<g>
								<circle class="st4" cx="275.338" cy="250.132" r="3.015"/>
								<path class="st4" d="M197.35,265.645l19.88-30.299l6.824-15.954l-10.405,13.886L197.35,265.645z"/>
							</g>
							<g transform="rotate(15)">
								<g>
									<circle class="st4" cx="264.208" cy="261.263" r="3.015"/>
									<path class="st4" d="M184.862,256.062l27.045-24.121l10.72-13.644l-13.644,10.72L184.862,256.062z"/>
								</g>
							</g>
						</g>
					</g>
				</g>
				<g transform="rotate(60)">
					<g>
						<g>
							<g>
								<circle class="st4" cx="250.575" cy="269.133" r="3.015"/>
								<path class="st4" d="M175.28,243.574l32.366-16.299l13.886-10.405l-15.954,6.824L175.28,243.574z"/>
							</g>
							<g transform="rotate(15)">
								<g>
									<circle class="st4" cx="235.371" cy="273.207" r="3.015"/>
									<path class="st4" d="M169.256,229.031l35.482-7.367l16.106-6.456l-17.176,2.462L169.256,229.031z"/>
								</g>
							</g>
						</g>
						<g transform="rotate(30)">
							<g>
								<g>
									<circle class="st4" cx="219.629" cy="273.207" r="3.015"/>
									<path class="st4" d="M167.201,213.424l36.179,2.067l17.228-2.067l-17.228-2.067L167.201,213.424z"/>
								</g>
								<g transform="rotate(15)">
									<g>
										<circle class="st4" cx="204.425" cy="269.133" r="3.015"/>
										<path class="st4" d="M169.256,197.818l34.412,11.361l17.176,2.462l-16.106-6.456L169.256,197.818z"/>
									</g>
								</g>
							</g>
						</g>
					</g>
				</g>
			</g>
			<g transform="rotate(120)">
				<g>
					<g>
						<g>
							<g>
								<circle class="st4" cx="190.792" cy="261.263" r="3.015"/>
								<path class="st4" d="M175.28,183.275l30.299,19.88l15.954,6.824l-13.886-10.405L175.28,183.275z"/>
							</g>
							<g transform="rotate(15)">
								<g>
									<circle class="st4" cx="179.662" cy="250.132" r="3.015"/>
									<path class="st4" d="M184.862,170.786l24.121,27.045l13.644,10.72l-10.72-13.644L184.862,170.786z"/>
								</g>
							</g>
						</g>
						<g transform="rotate(30)">
							<g>
								<g>
									<circle class="st4" cx="171.791" cy="236.5" r="3.015"/>
									<path class="st4" d="M197.35,161.204l16.299,32.366l10.405,13.886l-6.824-15.954L197.35,161.204z"/>
								</g>
								<g transform="rotate(15)">
									<g>
										<circle class="st4" cx="167.717" cy="221.295" r="3.015"/>
										<path class="st4" d="M211.893,155.18l7.367,35.482l6.456,16.106l-2.462-17.176L211.893,155.18z"/>
									</g>
								</g>
							</g>
						</g>
					</g>
					<g transform="rotate(60)">
						<g>
							<g>
								<g>
									<circle class="st4" cx="167.717" cy="205.554" r="3.015"/>
									<path class="st4" d="M227.5,153.125l-2.067,36.179l2.067,17.228l2.067-17.228L227.5,153.125z"/>
								</g>
								<g transform="rotate(15)">
									<g>
										<circle class="st4" cx="171.791" cy="190.349" r="3.015"/>
										<path class="st4" d="M243.107,155.18l-11.361,34.412l-2.462,17.176l6.456-16.106L243.107,155.18z"/>
									</g>
								</g>
							</g>
							<g transform="rotate(30)">
								<g>
									<g>
										<circle class="st4" cx="179.662" cy="176.717" r="3.015"/>
										<path class="st4" d="M257.65,161.204l-19.88,30.299l-6.824,15.954l10.405-13.886L257.65,161.204z"/>
									</g>
									<g transform="rotate(15)">
										<g>
											<circle class="st4" cx="190.792" cy="165.586" r="3.015"/>
											<path class="st4" d="M270.138,170.787l-27.045,24.121l-10.72,13.644l13.644-10.72L270.138,170.787z"/>
										</g>
									</g>
								</g>
							</g>
						</g>
					</g>
				</g>
			</g>
			<g transform="rotate(-120)">
				<g>
					<g>
						<g>
							<g>
								<circle class="st4" cx="204.425" cy="157.715" r="3.015"/>
								<path class="st4" d="M279.72,183.275l-32.366,16.299l-13.886,10.405l15.954-6.824L279.72,183.275z"/>
							</g>
							<g transform="rotate(15)">
								<g>
									<circle class="st4" cx="219.629" cy="153.641" r="3.015"/>
									<path class="st4" d="M285.744,197.818l-35.482,7.367l-16.106,6.456l17.176-2.462L285.744,197.818z"/>
								</g>
							</g>
						</g>
						<g transform="rotate(30)">
							<g>
								<g>
									<circle class="st4" cx="235.371" cy="153.641" r="3.015"/>
									<path class="st4" d="M287.799,213.424l-36.179-2.067l-17.228,2.067l17.228,2.067L287.799,213.424z"/>
								</g>
								<g transform="rotate(15)">
									<g>
										<circle class="st4" cx="250.575" cy="157.715" r="3.015"/>
										<path class="st4" d="M285.744,229.031l-34.412-11.361l-17.176-2.462l16.106,6.456L285.744,229.031z"/>
									</g>
								</g>
							</g>
						</g>
					</g>
					<g transform="rotate(60)">
						<g>
							<g>
								<g>
									<circle class="st4" cx="264.208" cy="165.586" r="3.015"/>
									<path class="st4" d="M279.72,243.574l-30.299-19.88l-15.954-6.824l13.886,10.405L279.72,243.574z"/>
								</g>
								<g transform="rotate(15)">
									<g>
										<circle class="st4" cx="275.338" cy="176.717" r="3.015"/>
										<path class="st4" d="M270.138,256.062l-24.121-27.045l-13.644-10.72l10.72,13.644L270.138,256.062z"/>
									</g>
								</g>
							</g>
							<g transform="rotate(30)">
								<g>
									<g>
										<circle class="st4" cx="283.209" cy="190.349" r="3.015"/>
										<path class="st4" d="M257.65,265.645l-16.299-32.366l-10.405-13.886l6.824,15.954L257.65,265.645z"/>
									</g>
									<g transform="rotate(15)">
										<g>
											<circle class="st4" cx="287.283" cy="205.554" r="3.015"/>
											<path class="st4" d="M243.107,271.669l-7.367-35.482l-6.456-16.106l2.462,17.176L243.107,271.669z"/>
										</g>
									</g>
								</g>
							</g>
						</g>
					</g>
				</g>
			</g>
		</g>
		<use xlink:href="#SVGID_1_"  style="overflow:visible;fill:none;stroke:#000000;stroke-width:0.5;stroke-miterlimit:10;"/>
	</g>
</g>
<g id="Copyright">
	<text transform="matrix(1 0 0 1 681.6426 577.5916)" class="st6 st7">© Vemaps.com</text>
</g>
</svg>
