<?xml version="1.0" encoding="utf-8"?>
<!-- Generator: Adobe Illustrator 19.1.0, SVG Export Plug-In . SVG Version: 6.00 Build 0)  -->
<svg version="1.1" xmlns="http://www.w3.org/2000/svg" xmlns:xlink="http://www.w3.org/1999/xlink" x="0px" y="0px"
	 viewBox="0 0 800 600" style="enable-background:new 0 0 800 600;" xml:space="preserve">
<style type="text/css">
	.st0{clip-path:url(#SVGID_2_);fill:#009B3A;}
	.st1{clip-path:url(#SVGID_2_);fill:#FEDF00;}
	.st2{clip-path:url(#SVGID_2_);fill:#002776;}
	.st3{clip-path:url(#SVGID_2_);}
	.st4{clip-path:url(#SVGID_4_);fill:#FFFFFF;}
	.st5{fill:#009B3A;}
	.st6{fill:#FFFFFF;}
	.st7{font-family:'Roboto-Regular';}
	.st8{font-size:14px;}
</style>
<g id="Brazil">
	<g>
		<defs>
			<path id="SVGID_1_" d="M235.321,83.016l3.393,3.029l2.506,2.236l1.084,0.715l0.6,0.2l1.458-0.149l1.732-0.289l0.841-0.32
				l0.93-0.7l1.513-0.972l1.231-0.535l0.484-0.071l0.486,0.172l1.039,0.581l0.568,1.084l-0.524,1.258l0.088,0.781l1.091-0.043
				l0.874-1.301l0.612-1.025l1.279-0.83l1.246-1.185l0.87-1.127l1.019-0.66l1.538-0.804l1.216-0.491l1.141,0.05l0.846-0.532
				l1.097-0.997l0.767-0.802l0.531-0.286l1.068,0.077l1.333-0.11l1.309-0.974l1.191-1.178l0.631-1.984l0.417-1.757l0.356-0.356
				l0.432-0.281l0.51-0.183l1.224-0.127l2.144-0.938l1.477-0.95l1.404-0.204l0.415-0.256l0.509-0.879l0.252-1.548l-0.19-0.938
				l-2.579-0.289l-1.689-0.001l-2.794-0.242l-1.33-0.386l-0.286-0.269l-0.03-0.298l0.266-0.669l0.26-1.258l-0.38-1.702l-1.397-2.671
				l-0.994-2.624l-0.131-1.83l0.023-1.934l0.079-1.264l-0.716-0.989l-3.864-3.117l-1.335-1.473l-0.444-1.019l-1.522-1.88
				l0.386-0.575l0.877,0.021l0.749,0.491l0.685,1.044l0.493,0.234l0.671-0.001l3.563-0.004l0.834,0.177l0.504,0.351l0.43,0.436
				l0.638,1.217l0.685,0.596l1.411-0.021l2.214-0.025l1.242-0.108l0.743,0.339l0.922,0.28l1.941-0.646l0.543-0.014l0.58,0.284
				l2.093,2.18l1.2,0.92l1.012,1.216l1.475,0.006l1.22-1.045l0.326-3.515l0.367-1.02l0.618-0.286l0.734-0.035l0.869-0.553
				l0.943-0.713l0.818-0.239l3.4,0.767l0.944-0.367l3.443-0.93l3.52-1.194l0.988-1.506l1.477-0.405l1.155-1.104l0.933,0.116
				l1.413,0.044l0.874-0.193l0.442-0.209l0.481-0.519l0.794-1.475l0.962-0.558l1.21-0.591l0.827-0.697l0.681-0.861l0.313-0.748
				l-0.008-0.595l-0.403-1.151l-0.488-1.085l-0.528-0.358l-0.398-0.138l1.199-0.252l0.99,0.378l1.543,0.058l0.67-0.291l0.972,0.143
				L322.919,30l0.791,0.252h0.524l0.476,0.587l0.368,0.662l1.154,0.805l-0.115,1.225l-0.213,1.084l-0.149,1.248l-0.066,0.95
				l-0.491,0.972l-0.734,0.908l-0.216,0.369l-0.102,0.479l0.495,0.29l0.873,0.087l1.092,0.038l0.743,0.281l0.961,0.058l1.156,0.78
				l0.561,0.468l0.047,0.363l-0.367,0.866l-0.146,0.801l0.286,0.507l0.339,0.365l0.938,1.805l0.446,0.628l0.378,0.202l0.088,0.348
				l-0.32,0.659l-0.384,0.838l-0.868,0.88l-0.116,0.696l-0.695,0.437l-1.621,1.039l0.282,1.647l0.056,0.835l-0.031,0.649
				l-0.553,0.869l-0.959,2.565l-0.352,1.279l-0.311,2.955l0.021,0.991l0.443,1.334l0.939,2.959l0.535,0.471l1.24,0.695l0.155,2.001
				l-0.109,2.09l-0.059,0.811l0.204,0.347l0.557,0.167l0.397,0.251l0.063,0.618l-0.037,0.642l0.924,0.371l0.805,0.236l0.743,0.887
				l1.344,1.379l0.534,0.251l0.268,0.572l1.133,1.162l1.727,0.425l1.741,0.512l0.685,0.731l0.714,0.594l0.538,0.031l0.456-0.095
				l0.751-0.512l0.603-0.44l1.05,0.025l1.231-0.072l0.213-0.362l0.117-0.466l-0.253-1.193l0.437-0.362l1.019-0.203l0.204-0.636
				l0.233-0.347l0.291-0.405l0.349-0.058l0.436,0.231l0.67,0.145l0.757,0.202l0.407,0.405l0.673,0.035l0.748-0.077l0.302-0.258
				l0.22-0.451l0.163-0.973l0.482-0.028l0.963-0.219l1.027-0.429l1.372-0.063l1.285,0.009l0.643-0.288l0.598-0.627l1.158-1.773
				l0.606-0.409l0.651-0.306l0.553,0.056l1.135-0.294l0.934-0.425l0.346,0.107l0.727,0.91l0.364,0.2l0.535,0.063l1.754,0.461
				l0.93-0.143l1.009-0.29l0.969-0.11l0.698,0.202l0.503-0.263l0.564-0.196l0.396,0.129l0.885,0.111l2.095,0.506l2.736,0.566
				l0.747-0.195l0.445-0.399l0.106-1.17l0.083-0.825l-0.616-0.729l-0.767-0.827l-0.707-1.032l-0.846-0.292l0.11-0.531l0.549-0.549
				l0.564-0.303l0.327-0.372l0.355-1.375l0.237-0.242l0.239-0.059l0.284,0.051l0.557,0.356l2.155,1.094l0.946-0.165l3.612-0.287
				l0.546-0.632l0.765-0.143l1.298-0.628l0.513-0.043l0.458,0.152l0.578-0.12l0.852-0.586l0.359-0.062l0.135,0.647l0.553,0.669
				l0.667,0.617l0.322,0.142l1.12-0.199l0.589,0.172l0.255,0.574l0.073,0.501l0.469,0.424l0.602,0.01l0.321,0.17l0.547,0.272
				l0.467,0.625l1.082,0.498l1.849,0.699l0.859,0.012l0.8,0.213l0.493,0.21l0.533-0.386l1.892-1.077l0.922-0.6l0.621-0.455
				l0.466-0.434l0.349-0.116l0.233,0.26l0.204,0.347l0.674,0.205l1.581,0.407l0.726,0.115l1.019-0.346l0.869-0.588l0.417-0.204
				l0.646,0.584l0.44,0.826l0.296,0.36l0.656-0.085l1.291,0.126l0.958,0.262l0.592-0.024l0.81-0.367l0.436-0.724l1.149-0.663
				l1.093-0.61l0.627-0.815l0.926-1.354l0.311-0.581l0.063-0.978l1.305-2.843l0.494-0.521l0.291-0.898l0.525-1.042v-0.869
				l0.38-0.841l0.748-0.727l0.552-0.454l0.883-1.222l0.614-1.151l1.54-2.557l0.117-0.725l0.611-0.435l0.204-0.55l0.652-0.678
				l0.687-0.539l0.293-0.793l0.504-0.825l1.104-0.618l0.408-0.284l1.251-2.269l0.142-1.014l1.13-0.038l1.775,1.171l1.415,1.725
				l1.897,5.547l0.315,5.122l0.769,2.684l2.204,5.59l0.141,1.035l0.354,1.251l0.696,1.326l0.768,2.184l0.029,0.406l-0.5,0.596
				l0.732,0.04l0.663,0.352l0.433,1.385l0.547,0.936l0.997,1.281l2.041,0.419l1.541,0.153l1.755,0.725l1.288,0.93l0.997,3.148
				l-0.326,1.979l0.097,1.391l-0.516,0.545l-1.443,0.911l-0.314,0.484l-2.95,2.352l-0.645,1.111l-1.581,1.492l-1.565,2.844
				l-2.291,2.596l-0.809,0.656l-1.238,0.152l-0.752,0.403l-1.781,2.118l-2.389,0.708l-0.22,1.228l-1.381,2.805l-1.217,1.532
				l-0.776,0.52l-1.949,2.796l-0.25,1.222l0.012,2.138l-1.301,1.303l-1.353,0.828l-0.169,1.829l-0.612,0.625l-0.523,0.407
				l-2.757-0.479l-4.28,1.988l-1.462,0.495l4.672,0.102l1.5,1.057l3.289-0.701l3.978-2.524l1.52-0.528l3.087-1.713l1.255-1.141
				l2.289-1.369l0.487-0.601l1.282-0.639l0.695,0.813l0.054,0.515l-1.052,1.002l0.273,0.646l0.694,0.811l0.251,1.117l0.091,0.851
				l0.429,1.491l1.415,2.019l0.048,0.668l-0.195,0.879l0.677,0.727l0.702,0.431l2.408,2.173l1.885-1.215l1.159-0.351l0.741-0.507
				l1.55-0.337l1.271,0.509l2.422,0.732l1.772-0.777l3.587-1.777l-1.122,3.147l-0.812,2.886l-0.618,1.165l-0.612,3.146l-0.607,0.84
				l-0.491,0.959l0.801-0.335l0.686-0.454l0.877-1.212l0.658-2.104l2.596-5.615l0.743-0.498l2.158-0.639l3.714-4.488l1.453,0.014
				l0.93,1.033l0.88,0.61l0.226-1.228l1.268-0.502l-1.342-0.607l-0.219-0.551l-0.128-0.919l0.913-1.241l-0.544-1.098l1.892-1.386
				l-0.146-1.04l0.675-0.858l0.854-0.881l0.968-0.429l0.177-0.757l0.611-0.313l0.479-0.113l0.946,0.847l1.024-1l1-0.392l0.448,0.174
				l0.558,0.442l0.586,0.188l0.476-0.079l1.238-0.64l1.144,1.031l0.687,0.228l-0.188-0.578l-0.362-0.537l0.281-0.437l0.541-0.275
				l1.71,0.246l0.899,0.46l0.972,0.852l1.351,0.063l1.06-0.09l0.669,0.479l1.088-0.003l0.545,0.745l1.657,1.048l0.359,0.711
				l1.333,0.345l1.249,0.436l1.332,0.119l1.343-0.104l0.055,0.899l0.985,0.243l1.264-0.201l0.955,1.107l2.554,0.831l1.77,1.273
				l1.16-0.225l1.299,0.336l1.394,2.77l0.315,1.967l0.621-0.272l0.575-0.88l0.746-1.607l1.396-0.533l0.668,0.618l1.4,0.989
				l1.207,1.086l0.509,0.697l0.907,0.114l-0.758,0.857l0.76-0.086l0.92-0.61l0.787,1.26l0.593,1.371l0.119,1.397l-0.558,0.802
				l-0.492,0.502l-0.546,0.99l-0.645,0.178l-0.645,0.321l0.736,0.72l0.505,0.693l1.101-1.874l0.774-0.527l1.121-0.292l0.583,1.333
				l0.125,1.259l-1.826,0.524l-0.007,0.995l-0.546,0.564l-0.357,0.646l-0.288,1.358l-0.372,1.125l-1.088,4.988l-0.022,0.821
				l1.326-0.879l2.444-2.541l0.745-2.706l0.964-2.668l1.05-0.839l0.65-0.001l0.975,0.292l0.055,0.874l-0.149,0.505l-1.043,1.327
				l-0.444,0.727l0.429,0.717l2.369-2.198l1.06-0.771l0.904,0.156l1.794-1.014l3.611-0.212l0.271-1.16l0.72-0.494l1.986,0.131
				l3.868,1.037l1.379,0.847l2.065,0.788l1.087,0.937l4.541,1.719l3.298,0.185l1.633-0.781l2.037,0.818l1.079,0.916l2.115,0.498
				l2.135,0.259l1.633-0.658l4.211-0.217l5.295-0.972l3.158,0.231l3.574,0.635l2.547,1.633l2.144,0.925l1.297,0.911l2.093,0.943
				l4.467,2.534l1.563,1.465l2.77,1.997l2.779,0.838l1.503,2.09l1.189,0.941l2.945,3.529l3.343,2.471l2.236,2.471l4.289,1.592
				l1.674,2.624l2.902,0.32l1.238,0.393l1.502,1.107l2.068,0.617l2.694-0.175l2.97,0.125l2.402-0.518l5.684,0.988l0.894,0.482
				l1.177,1.118l2.075,4.161l1.237,4.62l0.611,3.537l1.416,2.75l0.774,5.167l0.656,1.627l0.052,1.252l0.556,0.284l0.375,3.49
				l-0.147,1.408l-0.543,1.832l-0.041,0.817l0.08,0.52l-0.24,0.765l-0.074,0.733l0.551,1.646l0.03,1.32l-0.738,1.599l-1.005,4.181
				l-2.523,6.939l-2.418,3.987l-3.383,4.121l-2.204,2.154l-0.874,0.22l-0.801-0.426l0.569,1.137l-0.498,1.001l-2.238,3.038
				l-2.226,1.99l-2.308,3.454l-0.175,0.078l-2.959,1.334l-1.75,1.091l-2.238,1.986l-2.054,3.132l-0.424,0.403l-0.757-0.221
				l0.021,1.592l-1.768,2.521l-0.54,0.374l0.015-0.715l0.307-0.544l0.143-0.579l-0.013-0.688l-0.495,0.5l-1.046,1.889l0.352,1.386
				l-0.759,2.094l-2.897,5.984l-3.547,5.042l-0.818,1.557l-2.911,3.402l-2.139,1.642l-0.602,0.012l-0.681-0.141l-0.343-2.615
				l-1.705-1.583l-0.488-0.278l-0.699,1.676l-0.582,0.46l-0.842,0.1l0.9,0.731l0.262,0.845l-0.917,1.692l-0.028,1.539l-1.636,1.696
				l-0.947,1.242l-0.482,1.556l-0.29,1.454l0.719-0.397l0.341,0.306l0.27,0.453l-0.166,0.669l-0.527,1.263l0.082,3.148l-0.175,0.716
				l0.523,0.774l0.554-1.322l0.319,0.368l-1.548,8.452l0.61,3.811l0.227,4.324l0.7,4.227l0.765,3.784l0.061,0.304l-1.059,4.4
				l-1.353,4.347l-0.816,3.55l-0.514,3.84l-0.514,1.848l-0.163,1.892l0.589,4.489l0.219,0.851l-1.642,2.005l-1.772,0.974
				l-0.979,0.967l-2.166,3.621l-1.175,5.361l-0.028,2.857l0.556,5.996l-0.417,2.45l-0.685,1.641l-0.811,1.078l-2.068,1.295
				l-1.853,3.158l-0.806,3.323l-1.269,1.212l-0.26,1.864l-1.022,2.013l-2.649,3.007l-1.723,0.876l-0.821,0.841l-0.522,1.761
				l-1.661,2.907l-1.224,3.775l0.319,1.287l0.021,0.197l0.445,4.374l-0.164,1.114l-1.614,1.209l-6.079,2.258l-1.619,0.936
				l-3.63,3.849l-0.226,0.91l0.151,1.298l0.597,0.747l-0.615,0.81l-0.725,1.453l-1.057-0.089l-6.055,0.003l-3.278,0.461
				l-1.703-0.089l-0.765-0.35l-0.857-0.571l-0.258-0.747l0.466-1.131l-0.275-0.674l-0.898,0.026l-0.986,0.32l-0.171,0.676l0.07,0.48
				l0.367,0.703l0.201,0.862l-0.404,0.751l-1.919,0.098l-2.156,0.689l-2.69,0.289l-2.143,0.497l-0.99-0.63l0.99-0.315l1.418,0.153
				l1.524-0.521l-0.356-0.616l-2.155-0.795l-2.394,0.487l-1.327,0.945l-2.904-0.086l-3.556,0.72l-0.58,0.734l0.097,1.424
				l0.696,0.313l0.679,0.65l-0.652,0.606l-0.635,0.268l-3.756,0.662l-3.483,2.779l-1.452,0.346l-1.293,1.227l-0.134,1.049
				l-0.408,0.632l-0.829,0.032l-1.816-0.573l-2.357-0.017l-1.702,0.457l-8.697,4.523l-3.123,1.813l-3.564,3.702l-6.007,4.159
				l-3.155,2.487l-0.6,0.645l-0.498,0.035l-0.988,0.519l0.393,0.43l0.674,0.04l-0.278,1.452l-1.254,0.993l-2.355,2.612l-0.524-0.192
				l0.746-1.358l-1.156-0.051l-1.703-0.498l-0.739,0.562l0.407,1.345l-0.64,0.577l-1.162,0.065l-1.054-0.159l-1.159-0.985
				l0.522,1.785l2.445,0.433l1.019,0.421l0.379,0.687l-1.901,3.185l-1.592,0.415l-0.175,0.45l0.874-0.003l0.482,0.883l-0.569,3.566
				l-0.787,0.679l-0.459,0.017l-0.456,0.611l0.629,1.167l0.648,0.852l-0.086,1.653l-0.243,1.369l-0.016,1.33l0.819,2.578
				l0.294,2.651l0.331,0.965l0.188,1.071l-0.546,1.003l0.311,1.61l-0.932,2.741l0.487,3.965l-0.2,3.723l-0.365,1.961l-0.591,1.535
				l-1.374,1.978l-0.032,1.982l-2.957,1.846l-3.271,2.586l-3.019,3.066l-3.249,4.332l-3.794,6.613l-3.514,9.489l-4.231,7.207
				l-1.692,2.612l-2.287,2.922l-3.042,3.416l-4.075,3.425l-4.459,3.059l-1.612,1.382l-1.571,1.943l-0.393-0.803l0.34-1.326
				l-0.217-0.992l-0.048-1.286l0.899-0.237l1.346,0.816l0.686-0.553l0.499-0.547l1.621-0.341l3.096-3.354l2.298-1.239l1.292-2.112
				l0.222-1.122l-0.052-2.272l0.732-0.575l1.662,0.198l0.339-0.646l-0.144-0.716l0.324-1.559l2.253-1.383l1.068-1.669l-0.357-4.245
				l0.413-0.19l0.927,0.661l0.435-0.274l0.467-1.857l-0.224-0.963l-1.091-0.255l-3.772,2.092l-1.229-0.086l-0.204-1.644
				l-1.834-0.754l-0.717-1.362l-0.215-0.933l-0.636-0.381l0.04,1.612l0.175,1.568l1.644,1.828l-0.4,0.726l-0.78,0.848l-0.543,1.886
				l0.061,2.449l-0.44-0.746l-0.564-0.431l-0.229,2.635l-1.092,1.009l-0.345,0.992l0.285,1.151l-0.563,0.796l-2.781,2.138
				l-2.772,1.462l-0.603,0.691l-0.296,1.635l-0.423,1.682l-1.226,1.48l-0.973,2.947l0.026,1.27l0.323,1.874l0.524,1.23l-0.829,0.823
				l-1.115,1.6l-0.885,1.805l-2.203,6.798l-1.898,4.114l-1.461,2.02l-2.086,2.132L413.641,570l-0.356-0.077l-0.872-0.434
				l-0.73-0.515l-0.165-0.344l-0.083-0.515l0.096-1.933l-0.013-5.181l0.257-0.976l0.383-0.63l1.157-0.912l1.124-1.305l1.268-1.658
				l1.168-1.319l-0.418-0.885l-0.977-0.854l-1.736-0.69l-1.672-1.215l-1.483-1.56l-0.685-1.622l-0.627-1.746l-0.6-1.379l-0.2-0.63
				l-0.586-0.262l-0.93-0.704l-0.582-0.654l-0.852-0.375l-1.522-0.411l-1.586-0.718l-1.972-1.703l-1.423-1.888l-0.703-1.246
				l-0.749-0.876l-4.071-1.447l-1.849-1.726l-0.728,0.538l-1.088-0.529l-1.071-0.83l-0.321-0.636l-0.453-0.652l-0.426-0.748
				l-0.271-0.718l-1.103-1.253l-1.423-1.355l-0.603-0.386l-0.319,0.112l-0.308,0.52l-0.195,0.503l-0.538,0.332l-0.665,0.621
				l-0.679,0.76l-0.87,0.505l-1.034,0.172l-0.696-0.025l-0.143-0.3l-0.039-1.039l0.257-2.369l-0.605-0.911l-0.806-0.976
				l-0.928-1.304l-3.051-2.76l-4.152-3.965l-1.466-1.211l-1.38-0.093l-1.26,0.135l-1.159,0.524l-0.877,1.83l-0.364,0.282
				l-2.236-0.042l-2.224-0.296l-0.747-1.117l0.594-0.727l2.095-1.61l1.158-1.432l0.222-1.256l1.004-1.127l1.786-0.997l1.99-1.835
				l2.194-2.671l1.333-1.968l0.471-1.269l0.86-0.977l1.251-0.686l1.092-1.431l0.936-2.173l1.278-1.727l1.62-1.28l0.906-1.061
				l0.193-0.841l0.458-0.539l0.723-0.235l0.35-0.442l-0.023-0.652l0.197-0.442l0.418-0.236l0.698,0.083l0.978,0.401l0.591-0.074
				l0.202-0.548l-0.258-0.628l-0.72-0.706l0.271-0.766l1.89-1.238l1.396-0.471l0.883-0.767l0.836-1.217l1.356-0.849l1.878-0.476
				l0.497-0.458l-0.068-0.589l0.384-0.423l1.109-0.306l0.604-0.572l0.098-0.84l0.357-0.782l0.616-0.721l0.687-0.268l0.758,0.184
				l0.711-0.272l0.666-0.732l0.799-0.341l0.932,0.048l0.478-0.16l1.599-0.34l0.883-0.614l0.725-1.366l0.644-0.529l0.563,0.309
				l0.973-0.457l1.384-1.22l0.26-0.023l1.023-0.568l1.052-2.105l0.544-1.407l-0.13-1.15l-0.345-0.825l0.115-1.207l0.349-3.279
				l0.095-1.339l0.56-0.933l-0.036-0.924l-0.999-2.069l-1.008-1.814l-0.541-3.075l-0.356-1.166l-0.84-0.309l-0.759-1.016
				l-0.96-0.088l-0.452-0.388l-0.467-0.323l-0.681,0.095l-0.58,0.594l-1.08,0.021l-0.68,0.244l-0.8,0.529l-0.76-0.243l-0.48-0.464
				l-1.03-0.006l0.07-2.086l1.814-3.087l0.487-1.435l-0.236-0.813l0.543-2.864l1.321-4.905l0.422-3.202l-0.479-1.509l-0.013-1.053
				l0.678-0.896l0.331-0.267l-1.703-1.094l-0.917-0.997l-1.18-0.712l-1.266-0.569l-0.611,0.237l-0.655,0.332l-1.266,0.522
				l-1.442,0.903l-0.742,0.332l-1.31,0.333l-1.485,0.285l-1.222-0.189l-1.048-0.191l-0.655-0.57l-0.349-1.236v-1.044l-0.218-1.518
				l-0.787-0.853l-0.262-0.663l-0.044-0.806l0.088-0.899l0.218-0.662l-0.131-0.805l-0.349-0.568l0.088-0.992l-0.175-1.37
				l-0.524-0.85l-0.262-0.991v-0.99l-0.393-0.99l-0.044-1.084l0.349-0.989l0.131-0.988l-0.393-0.706l-0.743-0.423l-0.567-1.129
				l-0.088-1.457l-0.611-0.799l-0.655-0.657h-0.742l-1.136-0.375l-1.004,0.047l-1.616-0.047l-0.742-0.234l-0.393-0.517l-1.004-0.703
				l-0.568-1.218l-0.699-0.234l-1.004,0.374l-0.349,0.469l-0.393,0.656l-0.699,0.751l-0.917-0.047l-0.961,0.422l-0.917,0.047
				l-1.222,0.094l-1.223-0.375l-1.485-0.422l-1.266-0.281l-1.223,0.281l-0.829-0.235l-1.092-0.14l-1.222-0.094l-0.961-0.75
				l-1.048-0.422l-0.567,0.141l-0.743,0.469l-0.786-0.094l-1.005-0.375l-0.393-0.89l0.088-0.563l0.218-0.561l0.393-0.796
				l-0.219-0.843l0.088-0.747l0.175-0.656l0.175-0.747l-0.132-0.701l-0.043-0.747l-0.088-0.7l-0.131-0.747l0.524-1.073l0.436-0.887
				l-0.262-0.745l0.087-0.513l0.349-0.839l0.436-1.023l-0.043-1.908l-0.393-1.116l-0.426-0.302l-0.109-0.337l0.207-0.44
				l-0.226-0.454l-0.087-0.464l0.226-0.406l-0.313-0.802l-0.625-0.232l-0.218-0.232l-0.219-0.882l-0.175-1.02l0.087-0.788
				l-0.306-0.695l-0.436-0.416l-0.436-0.741l-0.437-0.556l-0.174-0.786l-0.29-1.016l0.872-0.19l0.345-0.569l0.614-0.771l0.805-0.202
				l0.958-0.284l0.355-0.57l-2.234-2.05l-1.341-1.23l0.785-1.662l1.325-2.8l1.283-2.708l0.979-2.064l0.25-0.381l0.854-0.132
				l-0.156-1.064l-0.03-0.697l-0.69-0.041l0.767-2.51l1.133-3.576l0.86-2.706l0.276-0.453l0.62-0.127l0.139-0.313l-0.745-0.436
				l-0.454-0.84l-0.993-2.414l-1.565-3.799l-0.115-1.359l-0.576-0.839l-0.958,0.278l-1.134-0.267l-2.834-2.061l-1.877-1.113
				l-0.637-0.658l-0.282-2.111l-0.56-2.33l-0.242-2.88l0.099-0.692l1.587-2.182l-0.005-1.102l0.135-0.962l-0.066-0.76l-0.393-0.011
				l-0.638,0.332l-0.962,0.256l-0.546,0.021l-5.537-0.206l-6.298-0.235l-5.24-0.195l-4.548-0.169l-0.153-1.875l-0.257-3.142
				l-0.182-2.227l-0.289-3.53l-1.824-2.196l-1.98-2.381l-0.696-0.609l2.392-0.076l1.699-0.055l-0.337-6.383l-0.517-0.651
				l-0.458-2.057l-0.311-1.164l-0.844-0.944l-0.191-1.06l0.154-0.708l0.461-0.439l0.305-1.092l-0.229-1.099l-0.499-1.022
				l-0.613-0.98l-1.172-0.602l-1.677-1.093l-2.537-1.389l-2.146-0.967l-0.689,0.119l-3.788,0.378l-1.261,0.198l-0.846-0.221
				l-2.829,0.01l-1.111-0.744l-0.932-0.865l-1.981-2.215l-0.307-1.108l-0.767-0.351l-1.16,0.134l-1.174-0.151l-2.28-0.918
				l-2.133-0.942l-1.035,0.039l-0.92-0.586l-1.621-1.435l-0.756-0.559l-0.346-0.742l-0.345-1.093l-0.651-0.235l-0.843,0.196
				l-0.912,0.561l-1.28-0.374l-1.565-1.007l-1.012-0.786l-0.578-0.373l-1.359-0.55l-1.314-0.115l-1.987,0.81l-1.625-0.331
				l-2.554-0.293l-2.185-0.585l-0.796-1.526l-0.431-1.01l-1.297-0.632l-1.035-0.771l-1.233-1.169l-0.613-0.39l-1.115-0.326
				l-1.032-0.413l-0.115-0.74l-0.384-0.974l-0.09-0.241l-0.702-1.182l-0.328-0.082l-0.364,0.232l-0.273,0.171l-0.295-0.209
				l-0.053-0.529l0.19-0.846l-0.407-0.888l-1.004-0.931l-0.525-0.962l-0.046-0.996l-0.223-0.665l-0.402-0.336l-0.225-0.584
				l-0.049-0.829l0.291-0.988l0.631-1.144l-0.135-1.764l-0.901-2.378l-0.498-1.715l-0.094-1.052l0.135-0.779l0.547-0.757
				l1.088-1.857l0.191-1.416l-0.343-1.597l-0.047-1.217l0.248-0.837l-0.377-1.097l-0.769-1.036l-0.536-0.026l-0.729,0.283
				l-0.881,0.875l-1.035,0.155l-0.92-0.541l-2.877,0.226l-4.474,0.541l-1.791,0.56l-1.052,0.239l-1.273,0.183l-2.042,1.007
				l-5.038,3.91l-1.043,0.566l-1.188,0.078l-0.69,0.542l-1.112,0.426l-2.185,1.549l-1.112,1.241l-0.728,1.124l-0.844,0.039
				l-0.651-0.31l-2.069,0.155l-1.056,0.383l-1.148,1.094l-1.425,1.978l-0.588,0.562l-1.147,0.582l-1.325,0.482l-1.642,0.727
				l-0.736,0.048l-0.648,0.129l-0.56-0.332l-0.187-0.709l-0.848-0.448l-2.024-0.224l-2.995-0.517l-3.09-0.1l-1.533,0.048
				l-1.26,0.031l-2.189-0.277l-1.592-0.047l-1.399,0.702l-2.03,0.872l-0.928,0.222l-0.681,0.033l-0.664-0.108l-0.774-0.452
				l-1.088-1.041l-0.836,0.401l-0.605,0.446l0.01-2.264l0.016-3.402l0.013-2.998l0.011-2.397l0.012-2.795l0.009-1.971l0.569-0.749
				l0.351-0.837l-0.422-1.119l0.091-1.025l0.291-0.713l0.384-0.696l-0.882,0.348l-0.383,0.193l-0.469,0.529l-1.136,0.714
				l-0.763,0.713l-0.901,0.582l-1.139,1.287l-0.937,0.706l-0.971,0.449l-1.62,1.512l-1.34,0.3l-3.547,0.233l-3.69-0.007
				l-3.374-0.005l-0.51-0.019l0.033-1.246l0.082-0.88l-1.15-0.928l-0.077-1.143l-0.306-0.789l-0.384-0.965l-0.805-0.618
				l-1.132-0.239l-1.858-0.534l-2.757-0.555l-2.634-0.039l-2.583,0.053l1.579-1.937l1.578-1.935l-0.048-1.686l-1.274-1.465
				l-0.687-0.913l-1.064-1.257l-1.311-0.867l-0.717-1.154l0.066-0.701l-0.115-0.462l-0.498-0.269l-0.498-0.423l-0.69-0.462
				l-0.805-0.615v-0.616l-0.307-0.655l-0.498-0.769v-0.616l-0.46-0.961l-0.498-0.692l-0.498-0.462l-0.729-0.653l0.038-0.539
				l0.537-0.269l0.23-0.614l-0.077-0.616l-0.614-0.384l-0.729-0.193l-0.958-1.114l-0.69-0.576l-0.46-0.346l-0.268-0.384l0.268-0.269
				l0.307-0.385l0.077-0.614l-0.153-0.576v-0.5l0.46-0.154l0.498,0.077l0.498-0.307l0.652-0.115l0.729-0.077l0.384-0.345
				l-0.039-0.615l-0.46-1.19l-0.46-0.498l-0.153-0.729l0.375-1.405l0.24-0.896l0.839-0.951l2.57-2.038l2.303-1.384l1.124-0.141
				l0.83-0.513l0.529-0.784l0.146-0.857l-0.119-0.746l-0.427-1.104l-0.512-1.375l-0.384-0.765l0.346-0.92l0.614-1.257l1.252-1.897
				l1.164-2.039l0.128-0.596l0.149-1.244l0.537-2.538l0.297-1.374l-0.154-0.534l0.269-0.46l0.728-0.382l1.759-0.35l1.193-0.759
				l1.84-1.426l1.534-1.517l1.268-0.488l2.301-1.403l1.322-0.89l0.518-0.28l1.3-0.644l2.329-0.225l1.941-0.231l1.097-0.423
				l1.604-0.175l1.08-0.475l1.199-0.013l2.252-0.483l0.767-0.726l0.655-0.864l0.878-0.74l1.029-0.19l1.149,0.128l1.372-0.014
				l1.664-0.23l0.805,0.573l0.353,0.701l1.026,0.713l0.729-0.04l0.729-0.152l0.997,0.611l0.652-0.077l0.422-0.343l0.081-0.858
				l0.234-0.465l0.491-2.683l0.809-4.426l0.734-4.011l0.812-4.438l0.839-4.583l0.85-4.64l0.697-3.807l0.6-3.272l0.367-2.007
				l0.577-2.628l0.225-2.309l0.233-0.666l-0.148-0.56l-0.498-0.796l0.005-0.35l0.058-0.464l-0.058-0.405l-0.524-0.433l-0.407-0.261
				l-0.32-0.375l-0.146-0.521l-0.262-0.52l-0.117-0.549l-0.378-0.434l-0.116-0.549l0.262-0.52l0.117-0.549l-0.117-0.521
				l-0.146-0.607l-0.292-0.578l-0.442-0.352l-1.056-0.392l-1.062-0.934l-1.252-0.838l-1.601-1.591l-0.349-0.752l-0.006-2.065
				l0.069-2.24l0.103-3.384l0.053-1.721l0.904-0.095l0.797-0.047l0.832-0.119l0.725-0.118l0.665-0.248l0.5-0.307l0.595-0.201
				l0.464,0.071l0.464-0.272l0.512-0.26l0.499-0.213l0.725-0.177l0.677,0.414l0.38,0.413l0.44,0.201l0.416-0.047l0.286,0.036
				l0.297,0.33l0.38,0.024l0.547-0.059l0.511-0.071l0.238-0.094l0.036-0.213l-0.131-0.366l-0.179-0.343l0.143-0.531l0.012-0.638
				l0.024-0.815l-0.404-0.449l-0.404-0.851l-0.452-0.685l-0.702-0.46l-0.654-0.177l-0.547,0.284l-0.511,0.047l-0.38-0.259
				l-0.618-0.012l-0.666-0.083l-0.704-0.098l-1.269,0.186l-0.453-0.23l-0.618-0.024l-0.713,0.248l0.018-3.27l0.017-3.084
				l0.012-2.163l0.642,0.047l0.797-0.39l1.182-0.06l0.908-0.411l0.506-0.033l0.961,0.201l1.001,0.422l0.985,0.06l2.581-0.001
				l2.787-0.001l3.099-0.001l3.103-0.001l2.692-0.001l0.832,0.024l-0.485-0.718l-0.564-0.931l0.218-0.733l0.279-0.738l0.324-0.386
				l0.839,0.41l0.703,1.255l0.583,0.946l0.569,0.466l0.707,0.053l0.801-0.159l0.798-0.387l1.363-1.733l1.355-1.482l0.702-0.498
				l0.745-0.458l0.553-0.174l0.757,0.058l0.64,0.405l0.414,0.706l1.516,2.457l1.143,1.853l0.384,1.155l0.024,2.821l-0.071,2.5
				l0.15,0.323l0.225,0.092L235.321,83.016z M463.049,102.064l1.234,0.058l1.747-0.248l1.17-0.614l1.309-0.12l1.295,0.064
				l4.363,0.681l2.621,0.211l0.959,0.218l0.937,0.31l0.684,0.334l0.172,0.728l-0.638,1.163l-0.474,1.223l-0.442,1.707l-0.342,0.347
				l-0.572-0.091l0.356,1.528l-0.13,0.611l-0.283,0.594l-0.701,1.234l-1.063,1.571l-0.316,0.329l-0.81,0.546l-0.658,0.698
				l0.141,0.656l0.329,0.661l-0.39,0.828l-1.258,1.211l-0.753,0.293l-0.694,0.123l-0.639-0.118l-1.133-1.213l-0.119,0.949
				l-0.305,0.971l-0.385,0.532l-1.464-0.056l-0.815-0.52l-1.321-0.577l-0.251,1.559l-0.821,1.075l-0.828,0.337l-1.297,0.227
				l-0.744,0.457l-1.402-0.357l-1.302-0.715l-0.736-0.062l-0.575,0.578l-3.026,0.106l-1.387,0.587l-0.847-0.167l-1.247-1.184
				l-0.2-0.788l-0.742-1.596l-0.666-1.896l-0.474-1.722l0.4-1.488l0.808,0.05l0.956,0.222l0.203-0.105l0.047-0.477l-0.211-0.396
				l-1.541,0.063l-0.973-0.884l-0.169-1.366l0.2-2.839l0.126-0.583l0.68-0.813l0.222-0.72l-0.168-0.765l0.292-1.387l0.636-1.201
				l2.429-1.514l2.817-0.538L463.049,102.064z M461.602,95.541l0.541,0.685l-1.871,2.742l-1.032,0.395l-1.128,0.08l-1.461-0.817
				l-2.277,0.058l-0.711-0.194l-0.075-1.195l0.957-1.276l1.91,0.068l3.287-1.023L461.602,95.541z M454.198,73.629l-1.318,0.599
				l-0.757-0.231l-0.698-1.562l0.237-1.3l0.954-0.431l0.741,0.092l0.273,0.167l0.659,2.128L454.198,73.629z M449.525,100.784
				l-3.611,2.567l-1.223-0.843l-0.252-0.488l0.208-0.492l-0.044-0.21l0.405-0.88l2.019-0.722l1.015-0.122l1.298,0.225l0.217,0.628
				L449.525,100.784z M465.488,100.532l-3.498,0.411l-1.601-0.654l0.362-0.551l1.193-0.879l1.454-0.624l1.304-0.275l1.36,0.347
				l0.372,0.737l-0.113,0.742L465.488,100.532z M452.519,97.231l-0.235,1.927l-2.376-0.814l0.178-1.972l1.112-0.553l0.986-1.049
				l0.336-1.286l0.02-1.748l0.366-0.304l0.319-0.124l0.288,0.12l0.111,2.625l0.135,1.607L452.519,97.231z M456.126,93.903
				l-1.431,0.444l-0.267-0.415l-0.002-1.648l0.403-0.904l1.827-0.253l0.187-0.266l0.525-0.171l0.291,0.567l-0.042,0.945
				L456.126,93.903z M433.95,117.864l-1.398,0.247l1.8-3.281l1.611-1.527l0.023-3.031l1.746-2.695l1.605-1.098l2.251-0.322
				l1.231,1.643l-1.526,4.657l-0.446,0.027l-2.047,2.457l-2.278,1.715L433.95,117.864z"/>
		</defs>
		<clipPath id="SVGID_2_">
			<use xlink:href="#SVGID_1_"  style="overflow:visible;"/>
		</clipPath>
		<rect x="14.286" y="30" class="st0" width="771.429" height="540"/>
		<path class="st1" d="M79.857,300L400,504.428L720.144,300L400,95.572L79.857,300z"/>
		<circle class="st2" cx="400" cy="300" r="135"/>
		<g class="st3">
			<defs>
				<circle id="SVGID_3_" cx="400" cy="300" r="135"/>
			</defs>
			<clipPath id="SVGID_4_">
				<use xlink:href="#SVGID_3_"  style="overflow:visible;"/>
			</clipPath>
			<path class="st4" d="M-5,570c0-181.07,146.787-327.857,327.857-327.857S650.714,388.93,650.714,570h-19.286
				c0-170.42-138.152-308.571-308.571-308.571C152.438,261.429,14.286,399.58,14.286,570H-5z"/>
		</g>
		<g class="st3">
			<g transform="rotate(-7)">
				<path class="st5" d="M709.82-1216.547c-0.433-3.524-3.354-6.065-6.526-5.675c-3.171,0.389-5.392,3.562-4.96,7.086
					c0.433,3.524,3.355,6.064,6.526,5.675C708.032-1209.851,710.252-1213.024,709.82-1216.547z M704.077-1219.755
					c4.37,0,4.37,7.835,0,7.835C699.707-1211.92,699.707-1219.755,704.077-1219.755z"/>
			</g>
			<g>
				<g transform="rotate(2)">
					<path id="E" class="st5" d="M747.957-1211.798l11.564,0.404l0.084-2.386l-9.362-0.327l0.116-3.304l7.342,0.256l0.077-2.203
						l-7.343-0.257l0.09-2.57l8.811,0.308l0.084-2.386l-11.015-0.385L747.957-1211.798z"/>
				</g>
				<g transform="rotate(5)">
					<path id="M" class="st5" d="M764.268-1211.104l2.195,0.192l0.769-8.783l1.793,9.007l2.012,0.176l3.33-8.559l-0.769,8.783
						l2.196,0.193l1.121-12.809l-3.202-0.28l-3.33,8.558l-1.793-9.007l-3.202-0.28L764.268-1211.104z"/>
				</g>
				<g transform="rotate(9.75)">
					<path id="e" class="st5" d="M790.906-1208.099l9.504,1.633l0.374-2.173l-7.332-1.26l0.498-2.896l5.973,1.026l0.374-2.172
						l-5.973-1.026l0.342-1.991l7.105,1.221l0.373-2.172l-9.278-1.595L790.906-1208.099z"/>
				</g>
				<g>
					<g id="R_1_">
						<g transform="rotate(17.5)">
							<path id="P_2_" class="st5" d="M844.782-1204.024 M831.095-1199.095"/>
						</g>
					</g>
					<g>
						<g id="G">
							<g>
								<defs>
									<path id="SVGID_5_" d="M861.876-1188.233l5.127-11.791l10.612,4.614l-5.127,11.79L861.876-1188.233z M870.624-1193.843
										l-0.879,2.021l5.306,2.307l0.879-2.021L870.624-1193.843z"/>
								</defs>
								<clipPath id="SVGID_6_">
									<use xlink:href="#SVGID_5_"  style="overflow:visible;"/>
								</clipPath>
							</g>
							
								<rect x="870.019" y="-1190.561" transform="matrix(-0.9171 -0.3987 0.3987 -0.9171 2146.8428 -1932.8483)" class="st5" width="4.867" height="1.837"/>
							
								<rect x="872.008" y="-1190.148" transform="matrix(-0.9171 -0.3987 0.3987 -0.9171 2146.72 -1927.3815)" class="st5" width="1.837" height="6.429"/>
						</g>
						<g transform="translate(-420,1470)">
							<g transform="rotate(29.5)">
								<path id="E_1_" class="st5" d="M891.353-1174.214l10.071,5.698l1.176-2.078l-8.153-4.613l1.628-2.877l6.394,3.618
									l1.086-1.918l-6.395-3.618l1.267-2.238l7.673,4.342l1.176-2.078l-9.591-5.427L891.353-1174.214z"/>
							</g>
							<g transform="rotate(32.5)">
								<path id="S" class="st5" d="M910.111-1167.92c-0.691,1.084,0.009,2.293,1.559,3.279c1.549,0.988,2.604,0.952,3.05,0.255
									c1.406-2.208-6.725-5.426-4.219-9.275c2.161-3.306,5.857-0.733,7.252,0.155c1.394,0.888,3.633,3.186,1.892,5.833
									l-2.363-1.506c0.74-1.161-0.073-2.278-1.312-3.067c-1.201-0.765-2.176-1.114-2.892,0.009
									c-1.198,1.796,6.771,5.185,4.328,9.018c-1.801,2.827-4.934,1.593-7.026,0.26c-1.782-1.135-4.444-3.811-2.709-6.516
									L910.111-1167.92z"/>
							</g>
							<g transform="rotate(35.5)">
								<path id="S_1_" class="st5" d="M923.904-1158.799c-0.746,1.047-0.11,2.29,1.385,3.357s2.551,1.086,3.032,0.414
									c1.519-2.131-6.431-5.771-3.727-9.483c2.33-3.188,5.888-0.426,7.233,0.534c1.346,0.961,3.461,3.371,1.584,5.924
									l-2.281-1.626c0.8-1.122,0.047-2.279-1.149-3.133c-1.159-0.827-2.115-1.226-2.889-0.142
									c-1.29,1.731,6.489,5.531,3.849,9.233c-1.946,2.729-5.011,1.332-7.029-0.109c-1.72-1.226-4.239-4.037-2.365-6.648
									L923.904-1158.799z"/>
							</g>
						</g>
						<g>
							<g>
								<g>
									<g id="c">
										<path id="t" class="st6" d="M709.797-1200.03l-1.788,5.502l2.751,0.894"/>
										<g transform="scale(-1,1)">
											<path id="t_1_" class="st6" d="M709.797-1200.03l1.787,5.502l-2.751,0.894"/>
										</g>
									</g>
									<g>
										<g id="c_1_">
											<path id="t_2_" class="st6" d="M715.299-1196.033h-5.786v2.893"/>
											<g transform="rotate(72)">
												<path id="t_3_" class="st6" d="M715.298-1196.033l-4.68,3.401l-1.7-2.341"/>
											</g>
										</g>
										<g>
											<g id="c_2_">
												<path id="t_4_" class="st6" d="M704.294-1196.033l4.68,3.401l1.7-2.341"/>
												<g transform="rotate(-72)">
													<path id="t_5_" class="st6" d="M704.294-1196.033h5.785v2.893"/>
												</g>
											</g>
											<g>
												<g id="c_3_">
													<path id="t_6_" class="st6" d="M713.197-1189.564l-1.788-5.503l-2.751,0.894"/>
													<g transform="rotate(144)">
														<path id="t_7_" class="st6" d="M713.197-1189.564l-4.681-3.401l1.7-2.341"/>
													</g>
												</g>
												<g id="star">
													<g id="c_4_">
														<path id="t_8_" class="st6" d="M706.395-1189.564l4.681-3.401l-1.7-2.341"/>
														<g id="αCMi" transform="scale(31.5)">
															<path id="t_9_" class="st6" d="M706.395-1189.564l1.788-5.503l2.752,0.894"/>
														</g>
													</g>
												</g>
												<g>
													<g>
														<g>
															<g id="c_5_">
																<path id="t_10_" class="st6" d="M721.735-1143.275l-1.788,5.501l2.752,0.895"/>
																<g transform="scale(-1,1)">
																	<path id="t_11_" class="st6" d="M721.735-1143.275l1.788,5.501l-2.752,0.895"/>
																</g>
															</g>
															<g>
																<g id="c_6_">
																	<path id="t_12_" class="st6" d="M727.238-1139.278h-5.786v2.893"/>
																	<g transform="rotate(72)">
																		<path id="t_13_" class="st6" d="M727.238-1139.278l-4.681,3.401l-1.7-2.34"/>
																	</g>
																</g>
																<g>
																	<g id="c_7_">
																		<path id="t_14_" class="st6" d="M716.233-1139.278l4.681,3.401l1.7-2.34"/>
																		<g transform="rotate(-72)">
																			<path id="t_15_" class="st6" d="M716.233-1139.278h5.786v2.893"/>
																		</g>
																	</g>
																	<g>
																		<g id="c_8_">
																			<path id="t_16_" class="st6" d="M725.136-1132.809l-1.788-5.502l-2.751,0.894"/>
																			<g transform="rotate(144)">
																				<path id="t_17_" class="st6" d="M725.136-1132.809l-4.68-3.401l1.7-2.34"/>
																			</g>
																		</g>
																		<g id="star_1_">
																			<g id="c_9_">
																				<path id="t_18_" class="st6" d="M718.335-1132.809l4.68-3.401l-1.7-2.34"/>
																				<g id="αCMa" transform="scale(31.5)">
																					<path id="t_19_" class="st6" d="M718.335-1132.809l1.787-5.502l2.752,0.894"/>
																				</g>
																			</g>
																		</g>
																		<g>
																			<g>
																				<g>
																					<g id="c_10_">
																						<path id="t_20_" class="st6" d="M705.204-1130.189l-1.49,4.586l2.292,0.745"/>
																						<g transform="scale(-1,1)">
																							<path id="t_21_" class="st6" d="M705.204-1130.189l1.49,4.586l-2.292,0.745"/>
																						</g>
																					</g>
																					<g>
																						<g id="c_11_">
																							<path id="t_22_" class="st6" d="M709.79-1126.857h-4.821v2.411"/>
																							<g transform="rotate(72)">
																								<path id="t_23_" class="st6" d="M709.79-1126.857l-3.901,2.834l-1.418-1.95"/>
																							</g>
																						</g>
																						<g>
																							<g id="c_12_">
																								<path id="t_24_" class="st6" d="M700.619-1126.857l3.901,2.834l1.417-1.95"/>
																								<g transform="rotate(-72)">
																									<path id="t_25_" class="st6" d="M700.619-1126.857h4.821v2.411"/>
																								</g>
																							</g>
																							<g>
																								<g id="c_13_">
																									<path id="t_26_" class="st6" d="M708.039-1121.467l-1.49-4.586l-2.294,0.745"/>
																									<g transform="rotate(144)">
																										<path id="t_27_" class="st6" d="M708.039-1121.467l-3.901-2.835l1.417-1.95"/>
																									</g>
																								</g>
																								<g id="star_2_">
																									<g id="c_14_">
																										<path id="t_28_" class="st6" d="M702.37-1121.467l3.901-2.835l-1.417-1.95"/>
																										<g id="βCMa" transform="scale(26.25)">
																											<path id="t_29_" class="st6" d="M702.37-1121.467l1.49-4.586l2.294,0.745"/>
																										</g>
																									</g>
																								</g>
																							</g>
																						</g>
																					</g>
																				</g>
																			</g>
																		</g>
																	</g>
																</g>
															</g>
														</g>
													</g>
												</g>
											</g>
										</g>
									</g>
								</g>
							</g>
							<g id="c_22_">
								<path id="t_47_" class="st6" d="M820-1114.568l-1.788,5.502l2.752,0.895"/>
								<g transform="scale(-1,1)">
									<path id="t_46_" class="st6" d="M820-1114.568l1.788,5.502l-2.752,0.895"/>
								</g>
							</g>
							<g id="c_21_">
								<path id="t_43_" class="st6" d="M814.497-1110.571l4.681,3.401l1.7-2.34"/>
								<g transform="rotate(-72)">
									<path id="t_42_" class="st6" d="M814.497-1110.571h5.786v2.893"/>
								</g>
								<path id="t_45_" class="st6" d="M825.503-1110.571h-5.786v2.893"/>
								<path id="t_44_" class="st6" d="M825.503-1110.571l-4.681,3.401l-1.7-2.34"/>
							</g>
							<g id="c_20_">
								<path id="t_41_" class="st6" d="M823.401-1104.102l-1.788-5.503l-2.751,0.894"/>
								<g transform="rotate(144)">
									<path id="t_40_" class="st6" d="M823.401-1104.102l-4.68-3.401l1.7-2.34"/>
								</g>
							</g>
							<g id="star_3_">
								<g id="c_19_">
									<path id="t_39_" class="st6" d="M816.599-1104.102l4.68-3.401l-1.7-2.34"/>
									<g id="αCMa_1_" transform="scale(31.5)">
										<path id="t_38_" class="st6" d="M816.599-1104.102l1.787-5.503l2.752,0.894"/>
									</g>
								</g>
							</g>
							<g id="c_26_">
								<path id="t_57_" class="st6" d="M765.932-1104.869l-1.788,5.501l2.752,0.895"/>
								<g transform="scale(-1,1)">
									<path id="t_56_" class="st6" d="M765.932-1104.869l1.788,5.501l-2.752,0.895"/>
								</g>
							</g>
							<g id="c_25_">
								<path id="t_53_" class="st6" d="M760.429-1100.872l4.681,3.401l1.7-2.34"/>
								<g transform="rotate(-72)">
									<path id="t_52_" class="st6" d="M760.429-1100.872h5.786v2.893"/>
								</g>
								<path id="t_55_" class="st6" d="M771.434-1100.872h-5.786v2.893"/>
								<path id="t_54_" class="st6" d="M771.434-1100.872l-4.681,3.401l-1.7-2.34"/>
							</g>
							<g id="c_24_">
								<path id="t_51_" class="st6" d="M769.332-1094.403l-1.788-5.503l-2.751,0.894"/>
								<g transform="rotate(144)">
									<path id="t_50_" class="st6" d="M769.332-1094.403l-4.68-3.402l1.7-2.339"/>
								</g>
							</g>
							<g id="star_4_">
								<g id="c_23_">
									<path id="t_49_" class="st6" d="M762.531-1094.403l4.68-3.402l-1.7-2.339"/>
									<g id="αCMa_2_" transform="scale(31.5)">
										<path id="t_48_" class="st6" d="M762.531-1094.403l1.787-5.503l2.752,0.894"/>
									</g>
								</g>
							</g>
							<g id="c_30_">
								<path id="t_67_" class="st6" d="M914.569-1128.497l-1.788,5.502l2.752,0.895"/>
								<g transform="scale(-1,1)">
									<path id="t_66_" class="st6" d="M914.569-1128.497l1.788,5.502l-2.752,0.895"/>
								</g>
							</g>
							<g id="c_29_">
								<path id="t_63_" class="st6" d="M909.067-1124.5l4.681,3.401l1.7-2.34"/>
								<g transform="rotate(-72)">
									<path id="t_62_" class="st6" d="M909.067-1124.5h5.786v2.893"/>
								</g>
								<path id="t_65_" class="st6" d="M920.072-1124.5h-5.786v2.893"/>
								<path id="t_64_" class="st6" d="M920.072-1124.5l-4.681,3.401l-1.7-2.34"/>
							</g>
							<g id="c_28_">
								<path id="t_61_" class="st6" d="M917.97-1118.031l-1.788-5.503l-2.751,0.894"/>
								<g transform="rotate(144)">
									<path id="t_60_" class="st6" d="M917.97-1118.031l-4.68-3.401l1.7-2.34"/>
								</g>
							</g>
							<g id="star_5_">
								<g id="c_27_">
									<path id="t_59_" class="st6" d="M911.169-1118.031l4.68-3.401l-1.7-2.34"/>
									<g id="αCMa_3_" transform="scale(31.5)">
										<path id="t_58_" class="st6" d="M911.169-1118.031l1.787-5.503l2.752,0.894"/>
									</g>
								</g>
							</g>
							<g id="c_34_">
								<path id="t_77_" class="st6" d="M860.352-1083.998l-1.501,4.621l2.311,0.751"/>
								<g transform="scale(-1,1)">
									<path id="t_76_" class="st6" d="M860.352-1083.998l1.503,4.621l-2.311,0.751"/>
								</g>
							</g>
							<g id="c_33_">
								<path id="t_73_" class="st6" d="M855.731-1080.64l3.932,2.855l1.427-1.965"/>
								<g transform="rotate(-72)">
									<path id="t_72_" class="st6" d="M855.731-1080.64h4.86v2.43"/>
								</g>
								<path id="t_75_" class="st6" d="M864.975-1080.64h-4.861v2.43"/>
								<path id="t_74_" class="st6" d="M864.975-1080.64l-3.932,2.855l-1.428-1.965"/>
							</g>
							<g id="c_32_">
								<path id="t_71_" class="st6" d="M863.21-1075.207l-1.502-4.623l-2.31,0.751"/>
								<g transform="rotate(144)">
									<path id="t_70_" class="st6" d="M863.21-1075.207l-3.932-2.857l1.428-1.965"/>
								</g>
							</g>
							<g id="star_6_">
								<g id="c_31_">
									<path id="t_69_" class="st6" d="M857.496-1075.207l3.932-2.857l-1.428-1.965"/>
									<g id="αCMa_4_" transform="scale(31.5)">
										<path id="t_68_" class="st6" d="M857.496-1075.207l1.502-4.623l2.311,0.751"/>
									</g>
								</g>
							</g>
							<g id="c_38_">
								<path id="t_87_" class="st6" d="M887.395-1087.465l-1.501,4.622l2.311,0.751"/>
								<g transform="scale(-1,1)">
									<path id="t_86_" class="st6" d="M887.395-1087.465l1.503,4.622l-2.311,0.751"/>
								</g>
							</g>
							<g id="c_37_">
								<path id="t_83_" class="st6" d="M882.774-1084.108l3.932,2.855l1.427-1.965"/>
								<g transform="rotate(-72)">
									<path id="t_82_" class="st6" d="M882.774-1084.108h4.86v2.43"/>
								</g>
								<path id="t_85_" class="st6" d="M892.018-1084.108h-4.861v2.43"/>
								<path id="t_84_" class="st6" d="M892.018-1084.108l-3.932,2.855l-1.428-1.965"/>
							</g>
							<g id="c_36_">
								<path id="t_81_" class="st6" d="M890.253-1078.674l-1.502-4.623l-2.31,0.751"/>
								<g transform="rotate(144)">
									<path id="t_80_" class="st6" d="M890.253-1078.674l-3.932-2.858l1.428-1.965"/>
								</g>
							</g>
							<g id="star_7_">
								<g id="c_35_">
									<path id="t_79_" class="st6" d="M884.539-1078.674l3.932-2.858l-1.428-1.965"/>
									<g id="αCMa_5_" transform="scale(31.5)">
										<path id="t_78_" class="st6" d="M884.539-1078.674l1.502-4.623l2.311,0.751"/>
									</g>
								</g>
							</g>
							<g id="c_42_">
								<path id="t_97_" class="st6" d="M911.959-1104.809l-1.501,4.622l2.311,0.751"/>
								<g transform="scale(-1,1)">
									<path id="t_96_" class="st6" d="M911.959-1104.809l1.503,4.622l-2.311,0.751"/>
								</g>
							</g>
							<g id="c_41_">
								<path id="t_93_" class="st6" d="M907.337-1101.452l3.932,2.855l1.427-1.965"/>
								<g transform="rotate(-72)">
									<path id="t_92_" class="st6" d="M907.337-1101.452h4.86v2.43"/>
								</g>
								<path id="t_95_" class="st6" d="M916.581-1101.452h-4.861v2.43"/>
								<path id="t_94_" class="st6" d="M916.581-1101.452l-3.932,2.855l-1.428-1.965"/>
							</g>
							<g id="c_40_">
								<path id="t_91_" class="st6" d="M914.816-1096.018l-1.502-4.623l-2.31,0.751"/>
								<g transform="rotate(144)">
									<path id="t_90_" class="st6" d="M914.816-1096.018l-3.932-2.858l1.428-1.965"/>
								</g>
							</g>
							<g id="star_8_">
								<g id="c_39_">
									<path id="t_89_" class="st6" d="M909.102-1096.018l3.932-2.858l-1.428-1.965"/>
									<g id="αCMa_6_" transform="scale(31.5)">
										<path id="t_88_" class="st6" d="M909.102-1096.018l1.502-4.623l2.311,0.751"/>
									</g>
								</g>
							</g>
							<g id="c_46_">
								<path id="t_107_" class="st6" d="M920.072-1115.342l-1.501,4.622l2.311,0.751"/>
								<g transform="scale(-1,1)">
									<path id="t_106_" class="st6" d="M920.072-1115.342l1.503,4.622l-2.311,0.751"/>
								</g>
							</g>
							<g id="c_45_">
								<path id="t_103_" class="st6" d="M915.45-1111.984l3.932,2.855l1.427-1.965"/>
								<g transform="rotate(-72)">
									<path id="t_102_" class="st6" d="M915.45-1111.984h4.86v2.43"/>
								</g>
								<path id="t_105_" class="st6" d="M924.694-1111.984h-4.861v2.43"/>
								<path id="t_104_" class="st6" d="M924.694-1111.984l-3.932,2.855l-1.428-1.965"/>
							</g>
							<g id="c_44_">
								<path id="t_101_" class="st6" d="M922.929-1106.55l-1.503-4.623l-2.31,0.751"/>
								<g transform="rotate(144)">
									<path id="t_100_" class="st6" d="M922.929-1106.55l-3.932-2.858l1.428-1.965"/>
								</g>
							</g>
							<g id="star_9_">
								<g id="c_43_">
									<path id="t_99_" class="st6" d="M917.215-1106.55l3.932-2.858l-1.428-1.965"/>
									<g id="αCMa_7_" transform="scale(31.5)">
										<path id="t_98_" class="st6" d="M917.215-1106.55l1.501-4.623l2.311,0.751"/>
									</g>
								</g>
							</g>
							<g id="c_50_">
								<path id="t_117_" class="st6" d="M835.603-1140.894l-1.501,4.622l2.311,0.751"/>
								<g transform="scale(-1,1)">
									<path id="t_116_" class="st6" d="M835.603-1140.894l1.503,4.622l-2.311,0.751"/>
								</g>
							</g>
							<g id="c_49_">
								<path id="t_113_" class="st6" d="M830.981-1137.536l3.932,2.855l1.427-1.965"/>
								<g transform="rotate(-72)">
									<path id="t_112_" class="st6" d="M830.981-1137.536h4.86v2.43"/>
								</g>
								<path id="t_115_" class="st6" d="M840.225-1137.536h-4.861v2.43"/>
								<path id="t_114_" class="st6" d="M840.225-1137.536l-3.932,2.855l-1.428-1.965"/>
							</g>
							<g id="c_48_">
								<path id="t_111_" class="st6" d="M838.46-1132.102l-1.503-4.623l-2.31,0.751"/>
								<g transform="rotate(144)">
									<path id="t_110_" class="st6" d="M838.46-1132.102l-3.932-2.857l1.428-1.965"/>
								</g>
							</g>
							<g id="star_10_">
								<g id="c_47_">
									<path id="t_109_" class="st6" d="M832.746-1132.102l3.932-2.857l-1.428-1.965"/>
									<g id="αCMa_8_" transform="scale(31.5)">
										<path id="t_108_" class="st6" d="M832.746-1132.102l1.502-4.623l2.311,0.751"/>
									</g>
								</g>
							</g>
							<g id="c_54_">
								<path id="t_127_" class="st6" d="M820-1152.692l-1.502,4.622l2.311,0.751"/>
								<g transform="scale(-1,1)">
									<path id="t_126_" class="st6" d="M820-1152.692l1.502,4.622l-2.311,0.751"/>
								</g>
							</g>
							<g id="c_53_">
								<path id="t_123_" class="st6" d="M815.378-1149.334l3.932,2.855l1.427-1.965"/>
								<g transform="rotate(-72)">
									<path id="t_122_" class="st6" d="M815.378-1149.334h4.86v2.43"/>
								</g>
								<path id="t_125_" class="st6" d="M824.623-1149.334h-4.861v2.43"/>
								<path id="t_124_" class="st6" d="M824.623-1149.334l-3.932,2.855l-1.428-1.965"/>
							</g>
							<g id="c_52_">
								<path id="t_121_" class="st6" d="M822.859-1143.901l-1.503-4.623l-2.311,0.751"/>
								<g transform="rotate(144)">
									<path id="t_120_" class="st6" d="M822.859-1143.901l-3.933-2.858l1.428-1.965"/>
								</g>
							</g>
							<g id="star_11_">
								<g id="c_51_">
									<path id="t_119_" class="st6" d="M817.144-1143.901l3.932-2.858l-1.428-1.965"/>
									<g id="αCMa_9_" transform="scale(31.5)">
										<path id="t_118_" class="st6" d="M817.144-1143.901l1.502-4.623l2.311,0.751"/>
									</g>
								</g>
							</g>
							<g id="c_58_">
								<path id="t_137_" class="st6" d="M862.317-1216.991l-1.502,4.622l2.311,0.751"/>
								<g transform="scale(-1,1)">
									<path id="t_136_" class="st6" d="M862.317-1216.991l1.502,4.622l-2.311,0.751"/>
								</g>
							</g>
							<g id="c_57_">
								<path id="t_133_" class="st6" d="M857.696-1213.633l3.932,2.855l1.427-1.965"/>
								<g transform="rotate(-72)">
									<path id="t_132_" class="st6" d="M857.696-1213.633h4.86v2.43"/>
								</g>
								<path id="t_135_" class="st6" d="M866.94-1213.633h-4.861v2.43"/>
								<path id="t_134_" class="st6" d="M866.94-1213.633l-3.932,2.855l-1.428-1.965"/>
							</g>
							<g id="c_56_">
								<path id="t_131_" class="st6" d="M865.175-1208.199l-1.503-4.623l-2.31,0.751"/>
								<g transform="rotate(144)">
									<path id="t_130_" class="st6" d="M865.175-1208.199l-3.932-2.857l1.428-1.965"/>
								</g>
							</g>
							<g id="star_12_">
								<g id="c_55_">
									<path id="t_129_" class="st6" d="M859.461-1208.199l3.932-2.857l-1.428-1.965"/>
									<g id="αCMa_10_" transform="scale(31.5)">
										<path id="t_128_" class="st6" d="M859.461-1208.199l1.501-4.623l2.311,0.751"/>
									</g>
								</g>
							</g>
							<g id="c_18_">
								<path id="t_139_" class="st6" d="M768.655-1169.333l-1.46,4.493l2.247,0.73"/>
								<g transform="scale(-1,1)">
									<path id="t_138_" class="st6" d="M768.655-1169.333l1.46,4.493l-2.247,0.73"/>
								</g>
							</g>
							<g id="c_17_">
								<path id="t_35_" class="st6" d="M764.161-1166.069l3.823,2.777l1.388-1.911"/>
								<g transform="rotate(-72)">
									<path id="t_34_" class="st6" d="M764.161-1166.069h4.725v2.362"/>
								</g>
								<path id="t_37_" class="st6" d="M773.148-1166.069h-4.725v2.362"/>
								<path id="t_36_" class="st6" d="M773.148-1166.069l-3.823,2.777l-1.388-1.911"/>
							</g>
							<g id="c_16_">
								<path id="t_33_" class="st6" d="M771.432-1160.787l-1.46-4.493l-2.246,0.73"/>
								<g transform="rotate(144)">
									<path id="t_32_" class="st6" d="M771.432-1160.787l-3.822-2.777l1.388-1.911"/>
								</g>
							</g>
							<g id="star_13_">
								<g id="c_15_">
									<path id="t_31_" class="st6" d="M765.878-1160.787l3.822-2.777l-1.388-1.911"/>
									<g id="αCMa_11_" transform="scale(31.5)">
										<path id="t_30_" class="st6" d="M765.878-1160.787l1.46-4.493l2.247,0.73"/>
									</g>
								</g>
							</g>
							<g id="c_62_">
								<path id="t_149_" class="st6" d="M933.473-1125.228l-1.238,3.808l1.904,0.618"/>
								<g transform="scale(-1,1)">
									<path id="t_148_" class="st6" d="M933.473-1125.228l1.237,3.808l-1.903,0.618"/>
								</g>
							</g>
							<g id="c_61_">
								<path id="t_145_" class="st6" d="M929.664-1122.462l3.24,2.353l1.177-1.619"/>
								<g transform="rotate(-72)">
									<path id="t_144_" class="st6" d="M929.664-1122.462h4.004v2.002"/>
								</g>
								<path id="t_147_" class="st6" d="M937.281-1122.462h-4.004v2.002"/>
								<path id="t_146_" class="st6" d="M937.281-1122.462l-3.24,2.353l-1.176-1.619"/>
							</g>
							<g id="c_60_">
								<path id="t_143_" class="st6" d="M935.826-1117.985l-1.238-3.807l-1.904,0.619"/>
								<g transform="rotate(144)">
									<path id="t_142_" class="st6" d="M935.826-1117.985l-3.239-2.353l1.177-1.62"/>
								</g>
							</g>
							<g id="star_14_">
								<g id="c_59_">
									<path id="t_141_" class="st6" d="M931.12-1117.985l3.238-2.353l-1.177-1.62"/>
									<g id="αCMa_12_" transform="scale(31.5)">
										<path id="t_140_" class="st6" d="M931.12-1117.985l1.236-3.807l1.904,0.619"/>
									</g>
								</g>
							</g>
							<g id="c_66_">
								<path id="t_159_" class="st6" d="M856.967-1180.756l-1.238,3.808l1.904,0.618"/>
								<g transform="scale(-1,1)">
									<path id="t_158_" class="st6" d="M856.967-1180.756l1.237,3.808l-1.903,0.618"/>
								</g>
							</g>
							<g id="c_65_">
								<path id="t_155_" class="st6" d="M853.159-1177.99l3.24,2.353l1.177-1.619"/>
								<g transform="rotate(-72)">
									<path id="t_154_" class="st6" d="M853.159-1177.99h4.004v2.001"/>
								</g>
								<path id="t_157_" class="st6" d="M860.775-1177.99h-4.004v2.001"/>
								<path id="t_156_" class="st6" d="M860.775-1177.99l-3.24,2.353l-1.176-1.619"/>
							</g>
							<g id="c_64_">
								<path id="t_153_" class="st6" d="M859.321-1173.514l-1.238-3.807l-1.904,0.619"/>
								<g transform="rotate(144)">
									<path id="t_152_" class="st6" d="M859.321-1173.514l-3.239-2.353l1.177-1.62"/>
								</g>
							</g>
							<g id="star_15_">
								<g id="c_63_">
									<path id="t_151_" class="st6" d="M854.614-1173.514l3.238-2.353l-1.177-1.62"/>
									<g id="αCMa_13_" transform="scale(31.5)">
										<path id="t_150_" class="st6" d="M854.614-1173.514l1.236-3.807l1.904,0.619"/>
									</g>
								</g>
							</g>
							<g id="c_70_">
								<path id="t_169_" class="st6" d="M887.05-1099.639l-1.238,3.807l1.904,0.619"/>
								<g transform="scale(-1,1)">
									<path id="t_168_" class="st6" d="M887.05-1099.639l1.237,3.807l-1.903,0.619"/>
								</g>
							</g>
							<g id="c_69_">
								<path id="t_165_" class="st6" d="M883.242-1096.873l3.239,2.353l1.177-1.619"/>
								<g transform="rotate(-72)">
									<path id="t_164_" class="st6" d="M883.242-1096.873h4.004v2.001"/>
								</g>
								<path id="t_167_" class="st6" d="M890.858-1096.873h-4.004v2.001"/>
								<path id="t_166_" class="st6" d="M890.858-1096.873l-3.24,2.353l-1.176-1.619"/>
							</g>
							<g id="c_68_">
								<path id="t_163_" class="st6" d="M889.403-1092.397l-1.238-3.808l-1.904,0.62"/>
								<g transform="rotate(144)">
									<path id="t_162_" class="st6" d="M889.403-1092.397l-3.239-2.353l1.177-1.62"/>
								</g>
							</g>
							<g id="star_16_">
								<g id="c_67_">
									<path id="t_161_" class="st6" d="M884.697-1092.397l3.238-2.353l-1.177-1.62"/>
									<g id="αCMa_14_" transform="scale(31.5)">
										<path id="t_160_" class="st6" d="M884.697-1092.397l1.236-3.808l1.904,0.62"/>
									</g>
								</g>
							</g>
							<g id="c_74_">
								<path id="t_179_" class="st6" d="M901.155-1097.224l-1.238,3.807l1.904,0.618"/>
								<g transform="scale(-1,1)">
									<path id="t_178_" class="st6" d="M901.155-1097.224l1.237,3.807l-1.903,0.618"/>
								</g>
							</g>
							<g id="c_73_">
								<path id="t_175_" class="st6" d="M897.347-1094.458l3.239,2.353l1.177-1.619"/>
								<g transform="rotate(-72)">
									<path id="t_174_" class="st6" d="M897.347-1094.458h4.004v2.002"/>
								</g>
								<path id="t_177_" class="st6" d="M904.963-1094.458h-4.004v2.002"/>
								<path id="t_176_" class="st6" d="M904.963-1094.458l-3.24,2.353l-1.176-1.619"/>
							</g>
							<g id="c_72_">
								<path id="t_173_" class="st6" d="M903.509-1089.982l-1.238-3.808l-1.904,0.619"/>
								<g transform="rotate(144)">
									<path id="t_172_" class="st6" d="M903.509-1089.982l-3.239-2.353l1.177-1.62"/>
								</g>
							</g>
							<g id="star_17_">
								<g id="c_71_">
									<path id="t_171_" class="st6" d="M898.802-1089.982l3.238-2.353l-1.177-1.62"/>
									<g id="αCMa_15_" transform="scale(31.5)">
										<path id="t_170_" class="st6" d="M898.802-1089.982l1.236-3.808l1.904,0.619"/>
									</g>
								</g>
							</g>
							<g id="c_78_">
								<path id="t_189_" class="st6" d="M887.718-1072.774l-1.238,3.808l1.904,0.618"/>
								<g transform="scale(-1,1)">
									<path id="t_188_" class="st6" d="M887.718-1072.774l1.237,3.808l-1.903,0.618"/>
								</g>
							</g>
							<g id="c_77_">
								<path id="t_185_" class="st6" d="M883.909-1070.008l3.239,2.353l1.177-1.619"/>
								<g transform="rotate(-72)">
									<path id="t_184_" class="st6" d="M883.909-1070.008h4.004v2.002"/>
								</g>
								<path id="t_187_" class="st6" d="M891.525-1070.008h-4.004v2.002"/>
								<path id="t_186_" class="st6" d="M891.525-1070.008l-3.24,2.353l-1.176-1.619"/>
							</g>
							<g id="c_76_">
								<path id="t_183_" class="st6" d="M890.071-1065.531l-1.238-3.808l-1.904,0.619"/>
								<g transform="rotate(144)">
									<path id="t_182_" class="st6" d="M890.071-1065.531l-3.239-2.353l1.177-1.62"/>
								</g>
							</g>
							<g id="star_18_">
								<g id="c_75_">
									<path id="t_181_" class="st6" d="M885.364-1065.531l3.238-2.353l-1.177-1.62"/>
									<g id="αCMa_16_" transform="scale(31.5)">
										<path id="t_180_" class="st6" d="M885.364-1065.531l1.236-3.808l1.904,0.619"/>
									</g>
								</g>
							</g>
							<g id="c_82_">
								<path id="t_199_" class="st6" d="M872.038-1095.158l-1.238,3.808l1.904,0.618"/>
								<g transform="scale(-1,1)">
									<path id="t_198_" class="st6" d="M872.038-1095.158l1.237,3.808l-1.903,0.618"/>
								</g>
							</g>
							<g id="c_81_">
								<path id="t_195_" class="st6" d="M868.229-1092.391l3.239,2.353l1.177-1.619"/>
								<g transform="rotate(-72)">
									<path id="t_194_" class="st6" d="M868.229-1092.391h4.004v2.001"/>
								</g>
								<path id="t_197_" class="st6" d="M875.845-1092.391h-4.004v2.001"/>
								<path id="t_196_" class="st6" d="M875.845-1092.391l-3.24,2.353l-1.176-1.619"/>
							</g>
							<g id="c_80_">
								<path id="t_193_" class="st6" d="M874.391-1087.915l-1.238-3.807l-1.904,0.619"/>
								<g transform="rotate(144)">
									<path id="t_192_" class="st6" d="M874.391-1087.915l-3.239-2.353l1.177-1.62"/>
								</g>
							</g>
							<g id="star_19_">
								<g id="c_79_">
									<path id="t_191_" class="st6" d="M869.684-1087.915l3.238-2.353l-1.177-1.62"/>
									<g id="αCMa_17_" transform="scale(31.5)">
										<path id="t_190_" class="st6" d="M869.684-1087.915l1.236-3.807l1.904,0.619"/>
									</g>
								</g>
							</g>
							<g id="c_86_">
								<path id="t_209_" class="st6" d="M849.723-1098.226l-1.238,3.807l1.904,0.618"/>
								<g transform="scale(-1,1)">
									<path id="t_208_" class="st6" d="M849.723-1098.226l1.237,3.807l-1.903,0.618"/>
								</g>
							</g>
							<g id="c_85_">
								<path id="t_205_" class="st6" d="M845.914-1095.459l3.239,2.353l1.177-1.619"/>
								<g transform="rotate(-72)">
									<path id="t_204_" class="st6" d="M845.914-1095.459h4.004v2.002"/>
								</g>
								<path id="t_207_" class="st6" d="M853.53-1095.459h-4.004v2.002"/>
								<path id="t_206_" class="st6" d="M853.53-1095.459l-3.24,2.353l-1.176-1.619"/>
							</g>
							<g id="c_84_">
								<path id="t_203_" class="st6" d="M852.076-1090.983l-1.238-3.808l-1.904,0.619"/>
								<g transform="rotate(144)">
									<path id="t_202_" class="st6" d="M852.076-1090.983l-3.239-2.353l1.177-1.62"/>
								</g>
							</g>
							<g id="star_20_">
								<g id="c_83_">
									<path id="t_201_" class="st6" d="M847.37-1090.983l3.238-2.353l-1.177-1.62"/>
									<g id="αCMa_18_" transform="scale(31.5)">
										<path id="t_200_" class="st6" d="M847.37-1090.983l1.236-3.808l1.904,0.619"/>
									</g>
								</g>
							</g>
							<g id="c_90_">
								<path id="t_219_" class="st6" d="M750.151-1128.76l-1.347,4.143l2.073,0.673"/>
								<g transform="scale(-1,1)">
									<path id="t_218_" class="st6" d="M750.151-1128.76l1.346,4.143l-2.071,0.673"/>
								</g>
							</g>
							<g id="c_89_">
								<path id="t_215_" class="st6" d="M746.006-1125.75l3.526,2.561l1.281-1.762"/>
								<g transform="rotate(-72)">
									<path id="t_214_" class="st6" d="M746.006-1125.75h4.358v2.178"/>
								</g>
								<path id="t_217_" class="st6" d="M754.295-1125.75h-4.358v2.178"/>
								<path id="t_216_" class="st6" d="M754.295-1125.75l-3.527,2.561l-1.28-1.762"/>
							</g>
							<g id="c_88_">
								<path id="t_213_" class="st6" d="M752.712-1120.879l-1.348-4.143l-2.072,0.674"/>
								<g transform="rotate(144)">
									<path id="t_212_" class="st6" d="M752.712-1120.879l-3.526-2.561l1.281-1.762"/>
								</g>
							</g>
							<g id="star_21_">
								<g id="c_87_">
									<path id="t_211_" class="st6" d="M747.59-1120.879l3.524-2.561l-1.281-1.762"/>
									<g id="αCMa_19_" transform="scale(31.5)">
										<path id="t_210_" class="st6" d="M747.59-1120.879l1.345-4.143l2.073,0.674"/>
									</g>
								</g>
							</g>
							<g id="c_94_">
								<path id="t_229_" class="st6" d="M746.007-1114.39l-1.238,3.808l1.904,0.618"/>
								<g transform="scale(-1,1)">
									<path id="t_228_" class="st6" d="M746.007-1114.39l1.237,3.808l-1.903,0.618"/>
								</g>
							</g>
							<g id="c_93_">
								<path id="t_225_" class="st6" d="M742.198-1111.624l3.239,2.353l1.177-1.619"/>
								<g transform="rotate(-72)">
									<path id="t_224_" class="st6" d="M742.198-1111.624h4.004v2.002"/>
								</g>
								<path id="t_227_" class="st6" d="M749.814-1111.624h-4.004v2.002"/>
								<path id="t_226_" class="st6" d="M749.814-1111.624l-3.24,2.353l-1.176-1.619"/>
							</g>
							<g id="c_92_">
								<path id="t_223_" class="st6" d="M748.36-1107.148l-1.238-3.808l-1.904,0.619"/>
								<g transform="rotate(144)">
									<path id="t_222_" class="st6" d="M748.36-1107.148l-3.239-2.353l1.177-1.62"/>
								</g>
							</g>
							<g id="star_22_">
								<g id="c_91_">
									<path id="t_221_" class="st6" d="M743.653-1107.148l3.238-2.353l-1.177-1.62"/>
									<g id="αCMa_20_" transform="scale(31.5)">
										<path id="t_220_" class="st6" d="M743.653-1107.148l1.236-3.808l1.904,0.619"/>
									</g>
								</g>
							</g>
							<g id="c_98_">
								<path id="t_239_" class="st6" d="M806.356-1139.943l-1.238,3.808l1.904,0.618"/>
								<g transform="scale(-1,1)">
									<path id="t_238_" class="st6" d="M806.356-1139.943l1.237,3.808l-1.903,0.618"/>
								</g>
							</g>
							<g id="c_97_">
								<path id="t_235_" class="st6" d="M802.547-1137.176l3.24,2.353l1.177-1.619"/>
								<g transform="rotate(-72)">
									<path id="t_234_" class="st6" d="M802.547-1137.176h4.004v2.002"/>
								</g>
								<path id="t_237_" class="st6" d="M810.164-1137.176h-4.004v2.002"/>
								<path id="t_236_" class="st6" d="M810.164-1137.176l-3.24,2.353l-1.176-1.619"/>
							</g>
							<g id="c_96_">
								<path id="t_233_" class="st6" d="M808.709-1132.7l-1.238-3.807l-1.904,0.619"/>
								<g transform="rotate(144)">
									<path id="t_232_" class="st6" d="M808.709-1132.7l-3.239-2.353l1.177-1.62"/>
								</g>
							</g>
							<g id="star_23_">
								<g id="c_95_">
									<path id="t_231_" class="st6" d="M804.003-1132.7l3.238-2.353l-1.177-1.62"/>
									<g id="αCMa_21_" transform="scale(31.5)">
										<path id="t_230_" class="st6" d="M804.003-1132.7l1.236-3.807l1.904,0.619"/>
									</g>
								</g>
							</g>
							<g id="c_102_">
								<path id="t_249_" class="st6" d="M734.849-1148l-0.753,2.315l1.159,0.377"/>
								<g transform="scale(-1,1)">
									<path id="t_248_" class="st6" d="M734.849-1148l0.752,2.315l-1.157,0.377"/>
								</g>
							</g>
							<g id="c_101_">
								<path id="t_245_" class="st6" d="M732.533-1146.318l1.97,1.431l0.716-0.985"/>
								<g transform="rotate(-72)">
									<path id="t_244_" class="st6" d="M732.533-1146.318h2.436v1.218"/>
								</g>
								<path id="t_247_" class="st6" d="M737.165-1146.318h-2.436v1.218"/>
								<path id="t_246_" class="st6" d="M737.165-1146.318l-1.971,1.431l-0.716-0.985"/>
							</g>
							<g id="c_100_">
								<path id="t_243_" class="st6" d="M736.28-1143.595l-0.752-2.315l-1.159,0.377"/>
								<g transform="rotate(144)">
									<path id="t_242_" class="st6" d="M736.28-1143.595l-1.97-1.431l0.716-0.985"/>
								</g>
							</g>
							<g id="star_24_">
								<g id="c_99_">
									<path id="t_241_" class="st6" d="M733.418-1143.595l1.97-1.431l-0.716-0.985"/>
									<g id="αCMa_22_" transform="scale(31.5)">
										<path id="t_240_" class="st6" d="M733.418-1143.595l0.752-2.315l1.158,0.377"/>
									</g>
								</g>
							</g>
							<g id="c_106_">
								<path id="t_259_" class="st6" d="M813.113-1129.549l-0.753,2.316l1.159,0.377"/>
								<g transform="scale(-1,1)">
									<path id="t_258_" class="st6" d="M813.113-1129.549l0.752,2.316l-1.157,0.377"/>
								</g>
							</g>
							<g id="c_105_">
								<path id="t_255_" class="st6" d="M810.797-1127.867l1.97,1.431l0.716-0.985"/>
								<g transform="rotate(-72)">
									<path id="t_254_" class="st6" d="M810.797-1127.867h2.436v1.218"/>
								</g>
								<path id="t_257_" class="st6" d="M815.429-1127.867h-2.436v1.218"/>
								<path id="t_256_" class="st6" d="M815.429-1127.867l-1.971,1.431l-0.716-0.985"/>
							</g>
							<g id="c_104_">
								<path id="t_253_" class="st6" d="M814.544-1125.144l-0.752-2.315l-1.159,0.377"/>
								<g transform="rotate(144)">
									<path id="t_252_" class="st6" d="M814.544-1125.144l-1.97-1.431l0.716-0.984"/>
								</g>
							</g>
							<g id="star_25_">
								<g id="c_103_">
									<path id="t_251_" class="st6" d="M811.682-1125.144l1.97-1.431l-0.716-0.984"/>
									<g id="αCMa_23_" transform="scale(31.5)">
										<path id="t_250_" class="st6" d="M811.682-1125.144l0.752-2.315l1.158,0.377"/>
									</g>
								</g>
							</g>
							<g id="c_110_">
								<path id="t_269_" class="st6" d="M819.915-1066.248l-0.574,1.764l0.883,0.288"/>
								<g transform="scale(-1,1)">
									<path id="t_268_" class="st6" d="M819.915-1066.248l0.574,1.764l-0.883,0.288"/>
								</g>
							</g>
							<g id="c_109_">
								<path id="t_265_" class="st6" d="M818.15-1064.967l1.503,1.091l0.545-0.75"/>
								<g transform="rotate(-72)">
									<path id="t_264_" class="st6" d="M818.15-1064.967h1.856v0.928"/>
								</g>
								<path id="t_267_" class="st6" d="M821.679-1064.967h-1.856v0.928"/>
								<path id="t_266_" class="st6" d="M821.679-1064.967l-1.501,1.091l-0.545-0.75"/>
							</g>
							<g id="c_108_">
								<path id="t_263_" class="st6" d="M821.006-1062.892l-0.572-1.764l-0.883,0.287"/>
								<g transform="rotate(144)">
									<path id="t_262_" class="st6" d="M821.006-1062.892l-1.502-1.091l0.546-0.749"/>
								</g>
							</g>
							<g id="star_26_">
								<g id="c_107_">
									<path id="t_261_" class="st6" d="M818.824-1062.892l1.502-1.091l-0.546-0.749"/>
									<g id="αCMa_24_" transform="scale(31.5)">
										<path id="t_260_" class="st6" d="M818.824-1062.892l0.573-1.764l0.883,0.287"/>
									</g>
								</g>
							</g>
						</g>
						<g transform="rotate(-7)">
							<path class="st5" d="M946.714-1146.061c1.633-3.153,0.658-6.901-2.18-8.37c-2.836-1.47-6.461-0.106-8.094,3.046
								c-1.633,3.153-0.657,6.9,2.18,8.37C941.456-1141.545,945.081-1142.91,946.714-1146.061z M943.787-1151.952
								c3.607,2.469-0.819,8.935-4.425,6.465C935.755-1147.954,940.181-1154.419,943.787-1151.952z"/>
						</g>
					</g>
				</g>
				<path class="st5" d="M742.109-1222.203c-1.417-2.281-4.274-2.389-4.274-2.389l-6.429,0.1l0.224,12.855
					c0,0,5.099,0.002,6.454-0.127c1.355-0.129,2.948-0.909,3.987-2.276c1.039-1.367,1.029-2.987,1.021-3.981
					C743.085-1219.015,743.242-1220.374,742.109-1222.203z M736.864-1214.079c-0.987,0-2.887,0.013-2.887,0.013
					s-0.113-6.493-0.141-8.081c2.66-0.035,2.751-0.035,3.781-0.035c1.908,0.033,2.712,1.456,3.114,2.377
					c0.144,1.025,0.152,1.44,0.184,2.327c-0.117,0.954-0.402,1.741-1.205,2.494C738.387-1214.096,737.719-1214.079,736.864-1214.079
					z"/>
				<path class="st5" d="M724.548-1216.635c0,0,1.344-1.138,1.69-2.765c0.346-1.627-0.661-2.958-1.088-3.339
					c-0.427-0.381-1.324-1.283-2.65-1.232s-7.877,0.509-7.877,0.509l0.714,12.839l2.381-0.166l-0.333-4.764l4.135-0.289l0.995-0.07
					c0,0,1.28,2.095,1.402,3.388c0.082,0.761,0.071,1.408,0.071,1.408h2.321c0,0,0.059-2.287-0.602-3.656
					C725.047-1216.141,724.548-1216.635,724.548-1216.635z M723.103-1218.633c-0.502,0.419-1.908,0.435-1.908,0.435l-3.975,0.263
					c0,0-0.157-2.242-0.231-3.298c0.603,0.005,3.764-0.261,3.821-0.263c0.637-0.02,1.356-0.084,1.356-0.084s0.519,0.017,1.038,0.469
					c0.099,0.066,0.536,0.452,0.519,1.105C723.705-1219.353,723.332-1218.76,723.103-1218.633z"/>
			</g>
			<g transform="rotate(-7)">
				<path class="st5" d="M860.346-1197.083c0.485-3.517-1.686-6.723-4.851-7.16c-3.165-0.437-6.125,2.059-6.612,5.576
					c-0.485,3.517,1.686,6.723,4.851,7.16C856.899-1191.07,859.859-1193.566,860.346-1197.083z M855.618-1201.656
					c4.224,1.122,2.214,8.694-2.01,7.573C849.385-1195.205,851.395-1202.777,855.618-1201.656z"/>
			</g>
			<path class="st5" d="M841.872-1202.07c0,0,1.641-0.637,2.501-2.061c0.859-1.424,0.342-3.011,0.063-3.511
				c-0.278-0.501-0.831-1.646-2.102-2.031c-1.269-0.386-7.609-2.095-7.609-2.095l-3.525,12.366l2.306,0.622l1.242-4.611l4.003,1.079
				l0.963,0.26c0,0,0.524,2.399,0.218,3.66c-0.172,0.746-0.392,1.354-0.392,1.354l2.192,0.759c0,0,0.804-2.142,0.628-3.652
				C842.18-1201.441,841.872-1202.07,841.872-1202.07z M841.159-1204.432c-0.611,0.232-1.946-0.212-1.946-0.212l-3.843-1.052
				c0,0,0.585-2.171,0.861-3.192c0.567,0.201,3.642,0.984,3.697,1.001c0.608,0.19,1.308,0.365,1.308,0.365s0.486,0.186,0.829,0.783
				c0.072,0.095,0.358,0.602,0.129,1.214C841.964-1204.915,841.416-1204.476,841.159-1204.432z"/>
			<path class="st5" d="M888.569-1183.149c0,0,1.69-0.494,2.667-1.84c0.976-1.347,0.595-2.972,0.361-3.493
				c-0.235-0.522-0.688-1.71-1.922-2.203c-1.234-0.491-7.405-2.732-7.405-2.732l-4.56,12.023l2.243,0.815l1.63-4.489l3.896,1.415
				l0.938,0.341c0,0,0.319,2.434-0.093,3.665c-0.233,0.73-0.506,1.316-0.506,1.316l2.12,0.942c0,0,0.983-2.066,0.935-3.585
				C888.824-1182.496,888.569-1183.149,888.569-1183.149z M888.059-1185.562c-0.629,0.178-1.921-0.377-1.921-0.377l-3.738-1.374
				c0,0,0.767-2.113,1.127-3.108c0.548,0.249,3.547,1.29,3.599,1.312c0.59,0.24,1.273,0.473,1.273,0.473s0.467,0.227,0.759,0.85
				c0.063,0.101,0.305,0.631,0.025,1.221C888.902-1185.975,888.32-1185.585,888.059-1185.562z"/>
			<path class="st5" d="M826.054-1206.362c0,0,1.626-0.676,2.45-2.12c0.824-1.444,0.269-3.018-0.021-3.511
				c-0.292-0.493-0.871-1.625-2.15-1.98c-1.28-0.355-7.658-1.912-7.658-1.912l-3.226,12.447l2.32,0.566l1.132-4.638l4.028,0.983
				l0.97,0.236 M825.284-1208.705c-0.605,0.246-1.95-0.166-1.95-0.166l-3.867-0.959c0,0,0.532-2.184,0.783-3.212
				c0.573,0.188,3.666,0.897,3.72,0.912c0.614,0.175,1.317,0.333,1.317,0.333s0.49,0.174,0.845,0.762
				c0.075,0.093,0.374,0.593,0.159,1.21C826.076-1209.208,825.54-1208.756,825.284-1208.705z"/>
			<g transform="rotate(-7)">
				<path class="st5" d="M873.876-1190.115c-0.331-0.146-0.677-0.251-1.022-0.358c-1.006,1.898-3.231,3.247-5.215,1.889
					c-3.607-2.467,0.819-8.932,4.425-6.465c0.871,0.596,1.264,1.426,1.324,2.305c0.545,0.232,1.135,0.339,1.681,0.59
					c0.23,0.106,0.457,0.215,0.687,0.32c0.184-2.365-0.887-4.629-2.944-5.694c-2.836-1.47-6.461-0.106-8.094,3.046
					c-1.633,3.153-0.657,6.899,2.18,8.369c2.837,1.47,6.461,0.106,8.094-3.046c0.065-0.125,0.118-0.253,0.175-0.379
					C874.735-1189.727,874.308-1189.925,873.876-1190.115z"/>
			</g>
		</g>
	</g>
</g>
<g id="Copyright">
	<text transform="matrix(1 0 0 1 681.6426 577.5916)" class="st7 st8">© Vemaps.com</text>
</g>
</svg>
