<?xml version="1.0" encoding="utf-8"?>
<!-- Generator: Adobe Illustrator 23.0.1, SVG Export Plug-In . SVG Version: 6.00 Build 0)  -->
<svg version="1.1" xmlns="http://www.w3.org/2000/svg" xmlns:xlink="http://www.w3.org/1999/xlink" x="0px" y="0px"
	 viewBox="0 0 800 600" style="enable-background:new 0 0 800 600;" xml:space="preserve">
<style type="text/css">
	.st0{clip-path:url(#SVGID_2_);fill:#FFFFFF;}
	.st1{clip-path:url(#SVGID_2_);}
	.st2{fill:#FFFFFF;}
	.st3{fill:#C60C30;}
	.st4{fill:#003478;}
	.st5{font-family:'Roboto-Regular';}
	.st6{font-size:14px;}
</style>
<g id="South_Korea">
	<g>
		<defs>
			<path id="SVGID_1_" d="M251.279,116.346l2.482-1.928l0.158-2.775l0.024-9.116l7.084-6.315l10.088-13.011l4.949-7.128l5.637-6.663
				l6.53-4.452l6.412-2.122l10.08-0.898l19.322,0.853l3.787-0.773l13.44-0.692l3.17,1.184l9.764,0.747l10.823-0.833l5.447-1.932
				l5.052-3.288l4.412-5.932l4.546-10.997l4.87-8.67L392.205,30l19.773,46.024l18.911,29.582l16.12,21.362l22.959,40.945
				l6.728,21.803l0.64,13.473l3.827,18.495l-3.273,10.583l0.972,16.649l-1.447,8.536l-2.799,6.285l-0.103,12.052l0.901,6.44
				l0.087,8.529l1.803,3.324l2.633,1.231l4.167-3.105l5.107-1.29l-0.901,10.25l-6.175,25.869l-5.368,18.788l-7.297,16.327
				l-9.298,14.897l-11.124,5.829l-7.827,2.088l-14.927,0.75l-12.397-2.53l-10.657,1.833l-4.277,3.107l-3.178,5.292l2.332,8.222
				l-0.301,6.065l-4.554-0.465l-9.044-3.526l-10.009-0.48l-4.68-1.742l-4.72-8.693l-4.815,0.322l-8.38,5.154l-12.824,1.143
				l-4.514,2.784l-1.597,3.604l1.874,4.547l6.451,5.972l-2.166,6.035l-6.72,3.02l-5.423-7.422l-3.384-7.28l-3.779-0.412
				l-5.882,2.081l-1.186,7.858l2.736,5.348l4.507,6.195l-6.309,7.117l-1.668,5.077l-4.53,3.652l-12.239-8.103l1.739-5.764
				l5.313-5.548l0.656-5.753l-1.747-3.409l-17.512,14.528l-10.792,16.435l-5.764-1.193l-2.411-4.224l-3.376-1.719l-11.654,10.59
				l-2.143,8.394l-4.285,0.319l-1.874-3.55l-0.15-7.591l-2-6.41l-12.073-9.363l-5.518-8.188l2.965-4.58l10.08,2.489l8.009-0.325
				l-1.581-3.887l-2.601-1.844l5.321-2.189l4.435-4.486l-3.676-1.218l-5.621,2.593l-4.68-1.28l-1.85-10.75l-5.7-11.048
				l-2.941-10.741l5.621-6.187l2.862-9.625l5.226-13.96l2.617-4.519l7.242-3.288l2.577-3.618l-3.977-1.858l-6.349-1.646l0.158-4.038
				l4.325-2.209l4.831-4.453l9.377-5.426l2.886-10.251l-2.704-2.579l-5.843-2.439l1.312-5.187l2.411-3.95l-0.901-2.37l-6.902-6.69
				l-4.585-6.101l1.36-6.96l-1.051-10.537l0.625-8.859l-0.3-4.805l-3.368-10.835l-1.534-10.865l-4.427,1.585l-3.581,2.699
				l-12.8-3.828l-4.032-0.236l-1.645-8.079l4.585-9.972l10.879-8.797l6.246-1.094l4.72-3.878l7.345-1.223l8.823,5.978l7.914,1.202
				l4.396,10.316l2.696,2.179l0.569-3.787l6.388-4.444l1.526-3.353l-1.384-1.837l-7.353-1.828l-6.602-12.826l-0.917-5.609
				l-2.403-3.577l3.573-10.265l-7.637-11.741l-3.716-3.698l0.53-10.573l-3.985-6.741l-2.222-3.698l-1.36-6.392l1.162-2.877
				l3.479-1.095L251.279,116.346z M421.868,414.755l-7.637,6.05l-10.294-8.116l-2.451-4.488l7.827-6.583l6.641-7.525l4.364-0.471
				L421.868,414.755z M367.206,414.036l-0.901,9.594l-5.724,0.474l-3.416-6.182l-3.637,3.017l-1.897,0.053l-2.846-7.689l-0.49-6.008
				l6.736-4.568l4.064,2.75l5.858,1.415L367.206,414.036z M218.88,456.654l-5.178,1.497l-2.909-3.361l-2.04-0.892l1.154-4.417
				l8.436-8.679l1.652-2.996l7.803,1.801l2.917,4.595l-3.597,6.992L218.88,456.654z M242.116,120.937l-0.379,13.457l-4.467-0.576
				l-3.036-1.352l-1.305-2.625l-3.068-12.494l3.423-5.166l6.633,4.09L242.116,120.937z M260.924,459.242l1.368,4.641l-6.546-0.876
				l-3.479-4.46l0.466-3.828l3.898-0.544L260.924,459.242z M345.606,432.744l-0.909,3.031l-4.088-4.585l4.032-5.018L345.606,432.744
				z M233.767,246.723l-1.115,6.484l-5.368-4.276l-1.534-14.246l5.51,4.157L233.767,246.723z M213.883,421.366l-1.067,2.37
				l-3.526-0.708l-3.613-6.753l-1.502-5.349l-3.605-2.94l5.74-4.654l7.297,8.365L213.883,421.366z M597.952,147.227l-3.676,3.02
				l-4.356-3.02l-0.53-3.195l2.277-2.775l5.289-1.678l2.475,2.438L597.952,147.227z M226.43,567.87l-3.637,2.13l-3.384-1.284
				l-0.909-1.002l-4.072-5.524l-1.059-2.839l2.736-5.407l11.195-8.914l28.968-8.593l5.21-0.378l11.44,3.682l2.435,6.887
				l-2.095,5.935l-2.633,3.976l-13.25,6.699l-10.317,3.214L226.43,567.87z"/>
		</defs>
		<clipPath id="SVGID_2_">
			<use xlink:href="#SVGID_1_"  style="overflow:visible;"/>
		</clipPath>
		<rect x="130" y="30" class="st0" width="469.43" height="540"/>
		<g transform="rotate(-56.3099325)" class="st1">
			<g id="b2">
				<g id="b">
					
						<rect x="-45.266" y="269.334" transform="matrix(-1 3.125812e-06 -3.125812e-06 -1 -15.5315 588.6682)" width="75" height="50"/>
					
						<rect x="-51.516" y="281.834" transform="matrix(-1 2.520216e-06 -2.520216e-06 -1 -15.5313 569.9183)" class="st2" width="87.5" height="6.25"/>
					
						<rect x="-51.516" y="300.584" transform="matrix(-1 1.202428e-06 -1.202428e-06 -1 -15.5317 607.4184)" class="st2" width="87.5" height="6.25"/>
				</g>
				<g>
					<g id="b_1_">
						
							<rect x="-45.266" y="544.334" transform="matrix(-1 2.350282e-06 -2.350282e-06 -1 -15.5308 1138.6686)" width="75" height="50"/>
						
							<rect x="-51.516" y="556.834" transform="matrix(-1 -1.902419e-06 1.902419e-06 -1 -15.5332 1119.9186)" class="st2" width="87.5" height="6.25"/>
						
							<rect x="-51.516" y="575.584" transform="matrix(-1 5.158180e-06 -5.158180e-06 -1 -15.5292 1157.4181)" class="st2" width="87.5" height="6.25"/>
					</g>
				</g>
				
					<rect x="-10.891" y="538.084" transform="matrix(-1 9.191760e-06 -9.191760e-06 -1 -15.5269 1138.6686)" class="st2" width="6.25" height="62.5"/>
			</g>
			
				<ellipse transform="matrix(0.9964 -0.0849 0.0849 0.9964 -36.6834 0.8993)" class="st3" cx="-7.766" cy="431.834" rx="75" ry="75"/>
			<path class="st4" d="M-7.766,356.834c-20.711,0-37.5,16.789-37.5,37.5c0,20.711,16.79,37.5,37.5,37.5
				c20.711,0,37.5,16.789,37.5,37.5c0,20.711-16.789,37.5-37.5,37.5c-41.421,0-75-33.578-75-75
				C-82.766,390.413-49.187,356.834-7.766,356.834"/>
		</g>
		<g class="st1">
			<g transform="rotate(-123.6900675)">
				<g id="b2_1_">
					<g id="b_2_">
						
							<rect x="-426.603" y="-16.079" transform="matrix(-2.317422e-06 -1 1 -2.317422e-06 -423.0252 -380.1818)" width="50" height="75"/>
						
							<rect x="-404.728" y="-31.704" transform="matrix(3.025920e-07 -1 1 3.025920e-07 -413.6494 -389.5566)" class="st2" width="6.25" height="87.5"/>
						
							<rect x="-404.728" y="-12.954" transform="matrix(-3.867935e-06 -1 1 -3.867935e-06 -432.4011 -370.8067)" class="st2" width="6.25" height="87.5"/>
					</g>
					<g>
						<g id="b_3_">
							
								<rect x="-426.603" y="258.921" transform="matrix(-2.720082e-06 -1 1 -2.720082e-06 -698.0258 -105.181)" width="50" height="75"/>
							
								<rect x="-404.728" y="243.296" transform="matrix(-3.803061e-06 -1 1 -3.803061e-06 -688.651 -114.5556)" class="st2" width="6.25" height="87.5"/>
							
								<rect x="-404.728" y="262.046" transform="matrix(-2.764924e-06 -1 1 -2.764924e-06 -707.4005 -95.8058)" class="st2" width="6.25" height="87.5"/>
						</g>
					</g>
					
						<rect x="-432.853" y="293.296" transform="matrix(4.405807e-05 -1 1 4.405807e-05 -698.0069 -105.1947)" class="st2" width="62.5" height="6.25"/>
				</g>
				
					<rect x="-407.853" y="290.171" transform="matrix(-3.611523e-05 -1 1 -3.611523e-05 -698.0389 -105.171)" width="12.5" height="12.5"/>
				
					<rect x="-414.103" y="18.296" transform="matrix(3.843378e-05 -1 1 3.843378e-05 -423.0092 -380.1826)" class="st2" width="25" height="6.25"/>
			</g>
		</g>
		<use xlink:href="#SVGID_1_"  style="overflow:visible;fill:none;stroke:#000000;stroke-width:0.5;stroke-miterlimit:10;"/>
	</g>
</g>
<g id="Copyright">
	<text transform="matrix(1 0 0 1 681.6426 577.5916)" class="st5 st6">© Vemaps.com</text>
</g>
</svg>
