<?xml version="1.0" encoding="utf-8"?>
<!-- Generator: Adobe Illustrator 19.1.0, SVG Export Plug-In . SVG Version: 6.00 Build 0)  -->
<svg version="1.1" xmlns="http://www.w3.org/2000/svg" xmlns:xlink="http://www.w3.org/1999/xlink" x="0px" y="0px"
	 viewBox="0 0 800 600" style="enable-background:new 0 0 800 600;" xml:space="preserve">
<style type="text/css">
	.st0{clip-path:url(#SVGID_2_);fill:#012169;}
	.st1{clip-path:url(#SVGID_2_);}
	.st2{fill:#FFFFFF;}
	.st3{clip-path:url(#SVGID_2_);fill:#FFFFFF;}
	.st4{clip-path:url(#SVGID_2_);fill:#E4002B;}
	.st5{clip-path:url(#SVGID_2_);fill:#FF0000;}
	.st6{fill:#FF0000;}
	.st7{font-family:'Roboto-Regular';}
	.st8{font-size:14px;}
</style>
<g id="Australia">
	<g>
		<defs>
			<path id="SVGID_1_" d="M542.395,48.148l-0.373,1.771l-0.693,1.368l-0.081,0.822l0.161,1.132l1.154,0.843l0.911,0.532l0.51,1.478
				l1.607,2.063l-0.057,1.407l0.864,1.75l0.78,3.496l0.251,3.067l0.82,2.051l-0.548,4.365l0.586,1.789l0.777,1.483l0.917,2.955
				l0.705,2.713l0.948,0.77l2.003,0.911l2.068-1.007l1.494-1.364l1.606-0.332l2.174-0.7l1.628,1.809l0.885,2.03l3.844,2.681
				l2.136,1.722l1.659,0.973L572.676,92l-0.154,1.274l-0.363,1.006l0.352,1.574l0.243,1.824l-0.308,2.212l1.119,3.332l0.372,2.662
				l1.186,2.603l-0.088,2.681l-0.222,1.012l-0.149,1.505l0.924,1.875l0.854,1.384l1.269,1.504l1.673,2.287l1.193,0.46l1.066,0.032
				l-0.146,2.354l2.123,4.645l1.092,3.804l-0.745,5.128l-0.735,2.979l0.135,1.459l2.74,3.565l1.582,0.66l-0.309,1.702l-0.213,2.63
				l1.242,2.049l1.404,1.535l1.524,0.917l1.503,0.725l1.967,0.731l2.493,0.307l1.294,1.158l0.66,0.916l2.001,0.318l0.91-0.17
				l1.106-0.375l0.752,0.624l0.558,0.829l1.095,2.251l2.245,2.234l1.592,0.373l0.896,1.131l1.276,0.308l1.099,0.138l1.559,0.869
				l2.545,2l2.295,0.325l1.059,0.552l2.281,2.196l0.885,1.17l0.916,1.743l-1.144,0.165l-1.078-0.365l-0.665,1.713l1.519,2.372
				l1.766,1.673l2.127,1.771l2.073,2.508l0.525,1.915l0.558,0.755l0.704,2.707l1.792,1.575l0.085,2.868l0.919,3.973l1.029,3.607
				l0.712,1.091l0.841,1.733l0.972-0.22l0.731-0.563l1.405,1.723l0.777,0.762l0.447-0.45l-0.914-3.297l0.565-1.91l0.565-0.245
				l0.798-0.06l0.959,1.557l1.32,1.659l2.444,1.483l1.956,1.393l0.55-0.051l-0.219-1.076l0.06-1.578l0.78-0.258l0.712,0.786
				l1.313,2.442l0.272,5.059l0.003,4.246l0.864,4.376l1.262,1.151l0.829,1.088l1.421,1.471l0.949,1.373l1.185,0.638l3.797,2.927
				l1.071,0.331l1.659,0.075l2.021,1.323l1.021,1.221l2.192,4.6l1.07,1.619l2.185,1.599l1.021,0.522l1.482,1.1l0.529,1.598
				l0.128,0.944l0.879,1.704l1.307,2.049l1.937,1.139l1.785,2.497l0.101,4.06l0.926,2.024l0.621,0.859l1.397,0.831l0.567,0.659
				l-1.16,5.403l1.119,10.849l-0.651,3.397l1.165,3.38l2.697,5.864l0.613,2.085l0.38,2.437l1.735,3.114l-0.094,4.755l0.686,2.272
				l-0.177,2.957l-2.044,3.195l-1.639,3.931l-0.016,3.38l-1.071,6.511l-0.697,1.75l-0.512,2.728l-2.263,6.616l-0.098,2.603
				l0.346,3.111l-0.377,2.992l-0.565,2.04l-0.55,3.782l-2.27,5.897l-3.253,4.367l-0.201,3.331l-0.412,1.473l-0.663,1.843
				l-1.998,2.007l-1.203,0.868l-0.456,1.178h-1.137l-0.028,0.37l0.768,0.37l-0.342,0.607l-3.015,1.069l-2.031,1.374l-2.075,3.367
				l-0.871,1.762l-1.115,1.694l-0.665,0.795l-0.293,0.854l-0.45,2.128l-1.07,0.384l-0.94,0.635l0.44,2.032l-0.494,2.331l-0.116,1.58
				l-0.512,1.006l-0.617-0.362l-0.485,0.161l-0.618,0.549l0.953,0.172l0.579,0.249l-2.033,2.293l-1.861,2.326l-0.473,1.55
				l-0.806,1.95l-0.71,4.344l-0.586,2.49l0.404,1.773l-0.066,0.332l-0.431,0.131l-0.266-0.232l-0.843,0.607l-0.236,0.607
				l0.355,0.752l0.237,0.259l-0.108,0.36l-0.349,0.395l-0.802-0.002l-0.962,0.641l-2.776,6.488l-1.177,1.726l-1.391,2.665
				l-0.529,2.418l-0.425,2.649l-0.482,4.472l-0.467,3.16l-1.071,3.071l-0.401,2.191l-0.139,4.201l0.513,3.196l-0.336,1.701
				l-0.008,1.635l-0.425,1.526l-1.771,0.349l-1.442,1.248l-2.061,2.041l-1.214,0.745l-2.62,0.56l-5.09-0.247l-9.785,0.764
				l-1.893,0.46l-3.646,1.416l-3.523,2.204l-3.387,2.972l-7.736,8.113l-6.047,0.886h-1.141l-0.914-0.22l-1.078,0.507l-0.018,1.014
				l0.996,1.056l0.733,0.992l1.297-1.37l0.569,0.38l0.216,2.529l0.031,1.603l-0.39,0.871l-0.813,0.612l-0.861-0.4l-0.115-0.869
				l-1.116-2.066l-1.377-1.815l-1.27-0.581l-0.743,0.606l-1.189,0.637l-1.003-2.309l-1.073-1.998l-1.421-0.207l-1.228,0.021
				l-1.019-0.863l-1.983-1.359l0.387-1.06l0.554-1.115l1.14-0.41l-0.342-1.503l-0.611-1.233l-1.57-0.329l-1.057,0.217l-0.63,0.977
				l-0.829,1.684l-3.326,2.14l-1.613-1.177l-1.859-1.751l0.897,0.128l1.883-0.061l1.561-1.561l0.673-0.974l0.76-2.065l-1.01-1.46
				l-0.93-1.065l-1.343-0.951l-5.067,3.218l-1.05,0.461l-1.003,0.625l1.756,0.536l1.029-0.16l1.088,0.952l-1.746,1.35l-1.376,0.358
				l-1.711,0.812l-3.262,2.082l-4.162,4.327l-1.795,1.248l-2.122,0.991l-2.879-1.158l-1.608-0.269l-2.066-1.782l-3.481-1.19
				l-3.276-2.361l-2.244-1.193l-1.599-0.258l-2.252,0.497l-3.776-2.108l-2.868-0.226l-1.882,2.122l-1.467-0.146l-0.97-0.297
				l-3.021-3.488l-2.914-1.727l-5.51-0.881l-3.401-2.389l-2.561-4.604l-4.844-5.229l-1.3-1.91l-0.603-1.869l-0.055-1.472
				l0.652-2.809l0.9-2.761l0.154-1.533l-1.843-5.172l-2.589-4.869l-1.189-1.527l-3.173-3.231l-2.976-2.433l-0.756-1.261
				l-0.231-0.647l1.406,0.311l0.655-0.987l0.941-0.338l0.755,1.311l0.845,0.24l0.038-2.203l0.474-1.04l-0.324-0.478l-0.287-0.421
				l-1.289-0.493l-1.422,0.741l-1.092,0.942l-1.471,0.801l-0.574,0.842l-1.498,0.027l-0.593,0.218l-2.984,1.611l-1.904,0.041
				l-2.942-0.563l0.973-2.217l1.16-1.313l0.961-1.507l1.599-5.271l-0.304-4.546l-0.771-1.866l-2.468-3.747l-1.122-2.305
				l-1.392-2.376l-0.689,1.382l-0.417,1.458l-1.336,2.113l-0.648,4.712l-2.62,7.246l-1.799,0.089l-1.534-0.292l-2.688,0.828
				l-1.837,1.01l-1.645,0.002l-0.909,0.321l-1.192-0.265l1.876-5.658l1.639,0.155l1.775-0.23l0.809,0.095l1.186-0.065l0.909-2.592
				l0.555-2.898l-0.351-1.866l-0.137-1.929l0.353-2.194l0.147-1.573l2.248-5.208l1.874-2.682l2.168-2.129l-0.257-2.019l-0.689-2.521
				l-0.196-1.936l1.034-0.609l0.98-1.21l-1.14-5.509l-0.719-1.647l-1.147-1.622l-0.02,2.102l0.13,2.061l-1.59,2.635l-2.067,1.895
				l-1.349,1.782l-1.265,4.047l-1.678,3.417l-1.537,1.263l-1.376,0.284l-1.406,0.527l-2.197,1.367l-2.124,1.152l-1.575,1.509
				l-1.367,0.79l-4.445,6.893l-2.031,2.31l-0.418,0.934l-0.855,0.785l0.167,1.093l0.689,0.747l0.689,3.082l-0.414,0.664
				l-0.726-0.348l-1.82-1.719l-1.147,0.626l-0.932,0.705l-2.394-3.16l-0.993-0.742l-1.257-1.266l-1.343-1.092l-0.572-0.124
				l-0.973,0.227l0.094-0.854l0.666-0.693l0.586-0.161l1.087,1.011l1.238,0.904l0.698,0.075l0.325-0.363l-1.178-3.563l-0.803-3.115
				l-0.369-0.919l-0.968-3.149l-0.481-0.913l-2.059-2.22l-2.202-2.6l-0.604-3.116l-0.799-1.991l-1.033-1.251l-1.599-1.111
				l-4.4-0.428l-1.834-3.171l-1.05-3.921l0.833-0.259l0.987-0.048l0.317-1.221l-0.216-1.869l-4.365-2.318l-2.06-2.417l-1.743-1.041
				l-1.637-0.411l-2.165,0.094l-2.707-0.079l-6.529-3.837l-1.562-0.117l-4.667,1.191l-1.565-0.217l-7.086-5.229l-4.71-2.48
				l-1.554-0.462l-2.029-0.424l-1.642,0.606l-1.165,0.57l-2.371,0.641l-9.38-0.418l-8.055,0.808l-5.473,0.549l-3.468,0.717
				l-5.745,3.111l-6.87,3.012l-5.595,1.43l-5.144,1.905l-3.385,0.555l-4.377,0.238l-9.23-0.914l-3.15,0.678l-5.022,3.536
				l-1.491,0.859l-2.83,0.982l-7.292,4.558l-3.363,0.978l-2.174,0.311l-1.859,0.968l-1.69,1.947l-2.282,5.418l-1.419,2.573
				l-3.13,4.123l-2.061,1.375l-2.031-0.187l-2.266,1.429l-2.011-1.511l-1.607-0.289l-2.558,0.121l-8.997,1.74l-1.29-2.022
				l-1.648-0.304l-3.112,0.099l-4.661-0.615l-8.48,0.766l-4.078,0.834l-1.611,0.747l-3.001-0.476l-5.102,0.676l-1.795,1.152
				l-1.349,1.03l-2.65,4.618l-2.914,1.528l-2.388,0.051l-2.671,0.356l-5.388,4.467l-5.522,4.347l-1.854,0.465l-2.059,0.728
				l-2.695,0.348l-1.342,0.399l-6.289-1.119l-3.999-0.124l-5.001-0.675l-4.309-2.128l-3.308-1.233l-3.74-4.674l-2.315-1.739
				l-4.127-2.11l-1.189,0.079l-0.961,0.576l-1.711-1.487l-0.045-1.914l-0.463-1.622l0.032-4.254l0.261-4.96l1.509,1.114l1.188,1.084
				l2.544-0.06l2.248-1.863l1.28-2.725l1.128-3.067l-0.174-3.254l-0.752-5.701l0.513-1.195l0.77-0.485l0.251-2.828l0.182-8.661
				l-0.569-3.251l-3.502-6.569l-2.301-5.688l-1.687-2.561l-1.421-4.113l-1.197-5.702l-0.369-2.873l-0.384-5.284l0.421-2.989
				l-0.178-1.742l-1.467-4.761l-3.28-4.43l-0.543-1.632l0.017-1.718l-0.781-2.007l-2.641-4.027l-2.705-3.473l-0.454-1.686
				l-0.504-6.977l-1.01-3.17l-4.577-8.014l-5.405-6.876l-1.464-2.804l-0.665-0.942l0.373-0.127l0.609,0.367l0.674,0.684l0.332,0.058
				l0.317-0.566l-0.035-1.308l0.189-0.725l0.473,0.399l0.552,1.471l1.711,3.803l0.504,1.937l2.183,0.591l0.67-0.508l0.805-1.001
				l0.236-2.686l-1.106-1.214l-0.996-0.515l-1.686-1.989l-1.087-3.183l-1.695-2.936l0.029-1.048l0.775-0.761l1.265,0.413
				l1.174,1.687l1.32,1.572l-0.219,2.754l-0.205,0.754l0.116,0.637l0.46,0.606l0.604,0.477l0.66-0.699l0.604-1.612l0.373,0.21
				l0.897,3.676l0.712,1l1.412,1.15l1.23-0.895l0.571-0.766l-0.178-2.596l0.362-2.505l-0.205-1.861l-3.18-4.862l-2.878-5.991
				l-1.746-2.975l-1.458-4.47l-0.944-1.545l-1.233-2.495l-0.067-2.847l0.119-1.905l0.984-4.106l0.906-2.135l2.931-4.902l0.143-2.11
				l-0.031-1.586l0.432-2.435l0.003-1.691l-0.391-1.575l-1.221-2.71l1.611-4.723l2.346-6.057l0.926-0.888l1.451-0.813l0.268,1.248
				l-0.715,4.183l1.021,2.19l-0.32,2.467l0.913-0.421l1.412-0.471l1.066-1.295l0.564-1.242l2.669-4.913l1.528-1.827l2.151-1.345
				l4.346-1.619l4.228-2.132l2.01-2.049l2.519-1.775l1.753-1.923l1.686-1.321l8.543-4.843l1.449-0.909l1.861-0.103l2.283,0.161
				l2.064-0.255l2.207,1.101l1.63,0.124l3.987-1.197l2.132-1.071l3.661-2.34l1.607-0.668l3.72-0.739l4.21-0.985l5.069-4.053
				l3.652,0.258l3.262,0.395l2.611-1.213l6.153-0.743l3.409-1.024l6.386-2.684l1.716-0.919l2.611-1.916l2.268-2.391l2.238-3.227
				l1.377-2.888l0.592-1.486l1.311-2.361l0.903-1.868l0.703-0.886l2.476-1.255l3.674-3.526l1.196-0.708l0.223-1.126l-0.792-0.63
				l-0.982-0.396l-0.662-3.722l-0.63-2.565l-0.062-1.805l0.245-1.716l1.446-2.659l1.031-1.14l1.426-1.328l1.3-0.411l1.083-1.162
				l1.758-1.152l0.742-1.156l1.091-2.349l0.987-1.783l0.774,0.063l1.489,4.147l0.972,2.203l1.778,2.592l1.684,3.823l1.373,1.752
				l0.666,1.134l0.544,0.526l0.121-0.728l-0.139-0.85l0.662-2.923l-0.31-2.049l0.104-0.781l0.346-0.329l0.666,0.223l1.289,1.143
				l0.649,0.408l0.46-0.095l-0.022-1.85l0.645-1.167l-0.259-0.804l-1.123,0.045l-0.475-0.996l-0.927-1.153l-1.053-0.828l-1.28-1.896
				l-0.395-0.744l0.498-0.345l0.808,0.049l0.641-0.812l0.295-1.09l-0.567-1.77l0.581-0.656l1.17,0.187l1.871,2.823l0.805-0.279
				l0.662-1.14l1.193-0.327l1.226,0.206l0.808,0.815l1.642,0.813l2.188-0.093l1.109,0.196l2.332-0.135l1.143,0.246l-0.215-0.436
				l-1.261-0.514l-1.421-0.103l-1.663,0.051l-0.712-0.54l-0.238-1.425l0.404-1.033l0.261-0.441l1.083,0.186l0.961-0.039l0.118-1.389
				l0.338-1.226l0.574-0.998l-0.003-0.96l-0.599,0.255l-1.47,2.223l-0.704-1.809l-1.057-1.37l0.215-1.961l0.617-1.96l0.949-0.269
				l0.803,0.31l1.188-1.147l0.669-0.876l-0.154-0.72l0.178-0.553l0.832,0.172l3.182,1.762l0.637,0.921l0.669-0.359l0.215-1.003
				l-0.072-1.003l-0.703,0.152l-1.649-0.103l-0.38-0.563l0.143-0.465l-0.77-1.18l1.078-0.751l0.927-0.049l0.641-0.514l0.01-0.701
				l0.203-0.3l0.499,0.417l1.662,0.193l1.632,0.908l0.766,0.192l0.286-0.488l0.118-1.052l-2.018-1.05l-0.055-1.033l-0.848-1.189
				l-0.024-1.17l1.261-0.978l0.259-0.949l0.731-0.386l1.443-0.016l0.973-0.805l1.092-0.281l0.267-1.791l-0.018-1.23l0.44-0.316
				l1.104,0.512l-0.335,1.423l-0.004,1.358l-0.278,0.727l0.415-0.06l0.257-0.302l0.432-0.892l1.164,0.366l0.288,0.954l0.151,0.934
				l0.582,0.305l0.797-1.438l1.071-0.382l-0.059-1.816l0.405-1.3l0.126-0.976l0.679-0.476l0.15-1.035l-0.544-0.714l-0.28-1.298
				l0.935-0.287l0.937,0.652l0.631,1.638l0.435,0.739l0.579-0.402l0.348-1.09l1.15-0.635l1.139,0.882l1.254,1.207l1.57-1.053
				l1.458-1.973l-0.233-1.207l0.16-1.243l1.833-0.651l1.477,0.479l1.338,1.332l2.784,0.991l2.363,1.422l1.055,0.93l2.036,1.479
				l1.301,1.535l1.782,2.736l4.206,3.339l0.272,0.592l-0.568,1.115l-0.509,1.429l-0.631,2.421l-0.158,3.569l0.607-0.256l0.628-1.278
				l0.665,0.263l0.76,0.816l0.062-0.783l-0.456-0.474l-0.78-1.646l0.029-0.873l0.623-0.701l0.959-0.84l1.049-0.549l0.646-0.48
				l0.095-0.594l0.97-0.604l1.412-0.199l0.858,0.095l6.069,1.527l1.535,1.524l0.145,1.883l0.583,0.668l0.317-1.184l-0.062-2.572
				l0.488-0.51l1.632,0.398l1.116,0.513l1.552,1.687l0.296,0.827l0.676,0.539l0.223-0.782l-0.317-1.108l-0.223-1.269l0.351-1.106
				l1.814-0.088l1.224-0.238l-0.579-0.431l-0.788-0.15l-1.3-1.013l-0.837-1.089l1.349-1.059l-0.01-0.263l-1.293,0.033l-1.781-1.031
				l-1.51-1.433l1.156-2.636l2.304-2.576l1.296-0.859l0.122-0.869l0.623-1.602l0.395-1.352l0.114-1.05l0.599-1.108l1.422-1.046
				l1.935-0.374l0.909-0.408l0.91-0.964l0.868-1.179l-1.792-2.297l0.149-1.265l0.328-1.49l2.151-1.091l1.176-2.853l0.78-0.428
				l1.69,0.084l0.655-0.256l-0.114-2.274l0.188-0.88l0.714-0.352l0.916,0.304l0.581,0.987l1.304,0.914l0.443-0.5l-0.22-1.002
				l-0.13-1.284l1.189-0.277l0.959-0.078l0.095-1.048l-0.151-0.836l0.376-0.353l2.502-0.171l0.653-0.86l0.376-0.747l0.318,0.409
				l0.407,1.666l1.381,0.977l4.135,0.017l2.322-0.674l0.987,0.399l1.541,0.314l1.698-0.786l1.018-0.597l1.707,0.775l0.56,0.817
				l0.439-1.734l0.99-0.606l1.052-0.359l1.329,0.289l0.523-0.097l-1.182-1.288l0.069-1.174l-0.077-1.733l0.213-1.584l0.423-1.138
				l-2.858-2.294l-2.833-0.347l-2.073,0.481l-0.872-0.378l-1.841-1.836l-1.754-0.671l-0.153-0.452l2.15-1.317l0.819,0.226
				l1.252,1.233l0.714,0.436l0.607-0.09l0.391-0.963l0.541-0.506l1.024,0.284l3.207,2.086l1.802,2.019l0.923-0.533l1.58-1.133
				l1.492,0.236l0.917,0.662l1.285,2.46l1.018,1.222l2.454,0.329l1.25,0.468l1.293,0.814l1.742-0.071l3.586,0.302l3.378,1.576
				l1.402,0.986l1.637,0.264l0.952,0.393l1.733,0.118l2.76-1.115l1.237,1.026l0.55,0.698l2.513,1.331l2.704,0.408l1.93-1.35l2.82-1
				l1.965-1.524l1.478-0.716l1.39-1.244l0.534,0.06l-1.133,1.162l-0.137,0.659l0.888,0.275l-0.091,0.339l-1.223,0.905l-1.461,1.412
				l0.027,0.851l0.568,0.465l0.673-0.207l0.956-0.716l1.154-0.385l1.015,0.573l0.33,2.036l0.724,1.338l1.592,0.185l0.976-0.02
				l0.975-1.873l-0.526-1.594l-0.603-0.341l0.29-0.604l2.488-2.628l1.391,0.09l0.999,2.567l1.575,1.355l1.68-0.107l0.876,0.356
				l0.718,1.553l-5.894,6.35l-0.276,0.71l0.794,1.153l0.306,1.35l-1.914,3.243l-0.705,0.16l-0.68-0.876l-1.011-0.562l-0.888,0.395
				l-0.951,0.236l-3.429,1.806l0.027,4.655l0.867,2.77l-0.504,1.833l-1.021,3.21l-1.106,1.193l-0.888,0.772l-2.953,4.396
				l-0.942,1.057l-0.977,1.498l0.328,1.438l0.363,0.996l1.112,1.141l4.335,2.361l1.966,1.628l3.387,1.971l0.774,1.359l0.461,1.109
				l2.448,1.262l1.747,0.76l0.505-0.195l0.365-0.263l0.438-0.003l0.435,0.146l-0.069,0.989l-0.192,0.542l0.164,0.689l1.242,0.879
				l1.981-0.028l1.141-0.209l1.259,0.935l1.136,0.606l1.872,1.25l3.26,1.497l2.547,0.98l3.004,3.622l2.279,2.091l2.491,1.51
				l3.743,1.061l1.723-0.175l2.795,1.235l2.722,0.577l1.443,1.712l0.491,1.299l0.137,0.996l1.355,2.404l2.758,0.777l3.577,2.396
				l2.942,1.057l0.739,0.633l1.29,0.734l2.496,0.026l4.329-1.197l1.972-1.209l2.614-1.935l1.226-3.317l0.721-2.658l3.635-5.492
				l1.038-2.72l0.923-3.605l0.808-2.252l-0.269-2.447l0.839-4.44l1.865-6.067l0.632-2.051l-0.315-3.012l-1.157-5.644l0.517-1.948
				l0.508-2.724l-0.846-1.974l-0.787-1.351l-0.116-1.899l0.885-3.579l0.784-1.889l0.813-2.435l-0.457-4.624l1.737-1.61l0.684-0.802
				l1.343-0.007l0.639,0.361l0.136-0.923l-0.53-0.856l-0.209-0.995l-0.376-0.505l-0.827-0.177l-0.687-0.544l-0.99-0.555l0.156-2.05
				l1.683-3.956l0.93-1.524l0.61,0.637l0.691,0.511l0.095-1.138l-0.233-1.168l1.277-3.854l1.414-5.219l0.422-4.75l2.27-0.907
				l1.154-1.19L532.02,30h1.269l0.865,0.594l-0.569,1.034l-0.182,0.799l2.446,1.977l0.813,1.525l0.339,1.434l0.481,1.352
				l0.231,1.823l-0.034,2.914l0.315,2.755l0.882,0.866l0.782,0.558l1.119,0.074L542.395,48.148z M684.533,256.861l-0.366,0.437
				l-0.646-0.784l-0.435-2.812l0.321-1.629l0.754-1.488l0.132-0.822l-0.325-1.722l2.171-1.935l0.55-1.021l0.208-1.311l-0.799-1.416
				l-0.611-0.28l0.534-0.786l0.606-0.398l0.485-0.167l0.362,0.147l0.227,2.784l0.881,0.984l-0.13,1.345l-2.998,7.103l-0.827,2.688
				L684.533,256.861z M489.679,116.168l-1.109,1.31l-0.561-0.185l-0.534,0.714l-1.024,0.34l-0.631-0.012l-1.141,0.343l-0.171-0.415
				l0.216-1.311l0.948-1.464l0.923-0.897l2.383-0.429l1.852-0.644l0.238,0.119l1.339,1.662l-1.983,0.217L489.679,116.168z
				 M449.571,75.218l0.623,0.61l0.668-0.043l0.586-1.344l0.365,0.187l0.289,0.337l0.212,0.593l-0.899,1.023l-0.402,0.158
				l-0.384,0.566l-0.616,1.866l0.066,0.626l0.533,0.627l1.413,0.581l0.696-0.269l0.243,0.078l-0.279,0.909l-0.531,0.693
				l-1.883-0.289l-1.63,0.104l-2.716-0.676l-1.397-0.083l-0.4-0.252l0.815-0.535l0.51-0.721l-0.238-1.697l0.195-2.151l1.566-1.045
				l0.704-1.067l1.046-0.664l0.665,0.085l-0.086,0.654L449.571,75.218z M359.746,44.136l1.185,0.347l0.547,0.495l0.328,0.527
				l0.05,0.632l-1.489,0.278l-2.657-0.931l-2.674,0.769l-0.785,0.014l-0.478-0.557l0.414-1.552l0.962,0.238l0.84-0.566l-0.15-1.704
				l-0.492-0.927l1.412-1.703l0.628-0.345l0.637,0.003l0.539,1.209l0.128,1.306l0.677,1.199L359.746,44.136z M362.038,39.721
				l1.915,0.121l2.305-1.093l1.071,0.445l0.512-0.08l1.688-1.037l1.099-0.298l0.733-0.767l0.75,0.83l1.672,0.965l0.523,1.009
				l0.703,0.476l0.234,0.315l-1.015,1.058l-0.133,1.14l-1.088-0.078l-1.303,1.871l-4.898,3.142l-4.395-2.683l-1.91-1.814
				l-1.28-2.506l-0.258-2.049l-0.52-1.31l0.23-0.331l0.264-0.17l0.341,0.038l1.328,1.402l0.583,0.385L362.038,39.721z
				 M111.666,261.661l-0.381,0.658l-2.76-4.946l-0.805-3.38l0.558-0.606l0.508-0.179l1.635,4.672l0.506,1.072l0.004,1.101
				l0.237,0.348L111.666,261.661z M462.233,423.273l3.439,0.413l1.335-0.635l1.69,0.513l1.104,1.713l-0.818,0.851l-0.784,0.124
				l-2.533-0.703l-2.364,0.532l-0.698,0.709l-0.46,1.573l-2.036,0.843l-0.951-0.953l-2.479-0.68l-0.888,1.001l-1.75-0.268
				l-1.625,0.402l-2.263-0.24l-2.381-1.727l-0.698-0.798l0.552-1.436l0.855-1.055l6.507-1.496l3.479-1.256l2.82,0.221l0.783,0.266
				l0.725,0.637l-0.536,1.159L462.233,423.273z M656.807,221.358l0.491,0.395l0.449-0.049l0.404,0.258l-0.163,1.016l0.654,1.146
				l0.309,0.809l-0.492,0.655l-0.334,0.21l-0.777-0.547l-2.167-3.282l0.383-1.084L656.807,221.358z M569.162,515.278l1.662,0.074
				l0.942-0.481l0.843,0.09l0.954,1.067l1.148,0.602l0.801-0.111l0.694,0.22l0.617,0.759l1.573,0.662l0.686,0.435l0.597,0.666
				l0.662,0.52l4.159,1.773l2.963,0.863l3.689-0.401l1.094-0.497l1.046-0.725l0.899,0.677l0.892,1.033l-0.174-1.115l0.296-0.969
				l0.902-0.769l1.011-0.481l1.665,0.035l1.624-0.205l0.719-0.448l0.74-0.063l0.965,0.551l0.963,0.305l0.661-0.711l1.127-1.677
				l0.609-0.584l2.814,0.51l0.794,0.017l1.376-1.757l0.92,0.026l2.62,1.397l1.115,1.745l-0.107,3.191l0.088,1.126l0.21,1.112
				l0.086,2.22l-0.321,2.2l-0.042,1.718l0.139,1.745l-0.129,3.25l0.404,2.152l-0.202,1.471l-0.003,0.688l0.382,0.651l0.184,0.721
				l-0.14,0.927l0.166,1.084l-0.163,0.895l-0.588-0.128l-0.192-0.687l0.109-0.888l-0.107-0.714l-0.307-0.652l-1.043-0.731
				l0.306-0.438l0.534-0.387l-0.401-0.998l-0.668,0.814l-0.373,1.108l0.216,0.356l-0.412,0.297l-0.875,1.285l-0.63,1.722
				l-0.257,1.657l0.065,1.759l-0.515,1.356l-0.705,1.293l-0.177,1.673l0.042,3.076l0.613,2.813l0.332,3.85l-0.509,0.487
				l-1.534,0.261l-0.757,0.489l-1.248-1.912l-0.732-1.997l0.565-0.797l1.244,0.46l0.38-0.453l0.101-0.512l-0.107-0.508l-1.53-1.097
				l-1.718-0.513l-0.545,0.631l0.189,1.885l-0.177,0.43l-1.212,0.722l-0.637-2.729l-1.58-2.008l0.057,0.968l0.656,1.68l-0.072,0.741
				l-0.254,0.959l-0.635,0.357l-0.301,0.771v1.085l-0.212,1.755l-1.036,0.784l-2.526-1.953l-0.174,0.657l0.038,0.567l1.29,1.122
				l-0.595,0.849l-0.449,0.995l-0.718,2.617l-1.16,2.173L594.884,570l-1.939-0.344l-2.164-1.838l-1.944,0.21l-3.252-0.133
				l-2.061,0.678l-0.432-2.019l-0.45-0.718l0.182-0.636l1.642-0.427l1.688,0.017l-0.264-0.768l-0.453-0.284l-0.738,0.186
				l-2.151-0.67l-1.465,0.299l-1.013-0.95l-1.74-3.297l-1.028-1.522l-0.611-0.592l-0.715-0.325l-0.431-0.483l-3.151-7.448
				l-0.446-1.723l-0.55-4.35l2.5,2.081l0.889,1.318l0.48,1.674l0.847-2.03l-0.153-0.652l-2.244-2.455l-0.297-0.711l-0.123-0.843
				l-0.526,0.848l-0.855,0.115l0.346-1.73l-0.299-1.69l-2.625-3.708l-2.008-3.503l-1.976-4.303l-0.17-0.549l-0.025-0.925
				l-0.956-2.87l-0.508-2.124l-0.234-1.859l0.913-3.745l0.128-2.089l1.436,0.932L569.162,515.278z M553.15,502.672l-0.419,0.077
				l-0.33-1.052l0.17-1.501l-0.704-1.483l0.383-1.488l-0.049-1.605l0.252-0.706l0.861-0.779l0.136-1.382l0.746-0.065l1.3,1.075
				l0.425,2.736l-0.213,1.653l0.502,1.488l-0.418,1.274l-1.104,1.049L553.15,502.672z M611.629,495.985l2.549,3.369l1.322,0.527
				l0.393,0.355l-0.108,1.488l-0.561,0.637l1.041,0.84l-0.139,0.545l-0.203-0.02l-1.279,1.147l-1.503,0.533l-0.46-0.399
				l-0.384-0.525l-0.317-0.764l-1.928-2.943l0.222-0.806l-0.426-1.23l-0.918,0.093l-0.648-0.748l1.034-0.722l1.348-1.965
				L611.629,495.985z M602.377,565.613l-0.677,2.046l-1.112-0.349l-1.115,0.337l-0.701-1.361l-0.004-0.36l0.839,0.342l0.31-0.443
				l0.198-0.563l0.306-0.154l0.205-0.805l0.716-1.014l0.411,0.027l0.43,1.298L602.377,565.613z M616.308,506.247l1.356,1.131
				l0.768,1.225l-1.008,1.017l-0.736,0.202l-0.478-1.179l-1.513,0.431l-1.602-0.11l-1.184-0.892l-0.139-0.444l0.694-0.445
				l2.001,0.02L616.308,506.247z"/>
		</defs>
		<clipPath id="SVGID_2_">
			<use xlink:href="#SVGID_1_"  style="overflow:visible;"/>
		</clipPath>
		<path id="path1534" class="st0" d="M0,0h800v600H0V0z"/>
		<g id="Commonwealth_Star" transform="matrix(252,0,0,252,7560,11340)" class="st1">
			<polygon id="Star7" class="st2" points="224.937,285.785 233.929,313.74 261.391,303.34 245.141,327.8 270.395,342.786 
				241.139,345.331 245.168,374.42 224.937,353.134 204.707,374.42 208.736,345.331 179.48,342.786 204.734,327.8 188.484,303.34 
				215.946,313.74 			"/>
		</g>
		<g id="Star_Alpha_Crucis" transform="matrix(120,0,0,120,22680,12600)" class="st1">
			<polygon class="st2" points="535.78,336.111 540.061,349.424 553.139,344.471 545.4,356.119 557.426,363.255 543.495,364.467 
				545.413,378.319 535.78,368.182 526.146,378.319 528.065,364.467 514.133,363.255 526.159,356.119 518.421,344.471 
				531.498,349.424 			"/>
		</g>
		<g id="Star_Beta_Crucis" transform="matrix(120,0,0,120,18900,6615)" class="st1">
			<polygon class="st2" points="458.069,213.07 462.351,226.382 475.428,221.429 467.69,233.077 479.715,240.213 465.784,241.425 
				467.703,255.277 458.069,245.141 448.436,255.277 450.354,241.425 436.423,240.213 448.448,233.077 440.71,221.429 
				453.788,226.382 			"/>
		</g>
		<g id="Star_Gamma_Crucis" transform="matrix(120,0,0,120,22680,2520)" class="st1">
			<polygon class="st2" points="535.78,128.883 540.061,142.196 553.139,137.243 545.4,148.891 557.426,156.027 543.495,157.239 
				545.413,171.091 535.78,160.954 526.146,171.091 528.065,157.239 514.133,156.027 526.159,148.891 518.421,137.243 
				531.498,142.196 			"/>
		</g>
		<g id="Star_Delta_Crucis" transform="matrix(120,0,0,120,26040,5607)" class="st1">
			<polygon class="st2" points="604.856,192.347 609.137,205.659 622.215,200.707 614.476,212.354 626.502,219.491 612.571,220.703 
				614.489,234.554 604.856,224.418 595.222,234.554 597.141,220.703 583.209,219.491 595.235,212.354 587.497,200.707 
				600.574,205.659 			"/>
		</g>
		<g id="Star_Epsilon_Crucis" transform="matrix(70,0,0,70,24192,8190)" class="st1">
			<polygon id="Star5" class="st2" points="566.864,254.7 570.247,262.995 579.182,263.65 572.338,269.431 574.477,278.13 
				566.864,273.408 559.251,278.13 561.389,269.431 554.546,263.65 563.48,262.995 			"/>
		</g>
		<path id="White_Cross" class="st3" d="M199.034,99.279h51.807v51.807h129.518v51.807H250.841V254.7h-51.807v-51.807H69.516
			v-51.807h129.518V99.279z"/>
		<path id="White_Diagonal" class="st3" d="M69.516,99.279h34.753l276.089,138.044V254.7h-34.753L69.516,116.656V99.279z"/>
		<g id="White_Diagonal_Flipped" transform="matrix(-1,0,0,1,15120,0)" class="st1">
			<path class="st2" d="M380.359,99.279h-34.753L69.516,237.324V254.7h34.753l276.089-138.044V99.279z"/>
		</g>
		<path id="Red_Cross" class="st4" d="M209.395,99.279h31.084v62.168h139.879v31.084H240.48V254.7h-31.084v-62.168H69.516v-31.084
			h139.879V99.279z"/>
		<path id="Red_Diagonals" class="st5" d="M69.516,99.279l103.614,51.807h-23.169l-80.445-40.223V99.279z M380.359,99.279H357.19
			l-103.614,51.807h23.169L380.359,99.279z"/>
		<g id="Red_Diagonals_Rotated" transform="matrix(-1,0,0,-1,15120,7560)" class="st1">
			<path class="st6" d="M380.359,254.7l-103.614-51.807h23.169l80.445,40.223V254.7z M69.516,254.7h23.169l103.614-51.807H173.13
				L69.516,254.7z"/>
		</g>
		<path id="path1640" class="st4" d="M328.764,228.64l-50.674-25.398l11.079-0.024l11.079-0.024l39.924,19.963l39.924,19.963v5.484
			c0,3.016-0.148,5.473-0.329,5.459S356.634,242.609,328.764,228.64L328.764,228.64z"/>
		<path id="path1642" class="st4" d="M305.511,125.318l51.112-25.617h11.188h11.188l-51.112,25.617l-51.112,25.617h-11.188h-11.188
			L305.511,125.318z"/>
		<path id="path1644" class="st4" d="M109.946,130.889l-40.034-20.046v-5.595v-5.595l51.003,25.495
			c28.051,14.022,51.085,25.572,51.185,25.666c0.101,0.094-4.835,0.16-10.968,0.147l-11.151-0.025L109.946,130.889z"/>
		<path id="path1646" class="st4" d="M121.682,228.859l51.112-25.617h11.188h11.188l-51.112,25.617l-51.112,25.617H81.757H70.569
			L121.682,228.859z"/>
	</g>
</g>
<g id="Copyright_1_">
	<text transform="matrix(1 0 0 1 681.6426 577.5916)" class="st7 st8">© Vemaps.com</text>
</g>
</svg>
