<?xml version="1.0" encoding="utf-8"?>
<!-- Generator: Adobe Illustrator 19.1.0, SVG Export Plug-In . SVG Version: 6.00 Build 0)  -->
<svg version="1.1" xmlns="http://www.w3.org/2000/svg" xmlns:xlink="http://www.w3.org/1999/xlink" x="0px" y="0px"
	 viewBox="0 0 800 600" style="enable-background:new 0 0 800 600;" xml:space="preserve">
<style type="text/css">
	.st0{clip-path:url(#SVGID_2_);fill:#E30A17;}
	.st1{clip-path:url(#SVGID_2_);fill:#FFFFFF;}
	.st2{font-family:'Roboto-Regular';}
	.st3{font-size:14px;}
</style>
<g id="Turkey">
	<g>
		<defs>
			<path id="SVGID_1_" d="M41.635,244.853l-8.88,1.553L30,244.876l2.781-3.043l5.174-1.885l1.683-0.217l2.268,3.032L41.635,244.853z
				 M642.193,174.581l2.57,1.037l4.838,1.322l3,1.595l1.706,0.419l3.951-3.251l5.872,0.08l5.155,0.379l2.661,0.602l3.261,1.079
				l3.944,0.727l1.604-1.553l2.298-4.587l0.891-0.588l0.634-0.417l2.921-0.357l2.77,0.352l1.306,0.781l1.306,3.669l3.287,1.312
				l5.812,5.853l3.551,2.343l0.86,0.983l-1.17,1.183l0.457,1.455l2.034,1.907l2.853,0.715l3.08-0.252l1.676,0.694l1.2,1.076
				l0.317,1.51l-0.083,0.963l0.611,2.167l2.404,3.055l2.868,1.868l1.543,1.998l2.506,6.865l1.011,3.792l-0.377,3.644l-1.74,3.736
				l-3.808,4.644l0.943,1.939l0.853,2.565l-0.287,1.855l2.695,5.92l1.227,3.669l-1.026,0.848l-0.661,1.173l4.85,2.823l5.808,2.369
				l2.449,0.454l6.672-1.087l4.299-0.233l4.265,2.243l6.216,5.43l6.699,7.072l1.332,2.151l0.585,0.943l1.306,1.712l-1.355-0.032
				l-2.208-1.533l-5.329-4.345l-2.721,1.868l-2.347,3.227l-2.574,12.211l-2.083,1.299l-3.672-0.036l-4.499-0.421l-3.095,0.611
				l-0.8,0.773l0.408,1.315l0.917,2l0.649,2.53l0.185,2.07l1.63,1.872l2.193,1.777l0.098,1.824l-0.336,2.569l-0.506,1.957
				l-0.551,1.108l1.015,2.97l2.381,3.518l1.517,1.344l-0.566,6.684l0.894,2.956l0.683,4.081l-0.272,6.771l0.298,1.662l0.815,0.568
				l2.17,0.252l2.128,0.628l0.736,1.107l-0.011,0.807l-2.657,3.098l-0.313,2.198l-0.921,3.096l-0.755,1.82l-2.374,3.444l-1.51,3.499
				l-0.679,2.885l0.449,1.36l4.378,0.41l2.378,2.073l6.318,4.121l1.11,1.668l-1.725,2.538l0.03,1.061l0.815,1.345l0.385,2.352
				l-0.155,2.611l0.034,3.442l1.162,0.566l4.291,3.226l3.053,3.23l0.102,0.996l-1.487,2.547l0.325,2.934l-0.06,0.672l-1.321-1.103
				l-2.381-0.401l-2.449-0.118l-1.544,0.858l-2.706,2.303l-3.634,2.511l-2.951,2.302l-1.691,1.576l-1.396-0.254l-1.091-1.376
				l-0.611-1.925l0.26-7.28l-0.641-2.282l-1.374-1.601l-1.615-0.914l-1.925-0.513l-1.989-0.052l-2.827,2.14l-4.004,2.212
				l-6.208-0.179l-4.167-0.415l-2.015-0.42l-8.08-3.391L709.94,384l-3.012-1.373l-3.582-1.09l-6.023,2.063l-2.608-0.492
				l-3.653-1.789l-1.294,0.482l-4.083,5.45l-6.94,5.823l-3.744,0.971l-1.781-5.843l-1.713-2.271l-0.811-0.274l-1.732-0.727
				l-1.347,0.418l-4.174,3.991l-6.688,2.398l-5.536,1.461l-8.812,1.784l-6.801,0.886l-2.895,0.071l-6.28-0.798l-5.536-1.124
				l-5.536,0.049l-4.25,0.504l-9.865,4.283l-16.772,8.799l-12.749,4.202l-7.152,1.746l-5.597,0.991l-9.594,0.049l-7.805-0.677
				l-5.404,0.075l-3.004-1.055l-4.284-3.555l-5.189-3.516l-2.31-0.817l-3.019-0.679l-4.412-0.395l-11.016,5.142l-3.427,1.396
				l-3.774,1.051l-7.605,3.138l-3.37,1.679l-4.223-0.157l-5.397-0.447l-4.684,0.157l-3.125-2.387l-1.683-2.689l-6.386-1.647
				l-4.559-0.474l-1.166,1.194l-1.219,3.665l-1.94,9.348l-0.355,2.341l4.016,9.264l-0.181,1.409l-2.872,0.48l-3.299,0.154
				l-2.147,0.822l-1.781,1.536l-1.076,7.986l-3.815,1.465l-1.811,1.671l-1.868,4.923l-1.015,0.116l-6.174-3.733l-2.895-0.308
				l2.483-3.878l-2.698-7.662l-2.944-7.193l2.778-4.61l5.755-5.567l6.057-6.531l-0.011-4.035l-0.313-3.082l-1.736-2.134
				l-3.332-2.838l-5.578,3.03l-3.982,3.342l-2.6,0.678l-2.827,1.904l-1.374,3.433l-3.408,2.673l-5.574,1.046l-8.386-2.86
				l-9.005-4.358l-5.099-3.534l-4.159-0.842l-3.951,1.553l-11.662,8.651l-10.673,12.605l-2.649,2.176l-10.054,5.402l-6.646,1.811
				l-3.129-0.421l-13.228,2.375l-6.57,0.346l-5.204,2.847l-10.088-3.087l-6.031-3.95l-3.631-4.017l-5.921-8.66l-4.197-4.125
				l-9.431-3.713l-16.44-9.037l-4.325-0.993l-11.22-1.296l-11.835-0.817l-2.396,3.293l-0.91,13.016l-2.027,3.575l-0.868,6.726
				l-1.449,1.935l-2.272,1.27l-3.551-2.12l-2.464-0.937l-5.736,2.766l-11.36,3.877l-3.872,0.542l-13.167-4.871l-4.819-3.133
				l-3.106-3.476l-1.049-5.88l-1.955-3.352l-0.287-2.303l-0.766-2.654l-2.653-1.05l-2.849,2.003l-3.053-0.082l-3.834-1.228
				l-9.046-4.943l-6.952-0.392l-4.178,6.033l-3.249,1.916l-3.559,0.571l-0.204-1.714l2.698-3.9l-10.828,0.72l-5.718,2.969
				l-4.461-0.461l-3.344-1.34l0.502-1.641l3.393-0.603l2.944-1.335l11.733-1.086l2.74-1.091l3-4.247l5.465-3.666l0.695-1.574
				l-4.201-0.021l-17.983,1.064l-12.345-0.586l-1.464,1.816l-1.857,0.256l-0.513-4.945l1.951-2.302l2.627,0.214l6.45-2.001
				l-0.577-4.119l-4.619-2.786l-0.94-1.645l-3.351-0.385l-2.717-1.96l-0.592-4.956l-2.162-5.446l-3.091-2.638l0.381-1.448
				l5.665-1.836l1.174-7.641l-0.864-4.701l-2.849-0.4l-8.303-3.714l-2.521,0.396l-2.751-4.086l-4.816-2.938l-2.385,1.076
				l-1.494,1.326l-2.23-0.636l-3.74-2.551l-3.672-1.378l-1.63-1.702l2.046-4.556l2.812,0.108l0.513-3.573l-2.219-5.965l0.215-3.066
				l2.453-0.84l2.793,0.577l2.819,3.568l0.921,3.449l-0.592,3.357l1.789,3.249l1.272,0.819l0.857-3.418l1.196-0.65l1.646,1.494
				l3.536,0.748l9.167-2.1l1.762-1.78l-6.718,0.202l-2.457-1.666l-2.668-3.73l-1.642-3.39l-0.294-1.665l-0.928-2.436l1.023-1.306
				l4.601-1.959l4.038-5.488l-1.683-1.591l-1.925-0.751l-2.091,0.558l-1.981-1.882l-0.257-2.621l1.585-2.122l0.166-2.92
				l-5.189-7.202l-1.449-1.571l1.117-2.359l3.963-3.954l3.774-4.901l-0.453-1.613l-2.789-0.661l-13.254,2.106l-5.151,1.827
				l-9.186,0.833l-0.66-2.664l0.208-2.403l2.061-4.382l-0.189-10.827l1.219-5.885l5.103-1.755l6.261-8.67l10.152-10.245l10.59,0.198
				l4.234-2.832l6.295-0.165l1.144,2.06l0.713,1.969l5.525,2.829l9.756-0.449l2.37-1.115l2.287-1.559l-4.51-5.045l1.442-1.424
				l4.087-0.168l4.431,1.189l0.204,1.156l-1.177,1.583l-1.37,2.775l1.302,0.533l12.617-1.676l13.186,1.342l4.197-0.728l10.367,0.057
				l1.857-1.74l-3.136-2.186l-3.068-0.761l-2.064-1.065l-2.061-1.548l6.574-4.893l3.714-0.941l17.526-3.009l13.035-1.508
				l0.166-1.119l-1.88-0.002l-16.843-2.498l-4.057-1.935l-5.638-4.61l-1.223-1.304l-1.419-2.251l0.845-4.804l1.042-3.864
				l2.079-2.241l6.729-0.342l23.074,3.934l16.447-2.358l17.976,5.729l17.191-1.162l3.548-2.571l4.302-8.3l24.286-13.828l8.503-7.234
				l9.111-3.965l15.632-4.412l13.066-5.842l3.733-0.673l31.366,2.792l21.546,0.354l9.892-5.516l5.737,1.853l-0.536,1.971
				l-1.042,1.684l0.31,3.409l3.366,4.999l3.423,3.4l10.058,4.871l13.983-4.107l2.253,0.458l2.846,1.148l4.925,13.171l3.834,4.64
				l4.906,3.153l4.031,0.62l2.993-3.288l2.317-1.327l5.05-0.561l8.28,4.516l2.868,4.657l14.096,3.595l12.934,1.799l5.582,3.93
				l18.202,3.946l6.797-0.612l11.409-4.138l22.191-4.533l14.745,6.326l3.989,0.819l3.442-0.545l4.955,1.74l5.287-0.933l16.319-7.456
				l5.102-4.234l5.408-1.094l4.797-2.537l12.783-8.331L642.193,174.581z M120.644,151.28l-1.049,5.906l2.434,6.493l5.702,8.998
				l5.74,4.531l23.203,11.18l4.268,0.955l-0.97,4.566l-1.396,4.054l-1.536,2.701l-6.797,1.736l-18.761-4.966l-4.744-0.471
				l-3.348,0.99l-6.197,3.611l-6.873-1.158l-9.582,2.047l-2.676,6.785l-6.654,7.756l-10.952,6.256l-7.827,3.341l-11.752,11.955
				l-5.333,6.959l-2.249,1.349l-2.668,1.066l0.898-3.337l1.321-3.058l-0.302-2.307l0.057-3.358l3.921-3.816l3.563-2.77l10.545-5.023
				l2.774-4.175l-8.269,0.099l-8.393,0.929l-5.284-0.594l-4.589,0.342l-1.457-3.657l-1.113-2.202l1.189-0.687l1.525-0.476
				l2.695-3.908l2.408-2.885l3.472-3.632l0.891-2.171v-2.025l-0.83-1.406l-0.162-1.671l-0.106-2.363l0.193-4.886l7.952-5.347
				l2.547-0.566l0.872-2.443l-0.585-5.671l-1.098-4.585l-1.423-0.307l-1.913-1.34l-1.257-1.552l-2.008-1.699l-3.465-1.042
				l-0.113-1.451l0.359-1.452l1.279-1.485l5.838-1.281l0.691-1.05l0.789-2.588l1.159-2.65l1.377-0.877l2.468,0.081l4.684-0.612
				l3.264-0.865l3.242-1.814l1.66-1.648l7.02-0.957l1.97-0.839l1.955,0.712l2.627,2.826l4.325,4.049l2.321,1.35l1.74-0.627
				l3.14-1.471l3.004-0.01l2.427,0.258l1.17-1.282l1.827-0.276L120.644,151.28z"/>
		</defs>
		<clipPath id="SVGID_2_">
			<use xlink:href="#SVGID_1_"  style="overflow:visible;"/>
		</clipPath>
		<rect x="30" y="62" class="st0" width="747.5" height="450"/>
		<circle class="st1" cx="341.563" cy="287" r="112.5"/>
		<circle class="st0" cx="369.688" cy="287" r="90"/>
		<polygon class="st1" points="430.625,287 532.382,320.063 469.492,233.503 469.492,340.497 532.382,253.937 		"/>
	</g>
</g>
<g id="Copyright">
	<text transform="matrix(1 0 0 1 681.6426 577.5916)" class="st2 st3">© Vemaps.com</text>
</g>
</svg>
