<?xml version="1.0" encoding="utf-8"?>
<!-- Generator: Adobe Illustrator 19.1.0, SVG Export Plug-In . SVG Version: 6.00 Build 0)  -->
<svg version="1.1" xmlns="http://www.w3.org/2000/svg" xmlns:xlink="http://www.w3.org/1999/xlink" x="0px" y="0px"
	 viewBox="0 0 800 600" style="enable-background:new 0 0 800 600;" xml:space="preserve">
<style type="text/css">
	.st0{clip-path:url(#SVGID_2_);fill:#032EA1;}
	.st1{clip-path:url(#SVGID_2_);fill:#E00025;}
	.st2{clip-path:url(#SVGID_2_);}
	.st3{fill:#FFFFFF;stroke:#000000;stroke-width:0.96;stroke-linejoin:bevel;}
	.st4{fill:#FFFFFF;stroke:#000000;stroke-width:0.945;stroke-linejoin:bevel;}
	.st5{fill:#FFFFFF;stroke:#000000;stroke-width:0.96;}
	.st6{fill:#FFFFFF;stroke:#000000;stroke-width:0.981;}
	.st7{fill:none;stroke:#000000;stroke-width:0.8;}
	.st8{fill:none;stroke:#000000;stroke-width:0.96;}
	.st9{fill:#FFFFFF;stroke:#000000;stroke-width:1.034;stroke-linejoin:bevel;}
	.st10{fill:#FFFFFF;stroke:#000000;stroke-width:1.045;}
	.st11{fill:#FFFFFF;stroke:#000000;stroke-width:1.043;}
	.st12{font-family:'Roboto-Regular';}
	.st13{font-size:14px;}
</style>
<g id="Cambodia">
	<g>
		<defs>
			<path id="SVGID_1_" d="M715.791,30l1.954,6.994l-5.198,13.215l-5.524,11.984L696.65,72.65l-0.507,7.707l-3.57,22.948l1.375,7.303
				l2.412,6.252l3.377,3.348l8.998,22.428l8.19,20.395l8.069,16.732l1.423,10.587l-7.406,26.783l-8.66,24.582l0.76,12.25
				l3.703,12.257l3.956,16.338l1.471,20.866l-2.147,13.6l-3.908,8.448l-7.466,8.648l-6.501,4.421l-7.816-7.353l-6.224-0.319
				l-8.346,2.208l-6.561,3.385l-13.376,12.704l-14.823,12.35l-20.504,3.156l-7.973,9.165l-8.539,1.268l-16.222,0.459l-10.59,2.144
				l0.482,4.605l-0.868,21.733l0.217,5.085l-1.64,1.352l-7.333,0.649l-12.435-3.323l-16.826-5.379l-11.965-0.845l-6.151,9.467
				l-3.667,3.702l-4.535,0.569l-4.74,1.676l-1.604,4.221l-0.386,5.285l2.304,9.026l0.856,14.354l-0.603,9.778l4.39,6.189
				l25.679,20.783l7.587,5.196l0.868,3.101l-4.499,11.291l4.004,15.875l-8.045-0.293l-13.424-6.814l-6.417-4.167l-7.78,3.331
				l-2.702-0.635l-5.259-7.81l-6.875-7.989l-7.08-0.507l-14.968,3.143l-15.294,2.185l-5.802-0.024l-2.376,1.44l-8.877,11.862
				l-3.751-2.038l-15.414-4.509l-14.052-1.727l-2.895,3.063l1.713,9.682l3.088,9.442l-1.821,4.013l-7.719,4.963l-10.204,8.949
				l-6.26,6.96l-4.342,1.706l-15.535-0.305l-15.487,0.908l-6.2,6.569l-5.813,5.112L333.771,570l-20.251-16.226l-40.176-5.662
				l-4.366-7.157l-3.86-1.396l-3.703,9.309l-22.06,8.941l-9.239-5.399l-6.779-6.546l1.013-7.998l6.38-6.537l10.964-4.69
				l5.066-16.434l-8.346-21.069l-7.321-6.136l-7.731-4.867l-8.117,7.841l-6.839,13.406l-7.128,6.896l-10.059,1.538l-14.739-0.555
				l-5.729-20.008l-1.894-17.173l2.014-19.607l2.231-11.627l-14.196-16.034l-0.784-15.277l-6.863-7.883l-2.014,3.984l0.193,4.388
				l-1.954-3.182l-22.41-44.864l-3.751-20.823l3.847-16.045l2.256-5.387l-6.465-8.45l-9.094-9.607L95.8,287.08l-1.098-19.924
				l-3.582-23.51l-4.825-7.929l-7.369-14.491l-3.98-12.01l-1.363-31.764l2.05-2.564l11.386-0.919l14.618-2.287l2.304-5.136
				l-2.569-4.243l9.348-7.198l13.4-15.789l10.361-16.508l7.466-10.426l4.451-10.356l15.041-14.662l20.794-10.142l14.088-2.369
				l14.691-3.458l14.076-4.919l6.67-0.464l17.477,5.946l9.444,1.522l9.914-0.081l10.276,0.619l8.949-0.612l21.421-4.151
				l22.712,3.285l20.275-2.592l25.1-4.789l12.327,3.02l11.229,4.801l1.568,9.711l2.593,4.434l3.739,3.425l4.993-0.006l6.405-6.777
				l5.331-6.982l1.749-1.287l0.277,3.439l2.654,7.563l4.776,7.45l4.837,4.945l8.069,6.569l5.247,0.315l17.151-6.211l25.715,9.01
				l3.003,4.541l8.322,9.166l9.022,6.588l20.046,0.42l7.152-16.18l-3.462-9.867l-11.434-17.191l-3.112-10.149l3.643-1.794
				l19.371-1.924l3.148-1.998l4.282-11.163l5.259,1.269l10.747,1.448l11.362-7.638l6.73-8.012l3.667,3.653l4.016,5.621l4.39,3.256
				l8.178,4.827l8.986,6.788l5.596,6.669l4.499,2.585l11.519-1.862l3.076,0.26l6.682-8.067l4.692-4.393l3.98,1.256l5.802-0.118
				l12.013-10.292l6.875-9.41l3.751-2.57l10.771,4.7l4.306-0.96l6.224-12.95L715.791,30z"/>
		</defs>
		<clipPath id="SVGID_2_">
			<use xlink:href="#SVGID_1_"  style="overflow:visible;"/>
		</clipPath>
		<path class="st0" d="M-107.813-25H907.813v650H-107.813V-25z"/>
		<path class="st1" d="M-107.813,137.5H907.813v325H-107.813V137.5z"/>
		<g transform="translate(117.143 -434.934)" class="st2">
			<g>
				<path class="st3" d="M191.309,716.289h184.925v71.156H191.309V716.289z"/>
				<path class="st3" d="M366.696,755.581h5.827v26.804h-5.827V755.581z M191.309,742.337h184.925v8.271H191.309V742.337z
					 M191.309,731.125h184.925v7.296H191.309V731.125z"/>
				<path class="st4" d="M191.309,719.929h184.925v7.075H191.309V719.929z"/>
				<path class="st3" d="M239.994,755.581h5.827v26.804h-5.827V755.581z M319.603,755.581h5.827v26.804h-5.827V755.581z
					 M192.772,755.581h5.827v26.804h-5.827V755.581z M204.196,755.581h5.827v26.804h-5.827V755.581z M216.383,755.581h5.827v26.804
					h-5.827V755.581z M228.571,755.581h5.827v26.804h-5.827V755.581z M330.653,755.581h5.827v26.804h-5.827V755.581z
					 M342.841,755.581h5.827v26.804h-5.827V755.581z M355.028,755.581h5.827v26.804h-5.827V755.581z"/>
				<path class="st5" d="M118.981,791.185c2.86-1.458,6.121-4.849,7.189-8.645h313.739c1.068,3.796,4.331,7.187,7.191,8.645H118.981
					z"/>
			</g>
			<path class="st5" d="M279.027,607.966c0,0-0.234-6.682,3.656-6.755c3.893,0.072,3.656,6.755,3.656,6.755H279.027z
				 M258.731,696.594v-8.996c-0.13-4.498-4.485-4.823-4.612-8.102c0,0-0.562-4.919,0.734-7.163c1.762,6.576,4.966,5.369,4.966,2.665
				c0-2.361-1.815-4.557-5.538-10.286c-1.189-1.833-0.455-7.572,1.214-9.625c0.645,4.989,1.385,7.378,3.526,7.378
				c1.308,0,2.376-0.852,2.376-3.351c0-3.18-2.153-4.786-3.213-7.678c-1.235-3.377-0.383-6.818,1.667-8.742
				c0.881,4.924,0.618,6.885,2.806,6.885c4.409-1.394,0-7.777-0.943-9.388c-1.082-1.877,1.458-5.622,1.458-5.622
				c1.402,4.371,1.853,4.729,3.364,4.322c1.908-0.512,1.662-3.341-0.666-5.627c-1.469-1.446-1.313-3.594,0.265-5.32
				c1.584,3.096,3.612,2.909,3.807,1.069l-1.274-7.137h28.039l-1.391,6.906c-0.398,1.974,2.268,2.405,3.926-0.837
				c1.579,1.726,1.734,3.876,0.265,5.32c-2.327,2.286-2.574,5.116-0.666,5.627c1.511,0.406,1.963,0.049,3.364-4.322
				c0,0,2.28,2.551,1.458,5.622c-0.943,1.609-5.351,7.995-0.943,9.388c2.187,0,1.926-1.963,2.805-6.885
				c2.052,1.924,2.902,5.366,1.667,8.742c-1.056,2.893-3.211,4.498-3.211,7.678c0,2.499,1.068,3.351,2.372,3.351
				c2.145,0,2.884-2.389,3.531-7.378c1.666,2.052,2.402,7.792,1.212,9.623c-3.721,5.73-5.538,7.925-5.538,10.286
				c0,2.704,3.201,3.911,4.966-2.665c1.295,2.242,0.731,7.163,0.731,7.163c-0.127,3.279-4.482,3.604-4.61,8.102v8.996H258.731z
				 M270.463,621.811l-0.645-5.078h25.737l-0.643,5.078H270.463z M272.186,616.628l-0.552-4.176h22.105l-0.552,4.176H272.186z
				 M275.696,612.305l-0.369-4.176h14.719l-0.367,4.176H275.696z M329.353,791.185c-3.294-1.268-8.088-4.745-8.088-8.239v-39.483
				l4.287-5.457h-85.759l4.111,5.46v39.481c0,3.494-3.294,6.971-6.586,8.239L329.353,791.185z"/>
			<path class="st3" d="M255.042,755.581h5.827v26.804h-5.827V755.581z M304.312,755.581h5.827v26.804h-5.827V755.581z"/>
			<path class="st5" d="M238.256,693.068v44.941h87.787v-9.68l0.127-35.263c-3.588,1.41-4.218,4.664-4.218,4.664v19.139h-79.219
				v-19.138c0,0-0.884-3.253-4.475-4.664H238.256z"/>
			<path class="st5" d="M314.127,791.185c-2.87-1.268-9.12-4.745-9.12-8.239v-44.184c0.614-2.467,3.958-3.923,6.11-5.457h-58.211
				c2.771,1.466,5.86,2.684,6.963,5.46v44.184c0,3.494-4.94,6.971-7.81,8.239L314.127,791.185z"/>
			<path class="st5" d="M321.943,733.774v-31.829h-7.979v-3.104h-63.115v3.104h-7.979v31.829H321.943z M301.549,791.185
				c-2.811-1.268-6.906-4.745-6.906-8.239v-37.723l2.311-3.429h-28.746l2.307,3.429v37.724c0,3.497-4.095,6.971-6.906,8.239
				L301.549,791.185z"/>
			<path class="st6" d="M275.306,741.801h14.57v49.363h-14.57V741.801z"/>
			<path class="st3" d="M297.519,730.946c0.033-3.25,9.487-3.396,14.352-6.167h-58.422c4.865,2.769,14.097,2.997,14.097,6.167
				l1.978,6.308l24.185,0.972L297.519,730.946z"/>
			<path class="st5" d="M308.943,696.594c0-7.963,0.333-11.027,2.779-11.027v25.318c-5.996,2.178-10.278,9.831-10.278,9.831h-37.716
				c0,0-4.282-7.654-10.28-9.831v-25.318c3.014,0,3.034,3.204,3.034,11.027H308.943z M311.722,693.328
				c0-9.129,7.881-10.156,7.881-10.156v8.125c-2.998-0.13-4.446,2.564-4.446,6.572s2.416,4.072,2.416,4.072v23.059h-5.85
				L311.722,693.328z"/>
			<path class="st5" d="M253.482,693.328c0-9.129-7.881-10.156-7.881-10.156v8.125c2.998-0.13,4.446,2.564,4.446,6.572
				s-2.416,4.072-2.416,4.072v23.059h5.85L253.482,693.328z"/>
			<g>
				<path class="st7" d="M269.017,630.424h27.833 M265.718,639.117h33.995 M262.419,649.664h40.469 M258.974,662.55h47.996
					 M257.869,677.24h49.442"/>
				<path class="st8" d="M242.871,725.161h79.072 M267.961,725.177h29.309v10.774h-29.309V725.177z"/>
			</g>
			<g>
				<path class="st5" d="M264.288,701.306c4.859,5.834,4.409,15.73,4.355,21.564h28.181c-0.057-5.834-0.507-15.73,4.352-21.564
					H264.288z M280.132,634.47l-3.861-1.989v-5.683c1.576,0.471,3.351,0.666,3.523,3.182c0.549-3.591,1.54-3.416,3.099-4.815
					c1.555,1.397,2.546,1.224,3.096,4.815c0.174-2.515,1.945-2.709,3.526-3.185v5.684l-3.864,1.989L280.132,634.47z"/>
				<path class="st5" d="M279.872,643.797l-6.412-4.409v-5.237c2.247,0.52,4.771,0.731,5.018,3.494
					c0.783-3.939,2.194-5.974,4.412-7.508c2.218,1.534,3.629,3.568,4.412,7.508c0.247-2.763,2.771-2.974,5.021-3.494v5.237
					l-6.415,4.409H279.872z"/>
				<path class="st5" d="M279.417,658.341l-7.374-6.476v-7.696c2.584,0.764,5.488,1.076,5.772,5.128
					c0.899-5.785,2.522-8.775,5.07-11.029c2.551,2.254,4.176,5.242,5.075,11.027c0.284-4.053,3.185-4.365,5.769-5.13v7.694
					l-7.371,6.476L279.417,658.341z M293.018,666.938l-6.669,9.224h-7.55l-6.669-9.224H293.018z M268.286,682.424
					c3.336,1.823,4.566,5.455,4.924,12.274h18.769c0.358-6.818,1.588-10.449,4.924-12.274H268.286z"/>
				<path class="st3" d="M297.178,666.938v-9.266c-3.169,0.873-5.221,2.746-6.136,5.294c0-3.076-4.046-10.168-8.461-13.699
					c-4.427,3.952-8.543,10.367-8.46,13.699c-0.752-2.424-2.966-4.42-6.134-5.294v9.266H297.178z"/>
				<path class="st3" d="M298.592,682.424v-9.266c-3.474,0.873-5.723,2.746-6.728,5.294c0-3.076-4.436-10.169-9.274-13.699
					c-4.852,3.952-9.365,10.367-9.274,13.699c-0.826-2.424-3.253-4.42-6.728-5.294v9.266H298.592z"/>
				<path class="st3" d="M302.492,701.436v-10.688c-4.323,1.116-7.007,4.311-8.369,6.175c0-5.785-6.533-14.609-11.538-17.498
					c-5.135,2.966-11.538,12.082-11.538,17.498c-1.398-1.853-4.046-5.059-8.369-6.175v10.688H302.492z"/>
				<path class="st3" d="M300.152,725.161v-10.988c-3.812,1.495-4.953,5.168-6.152,7.665c0.471-11.147-6.276-23.124-11.414-26.162
					c-5.14,3.039-12.014,15.275-11.414,26.162c-1.232-2.481-2.34-6.17-6.152-7.665v10.988H300.152z"/>
				<path class="st5" d="M297.487,741.801v-10.988c-3.994,0.951-4.241,2.421-5.512,4.885c0.471-6.658-4.241-14.251-9.381-17.29
					c-5.14,3.039-9.854,10.634-9.383,17.29c-1.267-2.462-1.425-3.932-5.509-4.885v10.988H297.487z"/>
			</g>
			<g id="a">
				<path class="st5" d="M126.171,782.54v-33.215c-1.089-4.23-4.68-7.971-7.378-8.72v-29.24l6.077,3.289l6.942,30.566v37.32H126.171
					z"/>
				<path class="st5" d="M126.171,782.67v-33.345c-1.089-4.228-4.68-7.969-7.378-8.718v-31.27c4.079,0,6.077,5.319,6.077,5.319
					l6.942,30.566v37.191L126.171,782.67z"/>
				<path class="st5" d="M121.849,791.185c2.811-1.268,6.906-4.745,6.906-8.239v-41.514l-1.929-3.425h70.725l-2.759,3.425v41.514
					c0,3.494,2.811,6.971,5.623,8.239H121.849z"/>
				<path class="st5" d="M186.142,791.185c-2.811-1.268-6.906-4.745-6.906-8.239v-39.483l5.882-5.46l-48.08,0.003l5.883,5.457
					v39.483c0,3.494-4.095,6.971-6.906,8.239H186.142z"/>
				<path class="st5" d="M179.398,791.185c-2.811-1.268-6.906-4.745-6.906-8.239v-35.693l3.851-5.46h-30.547l3.851,5.46v35.693
					c0,3.494-4.095,6.971-6.906,8.239H179.398z"/>
				<path class="st5" d="M153.772,741.801h14.596v49.389h-14.596V741.801z"/>
				<path class="st3" d="M133.914,755.581h5.827v26.804h-5.827V755.581z M183.883,755.581h5.827v26.804h-5.827V755.581z
					 M128.942,710.374h7.02v27.479h-7.02V710.374z M128.942,705.206h6.979v5.102h-6.979V705.206z"/>
				<path class="st9" d="M186.678,716.289h10.01v21.213h-10.01V716.289z"/>
				<path class="st5" d="M135.848,737.641v-47.028c2.002,0,2.311,6.89,6.906,6.89c2.389,0,2.135-2.854,0.793-5.179
					c-1.189-2.061-2.66-4.904-0.661-10.205c1.372,4.056,5.059,5.343,4.378,2.8c-1.17-4.368-4.542-5.086-2.015-11.866
					c0.881,5.655,4.508,5.406,3.627,2.119c-0.991-3.705-3.044-5.223-0.514-10.445c1.419,5.931,3.335,5.582,3.335,1.901
					c0-5.437-0.208-11.304,6.83-13.479c0,0,0.406-4.985,2.944-4.985s2.946,4.985,2.946,4.985c7.036,2.178,6.828,8.044,6.828,13.481
					c0,3.681,1.918,4.03,3.334-1.901c2.532,5.223,0.479,6.74-0.512,10.445c-0.884,3.287,2.746,3.538,3.624-2.119
					c2.528,6.779-0.842,7.498-2.015,11.866c-0.679,2.543,3.006,1.256,4.378-2.798c1.999,5.298,0.528,8.141-0.661,10.205
					c-1.342,2.324-1.597,5.179,0.796,5.179c4.592,0,4.901-6.89,6.903-6.89v47.028L135.848,737.641z M124.853,702.119v35.88h4.079
					v-35.971C127.463,701.285,126.082,701.171,124.853,702.119L124.853,702.119z"/>
				<path class="st5" d="M124.982,725.34c5.057,2.584,10.067,5.579,11.334,12.664h-11.334V725.34z M195.128,714.599v23.411h3.307
					v-23.47C197.403,714.056,195.993,713.98,195.128,714.599z"/>
				<path class="st5" d="M198.443,725.161c-5.057,2.584-10.067,5.579-11.334,12.664h11.334V725.161z"/>
				<g>
					<path class="st5" d="M165.001,670.48l2.948-2.478v-3.174c-1.079,0.106-1.667,0.476-2.464,1.521
						c-0.678-2.104-2.168-3.746-4.163-4.766c-1.999,1.02-3.487,2.589-4.165,4.691c-0.796-1.045-1.384-1.341-2.464-1.446v3.174
						l2.949,2.478H165.001z"/>
					<path class="st5" d="M166.577,678.426l1.37-2.966v-4.127c-1.079,0.109-1.667,0.484-2.464,1.544
						c-0.678-2.134-2.168-3.799-4.163-4.833c-1.999,1.035-3.487,2.626-4.165,4.758c-0.796-1.056-1.384-1.358-2.464-1.466v4.128
						l1.372,2.964L166.577,678.426z"/>
					<path class="st5" d="M166.788,689.2l4.379-5.341v-5.27c-1.602,0.179-2.477,0.817-3.66,2.61
						c-1.008-3.611-3.217-4.401-6.185-6.152c-2.966,1.752-5.179,2.413-6.185,6.024c-1.183-1.792-2.057-2.301-3.656-2.481v5.27
						l4.376,5.341H166.788z"/>
					<path class="st5" d="M168.072,699.779c0,0,5.103-4.453,5.406-6.897v-5.634c-1.978,0.231-3.848,0.744-5.309,3.058
						c-1.243-4.664-3.185-5.964-6.844-8.226c-3.661,2.262-5.601,3.562-6.844,8.226c-1.463-2.316-3.331-2.827-5.309-3.06v5.632
						c0.644,2.444,5.405,6.897,5.405,6.897L168.072,699.779z"/>
					<path class="st5" d="M170.249,719.311c0,0,6.988-7.735,7.15-10.751v-8.785c-2.616,0.362-5.089,2.161-7.02,5.769
						c-1.645-7.27-4.209-12.34-9.051-15.866c-4.842,3.526-7.41,8.596-9.051,15.868c-1.934-3.611-4.409-5.411-7.023-5.772v8.785
						c0.5,3.014,7.15,10.751,7.15,10.751L170.249,719.311z"/>
					<path class="st5" d="M170.249,730.865c0,0,5.973-6.081,7.15-8.72v-8.785c-2.616,0.362-5.089,2.161-7.02,5.769
						c-1.645-7.27-4.209-11.433-9.051-14.96c-4.842,3.526-7.41,7.69-9.051,14.961c-1.934-3.612-4.409-5.411-7.023-5.772v8.785
						c1.516,2.639,7.15,8.72,7.15,8.72L170.249,730.865z"/>
					<path class="st5" d="M172.654,737.576c-1.744-7.586-3.243-13.211-11.64-18.915c-8.396,5.704-9.896,11.329-11.64,18.915H172.654
						z"/>
					<path class="st5" d="M176.977,741.801v-10.988c-3.812,1.495-7.259,3.705-8.531,6.167c-1.417-6.1-4.154-8.788-7.559-12.48
						c-3.408,3.692-5.688,6.38-7.109,12.48c-1.271-2.462-4.716-4.672-8.531-6.167v10.988H176.977z"/>
				</g>
			</g>
			<g transform="matrix(-1 0 0 1 390.74 0)">
				<g>
					<path class="st5" d="M439.585,782.54v-33.215c1.089-4.23,4.68-7.971,7.378-8.72v-29.24l-6.078,3.289l-6.942,30.566v37.32
						H439.585z"/>
					<path class="st5" d="M439.585,782.67v-33.345c1.089-4.228,4.68-7.969,7.378-8.718v-31.27c-4.079,0-6.078,5.319-6.078,5.319
						l-6.942,30.566v37.191L439.585,782.67z"/>
					<path class="st5" d="M443.907,791.185c-2.811-1.268-6.906-4.745-6.906-8.239v-41.514l1.929-3.425h-70.725l2.759,3.425v41.514
						c0,3.494-2.811,6.971-5.623,8.239H443.907z"/>
					<path class="st5" d="M379.614,791.185c2.811-1.268,6.906-4.745,6.906-8.239v-39.483l-5.882-5.46l48.081,0.003l-5.883,5.457
						v39.483c0,3.494,4.095,6.971,6.906,8.239H379.614z"/>
					<path class="st5" d="M386.358,791.185c2.811-1.268,6.906-4.745,6.906-8.239v-35.693l-3.851-5.46h30.547l-3.851,5.46v35.693
						c0,3.494,4.095,6.971,6.906,8.239H386.358z"/>
					<path class="st5" d="M411.984,741.801h-14.596v49.389h14.596V741.801z"/>
					<path class="st3" d="M431.842,755.581h-5.827v26.804h5.827V755.581z M381.873,755.581h-5.827v26.804h5.827V755.581z
						 M436.814,710.374h-7.02v27.479h7.02V710.374z M436.814,705.206h-6.979v5.102h6.979V705.206z"/>
					<path class="st9" d="M379.078,716.289h-10.01v21.213h10.01V716.289z"/>
					<path class="st5" d="M429.908,737.641v-47.028c-2.002,0-2.311,6.89-6.906,6.89c-2.389,0-2.135-2.854-0.793-5.179
						c1.19-2.061,2.66-4.904,0.661-10.205c-1.372,4.056-5.059,5.343-4.378,2.8c1.17-4.368,4.542-5.086,2.015-11.866
						c-0.881,5.655-4.508,5.406-3.627,2.119c0.991-3.705,3.044-5.223,0.514-10.445c-1.419,5.931-3.335,5.582-3.335,1.901
						c0-5.437,0.208-11.304-6.83-13.479c0,0-0.406-4.985-2.944-4.985s-2.946,4.985-2.946,4.985
						c-7.036,2.178-6.828,8.044-6.828,13.481c0,3.681-1.918,4.03-3.335-1.901c-2.532,5.223-0.479,6.74,0.512,10.445
						c0.884,3.287-2.746,3.538-3.624-2.119c-2.529,6.779,0.842,7.498,2.015,11.866c0.679,2.543-3.006,1.256-4.378-2.798
						c-1.999,5.298-0.528,8.141,0.661,10.205c1.342,2.324,1.597,5.179-0.796,5.179c-4.592,0-4.901-6.89-6.903-6.89v47.028
						L429.908,737.641z M440.903,702.119v35.88h-4.079v-35.971C438.293,701.285,439.674,701.171,440.903,702.119L440.903,702.119z"
						/>
					<path class="st5" d="M440.774,725.34c-5.057,2.584-10.067,5.579-11.334,12.664h11.334V725.34z M370.628,714.599v23.411h-3.307
						v-23.47C368.353,714.056,369.764,713.98,370.628,714.599z"/>
					<path class="st5" d="M367.313,725.161c5.057,2.584,10.067,5.579,11.334,12.664h-11.334V725.161z"/>
					<g>
						<path class="st5" d="M400.756,670.48l-2.948-2.478v-3.174c1.079,0.106,1.667,0.476,2.464,1.521
							c0.678-2.104,2.168-3.746,4.163-4.766c1.999,1.02,3.487,2.589,4.165,4.691c0.796-1.045,1.384-1.341,2.463-1.446v3.174
							l-2.949,2.478H400.756z"/>
						<path class="st5" d="M399.179,678.426l-1.37-2.966v-4.127c1.079,0.109,1.667,0.484,2.464,1.544
							c0.678-2.134,2.168-3.799,4.163-4.833c1.999,1.035,3.487,2.626,4.165,4.758c0.796-1.056,1.384-1.358,2.464-1.466v4.128
							l-1.372,2.964L399.179,678.426z"/>
						<path class="st5" d="M398.968,689.2l-4.379-5.341v-5.27c1.602,0.179,2.477,0.817,3.659,2.61
							c1.008-3.611,3.217-4.401,6.185-6.152c2.966,1.752,5.179,2.413,6.185,6.024c1.183-1.792,2.057-2.301,3.656-2.481v5.27
							l-4.376,5.341H398.968z"/>
						<path class="st5" d="M397.684,699.779c0,0-5.103-4.453-5.406-6.897v-5.634c1.978,0.231,3.848,0.744,5.309,3.058
							c1.243-4.664,3.185-5.964,6.845-8.226c3.661,2.262,5.601,3.562,6.844,8.226c1.462-2.316,3.331-2.827,5.309-3.06v5.632
							c-0.643,2.444-5.405,6.897-5.405,6.897L397.684,699.779z"/>
						<path class="st5" d="M395.507,719.311c0,0-6.988-7.735-7.15-10.751v-8.785c2.616,0.362,5.09,2.161,7.02,5.769
							c1.645-7.27,4.209-12.34,9.051-15.866c4.842,3.526,7.41,8.596,9.051,15.868c1.934-3.611,4.409-5.411,7.023-5.772v8.785
							c-0.501,3.014-7.15,10.751-7.15,10.751L395.507,719.311z"/>
						<path class="st5" d="M395.507,730.865c0,0-5.974-6.081-7.15-8.72v-8.785c2.616,0.362,5.09,2.161,7.02,5.769
							c1.645-7.27,4.209-11.433,9.051-14.96c4.842,3.526,7.41,7.69,9.051,14.961c1.934-3.612,4.409-5.411,7.023-5.772v8.785
							c-1.516,2.639-7.15,8.72-7.15,8.72L395.507,730.865z"/>
						<path class="st5" d="M393.102,737.576c1.744-7.586,3.243-13.211,11.64-18.915c8.396,5.704,9.896,11.329,11.64,18.915H393.102z
							"/>
						<path class="st5" d="M388.779,741.801v-10.988c3.812,1.495,7.259,3.705,8.531,6.167c1.417-6.1,4.154-8.788,7.56-12.48
							c3.408,3.692,5.688,6.38,7.109,12.48c1.271-2.462,4.716-4.672,8.531-6.167v10.988H388.779z"/>
					</g>
				</g>
			</g>
			<g>
				<path class="st5" d="M110.696,790.746v10.031h344.321v-10.033L110.696,790.746z M104.463,800.87v13.081h356.785V800.87H104.463z
					 M461.248,813.951l-356.785,0.098l-10.429-0.098v17.261H471.68v-17.258L461.248,813.951z M83.528,831.323l0.003,20.329h398.661
					l-0.003-20.329H83.528z M482.192,851.651v0.033H83.531v-0.033H73.022v20.329h419.673v-20.329H482.192z"/>
				<path class="st10" d="M148.068,790.795h26.008v81.144h-26.008V790.795z"/>
				<path class="st11" d="M153.821,790.795h14.49v81.146h-14.49V790.795z"/>
				<path class="st10" d="M269.407,790.795h26.01v81.144h-26.01V790.795z"/>
				<path class="st11" d="M275.338,790.795h14.49v81.146h-14.49L275.338,790.795z"/>
				<path class="st10" d="M391.461,790.795h26.008v81.144h-26.008V790.795z"/>
				<path class="st11" d="M397.213,790.795h14.49v81.146h-14.49V790.795z"/>
			</g>
			<g>
				<path class="st8" d="M126.171,782.54H439.91 M153.561,861.742h15.021 M153.561,851.586h15.021 M153.561,841.43h15.021
					 M153.561,831.274h15.021 M153.561,821.117h15.021 M153.561,810.961h15.021 M153.561,800.805h15.021 M275.403,861.759h13.986
					 M275.403,851.598h13.986 M275.403,841.435h13.986 M275.403,831.274h13.986 M275.403,821.113h13.986 M275.403,810.951h13.986
					 M275.403,800.789h13.986 M396.953,861.742h15.021 M396.953,851.586h15.021 M396.953,841.43h15.021 M396.953,831.274h15.021
					 M396.953,821.117h15.021 M396.953,810.961h15.021 M396.953,800.805h15.021"/>
			</g>
		</g>
	</g>
</g>
<g id="Copyright">
	<text transform="matrix(1 0 0 1 681.6426 577.5916)" class="st12 st13">© Vemaps.com</text>
</g>
</svg>
