<?xml version="1.0" encoding="utf-8"?>
<!-- Generator: Adobe Illustrator 19.1.0, SVG Export Plug-In . SVG Version: 6.00 Build 0)  -->
<svg version="1.1" xmlns="http://www.w3.org/2000/svg" xmlns:xlink="http://www.w3.org/1999/xlink" x="0px" y="0px"
	 viewBox="0 0 800 600" style="enable-background:new 0 0 800 600;" xml:space="preserve">
<style type="text/css">
	.st0{clip-path:url(#SVGID_2_);fill:#FFFFFF;}
	.st1{clip-path:url(#SVGID_2_);}
	.st2{fill:#B22234;}
	.st3{clip-path:url(#SVGID_2_);fill:#3C3B6E;}
	.st4{fill:#FFFFFF;}
	.st5{font-family:'Roboto-Regular';}
	.st6{font-size:14px;}
</style>
<g id="United_States">
	<g>
		<defs>
			<path id="SVGID_1_" d="M674.844,156.565l0.563-0.129l2.868-0.664l5.122-1.204l5.116-1.226l5.111-1.247l5.105-1.271l5.1-1.293
				l5.094-1.315l5.088-1.338l0.323-3.647l0.707-1.845l1.666,0.106l0.803-0.261l0.691-1.041l0.603-0.682l0.502-0.059l0.61,0.619
				l0.475,0.395l0.362-0.251l0.156-0.782l-0.271-0.953l0.288-0.793l0.528-0.253l0.52-0.119l0.168-0.395l-0.155-0.458l-0.39-0.699
				l-0.184-0.92l0.844-1.944l1.27-1.511l0.4-0.691l-0.143-1.139l0.581-1.385l0.266-0.777l-0.048-0.598l-0.425-0.634l-0.346-1.338
				l-0.134-1.675l-0.114-1.833l0.385-1.789l0.867-2.076l-0.281-2.331l-0.298-2.457l0.966-2.747l1.087-3.115l0.615-1.772l1.095-3.219
				l0.773-2.29l0.413-1.068l0.394-1.24l1.22-0.017l1.215-0.018l0.274,1.556l0.504,1.046l0.718,0.479l0.899,0.203l0.627-0.028
				l0.686-0.211l1.626-1.408l2.041-1.205l1.057-0.878l0.077-0.549l0.5-0.334l0.925-0.119l1.986,0.719l2.447,1.247l1.94,0.983
				l0.811,2.485l0.839,2.641l0.885,2.784l0.633,1.988l0.877,2.729l0.698,2.172l0.913,2.836l0.487,1.516l0.345,0.375l0.057,0.639
				l0.037,0.317l0.086,0.235l0.176,0.275l0.115,0.425l-0.079,0.44l0.036,0.47l0.192,0.729l0.345,0.376l0.431,0.152l0.295-0.09
				l0.459,0.144l0.633,0.309l0.867,0.171l0.816-0.098l0.503-0.265l0.727,0.061l0.423,0.57l0.06,0.638l-0.279,0.394l-0.326,0.343
				l0.072,0.481l0.346,0.419l0.412,0.333l0.539,0.642l0.071,0.68l-0.114,0.628l0.046,0.599l0.389,0.407l0.834,0.443l0.588,0.498
				l0.728,0.147l0.221-0.333l0.141-0.395l0.179-0.319l0.482,0.004l0.565,0.021l0.622,0.04l0.096,0.539l0.613,0.768l0.79,1.598
				l-0.164,0.89l0.404,0.984l1.213-0.058l0.37,0.224l0.172,0.357l-1.659,3.371l-2.209,0.29l-0.924,1.042l-1.13,0.57l-0.165,1.323
				l-0.58,0.448l-0.92,0.206l-0.875-0.091l-0.542,0.342l-0.188,2.351l-0.734,0.023l-0.041,0.838l-0.255,0.438l-0.435,0.441
				l-0.735-0.796l-0.556-0.8l-0.483-0.067l-0.632-0.057l-0.577,0.182l-0.348,0.243l-0.307,0.718l-0.548,0.701l-0.649-0.254
				l-0.609-0.537l-0.036,1.167l-0.179,1.275l0.475,1.284l0.01,0.842l-0.55-0.064l-0.688-0.537l-1.524-0.142l-1.071,0.37l0.007-0.792
				l0.717-1.346l-0.375-0.111l-0.46,0.293l-0.262-0.08l0.08-1.054l-0.274-1.057l-0.35,0.501l-0.251,1.274l-1.138,1.288l0.496,1.454
				l-0.437,3.404l0.316,1.303l-0.549,1.273l-0.838,1.201l-1.532,0.173l-0.895,1.089l-0.314,1.044l-0.455,0.274l-0.578-1.05
				l-0.286-0.294l0.062,1.774l-0.39,0.222l-0.493-1.13l-0.42-0.72l-0.381,0.832l0.124,1.883l-0.441-0.037l-0.314-0.625l-0.342-0.12
				l0.116,0.783l0.444,1.021l-0.047,0.626l-0.482-0.191l-0.543-0.398l-0.548,0.573l-0.56,0.327l-0.149-0.52l-0.064-0.671
				l-1.104,0.69l-1.115,1.581l-0.669,1.942l0.465,0.163l0.583,0.397l-1.256,3.062l-1.384,2.825l-0.506,4.125l-0.494,0.602
				l-0.341,0.824l0.05,2.393l-0.105,2.171l0.604,0.79l0.487,0.849l0.821,0.743l0.512-0.052l0.486-0.307l0.4-0.068l0.355,0.314
				l0.014,0.489l-0.581,0.282l-0.924,1.113l-0.919,0.58l-0.24,1.106l-0.452,1.324l-0.997,2.144l0.773,0.37l2.435-0.006l1.182,0.35
				l2.425,2.846l-0.261,0.422l0.024,0.636l1.597,0.465l1.081,2.224l1.344,0.488l1.812,0.027l1.852-1.279l1.432-1.451l-0.284-0.781
				l-1.589-1.558l-0.501-0.801l-0.95-0.344l-0.168,0.563l-0.685-0.479l-0.155-0.333l0.43-0.302l0.574-0.087l0.738,0.145l2.234,1.558
				l1.208,2.523l0.573,1.657l-0.027,0.629l-0.52,0.019l-0.898,0.376l-4.172,2.101l-0.77,1.04l-2.024,1.454l-0.254-0.379
				l-0.073-0.908l-0.625-1.729l-0.466,0.039l-2.718,3.833l-1.307,0.546l-0.914,1.151l-0.381-0.401l-0.782-2.111l0.227-2.006
				l-0.371,0.13l-0.898,1.407l-0.687-0.535l-0.45-0.668l-0.476-0.319l-0.438-0.053l0.765,1.518l-0.487,1.42l0.604,3.179
				l-0.675,1.568l-2.959,1.668l-2.119,0.362l-1.792,0.74l-2.32,1.234l-1.458-0.009l-1.241,0.989l-4.719,1.366l-1.088-0.087
				l-0.987,1.516l-1.883,1.215l-4.558,3.954l-0.917,1.256l-1.039,1.865l-0.748,1.047l-0.713,0.451l-0.315,0.798l-0.416,0.571
				l0.143-1.649l0.242-1.419l-0.138-2.605l-0.612-1.988l-0.757-0.698l-0.71-0.417l1.151,1.833l0.689,2.418l0.104,1.487l-0.633,3.066
				l-0.397,0.773l-0.508,0.716l-0.425,0.359l-0.343,0.546l-0.355,0.821l-0.168,1.506l0.594,1.198l2.628-0.127l0.584-0.55
				l0.558,0.826l0.49,1.215l0.133,1.407l-0.095,1.486l0.085,1.798l0.345,2.69l0.144,2.46l-0.222-0.705l-0.418-2.933l-0.345,0.398
				l-0.131,0.73l0.092,3.888l-0.608,2.225l-0.669,1.596l-1.07,0.01l0.48,1.033l-0.149,0.631l0.033,1.236l-0.428,0.923l-0.59,0.056
				l-0.698,0.729l-0.23,0.487l0.157,0.796l-0.392,0.822l-1.169,4.068l-1.492,1.459l-0.45-0.062l0.072-1.81l-0.077-1.796
				l-1.219-0.514l-1.093-0.172l-1.141,0.31l-1.571-1.059l-1.855-0.613l-2.866-2.14l-0.094-0.748l-0.327-1.217l0.266-2.095
				l0.364-1.504l0.759-0.905l2.492-1.304l0.424-1.225l0.19-0.995l-0.963,1.851l-1.849,0.965l-0.932,0.816l-0.653,1.076l-0.258,1.228
				l-0.845,1.596l0.277,0.885l0.331,0.6l0.204,1.356l1.008,1.145l1.904,1.819l1.005,3.255l1.59,1.975l2.262,2.211l1.464,0.445
				l0.278,0.947l-0.246,1.722l-0.631,0.902l0.999-0.375l0.595,0.248l0.797,1.212l0.264,1.36l0.001,0.799l-0.245,0.374l-0.161-0.781
				l-0.282-0.221l-0.291,0.419l-0.151,0.437l0.239,1.536l-0.083,0.813l-0.839,0.423l-0.462,2.187l-0.591,1.313l-1.647,8.355
				l0.405,1.247l-0.521,0.543l-0.852,0.535l-0.77,0.965l-0.44,0.975l-0.09,2.386l-0.562,2.784l-0.92-0.913l-0.371-0.87l-0.199-2.435
				l0.362-4.14l0.793-2.697l0.753-1.36l0.315-2.51l-1.112-0.123l-1.572,0.379l0.065-1.141l0.256-1.048l-1.026-0.768l-0.512-0.016
				l-0.584-0.28l0.418-0.913l0.108-0.893l-0.392-0.975l0.082-0.815l-0.385,0.203l-0.485,0.948l-0.341,0.41l-0.402-0.661l-0.25,0.223
				l-0.081,0.53l-0.363,0.36l-1.031-0.482l-1.457-0.494l-0.999-1.171l-0.626-0.939l0.026-1.943l0.822-0.518l1.222,0.056l1.517-0.326
				l-0.305-0.365l-0.527,0.183l-1.918-1.165l-0.706-0.8l-0.936-0.063l-0.219,0.959l-0.399,0.326l0.151-2.028l0.705-0.23l0.953-0.755
				l-0.543-1.041l-0.774-0.342l-1.085,0.862l-0.149-0.781l0.018-1.045l0.914-0.189l0.868,0.156l0.339-1.753l-0.122-0.725
				l-0.908,1.284l-0.729-2.2l0.649-2.408l0.855-1.172l1.325-0.254l1.308-0.44l-0.926-0.217l-0.909-0.031l0.464-0.997l0.519-0.272
				l0.382-0.865l-1.28,0.391l-0.15-1.449l-0.571,0.423l-0.73,0.295l-0.167,0.664l0.27,0.985l-0.082,0.702l-0.479,0.651l-0.912,0.621
				l-0.247-0.691l-0.398-0.253l0.198,1.549l-0.153,0.573l-1.031-1.276l-0.159,0.334l0.113,0.4l-0.039,0.741l-0.55,0.497l0.227,0.892
				l-0.141,0.541l-2.173-0.363l0.008,0.275l1.488,1.448l0.951,0.402l0.293,0.898l-0.556,0.911l-1.123-0.453l-0.156,0.083
				l0.771,1.018l0.543,0.916l-0.176,0.898l0.266,1.006l0.117,0.938l-0.046,0.849l1.253,3.608l0.792,0.887l0.773,0.845l0.492,0.839
				l-0.58,0.259l-1.122-0.541l-0.967-0.39l-1.386-1.601l-0.316-0.689l-0.364-0.521l0.39,1.288l0.664,1.391l3.855,2.62l0.85,1.135
				l0.655,0.894l0.086,0.971l-0.97-0.496l-0.894-0.705l-2.099-0.571l-2.519-0.117l-1.808-1.97l0.196,0.936l-0.137,0.856
				l-1.022-0.801l-0.687-0.721l-0.358-0.871l-1.015,0.27l-0.92,1.005l-1.081,0.022l-0.431-1.513l0.119-0.871l0.781-2.16l0.901-1.205
				l0.228-1.367l-0.563-1.934l0.199,2.044l-0.427,1.119l-0.834,0.957l-1.029,1.612l-0.068,1.313l0.06,2.421l0.709,0.682l0.604,0.094
				l1.556-0.865l0.908,0.063l2.486,2.427l3.798,0.381l1.446,0.426l1.367,1.247l1.774,0.511l1.499,0.966l0.202,0.794l-0.231,1.037
				l0.099,1.317l-0.359,0.919l-1.25,0.359l-0.811-0.048l-5.049-3.657l-0.576-0.314l-2.005-2.051l-2.042-0.904l-0.547,0.138
				l3.017,1.826l1.373,1.424l2.303,1.918l1.512,0.7l1.28,1.314l1.046,0.523l2.665,0.497l-0.701,0.905l1.493,0.332l0.435,1.096
				l0.148,1.322l-2.003-0.115l0.138,0.968l0.288,0.528l-0.741,0.641l-1.298-0.389l-3.738-2.831l0.12,0.457l0.355,0.486l2.213,1.863
				l1.844,1.008l1.455,0.325l1.259,0.902l0.504,0.6l0.458,0.974l-0.615,0.856l-0.787,0.566l-0.992-0.518l-0.773-0.603l-1.579-0.969
				l-0.683-1.308l-0.989,0.279l-4.554-0.907l-3.411,0.475l0.4,0.289l0.474,0.151l2.773-0.106l1.226,0.596l2.357,0.269l1.335-0.069
				l0.982,2.104l2.108,1.15l0.468,1.079l1.252-0.129l1.922-1.558l1.471,0.094l2.071-0.11l0.649,0.794l0.708,1.623l1.12,1.756
				l3.47,7.124l4.127,5.542l0.576,0.983l-0.853-0.787l-2.957-3.622l-1.777-2.695l-2.287-4.944l-0.588-1.091l-0.498-0.379
				l-0.181,0.434l0.029,0.686l0.299,0.468l-0.094,1.809l0.367,0.742l0.922,0.651l1.248,1.85l1.238,2.586l-1.119-0.915l-1.066-0.384
				l-1.558-0.137l-1.47-0.511l0.334,1.11l0.134,1.246l-1.084-0.159l-0.769-0.26l0.88,1.172l-1.397-0.113l-0.859,0.265l-0.328,1.273
				l-0.619,0.86l-1.084,0.461l-1.897-0.709l-0.807-1.171l-0.518-1.382l0.257,1.707l0.66,1.697l0.17,1.358l1.669-0.088l1.467-0.532
				l2.052-0.37l1.278-0.53l0.711-0.593l1.998-0.039l0.48,1.583l0.121,1.649l0.252,1.73l0.531-0.125l0.511-0.679l-0.34-3.122
				l1.513-1.505l0.604-0.049l0.771,0.861l0.403,0.955l0.494,1.324l0.039,2.171l-2.185,3.018l-1.464,2.667l-0.898,0.67l-1.491,0.041
				l-1.747-0.225l-0.822,0.053l-0.568,0.316l-0.514-0.617l-0.501-1.217l-0.719-0.289l-0.469,0.146l-0.048,1.413l-1.44,0.695
				l-2.179-0.134l-2.392-0.694l1.174,1.028l5.834,1.166l0.693,0.298l0.694,0.502l-0.55,1.128l-0.363,1.217l0.094,0.876l-0.096,0.585
				l-1.85,1.904l-1.219-0.019l-3.512-2.031l1.818,2.005l1.284,0.746l2.295,0.068l3.928-1.701l1.54,0.648l-0.761,1.877l-0.859,1.384
				l-1.417,0.428l-1.207,0.575l-0.21,0.871l-0.897,0.236l-1.409,0.337l-2.182,0.518l-1.244,0.058l-1.361,1.963l-0.593,0.351
				l-0.951-0.128l-0.633-1.232l-0.525-0.563l0.474,2.445l0.286,0.627l0.418,0.433l-1.717,1.717l-1.573,2.026l-0.593,0.583
				l-0.613,0.979l-1.123,2.701l-0.056,1.821l-0.201,2.056l-0.241-0.862l-0.185-1.494l-0.718-1.614l0.345,3.143l-0.343,1.557
				l-5.704,0.975l-2.345,1.246l-3.345,3.337l-0.937,1.363l-2.371,5.035l-0.302,3.001l-0.867-1.084l0.001-0.93l-0.119-0.738
				l-0.521,1.722l1.172,2.164l-0.529,1l-1.821,2.013l-1.109,0.472l-1.217,0.693l-0.127,1.689l-1.508,1.798l-0.917,0.838
				l-1.957-0.076l0.827,1.337l-0.509,1.206l-1.055,1.037l-1.397,0.796l-0.865,0.077l-0.681,0.411l-0.456,0.787l-1.291,0.88
				L640,391.784l-1.682,0.052l-0.854,0.538l1.648,0.389l0.979,0.794l0.036,1.281l-0.334,0.552l-0.868,0.816l-0.445-0.027
				l-0.358-0.548l-0.518-1.179l-0.411,0.336l0.015,0.586l-0.357,0.268l-1.7-1.738l0.31,1.486l0.669,1.071l0.562,0.508l0.528,0.267
				l0.203,0.514l-0.738,1.453l-0.442,0.368l-0.835,0.351l-0.361,0.879l0.255,0.666l-0.522,1.618l-1.674,1.225l-0.563,0.052
				l-0.411,0.345l0.371,0.624l0.532,0.413l0.055,0.453l-0.386,0.688l-0.927,0.321l-0.426,0.782l0.273,0.632l0.373,0.318l0.034,0.643
				l-0.987,0.806l-0.157,0.665l0.569,0.1l0.387-0.25l0.325,0.087l-0.488,1.148l-0.486,0.729l-0.378,1.232l-1.244,0.518l0.106,0.362
				l0.782,0.214l0.75,0.785l-0.898,1.804l-0.74-0.022l-0.495-0.29l-0.083,1.326l0.213,0.668l-0.059,1.441l-0.183,1.749l-0.194,0.736
				l0.261,1.276l0.376,1.213l0.956,1.49l2.097,6.368l1.094,2.153l2.294,5.907l3.158,5.574l4.293,6.65l6.606,7.812l0.827,1.13
				l-0.508,1.156l-0.03,1.116l0.208,1.641l0.449,1.558l0.938,1.838l1.681,2.767l-0.766-0.481l-2.424-3.972l-0.609-2.467
				l-0.332-3.589l-0.389,0.151l-0.139,1.207l0.04,1.384l-0.351,0.595l-0.931-1.97l-0.11-0.941l0.453-1.194l-0.247-0.363
				l-1.111-0.394l-0.359-0.844l-0.002-0.891l-0.66-0.37L645.068,459l0.652,2.092l0.697,1.236l1.109,3.052l1.28,1.749l0.826,1.506
				l9.467,15.924l1.948,1.897l0.849,1.454l1.161,3.142l0.845,4.141l0.182,7.791l0.622,5.224l-0.186-0.132l-0.198-0.528l-0.269-0.031
				l-0.566,2.535l-0.955,2.359l0.121,3.396l-0.355,1.769l-1.609,2.074l-1.185,0.149l-2.676,1.792l-2.088-0.016l-2.303,1.132
				l-1.608,0.17l-1.168-1.427l0.03-0.725l0.255-0.764l0.594-0.263l2.399,1.308l0.293-0.757l-0.777-0.721l-1.308-0.263l-0.992-0.361
				l-2.426-3.47l-2.301-2.287l-0.588-1.678l-3.428-0.55l-2.606-1.236l-1.968-2.609l-1.638-4.909l-1.121-0.412l-0.496-0.327
				l0.732-2.024l0.829-1.73l-0.783,0.517l-0.535,0.674l-0.584,1.505l-0.546,0.299l-0.561-0.135l-1.003-2.571l-0.309-3.299
				l0.671-1.351l-1.313,0.161l-1.287,0.666l0.358,1.062l-0.104,0.628l-1.011-0.009l-0.806-0.274l-1.182-0.989l-1.699-1.969
				l-3.689-5.576l-0.671-0.766l-1.06-0.752l0.401-0.337l0.78-0.276l1.43-2.953l1.189-1.833l0.309-1.195l-0.152-0.47l-0.728-0.611
				l-0.736,0.731l-0.378-0.124l-1.128-1.282l-0.941-0.274l-0.573,0.393l0.814,1.067l0.646,0.347l0.013,1.717l-0.159,0.582
				l-0.48,0.562l-0.894-0.137l-0.375,0.477l-0.572-0.367l-0.612-0.669l-0.736-1.14l0.53-7.072l0.757-4.57l-0.549-5.018l-0.003-0.755
				l-0.303-1.312l-2.236-2.631l-9.032-5.948l-7.329-7.546l-5.773-2.454l-3.986,1.2l-0.627,0.719l-0.201,0.864l0.371,0.904
				l-0.323,0.435l-1.102,0.085l-1.449,0.397l-3.594,2.669l-1.372,0.079l-1.171,0.717L577.878,451l-2.391,0.512l-1.996,0.723
				l-0.916-0.165l-0.721-1.216l-0.148-1.326l0.582,0.964l0.815,0.714l0.296-0.355l0.045-0.717l-0.876-1.297l-2.518-1.512
				l-2.921-2.299l0.813-0.002l0.142-0.577l-0.896-0.638l0.253-0.879l0.477-0.947l-1.095,0.254l-0.929,0.727l0.05,0.768l-0.131,0.629
				l-0.546-0.03l-1.077-0.645l-5.122-1.578l-4.402-0.744l3.23-0.867l1.824,0.229l-0.279-0.612l-0.47-0.358l-1.456-0.365
				l-1.768,0.377l-1.154-0.126l-1.104,0.622l-1.191,0.878l-1.089,0.499l-4.363,0.969l-3.528,0.925l0.517-0.674l0.575-0.456
				l2.058-0.807l0.196-1.292l-0.612-1.168l-0.528,0.344l-0.494,1.005l-0.781-0.617l-0.793,0.078l-0.075,1.531l-0.924,1.107
				l-0.366,1.062l-2.917,1.071l-0.407-0.232l0.788-1.047l-0.118-0.532l-0.956,0.552l-1.51,1.985l-5.847,1.111l0.287-0.444
				l1.238-0.189l1.698-0.731l-0.438-0.948l-0.766-1.018l-0.631-0.067l-0.464-0.596l-0.149-1.99l-0.495-1.129l-1.057-1.116
				l-0.303,0.257l-0.532,2.104l-0.362,2.731l-0.218,0.89l-1.742,0.205l-1.561-0.058l-5.231,0.737l-2.033-0.759l-0.827-0.113
				l-0.494,0.058l-2.224,1.003l-2.56,0.827l-0.628-0.157l-0.878,0.032l-1.74,2.305l-2.164,1.17l-5.754-1.459l-1.493-1.383
				l-1.262-0.237l-1.538-0.088l-1.533,1.909l-1.104,2.517l2.056,1.221l1.732,0.537l2.763-0.711l1.47-1.283l1.264-0.043l0.587-0.28
				l0.51-0.655l1.11,0.417l0.071,0.486l-0.72,0.74l-0.927,0.644l-0.541,0.722l1.193,1.305l1.764,0.347l0.639-0.244l0.299-1.575
				l0.996-1.069l1.461,0.115l-0.162,0.639l0.244,0.576l0.736,0.961l0.025,1.448l0.154,0.339l-1.519,0.746l-1.15,0.296l-0.876,0.897
				l0.522,0.451l-0.922,0.489l-0.654-0.127l-0.313,0.179l-0.063,0.518l-0.46,0.508l0.811,1.385l1.53,0.836l1.116,1.101l4.276,1.251
				l1.008-0.117l1.107,1.48l0.841,0.475l0.793,0.214l-0.01,1.074l-1.318,0.882l-0.304,0.959l-0.308,0.549l-0.668-0.619l-0.672-0.435
				l-1.372,1.566l-0.69,0.357l0.243-1.601l-0.6-0.579l-0.951-1.523l-1.292-0.894l-0.885-0.266l-0.713-0.573l-0.83-0.196l-0.689,0.11
				l-1.198-0.283l-0.132-0.837l-0.366-0.609l-0.965-0.684l-4.468-1.13l0.009,0.584l0.331,0.419l0.647,0.253l0.789,0.52l0.098,1.68
				l-0.282,0.731l-0.077,1.021l-0.227,1.047l-0.488,0.845l-1.168,0.627l-0.558-0.431l-0.99-2.164l-1.251-0.626l-1.926,0.03
				l-1.276,0.576l-1.302,2.227l-1.129,0.415l-3.99-0.9l-4.57-1.467l0.088-0.571l0.696-0.217l1.363,0.163l-0.101-0.578l-1.476-1.826
				l-0.296-0.843l0.125-1.053l-0.448,0.046l-0.784,0.918l-2.885-0.606l-0.828-0.851l-1.787-2.427l-2.36,0.024l-1.132-1.472
				l-1.897,0.718l-0.946,0.744l-0.813,1.126l0.357,0.552l0.892,0.863l-0.373,0.45l-2.723,0.751l-6.407-0.478l-1.888-0.605
				l-2.548-1.332l-3.5-1.046l-1.673-0.137l-1.627,0.274l-4.75,0.241l-1.096,0.333l-0.928,0.512l-0.622-0.529l-0.303-0.962
				l0.548-0.17l0.6-0.584l0.527-1.139l0.047-0.682l-0.397-0.436l-0.736-0.027l-1.559,2.97l0.966,1.624l-0.051,0.594l-3.242,0.406
				l-7.327,3.438l-2.86,1.824l0.14-0.602l3.453-2.362l-1.235-0.335L427.621,464l-0.713-0.213l0.813-1.923l-0.296-1.683l-1.404-0.028
				l-0.878,1.358l-0.622-0.05l-0.82-0.568l-0.628,0.189l0.499,3.046l0.9,1.245l0.76,1.591l-2.007,1.999l-1.871,1.648l-0.191,1.577
				l-1.883,2.067l-1.782,1.176l-4.197,2.754l-1.201,0.589l-1.901,1.272l-2.627,0.952l-2.523,1.506l-0.852,0.227l1.613-1.274
				l1.909-1.26l-1.637,0.172l-2.521-0.59l-1.543-0.039L402,480.197l-1.177,0.645l-1.211-0.962l-0.526-0.646l-0.248-0.557
				l-0.515-0.138l-0.497,0.254l1.792,3.919l0.774,0.173l0.856,0.392l-1.072,0.905l-1.154,0.684l-1.813,0.447l-1.523-1.437
				l-0.347,1.786l-0.21,1.784l-0.52,0.454l-0.83,0.646l-0.442-0.497l-0.206-0.693l-0.533,0.611l-0.777,0.454l-1.276,0.078
				l-0.959,0.236l0.013,0.74l0.21,0.746l1.7-0.568l-0.635,1.904l-1.582,1.87l-1.278,0.43l-1.942-0.303l-0.483,0.182l-0.436,0.386
				l2.227,2.984l-1.525,4.429l-0.96,1.598l-0.653,0.196l-0.705,0.036l-2.503-1.475l-1.357-1.133l1.16,3.037l3.299,0.936l0.152,1.143
				l-0.034,0.974l-0.672,1.133l-0.637,1.509l0.435,1.065l0.484,2.622l0.431,1.206l0.44,3.644l0.504,1.584l2.969,5.84l1.029,0.058
				l0.158,0.63l-0.113,1.202l-2.204,0.322l-0.931,0.523l-0.187,0.463l-0.14,0.249l-0.284-0.027l-1.045-0.35l-2.36-1.683
				l-3.455-1.082l-4.553-0.488l-3.096-0.895l-1.638-1.296l-1.725-0.789l-1.812-0.283l-1.487-0.723l-1.161-1.163l-1.722-0.772
				l-2.284-0.384l-1.465-0.894l-0.968-2.103l-0.004-0.031l-0.81-3.492l-1.09-2.209l-2.167-2.765l-0.194-0.361l-0.001-0.001
				l-0.003-0.443l0.336-1.553l-0.197-1.133l-0.68-0.942l-0.128-0.976l0.424-1.007l0.07-1.226l-0.283-1.445l-1.374-1.603
				l-2.462-1.763l-2.052-2.519l-1.638-3.272l-1.654-2.292l-1.673-1.311l-1.112-1.561l-0.553-1.81l-0.14-1.042l0.271-0.274
				l-0.966-2.03l-2.194-3.787l-1.227-2.754l-0.266-1.717l-1.398-2.099l-2.525-2.483l-1.356-1.603l-0.291-1.078l-0.005-0.002
				l-3.943-3.311l-1.084-1.996l-0.895-0.662l-1.071,0.004l-0.537-0.217l-0.002-0.437l-0.344-0.041l-0.688,0.357l-2.185-0.051
				l-3.68-0.464l-2.632-0.696l-1.585-0.924l-1.154,0.034l-0.728,0.993l-1.448,0.572l-2.168,0.15l-1.983,1.796l-1.803,3.44
				l-0.847,2.233l0.116,1.031l-0.464,0.708l-1.044,0.388l-1.105,0.956l-1.167,1.524l-1.281,0.683l-1.392-0.158l-2.484-1.433
				l-3.565-2.713l-2.819-1.733l-2.08-0.746l-1.784-1.276l-1.486-1.802l-1.403-1.24l-1.322-0.676l-1.436-1.986l-1.544-3.298
				l-0.692-2.5l0.234-2.553l-1.859-5.782l-1.03-2.528l-0.827-1.2l-1.697-1.499l-2.562-1.804l-3.323-3.442l-4.065-5.087l-2.91-3.121
				l-1.774-1.145l-1.447-1.841l-1.117-2.537l-1.175-1.666l-0.133-0.086l-0.114-0.044l-3.306-0.39l-3.305-0.397l-3.304-0.405
				l-3.303-0.412l-3.302-0.42l-3.302-0.428l-3.3-0.435l-3.298-0.443l-0.268,1.994l-0.268,1.993l-0.267,1.993l-0.267,1.992
				l-5.338-0.689l-5.336-0.708l-5.332-0.727l-5.33-0.748l-5.327-0.768l-5.325-0.788l-5.321-0.807l-5.319-0.827l-6.698-3.767
				l-6.667-3.797l-6.635-3.83l-6.602-3.861l-6.569-3.893l-6.538-3.923l-6.505-3.954l-6.471-3.984l0.904-0.85l1.458-2.458
				l-1.715-0.15l-4.275-0.474l-4.275-0.487l-4.274-0.501l-4.274-0.513l-4.273-0.526l-4.272-0.54l-4.272-0.552l-4.272-0.566
				l-0.007-0.119l0.331-1.935l-0.524-0.83l-0.967,0.219l0.168-2.575l0.485-1.123l0.155-1.168l-0.17-3.002l-1.372-3.909l-3.657-5.319
				l-2.026-1.97l-1.426-2.226l-1.052-0.775l-1.44-0.489l-0.621,0.706l-1.538-0.952l0.73-1.935l-0.954-3.166l-1.251-0.628
				l-3.38-0.629l-4.076-2.624l-1.088-1.234l-0.048-1.738l-1.723-1.934l-2.384-2.073l-1.602-0.067l-1.934-0.722l-2.574-1.726
				l-1.619-0.553l-3.291-0.546l-1.144-0.525l-0.781-1.548l-1.033-0.944l0.663-1.477l0.217-1.437l0.467-1.039l0.096-2.526l1-2.099
				l-0.146-0.893l-0.51-0.791l-1.865-1.465l-0.081-1.236l0.764-1.479l-0.271-1.183l-1.46-1.429l-1.011-2.626l-1.703-1.752
				l-0.285-2.238l-0.907-1.583l-0.131-1.22l-1.673-4.689l-2.082-3.883l0.043-1.89l0.559-2.448l1.556-1.155l0.98-1.124l0.269-1.208
				l0.066-0.92l-0.576-1.799l-3.613-1.988l-2.074-4.639l0.634-2.919l-0.39-3.283l0.529-1.911L41.202,265l1.053-0.186l0.782,0.4
				l-0.318,0.798l-0.143,1.554l0.659,1.385l0.795,0.748l0.542,1.318l0.544,0.506l0.635,0.264l-0.157-0.791l-0.248-0.548
				l-0.055-1.561l-0.349-2.073l-0.708-1.292l0.018-1.983l-0.31-0.549l-0.074-0.759l1.187-0.537l1.47-0.206l1.795,0.339l4.898,1.659
				l1.19-0.178l0.833,0.396l0.658,0.116l-1.216-0.859l-0.803-0.052l-0.866-0.346l-1.802-0.4l-0.661-0.405l-0.63-0.799l-0.499-0.204
				l-1.925,0.543l-0.698-0.329l-1.417-1.587l-0.71-0.37l-1.392,0.276l-0.917,2.644l-0.194,2.104l-0.791-0.006l-0.609-1.067
				l-1.157-0.862l-0.854-1.058l-1.107-1.828l-0.644-0.738l-1.232,0.894l0.119-0.54l0.838-1.213l0.531-2.289l0.825,2.19l-0.051-1.388
				l-0.642-1.697l-0.656-0.716l-0.27-2.783l-1.804-2.155l-1.08-2.944l-2.466-5.087l0.811-3.585l0.009-4.835l1.318-2.357l0.463-1.811
				l0.168-2.896l-0.229-1.673l-1.693-4.909L30,215.121l0.209-2.178l0.44-2.125l1.173-1.651l1.119-1.772l0.54-0.394l0.083,0.259
				l-0.232,0.38l0.354,0.248l0.41-0.808l0.369-0.369l-0.397-0.184l0.125-0.257l0.413-0.463l1.633-2.279l0.888-3.228l2.109-3.647
				l0.351-1.309l0.267-2.966l-0.068-1.848l-0.67-1.5l0.984-1.59l0.468-1.661l-1.084-2.93l0.27-3.326l0.274-1.356l1.252-3.422
				l-0.013-1.629l-0.441-2.816l1.169-1.967l0.949-1.124l3.078-5.231l0.462-0.356l0.554,0.186l1.266-0.661l-0.38-0.361l-0.819,0.249
				l1.288-2.049l1.261-1.704l0.65-0.554l2.124-6.167l1.837-4.645l1.109-1.378l0.273-1.686l0.921-2.116l0.496-2.269l4.569-10.246
				l0.215-1.338l0.927-1.6l0.993-4.657l1.706-5.026l-0.139-0.745l0.045-0.751l0.344-0.008l0.386,0.922l2.834,0.845l2.013-0.143
				l0.59,0.422l0.487,1.156l0.906,0.473l1.252,0.191l-0.297-0.341l-0.547-0.228l-1.009-1.23l-0.461-1.068l-2.222-0.6l-0.288-0.684
				l-2.627-0.194l-0.59-0.792l-1.451-0.044l0.812-1.493l0.549-2.022l0.662-1.929l-0.103,1.525l0.373,1.765l0.919-1.596l0.927-2.074
				l-0.558-1.074l-1.157-1.022l0.13-2.152l3.689-0.748l-1.573-0.871l-0.426-0.969l-0.787-0.342l-0.24,0.574l-0.5,0.696l0.029-1.118
				l0.289-1.237l0.301-2.172l-0.27-3.723l0.548-4.546l-0.319-2.428l-1.235-2.607l-0.117-1.334l0.49-3.14l0.955-2.19l0.153-1.703
				l0.859,0.366l1.949,1.978l2.614,1.882l0.664,0.988l1.256,0.965l7.621,3.185l0.539,0.073l1.17-0.215l0.415,0.188l0.815,1.518
				l0.542,0.311l0.771,0.158l0.621-0.062l1.188-0.532l0.042,0.336l-0.235,0.744l0.032,1.166l0.3,1.588l0.017,0.938l-2.12,2.02
				l-0.287-0.026l0.196-0.834l-0.14-0.216l-3.869,3.327l-1.509,1.669l-0.352,0.852l-0.119,0.525l0.339,0.237l0.917,0.05l1.509-0.437
				l0.113-0.158l-1.27-0.058l-0.576-0.142l0.347-0.897l0.263-0.398l1.171-1.137l1.05-0.58l1.406-0.536l0.871-0.523l0.761-0.916
				l1.638-0.882l0.336-0.281l0.24-1.045l0.137-0.172l0.576,0.316l-0.251,1.845l-0.379,0.746l-1.378,0.647l-0.235,0.301l-0.185,1.371
				l-0.208,0.078l-0.376-0.276L87.88,94.94l0.636,1.732l0.013,1.208l-0.24,1.007l-0.833,1.825l-0.396,0.229l-0.492-0.268
				l-0.521-0.796l-0.21,0.148l-0.978,1.321l-0.145-0.183l0.165-1.856l-0.149-0.184l-1.3,0.49l-0.654,0.643l-0.727,1.12l-0.637,0.437
				l1.296,0.515l1.273,0.102l0.797,0.863l0.324,0.111l1.045-0.315l0.381-0.311l1.26-1.644l0.46-0.227l0.547,0.142l0.605-0.128
				l1.068-0.793l0.146-0.394l0.364-2.353l0.448-1.266l-0.029-0.449l-0.227-0.522l0.161-0.399l0.463-0.6l0.194-0.606l-0.076-0.61
				l0.28-0.589l1.107-1.123l0.305-0.547l1.265-1.071l-0.073-0.597l-0.468-0.835l-0.249-0.69l-0.159-1.012l-0.229-0.389l-0.142,0.107
				l0.024,1.59l-0.123,0.072l-0.926-1.118L92.4,86.154l0.053-0.715l0.247-0.477l0.76-0.324l0.789,0.029l0.06-0.437l-0.533-1.631
				L93.341,81.8l-0.386-0.437l-0.614-0.262l-0.221-0.304l0.017-0.342l0.256-0.382l0.376-0.037l0.935,0.451l0.615-0.147l0.106-0.557
				l-0.072-0.345l0.58-1.934l0.08-1.683l-0.118-0.322l-0.201-0.087l-0.282,0.149l-0.631-0.122l-0.229-0.625l-0.131-1.117
				l-0.072-2.592l1.17,0.338l4.878,1.395l4.884,1.373l4.89,1.351l4.896,1.329l4.902,1.307l4.908,1.285l4.913,1.263l4.919,1.24
				l4.925,1.219l4.93,1.197l4.935,1.175l4.941,1.153l4.945,1.131l4.951,1.108l4.956,1.086l4.96,1.064l4.965,1.042l4.97,1.019
				l4.975,0.997l4.979,0.975l4.983,0.952l4.988,0.93l4.991,0.908l4.995,0.885l5,0.863l5.003,0.84l5.007,0.818l5.011,0.795
				l5.014,0.773l5.017,0.75l5.021,0.728l5.024,0.704l5.027,0.683l5.03,0.66l5.033,0.638l5.036,0.615l5.038,0.592l5.042,0.57
				l5.043,0.547l5.046,0.524l5.049,0.502l5.05,0.479l5.052,0.457l5.054,0.434l5.057,0.411l5.058,0.389l5.06,0.366l5.062,0.343
				l5.063,0.32l5.064,0.298l5.066,0.275l5.067,0.252l5.068,0.229l5.069,0.207l5.07,0.184l5.07,0.16l5.071,0.139l5.072,0.116
				l5.072,0.093l5.073,0.07l5.073,0.048l5.073,0.025l5.073,0.002l5.073-0.021l2.806,0.004l0.012-3.726l0.009-2.935l2.558,0.331
				l0.77,0.526l0.245,0.252l-0.062,0.811l0.241,2.454l0.49,2.044l1.112,2.447l0.003,0.008l0.102,0.961l0.363,0.597l0.658,0.552
				l2.48,0.642l4.306,0.716l2.455,0.862l0.599,1.018l1.158,0.388l1.714-0.246l1.194-0.462l1-1.004l1.428-0.258l1.231,0.026
				l1.241,0.059l0.668,0.122l1.934,0.716l1.267,0.592l1.832,1.116l1.01,0.489l0.522,1.21l0.615,1.557l0.795-0.03l0.562-0.947
				l1.518-0.228l2.028,0.563l1.844,1.768l2.616,1.53l1.593,0.746l1.581-0.08l1.967-0.913l2.053-1.684l1.518-0.354l0.919,0.103
				l0.585,1.199l0.663,0.433l1.646-0.234l3.47,0.036l2.729-0.503l0.669,0.667l0.628,1.075l1.139,0.28l1.492-0.45l2.728,0.092
				l1.149-0.014l2.17-0.573l1.02-0.56l1.422-0.926l1.891-1.239l3.299-2.174l2.747-0.91l2.721,1.157l2.18,1.034l0.844,0.399
				l2.229,1.049l3.158,1.477l3.632,1.684l3.642,1.673l3.186,1.45l2.259,1.02l0.858,0.386l2.495,1.172l2.501,1.167l2.505,1.162
				l2.511,1.157l2.516,1.152l2.522,1.146l2.526,1.142l2.532,1.137l0.875,2.279l0.854,2.219l1.591,1.495l1.459,1.364l0.73-0.169
				l0.672-0.732l0.438-0.367l0.791-0.149l1.704-0.768l0.539,0.054l0.332,0.237l0.078,0.426l-0.018,0.349l-0.189,0.72l0.598,1.252
				l0.274,1.44l0.377,1.067l0.907,1.313l0.774,1.017l0.826,0.11l1.767-0.877l1.126-0.392l0.671,0.018l1.26,0.879l0.633,0.545
				l0.199,0.496l-1.109,3.339l2.627,1.237l2.934,1.338l3.507,1.587l2.149,0.967l2.856,1.405l0.807,2.464l0.682,2.08l0.908,2.906
				l0.929,2.965l0.928,2.955l0.988,3.137l1.088,3.447l0.969,3.059l1.062,3.34l1.402,4.346l-0.42,1.815l-0.921,3.954l-0.841,3.575
				l0.025,0.998l-0.21,5.067l-0.447,2.145l-1.126,1.368l-1.124,1.33l-1.338,2.149l-1.638,1.196l-0.828,0.684l-0.354,0.947
				l-0.26,2.006l0.503,2.942l1.815,2.343l2.346,1.125l2.508,1.061l3.299-0.463l2.695-2.276l2.845-2.417l2.527-2.16l2.995-2.576
				l2.701-2.34l3.138-1.185l4.34-1.654l5.45-2.105l2.518-1.798l3.244-2.331l3.728-2.699l3.205-2.338l1.591-1.267l1.056-1.31
				l0.165-0.858l-0.158-0.447l-0.406-0.403l-0.507-0.26l-0.448-0.218l-0.251-0.325l-0.178-0.778l-0.324-0.407l-0.291-0.29
				l-0.459-3.051l-0.473-0.886l-1.56-2.182l1.963-1.457l1.814-1.353l1.455-1.024l3.305-0.732l3.09-0.566l4.256-0.793l3.584-0.68
				l4.179-0.806l2.448-0.48l3.197-0.685l0.997-3.058l0.884-2.734l1.041-2.654l2.133-3.31l0.681-0.658l0.204-1.172l1.417-1.374
				l1.596-1.337l0.513-1.044l0.232-0.582l3.804-5.867l2.255-2.826l1.987-1.74l1.588-0.977l1.181-0.179L674.844,156.565z
				 M719.511,219.941l-0.64,1.361l0.865-0.096l0.635-0.513l0.511-0.841l1.349-1.306l1.243-0.739l0.402-0.19l0.803,0.47l1.139-0.836
				l1.232-0.623l-4.913,4.353l-1.076,0.621l-1.441,1.284l-1.416,1.008l-1.076,0.506l-5.102,3.551l-0.436,0.156l-0.536-0.092
				l-4.383,2.239l-1.881,0.583l-1.649,0.803l1.075-1.203l-0.052-0.342l-0.37-0.189l-0.67,0.24l-0.487,1.091l-1.054,0.574
				l-0.462-0.953l0.192-0.867l0.334-0.858l0.842-1.424l1.42-1.115l0.658-0.829l0.695,0.425l-0.058-0.785l0.327-0.54l0.412-0.347
				l1.126-0.277l0.578-0.265l0.378-0.357l0.439-0.156l1.315,0.042l1.179-0.392l0.855-0.71l0.97-0.407l2.641-0.767l2.563-1.007
				l0.904-0.879l1.786-2.279l1.154-0.804l-1.481,2.5L719.511,219.941z M388.928,523.846l-0.234,0.816l-1.291-3.843l-2.05-8.696
				l-0.008-4.946l0.364-1.698l0.457,6.992l2.283,8.891L388.928,523.846z M91.742,86.017l-0.073,2.395l0.51-0.86l1.12,2.062
				l-0.224,0.795l-0.268,0.211l-0.355-0.001L92.214,90.3l-0.12-0.636l-0.272-0.396l-0.703-0.408l-0.211-0.745l-0.013-0.472
				l0.323-1.261l-0.078-0.443l-0.376-0.202l-0.298-0.406l-0.339-1.045l-0.016-0.257l0.486-0.631l0.985-1.006l0.629-0.43l0.272,0.145
				l0.256,0.461l0.239,0.775l-0.212,0.44l-1.99,0.402l-0.117,0.195l0.767,0.495l0.245,0.316L91.742,86.017z"/>
		</defs>
		<clipPath id="SVGID_2_">
			<use xlink:href="#SVGID_1_"  style="overflow:visible;"/>
		</clipPath>
		<rect x="30" y="71.105" class="st0" width="869.806" height="457.792"/>
		<g class="st1">
			<rect id="stripe" x="30" y="71.105" class="st2" width="869.806" height="35.215"/>
		</g>
		<g class="st1">
			<rect id="stripe_1_" x="30" y="141.534" class="st2" width="869.806" height="35.215"/>
		</g>
		<g class="st1">
			<rect id="stripe_2_" x="30" y="211.964" class="st2" width="869.806" height="35.215"/>
		</g>
		<g class="st1">
			<rect id="stripe_3_" x="30" y="282.394" class="st2" width="869.806" height="35.214"/>
		</g>
		<g class="st1">
			<rect id="stripe_4_" x="30" y="352.823" class="st2" width="869.806" height="35.214"/>
		</g>
		<g class="st1">
			<rect id="stripe_5_" x="30" y="423.253" class="st2" width="869.806" height="35.215"/>
		</g>
		<g class="st1">
			<rect id="stripe_6_" x="30" y="493.683" class="st2" width="869.806" height="35.214"/>
		</g>
		<rect x="30" y="71.105" class="st3" width="347.922" height="246.503"/>
		<g id="_x3C_Group_x3E_" class="st1">
			<g>
				<g>
					<g>
						<g>
							<g>
								<g>
									<g>
										<g>
											<g id="star">
												<g transform="rotate(-144)">
													<polygon id="pt" class="st4" points="63.463,98.167 51.469,106.881 56.051,92.781 													"/>
												</g>
												<g transform="rotate(-72)">
													<polygon id="pt_1_" class="st4" points="58.341,99.831 46.347,91.117 61.173,91.117 													"/>
												</g>
												<g>
													<polygon id="pt_2_" class="st4" points="55.175,95.474 59.757,81.374 64.338,95.474 													"/>
												</g>
												<g transform="rotate(72)">
													<polygon id="pt_3_" class="st4" points="58.341,91.117 73.167,91.117 61.173,99.831 													"/>
												</g>
												<g transform="rotate(144)">
													<polygon id="pt_4_" class="st4" points="63.463,92.781 68.045,106.881 56.051,98.167 													"/>
												</g>
											</g>
											<g>
												<g id="star_1_">
													<g transform="rotate(-144)">
														<polygon id="pt_5_" class="st4" points="121.145,98.167 109.151,106.881 113.732,92.781 														"/>
													</g>
													<g transform="rotate(-72)">
														<polygon id="pt_6_" class="st4" points="116.023,99.831 104.029,91.117 118.855,91.117 														"/>
													</g>
													<g>
														<polygon id="pt_7_" class="st4" points="112.857,95.474 117.438,81.374 122.02,95.474 														"/>
													</g>
													<g transform="rotate(72)">
														<polygon id="pt_8_" class="st4" points="116.023,91.117 130.848,91.117 118.855,99.831 														"/>
													</g>
													<g transform="rotate(144)">
														<polygon id="pt_9_" class="st4" points="121.145,92.781 125.726,106.881 113.732,98.167 														"/>
													</g>
												</g>
												<g>
													<g id="star_2_">
														<g transform="rotate(-144)">
															<polygon id="pt_10_" class="st4" points="178.827,98.167 166.833,106.881 171.414,92.781 															"/>
														</g>
														<g transform="rotate(-72)">
															<polygon id="pt_11_" class="st4" points="173.705,99.831 161.711,91.117 176.536,91.117 															"/>
														</g>
														<g>
															<polygon id="pt_12_" class="st4" points="170.539,95.474 175.12,81.374 179.702,95.474 															"/>
														</g>
														<g transform="rotate(72)">
															<polygon id="pt_13_" class="st4" points="173.705,91.117 188.53,91.117 176.536,99.831 															"/>
														</g>
														<g transform="rotate(144)">
															<polygon id="pt_14_" class="st4" points="178.827,92.781 183.408,106.881 171.414,98.167 															"/>
														</g>
													</g>
													<g>
														<g id="star_3_">
															<g transform="rotate(-144)">
																<polygon id="pt_15_" class="st4" points="236.508,98.167 224.515,106.881 229.096,92.781 																"/>
															</g>
															<g transform="rotate(-72)">
																<polygon id="pt_16_" class="st4" points="231.386,99.831 219.392,91.117 234.218,91.117 																"/>
															</g>
															<g>
																<polygon id="pt_17_" class="st4" points="228.221,95.474 232.802,81.374 237.384,95.474 																"/>
															</g>
															<g transform="rotate(72)">
																<polygon id="pt_18_" class="st4" points="231.386,91.117 246.211,91.117 234.218,99.831 																"/>
															</g>
															<g transform="rotate(144)">
																<polygon id="pt_19_" class="st4" points="236.508,92.781 241.09,106.881 229.096,98.167 																"/>
															</g>
														</g>
														<g id="s5">
															<g id="star_4_">
																<g transform="rotate(-144)">
																	<polygon id="pt_20_" class="st4" points="294.19,98.167 282.196,106.881 286.777,92.781 																	"/>
																</g>
																<g transform="rotate(-72)">
																	<polygon id="pt_21_" class="st4" points="289.068,99.831 277.074,91.117 291.899,91.117 																	"/>
																</g>
																<g>
																	<polygon id="pt_22_" class="st4" points="285.902,95.474 290.484,81.374 295.065,95.474 																	"/>
																</g>
																<g transform="rotate(72)">
																	<polygon id="pt_23_" class="st4" points="289.068,91.117 303.894,91.117 291.899,99.831 																	"/>
																</g>
																<g transform="rotate(144)">
																	<polygon id="pt_24_" class="st4" points="294.19,92.781 298.772,106.881 286.777,98.167 																	"/>
																</g>
															</g>
														</g>
														<g id="s6">
															<g id="star_5_">
																<g transform="rotate(-144)">
																	<polygon id="pt_25_" class="st4" points="351.872,98.167 339.878,106.881 344.46,92.781 																	"/>
																</g>
																<g transform="rotate(-72)">
																	<polygon id="pt_26_" class="st4" points="346.75,99.831 334.755,91.117 349.581,91.117 																	"/>
																</g>
																<g>
																	<polygon id="pt_27_" class="st4" points="343.584,95.474 348.166,81.374 352.747,95.474 																	"/>
																</g>
																<g transform="rotate(72)">
																	<polygon id="pt_28_" class="st4" points="346.75,91.117 361.576,91.117 349.581,99.831 																	"/>
																</g>
																<g transform="rotate(144)">
																	<polygon id="pt_29_" class="st4" points="351.872,92.781 356.453,106.881 344.46,98.167 																	"/>
																</g>
															</g>
														</g>
													</g>
												</g>
											</g>
										</g>
									</g>
								</g>
							</g>
						</g>
					</g>
				</g>
			</g>
			<g id="_x3C_star_b2_x3E_">
				<g>
					<g>
						<g id="star_6_">
							<g transform="rotate(-144)">
								<polygon id="pt_30_" class="st4" points="92.304,122.887 80.31,131.602 84.892,117.502 								"/>
							</g>
							<g transform="rotate(-72)">
								<polygon id="pt_31_" class="st4" points="87.182,124.552 75.188,115.837 90.014,115.837 								"/>
							</g>
							<g>
								<polygon id="pt_32_" class="st4" points="84.017,120.195 88.598,106.095 93.179,120.195 								"/>
							</g>
							<g transform="rotate(72)">
								<polygon id="pt_33_" class="st4" points="87.182,115.837 102.008,115.837 90.014,124.552 								"/>
							</g>
							<g transform="rotate(144)">
								<polygon id="pt_34_" class="st4" points="92.304,117.502 96.885,131.602 84.892,122.887 								"/>
							</g>
						</g>
						<g>
							<g id="star_7_">
								<g transform="rotate(-144)">
									<polygon id="pt_35_" class="st4" points="149.986,122.887 137.992,131.602 142.573,117.502 									"/>
								</g>
								<g transform="rotate(-72)">
									<polygon id="pt_36_" class="st4" points="144.864,124.552 132.87,115.837 147.695,115.837 									"/>
								</g>
								<g>
									<polygon id="pt_37_" class="st4" points="141.698,120.195 146.279,106.095 150.861,120.195 									"/>
								</g>
								<g transform="rotate(72)">
									<polygon id="pt_38_" class="st4" points="144.864,115.837 159.689,115.837 147.695,124.552 									"/>
								</g>
								<g transform="rotate(144)">
									<polygon id="pt_39_" class="st4" points="149.986,117.502 154.567,131.602 142.573,122.887 									"/>
								</g>
							</g>
							<g>
								<g id="star_8_">
									<g transform="rotate(-144)">
										<polygon id="pt_40_" class="st4" points="207.668,122.887 195.674,131.602 200.255,117.502 										"/>
									</g>
									<g transform="rotate(-72)">
										<polygon id="pt_41_" class="st4" points="202.545,124.552 190.552,115.837 205.377,115.837 										"/>
									</g>
									<g>
										<polygon id="pt_42_" class="st4" points="199.38,120.195 203.961,106.095 208.543,120.195 										"/>
									</g>
									<g transform="rotate(72)">
										<polygon id="pt_43_" class="st4" points="202.545,115.837 217.371,115.837 205.377,124.552 										"/>
									</g>
									<g transform="rotate(144)">
										<polygon id="pt_44_" class="st4" points="207.668,117.502 212.249,131.602 200.255,122.887 										"/>
									</g>
								</g>
								<g>
									<g id="star_9_">
										<g transform="rotate(-144)">
											<polygon id="pt_45_" class="st4" points="265.349,122.887 253.355,131.602 257.936,117.502 											"/>
										</g>
										<g transform="rotate(-72)">
											<polygon id="pt_46_" class="st4" points="260.228,124.552 248.233,115.837 263.058,115.837 											"/>
										</g>
										<g>
											<polygon id="pt_47_" class="st4" points="257.061,120.195 261.643,106.095 266.224,120.195 											"/>
										</g>
										<g transform="rotate(72)">
											<polygon id="pt_48_" class="st4" points="260.228,115.837 275.053,115.837 263.058,124.552 											"/>
										</g>
										<g transform="rotate(144)">
											<polygon id="pt_49_" class="st4" points="265.349,117.502 269.931,131.602 257.936,122.887 											"/>
										</g>
									</g>
									<g id="s5_1_">
										<g id="star_10_">
											<g transform="rotate(-144)">
												<polygon id="pt_50_" class="st4" points="323.031,122.887 311.037,131.602 315.619,117.502 												"/>
											</g>
											<g transform="rotate(-72)">
												<polygon id="pt_51_" class="st4" points="317.909,124.552 305.915,115.837 320.74,115.837 												"/>
											</g>
											<g>
												<polygon id="pt_52_" class="st4" points="314.744,120.195 319.325,106.095 323.906,120.195 												"/>
											</g>
											<g transform="rotate(72)">
												<polygon id="pt_53_" class="st4" points="317.909,115.837 332.735,115.837 320.74,124.552 												"/>
											</g>
											<g transform="rotate(144)">
												<polygon id="pt_54_" class="st4" points="323.031,117.502 327.613,131.602 315.619,122.887 												"/>
											</g>
										</g>
									</g>
								</g>
							</g>
						</g>
					</g>
				</g>
			</g>
			<g id="_x3C_star_b3_x3E_">
				<g id="star_11_">
					<g transform="rotate(-144)">
						<polygon id="pt_55_" class="st4" points="63.463,147.609 51.469,156.323 56.051,142.223 						"/>
					</g>
					<g transform="rotate(-72)">
						<polygon id="pt_56_" class="st4" points="58.341,149.272 46.347,140.558 61.173,140.558 						"/>
					</g>
					<g>
						<polygon id="pt_57_" class="st4" points="55.175,144.916 59.757,130.816 64.338,144.916 						"/>
					</g>
					<g transform="rotate(72)">
						<polygon id="pt_58_" class="st4" points="58.341,140.558 73.167,140.558 61.173,149.272 						"/>
					</g>
					<g transform="rotate(144)">
						<polygon id="pt_59_" class="st4" points="63.463,142.223 68.045,156.323 56.051,147.609 						"/>
					</g>
				</g>
				<g>
					<g id="star_12_">
						<g transform="rotate(-144)">
							<polygon id="pt_60_" class="st4" points="121.145,147.609 109.151,156.323 113.732,142.223 							"/>
						</g>
						<g transform="rotate(-72)">
							<polygon id="pt_61_" class="st4" points="116.023,149.272 104.029,140.558 118.855,140.558 							"/>
						</g>
						<g>
							<polygon id="pt_62_" class="st4" points="112.857,144.916 117.438,130.816 122.02,144.916 							"/>
						</g>
						<g transform="rotate(72)">
							<polygon id="pt_63_" class="st4" points="116.023,140.558 130.848,140.558 118.855,149.272 							"/>
						</g>
						<g transform="rotate(144)">
							<polygon id="pt_64_" class="st4" points="121.145,142.223 125.726,156.323 113.732,147.609 							"/>
						</g>
					</g>
					<g>
						<g id="star_13_">
							<g transform="rotate(-144)">
								<polygon id="pt_65_" class="st4" points="178.827,147.609 166.833,156.323 171.414,142.223 								"/>
							</g>
							<g transform="rotate(-72)">
								<polygon id="pt_66_" class="st4" points="173.705,149.272 161.711,140.558 176.536,140.558 								"/>
							</g>
							<g>
								<polygon id="pt_67_" class="st4" points="170.539,144.916 175.12,130.816 179.702,144.916 								"/>
							</g>
							<g transform="rotate(72)">
								<polygon id="pt_68_" class="st4" points="173.705,140.558 188.53,140.558 176.536,149.272 								"/>
							</g>
							<g transform="rotate(144)">
								<polygon id="pt_69_" class="st4" points="178.827,142.223 183.408,156.323 171.414,147.609 								"/>
							</g>
						</g>
						<g>
							<g id="star_14_">
								<g transform="rotate(-144)">
									<polygon id="pt_70_" class="st4" points="236.508,147.609 224.515,156.323 229.096,142.223 									"/>
								</g>
								<g transform="rotate(-72)">
									<polygon id="pt_71_" class="st4" points="231.386,149.272 219.392,140.558 234.218,140.558 									"/>
								</g>
								<g>
									<polygon id="pt_72_" class="st4" points="228.221,144.916 232.802,130.816 237.384,144.916 									"/>
								</g>
								<g transform="rotate(72)">
									<polygon id="pt_73_" class="st4" points="231.386,140.558 246.211,140.558 234.218,149.272 									"/>
								</g>
								<g transform="rotate(144)">
									<polygon id="pt_74_" class="st4" points="236.508,142.223 241.09,156.323 229.096,147.609 									"/>
								</g>
							</g>
							<g id="s5_2_">
								<g id="star_15_">
									<g transform="rotate(-144)">
										<polygon id="pt_75_" class="st4" points="294.19,147.609 282.196,156.323 286.777,142.223 										"/>
									</g>
									<g transform="rotate(-72)">
										<polygon id="pt_76_" class="st4" points="289.068,149.272 277.074,140.558 291.899,140.558 										"/>
									</g>
									<g>
										<polygon id="pt_77_" class="st4" points="285.902,144.916 290.484,130.816 295.065,144.916 										"/>
									</g>
									<g transform="rotate(72)">
										<polygon id="pt_78_" class="st4" points="289.068,140.558 303.894,140.558 291.899,149.272 										"/>
									</g>
									<g transform="rotate(144)">
										<polygon id="pt_79_" class="st4" points="294.19,142.223 298.772,156.323 286.777,147.609 										"/>
									</g>
								</g>
							</g>
							<g id="s6_1_">
								<g id="star_16_">
									<g transform="rotate(-144)">
										<polygon id="pt_80_" class="st4" points="351.872,147.609 339.878,156.323 344.46,142.223 										"/>
									</g>
									<g transform="rotate(-72)">
										<polygon id="pt_81_" class="st4" points="346.75,149.272 334.755,140.558 349.581,140.558 										"/>
									</g>
									<g>
										<polygon id="pt_82_" class="st4" points="343.584,144.916 348.166,130.816 352.747,144.916 										"/>
									</g>
									<g transform="rotate(72)">
										<polygon id="pt_83_" class="st4" points="346.75,140.558 361.576,140.558 349.581,149.272 										"/>
									</g>
									<g transform="rotate(144)">
										<polygon id="pt_84_" class="st4" points="351.872,142.223 356.453,156.323 344.46,147.609 										"/>
									</g>
								</g>
							</g>
							<g>
								<g>
									<g id="star_17_">
									</g>
									<g id="star_18_">
									</g>
									<g id="star_19_">
									</g>
									<g id="star_20_">
									</g>
									<g id="star_21_">
									</g>
								</g>
							</g>
							<g>
								<g>
									<g id="s6_2_">
									</g>
									<g id="s5_3_">
									</g>
									<g id="s6_3_">
									</g>
									<g id="s5_4_">
									</g>
								</g>
								<g id="s6_4_">
								</g>
							</g>
						</g>
					</g>
				</g>
			</g>
			<g id="_x3C_star_b4_x3E_">
				<g>
					<g>
						<g id="star_26_">
							<g transform="rotate(-144)">
								<polygon id="pt_109_" class="st4" points="93.015,172.411 81.022,181.125 85.603,167.025 								"/>
							</g>
							<g transform="rotate(-72)">
								<polygon id="pt_108_" class="st4" points="87.893,174.076 75.899,165.361 90.725,165.361 								"/>
							</g>
							<g>
								<polygon id="pt_107_" class="st4" points="84.728,169.718 89.31,155.618 93.891,169.718 								"/>
							</g>
							<g transform="rotate(72)">
								<polygon id="pt_106_" class="st4" points="87.893,165.361 102.719,165.361 90.725,174.076 								"/>
							</g>
							<g transform="rotate(144)">
								<polygon id="pt_105_" class="st4" points="93.015,167.025 97.596,181.125 85.603,172.411 								"/>
							</g>
						</g>
						<g>
							<g id="star_25_">
								<g transform="rotate(-144)">
									<polygon id="pt_104_" class="st4" points="150.697,172.411 138.703,181.125 143.284,167.025 									"/>
								</g>
								<g transform="rotate(-72)">
									<polygon id="pt_103_" class="st4" points="145.575,174.076 133.581,165.361 148.407,165.361 									"/>
								</g>
								<g>
									<polygon id="pt_102_" class="st4" points="142.41,169.718 146.991,155.618 151.572,169.718 									"/>
								</g>
								<g transform="rotate(72)">
									<polygon id="pt_101_" class="st4" points="145.575,165.361 160.401,165.361 148.407,174.076 									"/>
								</g>
								<g transform="rotate(144)">
									<polygon id="pt_100_" class="st4" points="150.697,167.025 155.278,181.125 143.284,172.411 									"/>
								</g>
							</g>
							<g>
								<g id="star_24_">
									<g transform="rotate(-144)">
										<polygon id="pt_99_" class="st4" points="208.379,172.411 196.385,181.125 200.966,167.025 										"/>
									</g>
									<g transform="rotate(-72)">
										<polygon id="pt_98_" class="st4" points="203.257,174.076 191.263,165.361 206.088,165.361 										"/>
									</g>
									<g>
										<polygon id="pt_97_" class="st4" points="200.092,169.718 204.673,155.618 209.254,169.718 										"/>
									</g>
									<g transform="rotate(72)">
										<polygon id="pt_96_" class="st4" points="203.257,165.361 218.083,165.361 206.088,174.076 										"/>
									</g>
									<g transform="rotate(144)">
										<polygon id="pt_95_" class="st4" points="208.379,167.025 212.961,181.125 200.966,172.411 										"/>
									</g>
								</g>
								<g>
									<g id="star_23_">
										<g transform="rotate(-144)">
											<polygon id="pt_94_" class="st4" points="266.061,172.411 254.066,181.125 258.648,167.025 											"/>
										</g>
										<g transform="rotate(-72)">
											<polygon id="pt_93_" class="st4" points="260.939,174.076 248.944,165.361 263.77,165.361 											"/>
										</g>
										<g>
											<polygon id="pt_92_" class="st4" points="257.773,169.718 262.355,155.618 266.936,169.718 											"/>
										</g>
										<g transform="rotate(72)">
											<polygon id="pt_91_" class="st4" points="260.939,165.361 275.764,165.361 263.77,174.076 											"/>
										</g>
										<g transform="rotate(144)">
											<polygon id="pt_90_" class="st4" points="266.061,167.025 270.643,181.125 258.648,172.411 											"/>
										</g>
									</g>
									<g id="s5_5_">
										<g id="star_22_">
											<g transform="rotate(-144)">
												<polygon id="pt_89_" class="st4" points="323.743,172.411 311.748,181.125 316.33,167.025 												"/>
											</g>
											<g transform="rotate(-72)">
												<polygon id="pt_88_" class="st4" points="318.62,174.076 306.627,165.361 321.452,165.361 												"/>
											</g>
											<g>
												<polygon id="pt_87_" class="st4" points="315.455,169.718 320.036,155.618 324.618,169.718 												"/>
											</g>
											<g transform="rotate(72)">
												<polygon id="pt_86_" class="st4" points="318.62,165.361 333.447,165.361 321.452,174.076 												"/>
											</g>
											<g transform="rotate(144)">
												<polygon id="pt_85_" class="st4" points="323.743,167.025 328.325,181.125 316.33,172.411 												"/>
											</g>
										</g>
									</g>
								</g>
							</g>
						</g>
					</g>
				</g>
			</g>
			<g id="_x3C_star_b3_x3E__1_">
				<g id="star_37_">
					<g transform="rotate(-144)">
						<polygon id="pt_139_" class="st4" points="64.339,196.925 52.344,205.639 56.926,191.539 						"/>
					</g>
					<g transform="rotate(-72)">
						<polygon id="pt_138_" class="st4" points="59.216,198.589 47.222,189.875 62.047,189.875 						"/>
					</g>
					<g>
						<polygon id="pt_137_" class="st4" points="56.051,194.232 60.632,180.132 65.213,194.232 						"/>
					</g>
					<g transform="rotate(72)">
						<polygon id="pt_136_" class="st4" points="59.216,189.875 74.042,189.875 62.047,198.589 						"/>
					</g>
					<g transform="rotate(144)">
						<polygon id="pt_135_" class="st4" points="64.339,191.539 68.92,205.639 56.926,196.925 						"/>
					</g>
				</g>
				<g>
					<g id="star_36_">
						<g transform="rotate(-144)">
							<polygon id="pt_134_" class="st4" points="122.02,196.925 110.026,205.639 114.607,191.539 							"/>
						</g>
						<g transform="rotate(-72)">
							<polygon id="pt_133_" class="st4" points="116.898,198.589 104.904,189.875 119.73,189.875 							"/>
						</g>
						<g>
							<polygon id="pt_132_" class="st4" points="113.732,194.232 118.314,180.132 122.895,194.232 							"/>
						</g>
						<g transform="rotate(72)">
							<polygon id="pt_131_" class="st4" points="116.898,189.875 131.724,189.875 119.73,198.589 							"/>
						</g>
						<g transform="rotate(144)">
							<polygon id="pt_130_" class="st4" points="122.02,191.539 126.602,205.639 114.607,196.925 							"/>
						</g>
					</g>
					<g>
						<g id="star_35_">
							<g transform="rotate(-144)">
								<polygon id="pt_129_" class="st4" points="179.702,196.925 167.708,205.639 172.289,191.539 								"/>
							</g>
							<g transform="rotate(-72)">
								<polygon id="pt_128_" class="st4" points="174.58,198.589 162.586,189.875 177.411,189.875 								"/>
							</g>
							<g>
								<polygon id="pt_127_" class="st4" points="171.414,194.232 175.996,180.132 180.577,194.232 								"/>
							</g>
							<g transform="rotate(72)">
								<polygon id="pt_126_" class="st4" points="174.58,189.875 189.406,189.875 177.411,198.589 								"/>
							</g>
							<g transform="rotate(144)">
								<polygon id="pt_125_" class="st4" points="179.702,191.539 184.284,205.639 172.289,196.925 								"/>
							</g>
						</g>
						<g>
							<g id="star_34_">
								<g transform="rotate(-144)">
									<polygon id="pt_124_" class="st4" points="237.384,196.925 225.39,205.639 229.971,191.539 									"/>
								</g>
								<g transform="rotate(-72)">
									<polygon id="pt_123_" class="st4" points="232.262,198.589 220.267,189.875 235.094,189.875 									"/>
								</g>
								<g>
									<polygon id="pt_122_" class="st4" points="229.096,194.232 233.678,180.132 238.259,194.232 									"/>
								</g>
								<g transform="rotate(72)">
									<polygon id="pt_121_" class="st4" points="232.262,189.875 247.087,189.875 235.094,198.589 									"/>
								</g>
								<g transform="rotate(144)">
									<polygon id="pt_120_" class="st4" points="237.384,191.539 241.965,205.639 229.971,196.925 									"/>
								</g>
							</g>
							<g id="s5_8_">
								<g id="star_33_">
									<g transform="rotate(-144)">
										<polygon id="pt_119_" class="st4" points="295.066,196.925 283.072,205.639 287.653,191.539 										"/>
									</g>
									<g transform="rotate(-72)">
										<polygon id="pt_118_" class="st4" points="289.944,198.589 277.95,189.875 292.775,189.875 										"/>
									</g>
									<g>
										<polygon id="pt_117_" class="st4" points="286.778,194.232 291.359,180.132 295.94,194.232 										"/>
									</g>
									<g transform="rotate(72)">
										<polygon id="pt_116_" class="st4" points="289.944,189.875 304.769,189.875 292.775,198.589 										"/>
									</g>
									<g transform="rotate(144)">
										<polygon id="pt_115_" class="st4" points="295.066,191.539 299.647,205.639 287.653,196.925 										"/>
									</g>
								</g>
							</g>
							<g id="s6_8_">
								<g id="star_32_">
									<g transform="rotate(-144)">
										<polygon id="pt_114_" class="st4" points="352.747,196.925 340.754,205.639 345.335,191.539 										"/>
									</g>
									<g transform="rotate(-72)">
										<polygon id="pt_113_" class="st4" points="347.625,198.589 335.631,189.875 350.457,189.875 										"/>
									</g>
									<g>
										<polygon id="pt_112_" class="st4" points="344.459,194.232 349.041,180.132 353.622,194.232 										"/>
									</g>
									<g transform="rotate(72)">
										<polygon id="pt_111_" class="st4" points="347.625,189.875 362.451,189.875 350.457,198.589 										"/>
									</g>
									<g transform="rotate(144)">
										<polygon id="pt_110_" class="st4" points="352.747,191.539 357.328,205.639 345.335,196.925 										"/>
									</g>
								</g>
							</g>
							<g>
								<g>
									<g id="star_31_">
									</g>
									<g id="star_30_">
									</g>
									<g id="star_29_">
									</g>
									<g id="star_28_">
									</g>
									<g id="star_27_">
									</g>
								</g>
							</g>
							<g>
								<g>
									<g id="s6_7_">
									</g>
									<g id="s5_7_">
									</g>
									<g id="s6_6_">
									</g>
									<g id="s5_6_">
									</g>
								</g>
								<g id="s6_5_">
								</g>
							</g>
						</g>
					</g>
				</g>
			</g>
			<g id="_x3C_star_b4_x3E__1_">
				<g>
					<g>
						<g id="star_42_">
							<g transform="rotate(-144)">
								<polygon id="pt_164_" class="st4" points="93.187,221.009 81.193,229.723 85.774,215.623 								"/>
							</g>
							<g transform="rotate(-72)">
								<polygon id="pt_163_" class="st4" points="88.064,222.674 76.07,213.959 90.896,213.959 								"/>
							</g>
							<g>
								<polygon id="pt_162_" class="st4" points="84.9,218.316 89.481,204.217 94.062,218.316 								"/>
							</g>
							<g transform="rotate(72)">
								<polygon id="pt_161_" class="st4" points="88.064,213.959 102.891,213.959 90.896,222.674 								"/>
							</g>
							<g transform="rotate(144)">
								<polygon id="pt_160_" class="st4" points="93.187,215.623 97.768,229.723 85.774,221.009 								"/>
							</g>
						</g>
						<g>
							<g id="star_41_">
								<g transform="rotate(-144)">
									<polygon id="pt_159_" class="st4" points="150.869,221.009 138.874,229.723 143.455,215.623 									"/>
								</g>
								<g transform="rotate(-72)">
									<polygon id="pt_158_" class="st4" points="145.747,222.674 133.752,213.959 148.578,213.959 									"/>
								</g>
								<g>
									<polygon id="pt_157_" class="st4" points="142.581,218.316 147.162,204.217 151.743,218.316 									"/>
								</g>
								<g transform="rotate(72)">
									<polygon id="pt_156_" class="st4" points="145.747,213.959 160.572,213.959 148.578,222.674 									"/>
								</g>
								<g transform="rotate(144)">
									<polygon id="pt_155_" class="st4" points="150.869,215.623 155.45,229.723 143.455,221.009 									"/>
								</g>
							</g>
							<g>
								<g id="star_40_">
									<g transform="rotate(-144)">
										<polygon id="pt_154_" class="st4" points="208.551,221.009 196.556,229.723 201.138,215.623 										"/>
									</g>
									<g transform="rotate(-72)">
										<polygon id="pt_153_" class="st4" points="203.428,222.674 191.434,213.959 206.26,213.959 										"/>
									</g>
									<g>
										<polygon id="pt_152_" class="st4" points="200.263,218.316 204.844,204.217 209.425,218.316 										"/>
									</g>
									<g transform="rotate(72)">
										<polygon id="pt_151_" class="st4" points="203.428,213.959 218.254,213.959 206.26,222.674 										"/>
									</g>
									<g transform="rotate(144)">
										<polygon id="pt_150_" class="st4" points="208.551,215.623 213.132,229.723 201.138,221.009 										"/>
									</g>
								</g>
								<g>
									<g id="star_39_">
										<g transform="rotate(-144)">
											<polygon id="pt_149_" class="st4" points="266.232,221.009 254.238,229.723 258.819,215.623 											"/>
										</g>
										<g transform="rotate(-72)">
											<polygon id="pt_148_" class="st4" points="261.111,222.674 249.116,213.959 263.942,213.959 											"/>
										</g>
										<g>
											<polygon id="pt_147_" class="st4" points="257.944,218.316 262.526,204.217 267.107,218.316 											"/>
										</g>
										<g transform="rotate(72)">
											<polygon id="pt_146_" class="st4" points="261.111,213.959 275.935,213.959 263.942,222.674 											"/>
										</g>
										<g transform="rotate(144)">
											<polygon id="pt_145_" class="st4" points="266.232,215.623 270.814,229.723 258.819,221.009 											"/>
										</g>
									</g>
									<g id="s5_9_">
										<g id="star_38_">
											<g transform="rotate(-144)">
												<polygon id="pt_144_" class="st4" points="323.914,221.009 311.92,229.723 316.501,215.623 												"/>
											</g>
											<g transform="rotate(-72)">
												<polygon id="pt_143_" class="st4" points="318.791,222.674 306.798,213.959 321.624,213.959 												"/>
											</g>
											<g>
												<polygon id="pt_142_" class="st4" points="315.626,218.316 320.208,204.217 324.789,218.316 												"/>
											</g>
											<g transform="rotate(72)">
												<polygon id="pt_141_" class="st4" points="318.791,213.959 333.617,213.959 321.624,222.674 												"/>
											</g>
											<g transform="rotate(144)">
												<polygon id="pt_140_" class="st4" points="323.914,215.623 328.496,229.723 316.501,221.009 												"/>
											</g>
										</g>
									</g>
								</g>
							</g>
						</g>
					</g>
				</g>
			</g>
			<g id="_x3C_star_b3_x3E__2_">
				<g id="star_53_">
					<g transform="rotate(-144)">
						<polygon id="pt_194_" class="st4" points="64.879,245.584 52.885,254.298 57.466,240.198 						"/>
					</g>
					<g transform="rotate(-72)">
						<polygon id="pt_193_" class="st4" points="59.756,247.248 47.763,238.533 62.588,238.533 						"/>
					</g>
					<g>
						<polygon id="pt_192_" class="st4" points="56.591,242.89 61.173,228.791 65.754,242.89 						"/>
					</g>
					<g transform="rotate(72)">
						<polygon id="pt_191_" class="st4" points="59.756,238.533 74.582,238.533 62.588,247.248 						"/>
					</g>
					<g transform="rotate(144)">
						<polygon id="pt_190_" class="st4" points="64.879,240.198 69.46,254.298 57.466,245.584 						"/>
					</g>
				</g>
				<g>
					<g id="star_52_">
						<g transform="rotate(-144)">
							<polygon id="pt_189_" class="st4" points="122.56,245.584 110.566,254.298 115.147,240.198 							"/>
						</g>
						<g transform="rotate(-72)">
							<polygon id="pt_188_" class="st4" points="117.438,247.248 105.444,238.533 120.27,238.533 							"/>
						</g>
						<g>
							<polygon id="pt_187_" class="st4" points="114.273,242.89 118.854,228.791 123.435,242.89 							"/>
						</g>
						<g transform="rotate(72)">
							<polygon id="pt_186_" class="st4" points="117.438,238.533 132.264,238.533 120.27,247.248 							"/>
						</g>
						<g transform="rotate(144)">
							<polygon id="pt_185_" class="st4" points="122.56,240.198 127.142,254.298 115.147,245.584 							"/>
						</g>
					</g>
					<g>
						<g id="star_51_">
							<g transform="rotate(-144)">
								<polygon id="pt_184_" class="st4" points="180.242,245.584 168.248,254.298 172.829,240.198 								"/>
							</g>
							<g transform="rotate(-72)">
								<polygon id="pt_183_" class="st4" points="175.12,247.248 163.126,238.533 177.951,238.533 								"/>
							</g>
							<g>
								<polygon id="pt_182_" class="st4" points="171.955,242.89 176.536,228.791 181.117,242.89 								"/>
							</g>
							<g transform="rotate(72)">
								<polygon id="pt_181_" class="st4" points="175.12,238.533 189.946,238.533 177.951,247.248 								"/>
							</g>
							<g transform="rotate(144)">
								<polygon id="pt_180_" class="st4" points="180.242,240.198 184.824,254.298 172.829,245.584 								"/>
							</g>
						</g>
						<g>
							<g id="star_50_">
								<g transform="rotate(-144)">
									<polygon id="pt_179_" class="st4" points="237.924,245.584 225.93,254.298 230.512,240.198 									"/>
								</g>
								<g transform="rotate(-72)">
									<polygon id="pt_178_" class="st4" points="232.802,247.248 220.807,238.533 235.634,238.533 									"/>
								</g>
								<g>
									<polygon id="pt_177_" class="st4" points="229.637,242.89 234.218,228.791 238.799,242.89 									"/>
								</g>
								<g transform="rotate(72)">
									<polygon id="pt_176_" class="st4" points="232.802,238.533 247.627,238.533 235.634,247.248 									"/>
								</g>
								<g transform="rotate(144)">
									<polygon id="pt_175_" class="st4" points="237.924,240.198 242.505,254.298 230.512,245.584 									"/>
								</g>
							</g>
							<g id="s5_12_">
								<g id="star_49_">
									<g transform="rotate(-144)">
										<polygon id="pt_174_" class="st4" points="295.607,245.584 283.612,254.298 288.193,240.198 										"/>
									</g>
									<g transform="rotate(-72)">
										<polygon id="pt_173_" class="st4" points="290.484,247.248 278.49,238.533 293.315,238.533 										"/>
									</g>
									<g>
										<polygon id="pt_172_" class="st4" points="287.319,242.89 291.899,228.791 296.481,242.89 										"/>
									</g>
									<g transform="rotate(72)">
										<polygon id="pt_171_" class="st4" points="290.484,238.533 305.31,238.533 293.315,247.248 										"/>
									</g>
									<g transform="rotate(144)">
										<polygon id="pt_170_" class="st4" points="295.607,240.198 300.187,254.298 288.193,245.584 										"/>
									</g>
								</g>
							</g>
							<g id="s6_12_">
								<g id="star_48_">
									<g transform="rotate(-144)">
										<polygon id="pt_169_" class="st4" points="353.287,245.584 341.293,254.298 345.876,240.198 										"/>
									</g>
									<g transform="rotate(-72)">
										<polygon id="pt_168_" class="st4" points="348.166,247.248 336.171,238.533 350.997,238.533 										"/>
									</g>
									<g>
										<polygon id="pt_167_" class="st4" points="344.999,242.89 349.581,228.791 354.162,242.89 										"/>
									</g>
									<g transform="rotate(72)">
										<polygon id="pt_166_" class="st4" points="348.166,238.533 362.992,238.533 350.997,247.248 										"/>
									</g>
									<g transform="rotate(144)">
										<polygon id="pt_165_" class="st4" points="353.287,240.198 357.869,254.298 345.876,245.584 										"/>
									</g>
								</g>
							</g>
							<g>
								<g>
									<g id="star_47_">
									</g>
									<g id="star_46_">
									</g>
									<g id="star_45_">
									</g>
									<g id="star_44_">
									</g>
									<g id="star_43_">
									</g>
								</g>
							</g>
							<g>
								<g>
									<g id="s6_11_">
									</g>
									<g id="s5_11_">
									</g>
									<g id="s6_10_">
									</g>
									<g id="s5_10_">
									</g>
								</g>
								<g id="s6_9_">
								</g>
							</g>
						</g>
					</g>
				</g>
			</g>
			<g id="_x3C_star_b4_x3E__2_">
				<g>
					<g>
						<g id="star_58_">
							<g transform="rotate(-144)">
								<polygon id="pt_219_" class="st4" points="93.016,270.164 81.022,278.879 85.604,264.779 								"/>
							</g>
							<g transform="rotate(-72)">
								<polygon id="pt_218_" class="st4" points="87.894,271.829 75.9,263.115 90.726,263.115 								"/>
							</g>
							<g>
								<polygon id="pt_217_" class="st4" points="84.729,267.472 89.31,253.372 93.892,267.472 								"/>
							</g>
							<g transform="rotate(72)">
								<polygon id="pt_216_" class="st4" points="87.894,263.115 102.72,263.115 90.726,271.829 								"/>
							</g>
							<g transform="rotate(144)">
								<polygon id="pt_215_" class="st4" points="93.016,264.779 97.597,278.879 85.604,270.164 								"/>
							</g>
						</g>
						<g>
							<g id="star_57_">
								<g transform="rotate(-144)">
									<polygon id="pt_214_" class="st4" points="150.698,270.164 138.704,278.879 143.285,264.779 									"/>
								</g>
								<g transform="rotate(-72)">
									<polygon id="pt_213_" class="st4" points="145.576,271.829 133.582,263.115 148.408,263.115 									"/>
								</g>
								<g>
									<polygon id="pt_212_" class="st4" points="142.41,267.472 146.992,253.372 151.573,267.472 									"/>
								</g>
								<g transform="rotate(72)">
									<polygon id="pt_211_" class="st4" points="145.576,263.115 160.401,263.115 148.408,271.829 									"/>
								</g>
								<g transform="rotate(144)">
									<polygon id="pt_210_" class="st4" points="150.698,264.779 155.279,278.879 143.285,270.164 									"/>
								</g>
							</g>
							<g>
								<g id="star_56_">
									<g transform="rotate(-144)">
										<polygon id="pt_209_" class="st4" points="208.38,270.164 196.386,278.879 200.967,264.779 										"/>
									</g>
									<g transform="rotate(-72)">
										<polygon id="pt_208_" class="st4" points="203.258,271.829 191.264,263.115 206.089,263.115 										"/>
									</g>
									<g>
										<polygon id="pt_207_" class="st4" points="200.092,267.472 204.674,253.372 209.255,267.472 										"/>
									</g>
									<g transform="rotate(72)">
										<polygon id="pt_206_" class="st4" points="203.258,263.115 218.083,263.115 206.089,271.829 										"/>
									</g>
									<g transform="rotate(144)">
										<polygon id="pt_205_" class="st4" points="208.38,264.779 212.961,278.879 200.967,270.164 										"/>
									</g>
								</g>
								<g>
									<g id="star_55_">
										<g transform="rotate(-144)">
											<polygon id="pt_204_" class="st4" points="266.061,270.164 254.067,278.879 258.648,264.779 											"/>
										</g>
										<g transform="rotate(-72)">
											<polygon id="pt_203_" class="st4" points="260.94,271.829 248.945,263.115 263.771,263.115 											"/>
										</g>
										<g>
											<polygon id="pt_202_" class="st4" points="257.773,267.472 262.356,253.372 266.936,267.472 											"/>
										</g>
										<g transform="rotate(72)">
											<polygon id="pt_201_" class="st4" points="260.94,263.115 275.765,263.115 263.771,271.829 											"/>
										</g>
										<g transform="rotate(144)">
											<polygon id="pt_200_" class="st4" points="266.061,264.779 270.643,278.879 258.648,270.164 											"/>
										</g>
									</g>
									<g id="s5_13_">
										<g id="star_54_">
											<g transform="rotate(-144)">
												<polygon id="pt_199_" class="st4" points="323.743,270.164 311.75,278.879 316.33,264.779 												"/>
											</g>
											<g transform="rotate(-72)">
												<polygon id="pt_198_" class="st4" points="318.62,271.829 306.627,263.115 321.453,263.115 												"/>
											</g>
											<g>
												<polygon id="pt_197_" class="st4" points="315.456,267.472 320.037,253.372 324.618,267.472 												"/>
											</g>
											<g transform="rotate(72)">
												<polygon id="pt_196_" class="st4" points="318.62,263.115 333.447,263.115 321.453,271.829 												"/>
											</g>
											<g transform="rotate(144)">
												<polygon id="pt_195_" class="st4" points="323.743,264.779 328.326,278.879 316.33,270.164 												"/>
											</g>
										</g>
									</g>
								</g>
							</g>
						</g>
					</g>
				</g>
			</g>
			<g id="_x3C_star_b3_x3E__3_">
				<g id="star_69_">
					<g transform="rotate(-144)">
						<polygon id="pt_249_" class="st4" points="64.174,294.815 52.18,303.529 56.762,289.429 						"/>
					</g>
					<g transform="rotate(-72)">
						<polygon id="pt_248_" class="st4" points="59.052,296.479 47.058,287.764 61.883,287.764 						"/>
					</g>
					<g>
						<polygon id="pt_247_" class="st4" points="55.887,292.122 60.468,278.022 65.05,292.122 						"/>
					</g>
					<g transform="rotate(72)">
						<polygon id="pt_246_" class="st4" points="59.052,287.764 73.878,287.764 61.883,296.479 						"/>
					</g>
					<g transform="rotate(144)">
						<polygon id="pt_245_" class="st4" points="64.174,289.429 68.756,303.529 56.762,294.815 						"/>
					</g>
				</g>
				<g>
					<g id="star_68_">
						<g transform="rotate(-144)">
							<polygon id="pt_244_" class="st4" points="121.856,294.815 109.862,303.529 114.443,289.429 							"/>
						</g>
						<g transform="rotate(-72)">
							<polygon id="pt_243_" class="st4" points="116.734,296.479 104.74,287.764 119.566,287.764 							"/>
						</g>
						<g>
							<polygon id="pt_242_" class="st4" points="113.569,292.122 118.15,278.022 122.731,292.122 							"/>
						</g>
						<g transform="rotate(72)">
							<polygon id="pt_241_" class="st4" points="116.734,287.764 131.559,287.764 119.566,296.479 							"/>
						</g>
						<g transform="rotate(144)">
							<polygon id="pt_240_" class="st4" points="121.856,289.429 126.437,303.529 114.443,294.815 							"/>
						</g>
					</g>
					<g>
						<g id="star_67_">
							<g transform="rotate(-144)">
								<polygon id="pt_239_" class="st4" points="179.538,294.815 167.544,303.529 172.125,289.429 								"/>
							</g>
							<g transform="rotate(-72)">
								<polygon id="pt_238_" class="st4" points="174.416,296.479 162.422,287.764 177.247,287.764 								"/>
							</g>
							<g>
								<polygon id="pt_237_" class="st4" points="171.25,292.122 175.832,278.022 180.413,292.122 								"/>
							</g>
							<g transform="rotate(72)">
								<polygon id="pt_236_" class="st4" points="174.416,287.764 189.242,287.764 177.247,296.479 								"/>
							</g>
							<g transform="rotate(144)">
								<polygon id="pt_235_" class="st4" points="179.538,289.429 184.12,303.529 172.125,294.815 								"/>
							</g>
						</g>
						<g>
							<g id="star_66_">
								<g transform="rotate(-144)">
									<polygon id="pt_234_" class="st4" points="237.22,294.815 225.226,303.529 229.807,289.429 									"/>
								</g>
								<g transform="rotate(-72)">
									<polygon id="pt_233_" class="st4" points="232.098,296.479 220.103,287.764 234.93,287.764 									"/>
								</g>
								<g>
									<polygon id="pt_232_" class="st4" points="228.932,292.122 233.515,278.022 238.095,292.122 									"/>
								</g>
								<g transform="rotate(72)">
									<polygon id="pt_231_" class="st4" points="232.098,287.764 246.924,287.764 234.93,296.479 									"/>
								</g>
								<g transform="rotate(144)">
									<polygon id="pt_230_" class="st4" points="237.22,289.429 241.801,303.529 229.807,294.815 									"/>
								</g>
							</g>
							<g id="s5_16_">
								<g id="star_65_">
									<g transform="rotate(-144)">
										<polygon id="pt_229_" class="st4" points="294.902,294.815 282.907,303.529 287.489,289.429 										"/>
									</g>
									<g transform="rotate(-72)">
										<polygon id="pt_228_" class="st4" points="289.78,296.479 277.786,287.764 292.611,287.764 										"/>
									</g>
									<g>
										<polygon id="pt_227_" class="st4" points="286.615,292.122 291.195,278.022 295.777,292.122 										"/>
									</g>
									<g transform="rotate(72)">
										<polygon id="pt_226_" class="st4" points="289.78,287.764 304.606,287.764 292.611,296.479 										"/>
									</g>
									<g transform="rotate(144)">
										<polygon id="pt_225_" class="st4" points="294.902,289.429 299.483,303.529 287.489,294.815 										"/>
									</g>
								</g>
							</g>
							<g id="s6_16_">
								<g id="star_64_">
									<g transform="rotate(-144)">
										<polygon id="pt_224_" class="st4" points="352.583,294.815 340.589,303.529 345.172,289.429 										"/>
									</g>
									<g transform="rotate(-72)">
										<polygon id="pt_223_" class="st4" points="347.462,296.479 335.467,287.764 350.293,287.764 										"/>
									</g>
									<g>
										<polygon id="pt_222_" class="st4" points="344.295,292.122 348.877,278.022 353.458,292.122 										"/>
									</g>
									<g transform="rotate(72)">
										<polygon id="pt_221_" class="st4" points="347.462,287.764 362.288,287.764 350.293,296.479 										"/>
									</g>
									<g transform="rotate(144)">
										<polygon id="pt_220_" class="st4" points="352.583,289.429 357.165,303.529 345.172,294.815 										"/>
									</g>
								</g>
							</g>
							<g>
								<g>
									<g id="star_63_">
									</g>
									<g id="star_62_">
									</g>
									<g id="star_61_">
									</g>
									<g id="star_60_">
									</g>
									<g id="star_59_">
									</g>
								</g>
							</g>
							<g>
								<g>
									<g id="s6_15_">
									</g>
									<g id="s5_15_">
									</g>
									<g id="s6_14_">
									</g>
									<g id="s5_14_">
									</g>
								</g>
								<g id="s6_13_">
								</g>
							</g>
						</g>
					</g>
				</g>
			</g>
		</g>
		<use xlink:href="#SVGID_1_"  style="overflow:visible;fill:none;stroke:#000000;stroke-width:0.5;stroke-miterlimit:10;"/>
	</g>
</g>
<g id="Copyright">
	<text transform="matrix(1 0 0 1 681.6426 577.5911)" class="st5 st6"> Vemaps.com</text>
</g>
</svg>
