<?xml version="1.0" encoding="utf-8"?>
<!-- Generator: Adobe Illustrator 19.1.0, SVG Export Plug-In . SVG Version: 6.00 Build 0)  -->
<svg version="1.1" xmlns="http://www.w3.org/2000/svg" xmlns:xlink="http://www.w3.org/1999/xlink" x="0px" y="0px"
	 viewBox="0 0 800 600" style="enable-background:new 0 0 800 600;" xml:space="preserve">
<style type="text/css">
	.st0{clip-path:url(#SVGID_2_);fill:#FFFFFF;}
	.st1{clip-path:url(#SVGID_2_);fill:#BC002D;}
	.st2{font-family:'Roboto-Regular';}
	.st3{font-size:14px;}
</style>
<g id="Japan">
	<g>
		<defs>
			<path id="SVGID_1_" d="M371.305,284.467l-0.948,0.954l-1.769-0.313l-1.021-1.376l0.336-1.554l1.854-1.195l1.771,2.398
				L371.305,284.467z M474.282,242.682l-1.967,0.066l-0.493-0.256l1.193-0.648l0.105-1.087l0.712-1.927l-0.012-0.557l-1.563-0.098
				l0.079-2.196l1.167-2.167l3.209-3.421l0.876-0.643l0.133,1.496l-0.979,3.533l-0.19,1.274l2.517,0.266l-1.62,4.228
				L474.282,242.682z M403.653,332.822l-2.244,2.124l-1.941-0.148l-0.977-0.949l-0.323-1.176l1.85-1.848l1.595-2.611l1.446-1.161
				l1.173-0.646l0.91,0.022l-2.054,3.644L403.653,332.822z M314.413,430.957l-2.372,0.515l-1.296-0.556l-1.191-2.947l2.258-1.848
				l3.031,1.829l0.615,0.527L314.413,430.957z M321.391,427.76l-1.814,0.253l-0.038-1.383l1.442-3.129l0.154-2.301l1.343-2.902
				l0.572-0.638l0.425-0.23l0.461,0.902l-0.522,3.556l-1.343,2.692L321.391,427.76z M303.228,383.557l-1.636,0.869l-0.21-0.832
				l-0.688-0.379l1.183-1.172l-0.04-0.532l-0.746-0.793l0.869-2.994l-0.238-1.29l3.271-0.479l0.599,1.212l0.059,3.686
				L303.228,383.557z M286.601,336.928l-1.347,1.01l-0.58-1.548l0.588-4.378l2.532,0.895l-0.042,1.345L286.601,336.928z
				 M288.799,331.187l-0.421,1.202l-1.405-0.85l-0.637-0.77l1.298-3.784l-0.152-1.437l0.079-0.701l2.592-1.987l0.443,0.382
				l0.16,0.548l-0.229,0.85l0.129,1.88l-1.945,3.1L288.799,331.187z M273.885,370.016l0.803,0.662l1.179-0.379l0.932-0.089
				l0.673,0.321l0.845,1.704l0.313,1.008l-1.517,0.142l-0.639,0.235l-0.827,1.238l-1.191-0.455l-0.738-0.579l-0.17-0.822
				L273.885,370.016z M309.409,378.825l-1.832,0.107l-0.756-0.285l-0.297-0.776l2.562-1.573l1.988,0.28l-0.888,1.417
				L309.409,378.825z M530.78,35.194l-0.803,1.864l-1.074-2.771l-0.216-2.99l0.621,0.019l1.14,0.45l0.273,1.457L530.78,35.194z
				 M535.39,41.45l-1.438,0.208l-1.67-1.22l-0.206-1.531l1.209-1.22l1.203,0.451l1.205,1.579l0.396,0.822L535.39,41.45z
				 M497.828,128.043l-0.473,0.149l-0.493-0.235l-0.477-2.102l0.41-1.111l1.335-0.777l1.296-0.216l-1.104,3.863L497.828,128.043z
				 M391.624,327.94l-0.386,0.497l-0.37-0.129l-1.314,1.147l-0.285-1.099l-1.031-0.733l-0.127-0.573l2.978-0.379l0.958,0.301
				L391.624,327.94z M282.407,368.633l-0.518,0.265l-0.669-2.212l-0.463-0.791l0.78-0.423l1.549-4.019l0.287,1.596l0.603,1.582
				l0.604,0.251l-0.588,1.153l-0.867,0.426L282.407,368.633z M290.997,359.224l-1.458,1.163l-1.056-0.005l0.965-1.357l0.127-0.647
				l0.803-1.821l1.575-0.654l0.661-0.081l-1.28,1.892L290.997,359.224z M297.289,346.232l-1.432,1.029l-1.072-0.802l0.522-2.212
				l0.358-0.732l1.223,0.724L297.289,346.232z M348.437,341.36l1.005,0.908l2.4-0.371l0.299,0.257l-0.702,0.826l-1.057,0.817
				l-1.919-0.607l-1.211-0.034l-0.17-1.364l0.154-0.497L348.437,341.36z M587.751,70.508l2.592,0.146l1.159-0.136l1.986,0.434
				l7.878,4.362l2.378,0.554l2.455,0.064l1.725-0.351l1.518-1.195l4.756-5.291l4.994-4.831l0.554,0.187l0.002,1.329l-0.366,1.484
				l-2.21,4.418l-2.461,5.929l-0.524,2.998l0.799,2.913l1.541,2.402l1.219,3.281l1.405,4.552l1.974,0.576l1.072,0.071l1.975-1.362
				l1.87-1.733l1.608-0.211l1.692,0.294l-2.224,1.206l-2.099,1.479l-1.797,2.794l-0.669,0.522l-2.077-0.171l-1.187,0.101
				l-2.43,1.166l-2.131,1.318l-2.036,1.616l-2.224,0.867l-2.366,0.204l-3.652,1.319l-2.372,0.094l-4.444-1.151l-2.159,0.304
				l-4.719,2.599l-4.291,3.747l-3.751,4.192l-3.136,5.033l-1.26,2.618l-0.756,2.921l-0.103,1.93l-0.279,1.855l-0.724,1.292
				l-0.873,1.045l-2.584-0.611l-4.252-2.672l-8.244-3.887l-8.703-5.968l-4.897-3.004l-9.208,0.9l-8.707,5.725l-0.781-0.487
				l-3.33-3.925l-1.611-1.557l-1.925-0.44l-1.432,0.051l-1.391,0.284l-1.967,2.021l-0.722,1.456l-0.56,1.649l-0.172,1.167
				l0.236,1.142l1.862,2.581l2.297,1.919l1.039,0.365l2.206-0.134l1.025,0.198l3.696,3.849l4.046,3.596l0.896,1.189l-1.496,1.252
				l-1.64,0.62l-1.905-0.162l-1.886-0.474l-3.241-1.527l-1.385,1.301l-2.149,2.664l-1.191,2.891l-0.966,1.326l-2.378,1.743
				l-2.515,0.901l-1.314-0.298l-1.005-1.092l-0.568-1.31l-0.287-1.518l0.538-3.294l1.302-2.971l0.501-3.039l-1.068-4.285
				l-0.677-0.896l-2.671-2.517l-1.235-2.453l-0.301-3.056l0.158-1.692l0.655-3.739l0.641-1.892l1.231-0.623l1.335-0.374l2.062-1.353
				l2.267-1.758l2.164-2.007l2.145-2.458l1.122-2.702l-1.842-3.319l-0.376-1.975l0.271-1.871l1.957-0.994l2.022,0.75l4.06,2.741
				l0.797,0.27l2.788,0.127l3.818,0.596l2.212-0.145l1.061-0.413l1.612-2.265l0.791-2.889l-0.289-3.723l-0.014-3.706l1.017-3.025
				l3.187-4.873l0.912-2.88l0.334-7.021l1.148-3.102l0.924-3.217l0.441-6.777l-1.308-6.538l-1.31-3.214l-1.506-3.062l0.222-2.929
				l1.217-2.719l0.03-0.82l0.289-0.726l2.281-0.518l1.064-0.584l1.019-1.31L548.688,30l0.894,0.766l0.736,1.34l3.213,3.3
				l5.061,5.878l5.965,8.92l3.741,4.331l3.941,3.919l4.42,3.998l4.624,3.436l2.954,1.619l2.164,2.58L587.751,70.508z
				 M325.839,349.854l2.786,0.738l1.177,0.046l1.092-0.335l1.658-0.969l1.743-0.713l1.243,0.361l1.102,0.865l0.578,1.213
				l-0.281,1.272l-1.969,2.729l-1.618,2.905l3.72,0.542l3.716-0.061l-0.867,1.797l-0.142,1.565l1.136,0.745l0.965,1.001
				l-0.251,0.907l-0.554,0.896l2.032,1.342l-0.134,0.9l-0.528,0.943l-5.063,6.151l-1.486,3.109l-1.035,3.42l-0.946,2.497
				l-0.694,2.588l-0.528,2.791l-0.94,2.876l0.311,2.548l-0.317,2.607l-2.542,6.433l-1.812-0.119l-2.277-0.778l-1.427,0.12
				l-0.738,1.429l1.31,2.931l-4.062,3.47l-4.483,2.331l-0.032-1.061l0.421-0.837l0.647-0.673l0.469-0.812l0.649-2.729l-0.322-2.752
				l-1.351-3.451l-0.099-1.242l0.936-0.502l0.629-0.143l0.342-0.483l0.012-1.143l-0.427-0.848l-1.278-0.276l-1.231-0.018
				l-0.861,1.283l-1.189,2.476l-0.578,2.499l0.255,1.366l0.528,1.223l1.628,2.048l-0.477,1.204l-0.677,0.94l-5.759-2.129
				l-1.243-0.152l-1.033-0.451l-1.106-2.813l2.345-0.678l0.695-0.341l0.259-0.896l0.317-2.748l-1.098-2.296l-0.926-0.817
				l-0.752-0.939l0.477-1.943l-0.313-2.448l-0.028-3.425l0.406-0.59l2.176-0.693l1.569-1.838l1.389-2.094l2.036-3.687l1.66-3.989
				l-1.599-0.174l-1.355-0.748l1.482-1.89l-0.459-2.389l-2.212-2.939l-1.215-3.471l-1.955-1.531l-1.031-0.563l-1.256,0.815
				l-1.035,0.977l0.958,2.258l-0.111,1.995l0.15,1.975l0.977,0.11l1.199-0.491l0.96,0.349l0.56,1.037l0.152,1.336l-0.423,1.323
				l-0.886,0.658l-1.08-0.053l-1.088-0.714l-0.847-1.018l-2.028-0.562l-2.139,1.202l-2.034,2.448l-1.739,1.241l0.819-1.817
				l0.386-1.961l-0.845-1.379l-1.986-2.296l-0.461-1.329l-0.113-1.609l0.348-1.599l2.042,1.829l1.047,2.28l1.5,1l1.883,0.008
				l-1.446-3.349l-0.52-0.845l-2.03-1.505l-2.768-2.535l-1.759-1.223l0.623-2.647l1.031-0.526l0.874,0.128l2.94,0.938l0.277-1.319
				l-0.433-0.705l-0.227-0.82l1.935-1.148l3.166-0.946l0.649-0.443l0.562-0.952l0.774-0.498l2.218,0.014l1.862-0.91l1.541-2.471
				l0.368-1.357l0.55-1.132l3.846-2.007l0.954-0.306l2.568,0.249l2.35,1.136l1.158,2.386l1.015,2.552L325.839,349.854z
				 M391.739,333.615l2.863,1.037l2.936-0.296l-0.047,4.548l0.417,1.525l0.827,1.364l-0.425,1.984l1.326,0.677l-3.937,2.261
				l-3.555,2.994l-1.46,2.018l-1.322,2.158l-0.766,2.283l-0.497,2.46l-1.191-0.975l-3.425-3.987l-2.168-1.095l-3.486-0.584
				l-1.11,0.132l-7.166,3.73l-0.952,2.721l-1.953,4.098l-0.926,1.351l-1.029,0.388l-0.728,0.702l-0.803,3.483l-2.222,2.143
				l-1.359,0.063l-2.321-0.586l-1.043,0.33l1.391-3.434l-2.216-0.418l-2.212,0.072l-0.052-2.237l-1.341-1.271l0.993-1.65
				l0.028-1.346l0.582-0.742l0.202-1.086l-0.075-0.929l-1.367-0.284l-0.833-0.658l0.158-2.449l-0.784-0.089l-1.943,0.427
				l-4.042,1.892l-1.102,0.004l1.694-1.347l3.591-1.851l1.616-1.061l3.522-2.98l2.216-1.412l1.157-2.503l0.358-1.521l0.748-1.338
				l0.661-2.144l1.142-0.716l1.981-1.843l1.138,0.179l1.266,2.264l1.707,1.735l1.229-0.147l2.19-0.889l1.055-0.2l2.532,0.106
				l2.277-1.102l0.926-1.299l0.346-1.625l-0.845-2.72l1.096,0.274l1.049-0.112l2.471-1.733l2.542-1.029l2.641-0.258l2.968,0.982
				L391.739,333.615z M534.021,147.621l0.817,0.518l3.866-1.4l-0.736,4.218l-0.412,4.243l0.283,7.02l0.348,3.16l0.669,3.051
				l1.646,2.184l2.153,1.548l3.122,4.94l1.674,6.045l1.183,2.928l0.886,3.066l0.269,1.401l0.022,1.404l-0.265,1.917l0.291,1.548
				l-0.336,4.858l-1.397,5.601l-0.18,2.856l-1.215,0.566l-0.736,1.318l-0.629,0.611l-0.698,0.473l-1.013,0.118l-0.724,0.539
				l-0.287,1.51l-0.465,1.398l-0.882,1.288l-0.691,1.42l-0.57,3.456l-0.206,3.539l-0.855,2.467l-2.056,0.642l-2.358-0.044
				l-3.021,1.143l-0.643,0.667l-2.386,4.296l-0.685,2.515l-0.022,2.702l0.663,3.318l0.9,3.238l0.681,6.015l-0.718,9.137l-0.69,2.909
				l-1.516,1.969l-1.148,0.913l-0.991,1.12l-1.282,2.96l-2.123,5.884l-0.176,1.473l0.008,1.53l-0.572,1.991l-0.374,1.955l0.35,2.271
				l0.653,2.123l2.849,5.437l1.116,1.606l1.254,1.462l-4.861,1.616l-0.878,0.742l-2.887,3.086l-0.922,2.922l0.075,3.228
				l-0.487,1.157l-0.793,1.001l-0.827,0.666l-3.227,1.475l-2.064,1.466l-2.058,2.289l-0.815,1.199l-1.583-0.384l-0.926-1.057
				l0.912-1.332l-0.281-1.568l0.451-4.038l-0.518-1.625l1.65-1.227l0.787-1.965l1.719-1.574l1.225-1.398l0.218-1.133l-1.102-1.222
				l-1.163-0.884L506.7,298.1l-1.553,0.261l-1.003,1.165l-0.336,1.585l0.079,0.74l-0.127,0.647l-2.439,2.168l0.322,2.266
				l0.714,1.149l0.912,0.545l-0.273,0.779l-1.157,1.823l-0.809,0.18l-1.488-2.551l-1.856-1.396l-2.297,0.011l-2.362,0.507
				l-1.796,1.698l-0.592,1.409l-0.378,1.456l0.127,3.54l-0.744,2.949l-1.458,2.588l-0.683,0.944l-1.779,1.753l-1.225,0.23
				l-0.878-0.796l-0.706-1.208l0.9-4.43l-0.036-2.491l2.089-1.269l-1.713-1.774l-2.097-0.715l-2.95,0.947l-0.831,1.066l-0.568,1.434
				l-1.583,1.81l-1.749,1.695l-1.975,2.887l-1.328,3.416l-4.349-1.117l-2.376-0.25l-2.396,0.087l-4.248-0.421l-4.665,0.697
				l-5.308,1.341l0.317-0.967l4.363-2.057l0.158-0.604l-0.418-1.127l-1.088-0.055l-2.61,0.393l-1.332-0.173l-0.544-1.21
				l-0.884-0.522l-0.59,0.495l0.194,2.35l-0.647,0.314l-0.861-0.604l0.275-1.826l-0.588-2.679l-0.067-1.665l0.914-1.43l-0.936-0.604
				l-0.987,0.232l-1.256,0.687l-1.108,0.978l-2.342,4.889l-0.91,2.788l1.715,2.237l4.675,3.124l0.801,0.765l0.018,1.327
				l-0.568,1.408l-1.274,0.619l-5.13,1.036l-4.442,2.015l-1.284,2.041l-4.044,7.866l-3.237,5.361l-4.574,1.848l-5.02-1.641
				l-1.213-1.865l-0.983-2.308l-1.866-2.089l-1.682-2.278l-0.983-2.707l0.154-4.371l-0.73-2.637l0.659-0.703l2.768-1.604
				l0.904-0.899l1.563-2.091l0.56-1.164l0.085-1.765l-1.258-0.922l-3.249,0.034l-3.241,0.549l-2.315-0.772l-3.001-2.137l-0.93-0.456
				l-3.235-0.135l-2.309,0.397l-2.269,0.78l-2.398,0.246l-0.799,0.406l-2.77,2.619l-2.2,1.647l-1.903,0.817l-4.109,0.219
				l-2.056,0.53l-2.158,0.864l-0.603-0.076l-2.271,1.194l-2.606,1.033l-1.395,1.037l-2.556-0.678l-5.059,1.855l-2.445,0.228
				l-2.527-1.022l-2.344-1.655l-2.25,0.709l-1.543,2.443l-0.748,4.854l-0.882,2.182l-0.267,2.618l-1.165-0.414l-6.772-4.715
				l-0.469-0.169l-5.474,0.812l-1.413,0.392l-1.763,0.955l-1.866,0.427l-1.703-0.687l-1.626-1.119l-1.563,0.333l-1.605,0.784
				l-0.613-7.122l0.311-0.941l0.985-1.252l1.084-1.07l2.651-0.37l2.683,0.348l1.917-0.493l1.618-1.416l1.709-2.009l1.925-1.635
				l2.61-1.293l2.526-1.485l2.216-2.084l2.105-2.276l1.935-1.672l2.099-1.404l3.199-3.375l4.244-3.799l1.628-2.818l1.013-0.777
				l3.652-1.576l4.845-1.205l2.283,0.058l2.263,2.474l1.219-0.339l1.233-0.639l2.495-0.354l2.566,0.409l2.503,0.01l2.505-0.313
				l4.82-0.811l2.536-0.98l2.475-1.268l8.824-0.896l6.048-2.128l0.956,0.151l0.93,0.491l0.069,1.576l-0.76,1.719l0.74,1.039
				l1.225,0.642l5.692,0.198l1.624,0.37l2.376-1.175l2.238-1.454l2.341-1.919l1.638-2.161l-1.512-2.707l-0.332-2.965l1.268-3.22
				l1.838-2.719l2.186-1.645l2.012-1.895l4.076-5.388l2.946-4.37l1.06-5.384l-0.623-6.392l2.572-4.762l2.461-0.819l4.893-2.176
				l2.568-0.64l0.384,0.952l-0.077,1.247l-3.84,4.002l-2.2,1.643l-1.316,0.509l-1.205,0.727l-0.499,1.404l1.957,2.349l0.499,1.733
				l-0.121,1.663l0.083,1.492l2.216,1.626l2.538,0.538l1.064-0.015l0.93-0.427l2.899-3.977l0.651-0.691l8.264-2.918l4.066-2.236
				l2.246-0.577l2.109-1.165l4.729-4.503l1.749-2.078l1.585-2.3l1.268-2.675l0.999-2.9l1.371-1.807l7.497-4.316l2.416-2.355
				l0.768-1.142l0.928-3.311l0.641-3.445l0.912-2.705l1.229-2.54l1.648-2.591l1.85-2.409l1.094-2.474l1.587-5.926l0.698-3.288
				l0.544-1.187l0.799-0.999l0.698-1.264l0.532-1.416l0.241-1.404l0.344-4.297l-0.208-3.346l-1.241-2.84l-1.025-0.807l-1.118-0.047
				l-1.674,0.245l-1.426-1.159l0.289-1.024l1.454-0.19l0.993-0.53l0.712-0.97l1.335-3.106l0.801-3.332l0.069-1.475l-1.043-2.691
				l-0.831-3.242l-0.022-1.753l0.908-2.02l1.296-1.643l1.161-0.387l1.258-0.114l1.142-0.635l1.057-0.923l0.599-1.017l0.932-2.771
				l0.358-1.585l-0.586-4.248l0.604-1.163l0.859-0.726l1.146,0.552l1.175,0.11l1.369-0.169l1.314,0.45l0.249,1.09l0.823,7.173
				l0.477,0.967l0.956,0.75l1.08-0.109l0.932-1.113l0.629-1.484l1.24-0.307l3.779,1.596l1.339-1.139l0.873-1.76l0.76-3.123
				l-0.37-2.82l-0.908-1.042l-0.938,0.189l-0.829,0.774l-0.924,0.423l-5.587,1.486l0.026-3.148l1.195-4.719l0.661-1.496l0.94-0.71
				l2.346,0.822l1.152,0.547L534.021,147.621z M183.359,564.351l-1.219,3.57l-1.007,0.52l-1.033-0.284l-1.055-1.995l0.738-0.764
				l1.031,0.402l0.835-0.154l1.893-2.907l0.457,0.47L183.359,564.351z M174.984,569.682L173.678,570l-1.569-0.389l-1.432-0.107
				l-0.018-0.672l1.502-0.694l0.028-0.968l0.368-0.523l3.383,1.186l-0.14,0.867L174.984,569.682z M207.19,559.204l-1.755,0.591
				l-1.872-0.35l0.303-3.162l0.649,0.443l0.406,1.082l1.393,0.631L207.19,559.204z M265.467,515.561l-1.994,1.056l-0.736,1.259
				l-1.844,0.429l-1.794,1.774l-1.743,0.322l0.044,1.424l0.736,1.205l-1.161,0.211l-1.213,1.467l-0.095,1.065l0.433,0.859
				l-0.059,0.429l-1.537,1.27l-1.579,0.056l-0.071-1.371l0.107-1.025l1.494-2.497l0.038-2.897l1.387-0.336l0.508-0.403l2.186-2.063
				l0.404-0.88l-1.132-0.855l0.083-1.012l0.257-0.43l1.804,0.326l0.732,0.75l0.354,0.082l1.053-0.564l0.495-1.006l1.965-1.971
				l0.795-1.962l1.589,1.611l-0.429,2.108L265.467,515.561z M280.776,490.833l-0.867,0.426l-1.165-0.589l-0.356-2.669l0.514-1.295
				l0.912-0.286l0.789,2.309l0.552,0.953L280.776,490.833z M290.184,479.449l-1.783,1.898l-1.895-1.709l-2.283-1.142l1.086-0.308
				l0.637-0.458l0.063-0.726l1.482-1.077l2.942-0.835l0.934-0.053l1.053-0.786l0.344-0.708l0.433-0.342l1.895-0.975l0.52,1.121
				l-0.087,0.879l-1.423,0.488l-1.389,1.173l-1.282,1.461l-1.159,0.618l-0.366,0.41L290.184,479.449z"/>
		</defs>
		<clipPath id="SVGID_2_">
			<use xlink:href="#SVGID_1_"  style="overflow:visible;"/>
		</clipPath>
		<rect x="-5" y="30" class="st0" width="810" height="540"/>
		<circle class="st1" cx="400" cy="300" r="120"/>
		<use xlink:href="#SVGID_1_"  style="overflow:visible;fill:none;stroke:#000000;stroke-width:0.5;stroke-miterlimit:10;"/>
	</g>
</g>
<g id="Copyright">
	<text transform="matrix(1 0 0 1 681.6426 577.5916)" class="st2 st3">© Vemaps.com</text>
</g>
</svg>
