<?xml version="1.0" encoding="utf-8"?>
<!-- Generator: Adobe Illustrator 19.1.0, SVG Export Plug-In . SVG Version: 6.00 Build 0)  -->
<svg version="1.1" xmlns="http://www.w3.org/2000/svg" xmlns:xlink="http://www.w3.org/1999/xlink" x="0px" y="0px"
	 viewBox="0 0 800 600" style="enable-background:new 0 0 800 600;" xml:space="preserve">
<style type="text/css">
	.st0{clip-path:url(#SVGID_2_);fill:#024FA2;}
	.st1{clip-path:url(#SVGID_2_);fill:#FFFFFF;}
	.st2{clip-path:url(#SVGID_2_);fill:#ED1C27;}
	.st3{clip-path:url(#SVGID_2_);}
	.st4{fill:#ED1C27;}
	.st5{font-family:'Roboto-Regular';}
	.st6{font-size:14px;}
</style>
<g id="North_Korea">
	<g>
		<defs>
			<path id="SVGID_1_" d="M466.974,480.431l-2.749,1.552l-4.703,8.373l-4.39,10.62l-4.26,5.728l-4.879,3.175l-5.26,1.866
				l-10.452,0.804l-9.429-0.722l-3.062-1.143l-12.979,0.669l-3.657,0.746l-18.66-0.824l-9.735,0.867l-6.192,2.049l-6.307,4.299
				l-5.444,6.435l-4.779,6.883l-9.742,12.565l-6.841,6.098l-0.023,8.803l-0.153,2.68l-2.397,1.862l-0.832-0.822l-3.947-0.654
				l-15.858-8.039l-13.041,4.916l-3.291,6.384l-3.466,2.048l-5.192-12.505l-8.49-0.38l-13.491-11.022l-5.795,2.238l-1.474,4.44
				l-7.398,10.127l-10.338,8.354L234.931,570l-3.817-0.567l0.55-2.307l-4.23-9.386l-16.324-3.804l-5.879-3.999l-2.97-0.872
				l15.98-10.505l4.184-1.883l-3.123-2.443l-3.451-1.198l-13.102,1.565l-6.879-3.444l-9.971,1.102l-6.925-2.74l14.354-10.321
				l0.641-6.106l-0.168-4.632l7.284-13.76l7.322-7.624l18.943-10.826l8.261-1.5l5.978,0.429l4.902-1.008l-5.146-4.146l-5.039-1.906
				l-9.796,0.39l-10.17-6.247l-0.901-6.599l19.729-41.814l0.275-3.813l-3.092-10.211l-1-9.985l-14.132-5.745l-6.253-0.691
				l-18.156-11.274l-7.238-5.696l-2.848,1.676l-0.519,9.038l-2.581,2.005l-4.764,1.747l-2.397-10.304l-3.924-7.458l-12.01-7.6
				l-4.314-4.197l2.069-9.067l-1.016-0.804l1.916-10.194l7.383-7.884l18.087-14.04l4.657-6.591l9.177-7.782l4.138,0.17l4.268-0.675
				l1.29-3.39l0.985-2.666l3.672-2.417l8.834-4.3l10.048-5.666l8.009-1.569l9.826-8.492l4.008-3.74h4.008l1.1-1.743l2.275-4.402
				l3.13-2.886l4.352-0.548l7.108-2.082l8.925-1.278l6.078-7.159l2.061-5.119l4.016-5.638l8.528-6.153l5.871-9.095l6.497-9.913
				l3.1-3.166l3.046-0.643l1.809-3.73l2.077-10.553l2.985-10.28l1.794-4.858l7.482-5.31l1.924-2.572l1.68-0.866l3.489,0.693
				l4.657-3.109l4.398-3.452l4.008,1.209l4.077,2.865l4.253,5.706l1.878,4.541l3.367,3.79l0.649,5.506l3.359,2.414l7.123,1.199
				l11.689,3.748l7.559,0.213l4.314,2.807l9.032,1.532l18.057-2.197l7.383,1.294l3.1,3.434l4.573,2.738l2.985,0.157l3.978-4.701
				l4.268-7.644l2.817-5.853l-0.13-4.647l-2.458-4.997l-5.948-4.659l-3.894-7.212l-3.733-7.465l-2.199-2.425l-1.81-3.632
				l-0.328-5.562l1.29-3.76l8.986-2.528l11.544-1.469l9.338,1.561l15.598-1.06l9.559-2.079l7.101,0.297l6.536-0.041l2.909-3.206
				l9.116-7.726l4.413-2.745l4.833-5.252l0.771-5.482l0.97-4.437l2.718-4.759l4.779-5.876l4.077-2.705l4.52,0.35l4.787,2.7
				l3.039,2.704l3.428-0.783l2.84-4.621l1.878-0.886l5.467-0.407l1.71-2.836l2.092-13.618l2.107-10.768l0.451-7.541l4.871-12.501
				l1.527-7.538l2.909-3.52l3.359,0.265l2.794,2.215l3.543,1.305l4.718-1.232l3.298,1.934l2.069,4.047l6.963,2.784l0.664,2.04
				l-0.168,13.569l3.825,6.347l5.093,5.731l7.001,5.204l3.749,1.183l2.245,3.712l2.122,6.413l4.993,6.237l2.627,4.548l0.504,4.714
				l2.29,2.659l-3.97,2.915l-5.261-1.774l-8.734-1.054l-11.162,9.219l-6.177,3.25l-4.367,9.058l-8.727,5.375l-4.764,5.724
				l-6.184,9.889l-4.054,9.538l-9.383,9.738l-5.474,12.226l-0.305,10.473l5.986,10.685l0.534,9.093l-4.199,18.655l2.336,19.761
				l-2.604,7.722l-28.738,13.477l-7.505,6.706l-10.582,17.428l-12.865,6.467l-7.994,7.095l-11.071,4.186l-7.085,12.208l-7.78,6.896
				l-9.246,4.201l-6.917,5.396l-15.491,0.343l-10.926,3.758l-7.78,10.123l-23.371,11.558l-3.184,8.737l1.55,13.438l0.13,10.266
				l-2.038,8.436l-5.116-2.376l-2.749,2.76l-3.031,7.797l0.863,8.872l8.009,2.855l6.566,3.638l9.223,1.828l6.818,4.106
				l14.506,18.647l11.834,8.158l3.085,3.025l6.795,4.086l6.261,6.417L466.974,480.431z"/>
		</defs>
		<clipPath id="SVGID_2_">
			<use xlink:href="#SVGID_1_"  style="overflow:visible;"/>
		</clipPath>
		<rect x="-30" y="30" class="st0" width="1080" height="540"/>
		<rect x="-30" y="120" class="st1" width="1080" height="360"/>
		<rect x="-30" y="135" class="st2" width="1080" height="330"/>
		<circle class="st1" cx="330" cy="300" r="120"/>
		<g class="st3">
			<g id="cone">
				<polygon id="triangle" class="st4" points="39.484,21.387 34.849,35.653 41.981,37.971 				"/>
				<g id="use12" transform="scale(-1,1)">
					<polygon id="triangle_1_" class="st4" points="39.484,21.387 44.119,35.653 36.986,37.971 					"/>
				</g>
			</g>
			<g>
				<g id="cone_1_">
					<polygon id="triangle_2_" class="st4" points="53.75,31.752 38.75,31.752 38.75,39.252 					"/>
					<g id="use14" transform="rotate(72)">
						<polygon id="triangle_3_" class="st4" points="53.75,31.752 41.614,40.569 37.206,34.501 						"/>
					</g>
				</g>
				<g>
					<g id="cone_2_">
						<polygon id="triangle_4_" class="st4" points="25.218,31.752 37.353,40.569 41.762,34.501 						"/>
						<g id="use16" transform="rotate(-72)">
							<polygon id="triangle_5_" class="st4" points="25.218,31.752 40.218,31.752 40.218,39.252 							"/>
						</g>
					</g>
					<g>
						<g id="cone_3_">
							<polygon id="triangle_6_" class="st4" points="48.301,48.522 43.665,34.257 36.532,36.574 							"/>
							<g id="use18" transform="rotate(144)">
								<polygon id="triangle_7_" class="st4" points="48.301,48.522 36.165,39.706 40.574,33.638 								"/>
							</g>
						</g>
						<g id="star" transform="translate(24,18) scale(7.75)">
							<g id="cone_4_">
								<polygon id="triangle_8_" class="st4" points="30.667,48.522 42.802,39.706 38.394,33.638 								"/>
								<g id="use20" transform="rotate(-144)">
									<polygon id="triangle_9_" class="st4" points="30.667,48.522 35.302,34.257 42.435,36.574 									"/>
								</g>
							</g>
						</g>
					</g>
				</g>
			</g>
		</g>
		<use xlink:href="#SVGID_1_"  style="overflow:visible;fill:none;stroke:#000000;stroke-width:0.25;stroke-miterlimit:10;"/>
	</g>
</g>
<g id="Copyright">
	<text transform="matrix(1 0 0 1 681.6426 577.5916)" class="st5 st6">© Vemaps.com</text>
</g>
</svg>
