<?xml version="1.0" encoding="utf-8"?>
<!-- Generator: Adobe Illustrator 27.3.1, SVG Export Plug-In . SVG Version: 6.00 Build 0)  -->
<svg version="1.1" xmlns="http://www.w3.org/2000/svg" xmlns:xlink="http://www.w3.org/1999/xlink" x="0px" y="0px"
	 viewBox="0 0 800 600" style="enable-background:new 0 0 800 600;" xml:space="preserve">
<style type="text/css">
	.st0{clip-path:url(#SVGID_00000064339424750533062660000016402842487370596228_);fill:#FFFFFF;}
	.st1{clip-path:url(#SVGID_00000064339424750533062660000016402842487370596228_);fill:#D52B1E;}
	.st2{clip-path:url(#SVGID_00000064339424750533062660000016402842487370596228_);fill:#0039A6;}
	.st3{font-family:'Roboto-Regular';}
	.st4{font-size:14px;}
</style>
<g id="Russia">
	<g>
		<defs>
			<path id="SVGID_1_" d="M332.194,183.448l0.931-0.094l0.658-1.288l0.059-0.507l-0.275-0.606l-1.451,0.189l-0.351,0.581
				l-0.255,0.887l0.163,0.331L332.194,183.448z M335.126,91.974l5.408,1.38l1.493-2.169l-0.388-1.206l-1.599-0.43l-4.505-0.414
				l-0.732,1.218l0.079,0.62L335.126,91.974z M320.888,225.438l1.02,0.291l0.366-0.517l0.489-1.297l-0.313-0.713l-0.224-0.157
				l-1.142,0.484l-0.364-0.306l-0.207-0.193l-0.438,0.45l-0.753,0.45l-0.313,0.758l0.572,0.707L320.888,225.438z M306.66,238.511
				l0.171-0.191l0.199,0.05l0.23-0.368l0.301-0.279l-0.455-0.521l-1.577-0.464l-1.07,0.36l-0.369,0.591l1.479,0.257L306.66,238.511z
				 M312.296,232.769l0.211-0.962l0.493-0.909l-0.836,0.051l-0.605,0.356l-0.654,0.582l0.17,0.39L312.296,232.769z M342.331,114.589
				l1.102,0.529l0.87,0.663l0.474,1.121l3.473,1.955l2.828,2.322l0.944-0.013l1.977-1.652l1.026-1.262l0.417,0.082l1.302-0.698
				l3.878-0.674l5.721-1.633l0.534-0.813l0.514-1.296l-0.564-0.501l-0.159-0.529l-0.586-3.484l-0.184-0.612l-0.205-0.413l0.38-2.078
				l0.47-1.022l1.925-0.685l0.355-0.553l0.474,0.016l0.058-1.754l-0.165-0.948l-0.559-0.771l-1.254-0.412l-2.856-3.18l-0.268-1.004
				l-0.564-0.996l-0.159-1.269l-0.24-0.663l-1.232-2.383l-0.485-0.25l-0.395-0.529l-0.356-1.399l-0.439-0.568l-2.78,0.271
				l-0.428,2.357l-0.967,1.374l-0.981,0.696l-1.024,0.204l-1.02,0.502l-1.09,0.868L351,94.07l-0.604-0.03l-0.601,0.209l-1.273,1.199
				l-0.549,1.728l-0.754,0.899l-0.236,0.572l-0.434,1.693l-0.076,0.789l0.782,0.331l2.123-0.612l-1.221,2.38l-0.669,2.255
				l-1.079,2.259l-1.436,0.898l-1.518,0.566l-0.905,1.542l-0.711,1.557L342.331,114.589z M302.617,237.939l0.584,0.305l0.421-0.543
				l-0.091-0.323l-0.338-0.591l-0.37-0.204l-0.621,0.193l-0.23,0.288l0.226,0.504L302.617,237.939z M363.804,201.599l0.105-0.776
				l-0.353-0.262l-1.135-0.498l-0.519,0.612l-1.582-0.402l-0.831,0.809l-0.931-0.721l-0.25,0.502l-0.048,0.854l1.594,0.383
				l0.719,0.606l1.146,0.087l0.831,0.61l0.23-1.009l-0.012-0.63l0.59-0.393L363.804,201.599z M203.579,298.962l0.38,0.185
				l0.382,0.132l0.463-0.016l0.463-0.251l0.822,0.367l0.483-0.345l0.49-0.133l0.16-0.849l0.015-1.154l-0.131-0.622l-0.251-0.348
				l-0.955-0.766l-0.938-1.086l-1.386-1.132l-0.465-0.665l-0.447-0.796l-0.503-0.653l-0.961-0.974l-0.175-0.303l-0.185-0.061
				l-0.915,0.417l-0.504,0.948l-0.272,0.113l-0.413,0.418l-0.204,0.662l0.412,1.422l0.163,0.338l0.124,0.524l0.199,0.471
				l1.182,2.002l0.223,0.119l0.34-0.347l0.268-0.14l0.538,0.296l0.491,0.101l0.525,0.305l0.341,0.947l-0.014,0.654L203.579,298.962z
				 M359.863,186.607l0.369,0.592l0.385,0.301l1.026-0.531l0.514,0.2l0.189-0.291l0.139-0.374l0.602-0.861l0.594-1.134l0.003-0.477
				l-0.146-1.005l-2.924,2.104l-1.879,0.796l-0.652,0.728l0.407,0.141L359.863,186.607z M350.856,125.953l0.866-2.162l-1.395-0.906
				l-3.853-1.38l-1.819-1.224l-1.827-0.171l-1.413,0.077l-0.853,0.464l-0.69,1.229l0.242,1.901l1.085,1.712l1.332,1.101l2.039,2.577
				l1.244,0.222l1.053-0.235l1.053-0.468l0.992-0.804l0.984-1.129L350.856,125.953z M267.742,255.761l0.664,0.391l0.218,0.255
				l0.096-0.142l0.159-0.505l-0.16-0.318l-0.056-0.588l0.413-0.943l0.95-0.443l-1.025-0.68l-0.544-0.203l-0.828-0.13l-0.912,0.319
				l-0.243,0.517l-0.183,0.786l0.349,0.684L267.742,255.761z M273.779,247.5l0.32-0.341l0.653-1.035l-0.053-0.163l-0.474-0.21
				l-1.562,0.506l-0.845,0.965l-0.133,0.686l0.691-0.37L273.779,247.5z M249.027,253.56l0.779,0.176l0.356-0.054l1.273-0.698
				l0.922-0.367l2.034-0.64l1.173-0.173l0.018-0.762l-0.177-0.877l-0.627-0.89l-0.407-0.455l-0.518-1.147l-0.392-0.46l-0.512-0.4
				l-0.36-0.156l-2.559,0.561l-0.869,0.501l-0.666,1.295l0.099,2.036l-0.144,0.825l-0.239,0.638l-0.045,0.627l0.523,0.705
				L249.027,253.56z M366.929,192.93l0.136,1.141l0.384,0.714l0.455,0.117l0.23-0.279l-0.896-2.015L366.929,192.93z
				 M227.688,196.481l-0.539,0.054l-0.533,0.23l-1.051,1.079l-1.058,0.883l-4.065,1.26l-2.405,1.331l-0.821-0.156l-1.348,0.269
				l-1.014-0.203l-1.952-0.902l-0.944-0.137l-1.595,0.301l-0.193,0.155l-0.532,0.74l0.011,1.162l0.074,0.89l-0.244,0.552
				l-0.241,0.324l-0.611,0.045l-0.306-0.635l-0.54-0.083l-1.417,0.223l-0.699,0.535l-0.355,1.485l-1.102,0.679l-1.888,0.692
				l-1.024,0.592l-0.502,0.035l-0.492,0.301l-0.99,1.379l-1.017,1.004l-1.561,0.994l0.062,0.771l0.091,0.462l-1.345,1.49
				l-0.326,0.903l-0.332,1.686l-0.107,0.26l-1.323-0.548l-0.929-0.182l-0.425,0.15l-0.629,0.406l-0.152,0.394l0.086,0.866
				l0.204,0.568l-1.327,2.483l-0.369,0.028l-0.417-0.71l-0.435-0.442l-0.548-0.377l-0.549-0.13l-0.498,0.439l-0.48,0.734
				l0.048,0.578l0.182,0.537l0.585,0.929l1.483-0.169l0.383,0.678l0.305,0.265l-1.218,0.993l-1.319,1.681l-1.101,2.3l-0.336,0.468
				l0.122,0.607l0.222,0.561l0.391,0.242l0.849-0.015l0.822,0.748l-0.255,0.24l-2.87,0.73l-0.327,0.267l-1.38,3.732l-0.444,0.913
				l-0.386,0.528l-0.425,0.975l-0.393,1.17l-0.16,0.129l-0.951,0.246l-0.921,0.78l-0.913,0.989l-0.486,0.338l-0.384,0.534
				l0.329,1.068l1.587,2.383l-0.317,0.932l0.73,1.974l1.153-1.023l0.879-0.47l1.033-0.068l1.185,0.939l1.167,0.533l2.104,0.166
				l0.84,0.48l0.876,0.255l0.884-0.107l1.43-0.941l0.739-2.095l1.411-1.621l0.359-0.737l-0.34-1.357l-0.751-1.062l0.096-0.366
				l0.587,0.193l0.673,0.779l0.233,0.114l0.427-0.016l0.386-0.557l0.119-0.706l-0.082-0.74l-0.326-1.191l-0.047-0.627l2.922-1.817
				l0.765-1.566l0.205-0.988l-0.084-0.622l-0.363-1.509l-0.26-0.685l0.142-0.562l1.706,0.587l0.487-0.37l0.262-0.356l0.196-0.722
				l0.047-0.96l0.109-0.899l0.251-0.446l1.544,1.298l0.338,0.058l0.341-0.439l0.081-0.449l-0.159-0.509l0.054-0.83l1.019,0.021
				l0.424-0.185l0.618-0.672l0.339-0.669l0.6-0.636l0.27-0.487l-0.202-0.691l-0.926-0.411l0.155-0.616l0.861-0.792l0.253-0.076
				l0.527,0.071l0.277-0.228l0.476-0.711l0.462-0.893l0.918-0.999l0.44-0.995l0.465-0.578l0.566,0.069l0.562-0.15l1.951-1.856
				l4.248-2.562l1.174-0.476l1.486-1.148l0.52-0.067l2.095-0.826l2.09-1.207l1.982-0.906l1.81-1.158l2.876-1.411l1.626-1.135
				l1.023-0.455l1.013-0.647l1.033-0.96l1.735-1.387l1.735-0.863l0.247-0.523l1.458-2.503l1.479-2.295l-0.181-0.702l0.141-0.923
				l0.222-0.902l-0.13-0.999l-0.166-0.551l-0.756-1.542l-0.925-1.205l-2.031-1.094l-1.585-0.404l-0.507,0.073l-1.176,0.847
				l-1.886,0.767l-2.096,1.961l-1.224,1.421l-0.451,1.097l-0.417,1.401l-0.467,0.636l-0.513,0.012l-0.47,0.202l-0.948,0.93
				L227.688,196.481z M233.078,285.478l-0.096,0.204l-0.101,0.392l0.055,1.46l0.178,0.713l0.291,0.6l0.229,0.175l-0.033-0.524
				l-0.448-2.05l0.023-0.927L233.078,285.478z M280.502,260.761l-0.509,1.142l-0.481,0.675l-1.068,1.055l-0.139,0.693l0.151,0.277
				l1.04,0.224l2.111-0.133l0.643-0.247l0.982-1.199l0.638-0.352l0.913-0.94l-0.053-0.315l-0.32-0.706l-2.3-1.129l-0.736,0.004
				L280.502,260.761z M287.018,258.052l2.385,0.597l0.307-0.164l0.159-0.692l0.014-2.194l-0.558-0.953l-0.243-0.823l-0.834-0.829
				l-2.2,2.994l-0.102,0.611l0.247,0.694L287.018,258.052z M287.963,100.284l4.025-0.982l1.379-0.539l0.124-0.402l0.237-1.236
				l-0.644-0.609l-2.05-0.706l-2.555,0.415l-0.467,1.012l-0.573,2.062l0.127,0.366L287.963,100.284z M298.72,217.308l0.327,0.718
				l0.186,0.144l0.706-0.615l0.193,0.917l0.319,0.266l0.31-1.602l0.56,0.035l0.184-0.199l-0.056-0.625l-0.158-0.557l-0.029-1.662
				l-0.623,0.037l-0.473,0.273l-0.013,0.651l0.073,0.863l-0.366,0.05l-0.564-0.764l-0.917,1.436l0.136,0.487L298.72,217.308z
				 M275.133,246.047l-0.244,0.472l0.656,0.721l1.842,0.559l0.419-0.096l-2.191-1.671L275.133,246.047z M275.195,131.722
				l1.318,0.797l0.775,0.024l0.056,1.216l0.697,0.093l3.377-0.295l-0.172-0.536l-0.82-0.774l-3.871-2.073l-0.411,0.672l-0.536-0.863
				l-0.436-0.323l-0.42,0.476l0.088,0.46L275.195,131.722z M365.054,199.149l-0.185,0.191l-0.01,0.379l-0.402,1.212l-0.004,0.928
				l0.066,0.203l0.188,0.133L364.95,202l0.521-0.68l0.342-1.206l-0.033-0.234l-0.239-0.514L365.054,199.149z M539.048,218.945
				l0.918,1.885l0.993,1.171l0.525,0.229l0.498,0.537l1.006,2.297l0.375,0.727l0.394,0.489l3.353,1.59l0.504,0.447l0.509,0.281
				l0.503-0.051l0.478-0.445l0.454-1.026l0.356-1.464l0.155-1.1l0.251-0.692l0.327-0.309l0.333,0.005l1.097,1.15l1.113,0.795
				l0.85-0.151l0.854-0.429l2.817-0.688l0.952-0.399l0.947-0.592l1.036-0.145l0.488,0.673l0.365,0.856l0.448,0.825l0.394,0.354
				l0.41,0.135l0.664-0.281l0.66-0.504l1.516-1.708l-0.859-1.544l-1.009-0.685l-0.348-0.509l-1.526-3.621l-0.286-0.799l-0.207-1.117
				l-0.282-3.53l0.962-0.544l1.056-0.513l1.692,0.134l0.263,0.937l-0.071,0.465l-0.514,1.072l-0.577,0.472l-0.151,1.657l0.13,1.911
				l0.393,1.193l0.442,0.857l1.076,1.703l0.979,0.573l0.996-0.019l1.708,0.661l0.851-0.244l0.832-0.725l2.062-2.825l-0.3-0.949
				l-0.379-0.703l0.331-0.868l0.955-1.271l1.459-0.706l-0.217-0.583l-0.237-0.375l-6.805-4.888l-0.545,0.058l-1.079,0.675
				l-0.547,0.154l-1.12-0.235l-1.115-0.647l-0.907-0.714l-1.99-2.503l-1.124-1.162l-1.113-0.526l-0.807,1.324l-1.157,1.343
				l-0.205,0.438l-0.152,0.663l-0.106,1.076l0.003,1.203l0.06,0.871l0.016,0.862l-0.237,0.849l-0.319,0.372l-0.69-0.059
				l-0.236-0.172l-0.241-0.336l-0.218-0.466l-0.465-1.867l-0.497-0.47l-0.531,0.223l-0.448-0.338l-1.324-2.207l-0.932-1.08
				l-1.375-1.21l-0.443-0.498l-0.397-0.936l-0.425-0.665l-0.458-0.054l-1.662,1.262l-0.967,0.274l-0.484,0.621l-0.248,0.598
				l-0.268,0.35l-0.878,0.218l-0.647,0.492l-0.281,0.589l-0.257,0.813l0.4,1.531l0.49,1.127l-1.509-0.389l-0.388,0.568l-0.233,3.411
				l0.323,3.55l-0.536,0.035l-0.796-0.321l-0.151,0.682l0.063,0.942L539.048,218.945z M591.94,193.167l0.276-1.324l0.599-0.66
				l-2.978,0.672l-1.178,1.313l-0.214,0.539l3.258-0.219L591.94,193.167z M582.055,221.862l0.95,1.075l0.49,0.237l1.603,0.423
				l0.495,0.45l1.001,1.242l0.523,0.524l0.887,0.418l3.266,0.462l2.37-0.003l1.046-0.375l2.138-1.184l1.08-0.867l0.286-0.427
				l0.764-3.561l-0.284-0.1l-0.289,0.12l-0.335,0.594l-0.357,0.343l-0.492-0.582l-0.592-0.502l-0.766-0.936l-1.989-0.431
				l-2.437-0.298l-0.828,0.578l-1.31-0.141l-0.499-0.613l0.061-0.631l0.129-0.464l-0.043-0.874l-0.332-0.448l-4.056-0.466
				l-0.231,0.044l-1.662,1.267l-1.15-0.11l-0.203-0.996l0.012-1.413l-0.926-1.239l-0.429,0.411l-0.415,1.339l-0.37,1.503
				l-0.31,1.682l-0.163,1.655l2.406,1.423L582.055,221.862z M542.563,274.526l-2.32,0.109l-0.493,0.313l-0.168,0.013l-0.206,0.184
				l-0.077,0.176l0.063,0.378l0.81,0.631l0.342-0.063l0.255-0.228l0.237-0.085l0.234,0.121l0.438,0.554l0.429,0.146l1.076-1.151
				l-0.113-0.48l-0.33-0.552L542.563,274.526z M368.127,117.183l-2.021,0.386l-3.052,1.231l-0.604-0.144l-0.498,0.334l-1.321-0.333
				l-1.563,0.111l-0.463,0.827l-0.228,0.77l-0.246,0.291l-1.275-1.666l-0.176,0.191l-0.571,1.367l-0.414,0.59l-1.614,1.726
				l-0.391,2.77l-0.949,1.804l-0.828,1.321l-1.919,1.693l-1.448,3.262l0.874,0.876l0.895-0.103l1.214,0.268l1.995,1.16l0.412,2.225
				l0.73,2.069l0.596,0.607l0.052,1.188l0.09,0.307l0.601,0.938l0.995,0.776l0.489,0.07l1.317-1.137l0.408,0.028l0.745,1.966
				l0.406,0.24l2.388-0.328l0.359,0.292l1.638,0.41l0.275,0.479l0.267,0.676l1.367,1.484l1.333,0.929l0.577-0.017l0.939,0.383
				l0.646-0.241l0.99,0.58l0.558,0.161l1.77-0.68l2.689-0.357l0.439-0.415l1.684-2.449l-0.128-1.02l-0.369-2.041l-0.277-0.271
				l-1.012-0.517l-0.867-2.241l-1.195-1.531l0.272-0.288l0.272-0.022l0.956,0.736l0.649-0.042l0.621-1.092l0.178-1.45l-0.067-1.851
				l0.065-0.673l0.12-0.555l0.096-1.255l0.046-1.454l0.103-0.598l0.147-0.383l0.332-1.683l0.63-0.945l-0.497-1.762l-0.556-1.213
				l-0.398-0.538l-0.825-0.53l-0.274-0.717l-0.444-0.404l-0.328-0.749l-1.86-0.727l-1.169-0.171l-0.28,0.216l-0.26,0.863
				l0.118,1.395l-0.633,1.704l-0.346,0.252l-0.905-0.665l-0.84,1.194l-0.634,1.747l-0.316,0.507l-0.262-0.35l0.155-1.85l0.576-1.119
				l0.208-1.498l0.429-1.183l0.481-0.477l-0.495-1.812l-0.993-1.599L368.127,117.183z M553.804,240.362l0.424,0.047l2.181-1.267
				l0.159-0.802l0.219-1.859l-0.078-0.66l-0.177-0.533l-0.409-0.35l-0.412-0.146l-1.916,0.117l-0.464,0.148l-0.463,0.327
				l-0.399,0.835l0.354,2.842L553.804,240.362z M607.901,203.403l-0.096-0.754l-0.124-0.394l-0.155-0.176l-0.679,0.363l-0.365,0.566
				l0.988,1.044L607.901,203.403z M673.404,298.276l0.657,0.782l0.883,0.612l2.462,1.155l1.236-0.112l0.195-0.256l0.076-0.343
				l0.155-1.324l0.145-0.436l0.371-0.12l0.067-0.665l-0.056-0.3l-0.199-0.335l-4.409-1.681l-0.701,0.092l-0.592,0.424l-0.845,0.933
				l-0.22,0.353l-0.109,0.455l0.14,0.217L673.404,298.276z M720.231,284.827l0.299-0.058l1.262-0.711l2.147-0.247l1.013-1.018
				l0.515-0.231l1.152,0.284l0.986,0.64l0.395,0.059l1.122-0.276l2.727-0.997l2.017-0.361l1.045-0.343l1.293-1.329l0.109-0.703
				l-0.146-0.592l-0.226-0.251l-1.009-0.788l-0.685-0.685l-0.354-0.64l-0.335-0.38l-0.351-0.22l-0.602-0.65l-0.37-0.164
				l-1.897-0.491l-0.51-0.222l-0.51-0.041l-0.628,0.336l-0.631,0.069l-0.626-0.216l-0.627,0.061l-0.667,0.37l-0.673,0.181
				l-0.492,0.197l-0.739,0.78l-0.73,0.253l-1.355,1.672l-1.492,1.26l-0.269,0.716l-0.629,0.968l-0.241,0.779l0.086,0.624
				L720.231,284.827z M643.628,305.432l0.048,1.057l0.199,0.348l0.787,0.45l0.421,0.591l-0.021,0.357l-0.147,0.8l0.194-0.016
				l0.172-0.32l0.044-0.507l-0.096-0.561l-0.436-1.096l-0.072-1.071l-0.021-1.203l-0.095-0.939l0.102-0.545l0.719-0.282l0.299-0.796
				l0.037-1.134l-0.421-0.518l-0.067-0.067l-0.414,0.544l-0.374,0.68l-0.922,0.88l-0.121,0.791l0.354,0.886L643.628,305.432z
				 M641.572,285.04l0.293-0.222l-0.321-0.804l-0.343-0.532l-0.508-0.136l-0.036,0.151l-0.015,0.947l0.294,0.414L641.572,285.04z
				 M550.665,248.008l0.434,1.069h0.605l0.442-0.094l1.584-1.121l1.173-0.253l0.395,0.09l1.859,0.863l1.795,1.185l2.296,0.44
				l0.936,0.434l1.061-0.007l1.105,0.128l1.525,0.361l1.119-0.158l0.173-0.228l-0.119-3.213l-0.231-0.945l-0.29-0.733l-3.055-3.615
				l-0.885-0.755l-1.085-0.691l-1.097-0.298l-1.083,0.168l-1.605,0.505l-0.529-0.072l-0.456,0.166l-0.438,0.534l-0.433,0.839
				l-0.808,2.292l-0.451,0.991l-0.923,1.246l-0.977,0.389l-1.02,0.135L550.665,248.008z M411.516,180.578l-0.464-0.338l-0.521,0.01
				l-0.42,1.137l0.142,0.935l0.488-0.023l1.148-0.503l-0.065-0.621l-0.153-0.392L411.516,180.578z M405.779,162.645l0.876-0.825
				l0.14-0.354l0.756-0.071h0.173l0.003-0.623l-0.123-0.48l-0.221-0.42l-0.796-0.082l-0.46,1.443l-1.267,0.169l-0.151,0.948
				l0.553,0.455L405.779,162.645z M406.408,164.048l2.542,0.931l1.483-0.062l0.598,0.857l0.54-0.52l0.387-1.017l-0.53-1.155
				l-0.281-0.081l-4.011,0.462L406.408,164.048z M379.73,153.461l-0.024,1.265l-0.183,0.831l-0.225,0.693l-0.171,0.728l-0.287,1.946
				l-0.167,0.891l-1.479,2.25l-0.573,1.165l-0.464,1.995l-0.657,0.96l0.453,0.781l0.471,0.513l1.495,0.4l1.029-0.378l1.99-1.513
				l2.162-2.006l0.712-1.035l2.117-0.051l2.116-0.232l1.894-0.41l0.243,0.486l0.265,0.251l0.27,0.042l0.895-1.443l3.106-0.051
				l2.506-1.642l0.963-0.304l0.964,0.204l0.394-0.279l2.081-3.18l0.131-2.053l-0.141-1.588l-0.235-1.478l-0.223-1.044l-0.254-0.868
				l-0.57-0.548l-0.579-0.259l-1.075,0.442l-0.785-1.007l0.108-0.975l-0.12-0.917l-0.196-0.299l-1.357-0.819l-0.378-1.126
				l-0.34-1.39l-0.541-0.598l-0.555-0.017l-1.038,0.549l-1.016,1.257l-0.535,0.338l-0.543,0.017l-0.458,0.943l-0.421,1.47
				l-0.696,1.764l-0.758,0.804l0.154-0.925l1.292-5.207l0.179-1.62l0.423-1.796l0.238-0.401l0.489-0.264l0.198-0.387l-0.245-0.758
				l-1.091-1.423l-1.67-0.969l-0.531,0.074l-0.248,0.405l-0.193,0.931l-0.015,1.425l0.321,1.318l-0.532,0.083l-0.534-0.26
				l-0.404-1.118l-0.381-1.373l-0.273-0.041l-0.512,0.248l-0.228,0.257l-0.153,0.885l-0.053,1.357l-1.009,0.507l-0.496,0.653
				l-0.205,1.098l-0.419,0.774l0.069,0.62l-0.161,1.666l-0.284,0.381l-0.278,0.601l-0.159,1.227l-0.036,0.633l0.18,1.913
				l0.251,0.535l-0.347,0.109l-1.11-0.308L380.827,150l-0.431,0.771l-0.574,1.639L379.73,153.461z M378.341,129.491l-0.117,1.682
				l0.956-0.302l0.713-1.352l-0.689-0.325l-0.317-0.42l-0.488,0.26L378.341,129.491z M534.462,215.959l0.312-0.496l-0.24-0.825
				l0.079-0.62l0.804-1.454l-0.18-0.349l-0.965-1.204l-0.241-0.612l-0.264-1.22l-0.389-0.828l-0.367,1.395l-0.154,0.992
				l-0.075,1.287l0.137,1.046l-0.3,1.399l-0.219,0.564l-0.091,1.269l1.274,0.13L534.462,215.959z M484.742,241.513l0.266-0.034
				l0.477-0.591l-0.07-0.193l-0.387-0.524l-0.511-0.144l-0.404,0.23l-0.004,0.283l0.133,0.557L484.742,241.513z M431.289,195.557
				l0.621,0.211l0.424,1.008l0.593,0.624l0.188-0.043l0.051-0.566l0.119-0.303l0.203-0.191l-0.123-0.808l-0.67-1.269l-0.364-0.429
				l-0.488,0.477l-1.172-0.272l-0.183,0.125l0.146,0.435L431.289,195.557z M532.294,236.292l0.801,0.925l0.352,0.979l1.461,2.05
				l0.305,0.689l0.328-0.447l0.268-1.118l-0.964-1.661l-1.772-2.057l-1.046-0.534l0.067,0.824L532.294,236.292z M465.344,253.73
				l1.099-0.669l-0.106-0.26l-0.687-0.739l-0.494-0.163l-0.878,0.182l-0.527,0.466l0.657,1.175L465.344,253.73z M596.727,499.819
				l-1.502,1.112l-0.72,0.907l-0.565,0.225l-0.949,1.526l0.398,0.012l0.645-0.313l0.849-0.874l0.306-0.243l0.445-0.167l0.6-0.521
				l0.171-0.492l1.381-1.223l-0.886-0.031L596.727,499.819z M604.779,494.088l-0.546,0.606l-0.761,0.924l-0.646,0.103l0.035,0.151
				l0.133,0.255l0.267,0.008l0.808-0.695l1.244-1.554l-0.235-0.008L604.779,494.088z M590.295,504.436l0.004-0.185l-0.061-0.148
				l-0.171-0.102l-0.287,0.036l-0.409,0.222l-1.249,1.244l-0.842,0.149l-0.321-0.024l-0.396-0.71l-0.176-0.035l-0.223,0.511
				l0.056,0.458l-0.503,0.214l-0.484,0.599l-0.434,0.187l-0.552,0.717l-0.797,0.543l-0.399,0.548l-0.06,0.625l-0.722,0.593
				l-0.177,0.319l-0.156,0.659l0.871-0.769l0.473-0.135l0.445-0.753l1.097-0.962l0.201-0.311l0.054-0.354l0.156-0.199l0.547,0.114
				l0.562-0.194l0.397-0.488l1.115-0.899l0.66-0.186l0.802-0.433l0.829-0.039l0.201-0.238l-0.148-0.313L590.295,504.436z
				 M598.277,406.466l-0.32,0.531l-0.53,0.364l0.007,0.162l0.17,0.23l0.342-0.095l0.598-0.644l-0.066-0.23L598.277,406.466z
				 M619.468,469.708l0.396-0.077l0.038-0.161l-0.061-0.446l-0.308-0.165l-0.439,0.144l0.07,0.301l0.127,0.221L619.468,469.708z
				 M615.39,479.347l-0.009,0.575l0.451,0.175l0.414-0.294l0.084-0.238l-0.119-0.8l0.351-0.654l0.071-0.426l-0.324-0.111
				L615.39,479.347z M621.411,470.075l-0.507,0.497l-0.486,1.374l-0.401,0.555l-1.068,0.215l-0.464,0.513l-0.47-0.031l-0.101,0.225
				l0.208,0.35v0.797l0.198,0.226l0.47,0.134l0.224-0.246l0.293-0.457l0.395-0.214l0.802-0.167l0.558-0.678l0.534-1.014l0.244-0.731
				l0.097-0.763l-0.113-0.687L621.411,470.075z M581.62,514.129l-0.879,0.285l-0.037,0.096l-0.021,0.338l0.323,0.144l0.134-0.164
				l0.803-0.361l-0.065-0.15L581.62,514.129z M43.464,442.392l0.528-1.542l-0.029-0.247l-0.382-0.433l-0.473-0.316l-0.261-0.667
				l-0.958-0.038l-0.904,0.036l-0.284-0.032l-0.86-0.28l-0.83-0.451l-0.555-0.265l-0.466-0.297l-0.251-0.312l-0.398,0.084
				l-0.268,0.003l-0.055,1.185l-0.148,1.302l-0.837,0.245l-0.469-0.051l-0.492-0.283l-0.418-0.065l-0.36-0.201l1.148-1.522
				l0.426-0.722l-0.251-0.059l-0.235,0.414l-0.723,0.98l-0.688,0.814l-0.536,0.329l-1.253-0.039l-0.577,0.265l-0.092,0.683
				l-0.04,0.604l-0.37,0.869l-0.435,0.665L30,443.686l0.173,0.09l1.214,0.097l1.231,0.099l1.98,0.104l2.063,0.111l2.14,0.114
				l2.317,0.123l2.443,0.072l0.149-0.049l-0.182-0.363l-0.193-0.65l0.02-0.522L43.464,442.392z M184.319,115.692l1.234-1.204
				l-0.195-0.73l-0.353-0.397l-0.491-0.199l-0.644,0.768l-0.485,1.004l0.298,0.718L184.319,115.692z M578.945,510.291l-0.414-0.016
				l-0.745,1.376l-0.218,0.145l-0.165,0.335l-0.341,0.386l-0.109,0.345l-0.355,0.436l-0.888,0.769l-0.154,0.363l0.057,0.438
				l0.506,0.433l0.134-1.079l0.781-0.574l0.522-0.643l0.116-0.336l0.859-0.857l0.263-0.137l0.535-0.074l0.608-0.572l0.346,0.006
				l0.223-0.398l-0.918,0.096L578.945,510.291z M236.649,302.421l0.351-1.08l-0.069-0.524l-0.489-0.041l-0.825,1.142l0.093,0.2
				l0.219,0.246L236.649,302.421z M539.002,438.934l-0.868,0.629l-0.35,0.401l0.218,0.076l0.597-0.11l0.289,0.277l0.372-0.021
				l0.535-1.311l-0.097-0.056l-0.341,0.122L539.002,438.934z M100.433,350.811l-0.14-0.406l-0.377-0.16l-0.522,0.417l-0.1-0.103
				l-0.246,0.165l0.129,0.592l0.272,0.358l0.254,0.012l0.428,0.83l0.276-0.254l-0.065-0.359l0.134-0.426L100.433,350.811z
				 M130.035,334.404l0.166-0.149l-0.1-0.368l-0.257-0.516l-0.364-0.146l-0.342,0.11l-0.037,0.167l0.075,0.387L130.035,334.404z
				 M430.989,230.354l-0.334,0.361l-0.079,0.495l-0.028,0.647l-0.146,1.09l-0.301,0.402l-1.05-0.169l-0.293,0.096l-0.289,0.245
				l0.605,1.285l1.167,0.857l0.837,0.891l0.393,0.269l2.544,0.811l0.125-0.124l0.721-1.49l0.922-0.677l0.298-0.534l0.175-0.711
				l0.233-0.575l0.148-0.764l-0.438-0.655l-1.45-0.624L430.989,230.354z M248.845,334.318l-0.69-0.172l-0.508-0.272l-0.798-0.028
				l-0.493-0.132l-0.144,0.384l0.789,1.646l0.838,0.822l0.763-0.135l0.167-0.167l0.221-0.561l-0.229-0.331l0.001-0.303
				L248.845,334.318z M769.789,340.304l-0.481-0.218l-1.54-0.063l0.225-0.343l-0.085-0.378l-0.153-0.381l-0.235-0.238l-0.26-0.042
				l-0.53,0.213l-0.525,0.314l0.267-0.453l0.302-0.315l-0.158-0.253l-0.199-0.146l-1.609-1.87l-0.965-0.685l-0.916-0.918
				l-0.907-1.558l-0.98-1.246l-1.023-0.46l-1.051,0.085l-0.752-0.289l-0.753-0.389l-1.676-0.423l0.025,0.343l1.816,0.623l0.272,0.28
				l-0.126,0.243l-0.396,0.061l-1.396-0.189l-0.416-0.152l-0.383-0.478l-0.2,0.06l-0.153,0.277l0.053,0.634l0.176,0.515l-0.362,0.27
				l-0.383-0.124l0.018-0.639l0.085-0.504l0.431-0.889l0.245-0.191l0.043-0.187l-1.458-0.401l-0.401-0.308l-0.404-0.134
				l-0.886,0.427l-2.444,0.037l-0.444,0.14l-0.019,0.306l0.154,0.156l0.382,0.126l0.386-0.023l0.253,0.424l0.56,0.216l0.294,0.434
				l0.197,0.744l0.096,0.53l0.058,0.536l-0.239,0.974l-0.342,0.406l-0.399,0.227l0.152,0.558l0.41,0.437l0.785,0.205l0.34,0.364
				l0.297,0.581l-0.252,0.742l-0.294,0.6l-0.241,0.256l-0.169,0.441l-0.135,0.173l-0.171,0.001l0.205-1.648l-0.291-0.981
				l-0.525,0.225l-0.221,0.258l-0.473,0.867l-0.122,0.044l-0.107-0.299l-0.152-0.627l-0.104-0.676l-0.112-0.497l-0.472-0.517
				l-0.269-0.196l-0.823-0.106l-0.263-0.11l0.238-1.113l0.429-0.652l-0.054-1.459l-0.195-0.493l-0.245-0.431l-0.23-1.03l0.034-1.232
				l0.262-0.728l0.087-0.903l-0.296-0.66l-0.367-0.338l-0.273,0.271l-0.248,0.411l-0.139,0.131l-0.953,0.09l0.617-1.007
				l-0.031-0.842l-0.114-0.515l-0.191-0.403l-0.153-0.866l-6.773-5.078l-1.147-0.646l-0.544-0.559l-0.478-0.264l-0.492,0.097
				l-0.296,0.147l-0.217-0.198l0.2-0.467l0.286-0.155l-0.676-0.802l-2.457-2.107l-0.534-0.288l0.383,0.558l1.833,1.655l0.282,0.473
				l-0.544,0.603l-0.579,0.253l0.161-0.678l-0.13-0.771l-0.211-0.428l-0.638-0.494l-0.995-0.414l-0.948-0.524l-0.191-0.557
				l-0.064-0.802l0.597,0.683l0.326,0.206l-0.654-1.064l-0.8-0.942l-1.758-0.851l-0.332-0.334l-0.498-0.714l-0.19-0.057l-0.35,0.128
				l-0.881-0.409l-0.873-0.519l-0.572-0.354l-2.582-3.004l-1.396-0.442l-0.112-0.37l-0.078-0.444l-0.254-0.309l-1.759-0.81
				l-2.207-0.527l-2.338-1.439l-2.038-0.428l-2.228-1.53l-1.314-1.153l-0.807-0.44l-0.738-0.112l-1.975,0.556l-2.212,0.055
				l-2.021-0.327l-1.61,0.095l-0.931-0.215l-1.278-0.703l-0.37,0.288l-0.329,1.262l-0.959-0.517l-0.811-0.691l-1.343-0.614
				l-2.554-0.405l-3.138-0.961l-1.643-0.254l-1.652-0.146l0.167,2.151l-0.097,1.026l-0.622,1.325l-0.687,0.846l-0.174,0.706
				l1.826,0.537l0.573,2.413l0.735,1.529l0.49,1.572l-0.006,1.086l-1.985,2.65l-2.046,0.321l-1.976,0.151l-0.847-1.604l-0.451-1.933
				l-1.58-1.019l-1.555-0.793l-0.714-0.136l-0.52-0.391l-0.317-2.158l-0.346-1.614l-0.444-0.599l-0.423-0.917l-0.404-0.363
				l-0.992-0.151l-2.407,2.315l-0.818,0.676l-0.278,0.004l-3.641-0.575l-0.953-0.477l-5.409-0.307l-1.534-1.373l-0.926-0.199
				l-1.043,0.417l-0.899,0.107l-1.286-0.268l-1.114,0.399l-2.467,0.42l-0.909,0.467l-0.957,0.825l-1.77,2.045l-0.247,0.975v1.203
				l0.371,1.676v1.918l-0.305,0.665l-0.564,0.322l-0.585,2.02l-0.545,1.086l-1.077,0.286l0.609-0.82l0.574-0.551l0.917-3.008
				l-0.133-0.93l-0.733-0.684l-0.456-0.72l-0.232-2.884l-0.231-1.528l-0.078-1.831l-0.743-0.608l-2.69-0.931l-1.243-0.691
				l-0.447-1.071l0.476-1.513l-0.033-1.16l0.252-0.985l0.407-0.801l0.1-1.132l-0.208-1.47l-0.203-1.069l-0.464-1.286l-0.333-0.584
				l-1.636-1.851l-2.812-1.907l-2.884-1.387l-2.556-0.47l-3.308-0.257l-3.422-0.024l-1.298,0.76l-2.456,0.058l-2.669,0.796
				l-2.688,1.253l-1.446,0.018l-2.871,0.568l-1.256,0.015l-3.238-1.961l1.031-0.266l0.403-0.277l-1.444-2.605l-0.768-0.932
				l-1.896-1.174l-0.77-0.092l-0.633,0.239l-2.509,1.294l-0.63,0.548l1.244-1.516l0.609-0.638l0.619-0.943l-0.143-0.596l-0.152-0.29
				l-2.337,0.127l-0.149-0.143l-0.493-0.813l-0.241-0.285l-1.557-0.86l-1.128-0.33l-1.17-0.035l-0.194-0.334l0.137-0.407
				l0.045-0.259l0.361-0.456l1.002-0.414l2.607-0.243l0.59-0.733l-0.082-0.765l-0.152-0.584l-0.853-1.392l-1.148-1.032l-2.327-1.248
				l-2.44-0.849l-4.198-0.413l-0.747,0.186l-0.584,0.511l-1.007,1.343l-2.284,3.875l-1.278,1.583l-1.164,0.857l-2.672,0.7
				l-0.49-0.159l-0.372-0.636l0.122-0.559l0.242-0.516l0.017-0.33l-0.133-0.647l0.074-0.349l0.268-0.015l0.63,0.454l0.59,0.062
				l1.516-0.714v-1.111l-0.402-0.652l0.2-1.561l-0.003-0.407l0.213-0.277l0.177,0.056l1.093,1.127l0.372-0.059l0.403,0.127
				l-0.973,2.699l0.466,0.007l1.25-1.269l0.856-1.24l0.902-1.6l0.107-0.837l-1.03-0.1l-6.743,0.606l-2.464,1.207l-0.763-0.253
				l-0.545-0.939l0.831-0.093l0.983-0.572l0.819-1.097l0.525-0.2l1.368,0.051l1.102,0.438l3.328,0.177l0.079-1.326l-0.735-0.419
				l-1.601-0.374l-0.99-0.645l-1.242-0.407l-2.735-0.575l-1.148-0.48l-2.701-0.439l-0.716-0.365l-6.306-0.329l-2.355-0.992
				l-0.904-1.013l-2.175-0.489l-0.434,0.014l-0.139,0.271l-0.103,0.423l1.39,1.842l0.045,1.265l0.416,0.626l-1.622,0.982
				l-1.104,0.372l-3.682-0.043l-0.554,0.426l-1.443,1.96l0.019,0.931l0.136,1.432h1.101l0.325-0.626l0.484-0.256l2.243,0.228
				l0.232,0.26l-0.753,0.413l-0.724,0.191l-0.897,2.116l-1.219,0.657l0.838,0.345l0.74,0.582l-0.121,2.559l1.056,1.963l0.197,0.905
				l-1.526,0.031l-1.353,0.607l-0.48-0.001l-0.887-1.52l-0.974-1.001l-0.478-0.08l-0.628,0.99l-0.898-0.55l-0.364,0.089
				l-0.501,0.414l-0.305,0.55l-0.228,0.853l-0.296,0.459l-0.039,0.621l0.45,0.28l0.325,0.066l0.941,0.448l-0.969,0.245l-0.252,0.291
				l-0.086,0.338l-0.731,0.458l0.251,0.441l0.311,0.341l0.078,0.348l-0.226,0.125l-0.615-0.409l-0.638-0.595l-1.011-1.225
				l-0.442-0.817l-0.866-0.764l-3.077-2.117l-1.369-0.67l-0.892-0.151l-1.411,0.278l-0.867,0.916l-1.461,0.39l-0.904,0.743
				l-0.482,1.003l-2.601,0.107l-1.795-0.752l-1.139-0.773l-1.28-1.584l-1.265-2.047l-0.154-0.172l-0.153-0.432l-0.228-1.011
				l-0.268-0.76l-0.398,0.428l-1.025,2.347l-0.426,1.151l-0.558,2.176l-0.413,1.819l-0.055,0.771l0.192,0.663l-0.559,0.558
				l-0.595,1.357l-0.898,2.667l-0.562,0.962l-0.712,0.826l-0.48,0.307l-0.589-0.051l-0.536-0.756l-0.287-1.75l-0.324-0.351
				l-0.384,0.981l-0.57-0.055l-1.109-0.727l-1.107-1.571l-1.145-0.724l-1.613-3.849l-0.717-1.417l-0.391-1.15l-0.918-0.122
				l-0.344-0.849l0.458-0.608l1.237-0.515l0.982,0.077l-0.732-1.538l-0.354-0.931l-0.384-0.506l0.141,1.04l-0.163,0.752
				l-0.332,0.586l-0.558,0.375l-2.396-4.65l-1.44-2.288l-0.803-0.829l-0.5-1.501l0.335-0.299l1.706,1.78l1.207,0.912l1.993,2.349
				l1.512-0.176l0.551-1.049l0.005-2.12l-0.566-1.749l-0.714-0.691l-2.459-0.145l-0.569-0.567l0.391-0.176l0.542-0.041l0.789-0.517
				l1.31-1.322l0.576-0.411l-0.092-1.03l-0.919-1.42l-1.488-0.197l-0.325-0.137l0.59-0.709l0.513-0.434l0.868-1.08l0.203-0.997
				l-0.179,0.073l-0.632-0.046l-0.181-0.43l0.074-0.761l-0.686-0.648l-0.622-0.436l-1.428-0.076l0.028-0.501l0.075-0.45l-0.606-0.33
				l-0.503-0.582l-0.125-0.529l-0.181-0.302l-0.932-0.548l-3.074-1.007l-0.33,0.294l-0.506,1.434l-1.24,1.504l-0.941-0.815
				l-0.186-0.082l-0.152-0.389l0.223-0.667l0.156-0.65l-0.212-0.464l-0.18-0.176l-0.638,0.469l-0.951,0.296l-0.406,0.452
				l-0.849,0.32l0.08-1.116l-3.559-2.936L485,243.014l-0.664-0.055l-1.6,0.658l-0.369,0.355l-0.594,0.964l-1.326-0.61l-0.325,0.454
				l-0.482,1.594l0.077,1.557l0.141,0.43l0.124,0.835l0.508,1.293l0.526,1.027l-0.216,0.238l-0.219,0.067l-0.262,0.429l-0.247,0.873
				l-0.448,1.246l-0.611,0.695l-0.698-0.145l-1.666-0.937l-0.383,0.166l-0.108,0.683l0.993,0.581l0.091,0.366l-0.259,0.231
				l-0.671,0.192l-1.202-0.041l-0.999-0.245l-0.623-0.94l-0.599-0.13l-1.707-0.017l-1.549,0.504l-1.73-0.656l-2.933,0.144
				l-0.742-0.114l-1.41-1.26l-2.016-0.794l-2.298-1.936l-0.233-1.821l0.349-1.475l1.289-0.002l0.789-0.254l-0.109-0.567
				l-0.175-0.299l-1.824-0.795l-4.95-0.144l-3.525-1.182l-5.021-0.41l-2.262,1.469l-3.275,0.346l-0.883,0.785l-1.503,0.434
				l0.126,1.087l0.746,0.835l0.363,0.169l0.395,0.327l-0.247,0.291l-0.278,0.13l-0.546,0.669l-0.349,0.616l0.098,1.354l-0.167,1.31
				l-0.544,1.81l-0.459,0.794l-0.416,1.065l0.358,0.98l0.404,0.406l1.035,0.494l0.355,0.334l-0.205,0.285l-1.528-0.332l-0.547-1.06
				l-0.121-0.575l-0.132-0.896l0.519-0.979l0.529-0.659l0.456-1.57l0.056-1.45l0.015-3.021l-0.928-0.688l-0.52-1.034l0.899-1.882
				l0.225-0.996l-0.388-0.922l-0.63-2.016l-0.645-1.193l-0.424-0.499l-0.429-0.256l0.449,1.975l-0.362,1.002l-0.263,0.389
				l-1.714,0.541l-1.096,0.033l-1.49-0.561l-1.749-1.28l-0.437-0.891l-0.309-1.31l1.005-0.57l0.393-0.373l-0.907-0.297l-0.913-0.086
				l-0.324,1.784l-0.59-0.134l-2.856-1.092l-0.77,0.362l-0.931,1.001l-0.412,0.772l-0.47,1.261l0.178,0.876l0.199,0.328l1.468,0.216
				l1.288-0.27l1.449-0.835l0.333,0.313l0.299,0.45l-0.411,0.642l-1.495,0.928l-2.486,2.394l-0.946,0.281l-1.327-0.51l-0.717,1.336
				l-0.329,0.322l-2.231,0.898l-0.971,0.133l-0.286,0.668l-0.583,0.12l-0.649,0.335l-1.088,0.937l-1.655,0.15l-1.127-0.212
				l-2.735,0.567l-0.706,0.492l-0.461,0.683l-0.213,0.869l-0.403,0.772l-1.555,1.668l-1.324,0.685l-1.122,0.189l1.079-0.938
				l1.233-1.743l2.218-5.209l2.127-0.342l0.498-0.696l1.617-3.243l0.451-0.485l2.143-0.061l1.883-1.064l3.796-5.275l1.889-0.891
				l1.299-1.274l0.232-0.631l0.206-0.837l-0.195-0.507l-0.113-0.463l1.672-0.911l0.64-1.411l2.251-1.331l1.762-1.801l2.468-1.34
				l1.404-1.87l3.178-2.699l2.986-4.701l0.488-2.706l-0.726-0.888l-0.878-0.559l-0.491-1.342l-0.353-0.158l-0.893,0.846l-0.98-2.899
				l-1.2-1.633l0.057-0.239l0.133-0.11l0.575,0.257l2.155,2.41l1.15,0.364l0.336,0.371l0.209,0.609l-0.136,1.008l0.354-0.077
				l0.227-0.422l0.559-1.96l0.53-2.669l-0.06-1.16l-1.272,0.527l-0.59-3.95l-0.27-1.208l-0.403-1.325l-0.809-0.117l-0.425,0.335
				l0.339,0.446l0.365,0.74l-0.244,0.753l-0.205,0.34l-0.988,1l-0.705,0.091l0.284-0.425l0.332-0.947l-0.242-1.037l-0.253-0.581
				l-0.28-3.014l-0.895-0.456l-0.504-0.487l-0.669,0.197l-0.867,0.802l0.321-0.738l0.335-1.106l-0.674-1.359l-0.661-0.936
				l-0.805-0.352l-0.902-1.208l-1.204-0.685l-2.789-0.669l-2.126,0.88l-2.653-0.706l-3.17,0.55l-1.241,0.011l-0.739-0.346
				l-0.666,0.366l-0.339,1.088l-0.206,1.704l-0.781,0.882l-0.425,0.227l-2.023-0.26l-1.441,0.817l-0.616-0.642l-1.169,0.045
				l-0.125-1.439l0.697,0.06l0.404,0.24l1.31-2.949l1.081-1.734l1.039-1.996l-0.654-1.237l-1.463-0.837l-0.684,0.05l-0.341,0.348
				l-1.589-0.659l-0.838,0.05l-1.402,0.922l-0.477-0.076l-0.287-1.919l-1.412,0.162l-4.847-0.184l0.526-0.6l2.551-0.82l2.049-1.235
				l1.516-2.25l1.411-0.764l-0.33-1.136l-0.386-0.824l-0.799-0.729l-1.74-0.482l-1.49-0.916l-0.655-1.161l-2.729-1.593l-0.738,0.001
				l-1.968,2.001l-0.995-0.185l-0.866,0.295l-2.261,2.375l-4.737,6.146l-0.974,1.882l-0.465,1.413l-0.849,0.735l-0.364,1.723
				l0.063,1.49l0.38,0.782l0.396,1.462l-0.404,1.67l-0.339,1.09l0.323,0.488l0.912-0.096l2.042,0.933l-0.373,0.857l-1.245-0.735
				l-1.084,0.031l-0.941-0.89l-2.26,0.855l-1.677-0.2l-1.558,0.343l-3.065-0.708l-0.277,0.536l0.711,0.923l0.539,0.857l1.59,2.004
				l0.677,0.637l0.905,1.892l0.112,3.694l-0.493,0.882l-0.556,1.23l-0.297,0.225l-0.428-0.081l0.695-0.866l0.377-1.856l0.351-1.296
				l-0.464-0.886l-0.207-0.078l-0.229-0.487l-1.628-1.236l-0.878-0.544l-0.926-0.299l-0.474-0.34l-1.387,1.13l-0.639,0.257
				l-0.757,0.592L369.565,204l-1.078,0.192l-0.139,0.88l-0.6,0.875l-0.644-0.953l-0.63,0.264l-1.415,1.568l-1.657,0.709l0.177-0.541
				l0.272-1.22l-0.399-0.28l-2.488,1.421l-0.827,0.956l-0.393-0.353l1.443-2.098l0.388-1.3l-0.675-0.562l-1.479-0.436l-0.952-0.042
				l-1.391,0.471l-2.007-0.691l-0.298,0.792l-0.514,0.093l-1.24-0.375l-1.125,0.402l-0.843,0.849l-1.253-0.839l-0.435,0.036
				l-0.669,1.312l-0.578-0.885l-0.49,1.716l0.138,1.241l0.417,0.129l0.356-0.181l0.207-0.566l0.268-0.257l0.988,1.029l0.301-0.562
				l0.427-0.419l0.49,0.619l2.035-0.671l-0.352,0.826l-2.278,1.045l-4.107,1.327l-0.846,0.519l-2.437,0.457l-1.586,1.297
				l-2.059,0.002l-3.555,1.021l-2.557,2.303l-1.235-0.205l-2.503,1.738L328.744,218l-3.609,2.731l-2.171-1.052l-0.715,0.372
				l-0.365,0.964l0.076,0.752l0.874-0.07l0.636,0.332l0.781,0.66l-0.209,1.209l-1.637,2.689l-0.776,1.005l-0.917,0.582l-1.952-2.204
				l-0.354,0.971l-0.263,0.48l-0.772-0.197l-0.389,1.561l1.409,0.271l1.342,0.703l1.19,1.026l0.842,1.179l0.919,0.745l0.536,0.639
				l-1.439,0.619l-1.011-1.431l-0.548-0.484l-0.618-0.095l-0.923,0.437l-0.787,1.722l0.765,0.586l1.705,0.57l0.546,0.772l2.223,4.99
				l0.554,0.508l0.718,0.212l0.295,0.338l-0.874,0.85l-0.326,0.793l-0.756,1.381l-3.225,0.709l-0.959,0.523l-0.272,0.237
				l-0.405,0.508l-0.26,0.447l-0.125,1.004l0.263,0.656l0.654,0.609l2.573,2.715l-0.165,0.284l-0.705-0.503l-0.895-0.827
				l-0.91-1.154l-1.214-0.82l-0.068-0.676l-0.043-1.012l0.035-0.313l0.115-0.516l1.158-1.308l1.178-0.636l1.439-1.496l1.439-1.664
				l-0.296-0.57l-0.297-0.411l-1.307-0.112l-2.654,0.583l-1.595,0.55l-0.707,1.349l-1.075,0.202l-0.533,0.031l-1.473-0.67
				l-1.389,0.632l-3.254,0.549l-0.53,0.308l-7.492,0.118l-1.509,0.283l-3.84,1.106l-0.093,0.817l0.148,0.625l-0.597,0.917
				l-0.261,0.862l0.091,1.015l0.024,0.88l0.134,1.138l0.235,1.032l0.559,0.549l0.515,0.356l0.365,1.126l-0.294,1.303l-0.427,1.49
				l-0.083,0.689l0.275,0.933l0.339,1.852l0.127,0.457l1.175,1.415l0.801,0.442l1.316,0.102l0.896,0.359l1.304,0.871l0.39,0.397
				l0.111,0.374l0.31,1.5l0.167,0.469l1.414,2.056l0.476,0.312l1.93,0.392l0.608,0.656l0.841,1.988l0.083,0.47l0.077,0.762
				l-0.09,0.695l-0.085,0.402l-0.318,0.638l-0.831,2.6l-0.497,2.315l0.792,1.535l1.062,2.944l0.314,1.23l0.367,1.641l-0.154,1.039
				l-0.176,0.622l-0.706,0.943l-0.883,0.308l-0.952,0.574l0.088,0.713l0.164,0.817l-0.097,0.607l-0.125,0.211l-0.519,0.06
				l-0.453-0.207l-0.387-0.631l-0.368-0.814l0.26-0.881l0.769-1.558l0.479-2.247l0.122-1.492l-0.032-1.584l-0.177-1.059
				l-0.612-0.788l-0.569,0.169l-0.63,0.691l-0.611,2.632l-0.838,1.912l-0.117,0.788l0.019,0.682l-0.063,0.447l-0.168-1.499
				l-0.084-1.128l0.467-1.421l0.283-1.323l-0.087-0.951l-0.333-1.569l0.066-0.78l0.098-0.498l0.199-2.236l0.738-0.444l1.842-1.722
				l0.256-0.428l0.558-1.517l0.26-0.545l0.295-0.908l-0.551-0.722l-0.522-0.389l-0.99-0.214l-0.913,0.077l-2.027,0.715l-1.813-0.126
				l-0.652-0.417l-2.841-3.118l-0.179-1.18l-0.227-0.491l-0.274-0.129l-0.977-0.774l-2.255-0.99l-2.306-2.248l-4.073-0.204
				l-1.116,0.251l-1.115,0.697l-1.019,1.416l-0.468,0.395l-0.666,0.131l-0.138,0.504l-0.125,0.689l0.355,0.508l1.248-0.6
				l1.022,0.314l0.54,0.666l0.397,1.296l-0.197,0.631l-1.775,0.984l-0.984-0.079l-2.122-2.264l-0.823-0.404l-1.95,0.379
				l-1.291,1.111l-0.397,0.227l0.308,1.133l0.487,2.023l0.418,1.202l0.525,0.589l1.899,1.446l1.051,0.507l1.593,1.326l0.978,0.148
				l0.875-0.318l1.319,0.781l0.754,2.406l0.455,0.824l0.417,0.42l0.591,0.238l0.345,0.032l0.369-0.314l0.847-0.064l-0.297,0.688
				l-0.318,0.218l-1.805,0.291l-0.89-0.246l-1.094-0.743l-2.075-2.426l-2.578-0.176l-0.287,0.713l-0.811-0.996l-2.738-0.222
				l-1.634-0.638l-1.741-1.025l-0.147-0.498l-0.077-0.701l0.593-0.88l0.223-0.543l0.15-1.65l-1.109-2.195l0.115-2.028l0.523-0.34
				l0.675-2.642l0.408-0.872l0.217-0.301l0.204-0.608l-0.218-0.767l-0.203-0.462l-0.229-1.075l0.05-0.791l0.002-0.996l-0.557-1.509
				l-0.458-1.63l-0.941-0.823l-0.911-0.016l-0.335,0.226l-0.339,0.39l0.477,1.488l0.482,1.318l0.227,1.023l0.159,1.845l-0.031,2.25
				l-0.159,0.908l-0.265,0.77l-0.815,0.951l-1.366,1.129l-0.771,0.549l-1.612,0.602l-1.161,0.971l-2.539,5.506l0.279,0.812
				l0.931,0.887l0.616,0.759l0.3,0.634l0.672,1.981l2.513,5.486l0.14,0.978l-0.592,1.731l-1.168,2.225l-0.465,1.244l-1.093,4.719
				l-0.078,1.198l0.447,1.124l0.735,1.404l0.252,1.062l-0.499,2.694l0.262,0.67l0.612,0.348l1.671-0.365l1.96,0.657l1.035-0.313
				l1.589-1.49l0.612-0.162l1.907,0.205l2.793,1.434l2.963,1.922l0.598,0.645l0.8,0.026l0.583,3.26l0.527,1.756l0.225,1.24
				l0.158,1.379l-0.55,0.289l-0.483,0.144l-0.399,0.373l-0.559,2.122l-0.069,1.132l0.296,1.811l2.484,0.84l1.725,0.447l1.214,0.09
				l0.211,0.206l0.151,0.273l-1.443,0.121l-2.62,0.219l-0.927-0.126l-0.418-0.22l-0.416-0.618l-0.796-0.624l-0.306-0.423
				l-0.654-0.49l0.322-1.868l0.054-4.355l-0.098-1.812l-0.549-1.499l-1.633-2.154l-0.561-1.448l-0.636-0.972l-0.62-0.16l-0.905,0.19
				l-2.246,0.899l-2.015,0.474l-2.364,1.324l-0.427,1.102l-0.388,2.821l0.519,1.381l0.525,0.991l0.479,1.685l0.154,1.015
				l0.039,1.019l-0.077,1.506l-0.405,0.82l-2.609,3.183l-0.382,0.973l-0.447,2.713l-0.395,0.996l-1.208,1.484l-0.746,0.597
				l-4.007,2.692l-0.145,0.59l-0.27,1.889l-1.101,0.849l-0.653,0.071l-1.524-0.937l-0.9-0.278l-0.922-0.078l-3.495,0.262
				l-1.548-0.638l-1.22-0.901l-1.253-0.284l-0.944-0.739l-0.218-0.677l-0.229-0.907l-0.174-0.469l-0.163-0.242l0.283-0.303
				l0.603-0.14l2.266,0.155l0.593-0.34l0.31,0.17l0.629,0.831l0.822,0.752l0.696-0.126l0.587-0.619l0.224-0.005l0.26,0.098
				l-0.533,0.487l-0.544,0.357l-0.146,0.225l-0.113,0.493l0.775,0.586l0.709,0.318l0.93-0.312l0.547-0.614l1.198-0.898l0.857,0.039
				l0.05-0.847l-0.443-1.304l-0.363-0.913l1.314,0.242l0.777-0.752l3.238-6.503l1.537-1.244l0.512-0.808l0.37-1.126l0.091-1.245
				l-0.19-1.364l0.044-1.052l0.551-1.322l0.862-1.601l0.548-0.603l-0.079-0.6l-0.11-0.497l-1.55-1.573l-1.642-1.297l-0.579-0.715
				l-0.441-1.131l-0.214-1.353l-0.001-0.896l0.131-2.744l0.253-1.302l-0.071-3.85l-0.302-4.801l-0.261-1.312l0.401-0.907
				l0.396-0.747l0.203-0.697l0.137-4.778l-0.118-1.858l-0.534-2.508l-2.177-2.094l-0.919-2.046l0.074-0.736l0.12-0.501l0.944-0.839
				l0.649-1.189l0.414-1.746l0.864-2.665l0.218-0.94l0.557-3.741l0.15-2.005l0.107-3.018l-0.773-0.774l-0.813-0.671l-1.498-0.567
				l-0.743,0.137l-1.355-1.212l-0.507-0.171l-3.663,0.344l-2.095-0.159l-1.234,0.274l-0.647-0.035l-0.404-0.186l0.059-0.506
				l0.218-0.362l-0.064-0.313l-0.357-0.065l-0.956,0.391l-1.528,4.188l-0.908,4.018l-0.963,5.371l-0.599,2.237l-0.868,2.352
				l-1.343,1.846l-1.811,1.861l-1.16,0.871l-1.547,0.885l-0.648,1.917l-0.557,0.783l0.23,0.53l0.67-0.294l-0.383,1.35l-0.402,0.819
				l0.04,0.475l0.117,0.61l0.521,0.278l1.391-0.53l0.296,0.516l0.318,0.786l-0.165,3.115l-0.39,2.647l-0.045,0.965l0.221,0.617
				l0.181,0.811l-0.411,0.985l-0.327,0.317l-0.618-0.11l-0.409,2.172l-0.127,1.28l0.005,1.01l0.157,0.624l0.245,0.687l0.162-0.532
				l0.13-0.733l0.435-0.476l2.427,1.361l0.651,0.675l1.004,0.619l0.291,0.731l0.193,2.265l1.03,2.053l0.814,1.216l0.507,0.478
				l0.447,0.121l0.701-0.468l0.937,0.067l-0.504,1.595l-0.845,2.988l-1.41,2.583l-0.577,0.401l-0.929-1.05l-1.848-1.298
				l-0.395-0.777l-2.126-2.08l-0.637-1.434l-1.066-0.222l-1.476-0.673l-0.219-0.162l-1.218-0.906l-1.179-0.493l-0.334-0.673
				l-0.901-0.5l-0.872-0.34l-1.28-0.837l-0.587,0.269l0.14-0.95l-1.458-1.356l-1.742-1.225l-3.595-1.748l-3.166-0.847l-3.732-0.25
				l-3.272-1.109l-0.463,0.054l-0.417,0.327l-1.102,1.612l-1.224,0.496l-0.459,0.768l0.723,1.658l1.419,4.247l0.841-0.429
				l0.325,1.925l-0.513,1.104l-0.77,1.298l-0.644,0.695l-1.426,0.351l-1.146-0.082l-0.134,1.207l0.331,1.119l-0.08,0.463
				l-0.111,0.583l-0.167,0.305l-0.136,0.184l-0.441,0.338l-0.527,0.006l-1.272-0.578l-0.918-0.519l0.057-2.036l0.478-0.892
				l0.329-0.205l0.313-0.357l-0.651-1.332l-0.478-0.561l-0.218-0.92l-0.011-0.404l-0.6,0.027l-2.45,1.057l-0.507,0.989l-0.278-0.67
				l-3.159,2.969l-1.377,1.039l-0.943-0.151l-1.253-0.621l-1.494-0.06l-1.006-0.295l-0.517,0.138l-1.08,0.729l-1.116,0.096
				l-1.158,1.038l-0.988,1.252l-0.268,2.014l-0.621,0.206l-0.68-1.038l-0.369-0.247l-0.356,0.223l-0.699,0.103l-0.579,0.085
				l-0.57,0.37l-0.235-0.045l-1.728-0.333l-0.485,0.033l-0.619-0.124l0.143-0.518l0.213-0.37l0.972-0.28l0.535-0.417l0.604,0.234
				l0.44-0.623l-0.057-1.198l-0.689-1.151l0.325-0.893l0.249-1.106l0.165-0.124l0.179-0.389l-0.221-0.324l-0.526-0.161l-0.003-0.275
				l0.333-0.23l2.176-0.46l0.498-0.333l-1.324-0.133l-1.664,0.09l-1.687,1.005l-3.162,2.175l-1.473,1.465l0.395-0.024l0.499,0.211
				l0.423,1.022l0.325,0.261l-0.23,0.676l-0.844,0.525l-0.339,0.358l-0.323,0.141l-0.274-0.132l-0.328-0.274l0.191-0.522
				l0.251-0.481l-0.679-0.858l-0.317-0.11l-0.264,0.03l-1.639,0.738l-1.217,0.871l-1.117,0.46l-1.039,0.157l-0.605,0.379
				l-1.237,1.162l-0.784,0.502l-1.309,1.281l-3.365,2.248l-0.873,0.191l-0.491-0.183l-0.374-0.301l-0.255,0.25l0.291,0.542
				l0.499,1.096l-0.193,0.569l-0.778-0.157l-1.627,0.512l-1.751,0.753l0.034,0.781l0.111,0.686l-0.299,1.116l-0.309,0.899
				l-0.255,2.573l-0.231,0.767l-0.691,0.51l-3.494,1.15l-0.6,0.072l-0.26,0.207l-0.19-0.207l-0.654-0.262l-0.927-0.008l-0.425-0.106
				l-0.436-0.418l-0.576-1.085l-0.825-2.185l-1.836-1.11l-0.865-0.742l-0.161-0.702l0.161-0.727l1.885-2.401l0.67-0.785l2.799-0.694
				l1.105-0.064l1.134-0.288l-0.03-1.402l-1.101-1.719l-1.176-2.013l-1.155-2.215l-1.616-0.79l-1.913-0.375l-3.915,0.432
				l-0.552-0.084l-2.497-1.557l-0.255-0.022l-0.347,0.099l0.107,0.448l0.2,0.324l3.317,3.321l0.155,0.859l0.094,1.159l-0.055,0.487
				l0.077,0.48l-0.027,0.876l-0.819,3.731l-0.781,2.624l-0.263,1.236l-0.057,0.843l0.316,0.737l0.95,0.238l0.942,0.754l0.486,1.061
				l0.11,0.735l0.034,1.578l0.224,1.347l-0.747,2.071l-0.415,0.809l-0.536,1.855l0.209,1.312l-0.056,0.515l-0.121,0.596l-0.38-0.438
				l-0.315-0.523l-0.435-0.468l-0.463-0.171l-0.491,0.125l-0.355,0.25l0.036-0.536l0.446-0.833l-0.216-0.433l-0.227-0.324
				l-1.378-1.018l-0.985-0.059l-0.865,0.104l-0.886-0.121l-0.656-0.65l-0.595-0.351l-0.447-0.053l-0.55,0.583l-1.313,2.232
				l-1.323,1.458l-1.733,1.093l-1.308,0.354l-0.359,0.26l-0.775,1.269l-0.802,0.973l-2.217,1.617l-0.154,0.662l-0.139,0.906
				l0.213,1.02l0.426,0.985l1.068,1.975l0.601,0.668l0.408,1.042l0.302,1.197l-0.162,0.242l-0.884-0.296l-0.633,0.135l-0.907,0.814
				l-0.068,0.346l-0.325,0.801l-0.826,0.065l-2.229-1.449l-1.909-0.739l-0.313-0.046l-0.429-0.366l-0.13-0.304l-0.797,0.059
				l-0.488-0.034l-0.461-0.246l-2.087-2.352l-1.679-0.886l-0.393-0.017l-0.726,0.243l-0.42,1.903l-0.577,0.53l-0.513-0.033
				l-0.027,0.932l0.219,0.573l0.197,0.411l0.629,0.662l1.176,1.979l0.621,0.81l0.459,0.307l0.607,0.043l1.349-0.234l0.446,0.307
				l0.478,0.462l0.101,1.128l0.369,1.152l0.037,0.645l-0.445,0.757l-1.443,0.549l-0.837,0.787l-0.301-0.033l-1.724-0.912
				l-1.134-0.351l-1.512-0.57l-0.273-0.312l-0.674-1.533l-1.494-1.46l-0.672-0.43l-0.932,0.316l-0.642-0.158l-1.078-0.778
				l-0.719-1.205l-0.049-1.483l0.205-0.324l0.203-0.176l-0.519-0.449l-0.024-1.147l-0.102-0.749l-0.574-1.872l-0.587-1.135
				l-0.561-1.223l0.597-0.634l0.31-0.556l0.433-1.615l0.083-0.55l0.184-0.548l0.07-0.508l-0.03-0.51l-0.41-0.926l-1.266-1.883
				l-1.245-1.038l-2.367-1.031l-0.654,0.058l-0.24-0.15l0.505-0.187l0.504-0.407l0.272-0.629l-0.6-0.312l-0.487-0.14l-0.815-0.514
				l-0.149-0.46l0.18-0.327l-0.19-0.831l-1.092-0.265l-0.288-0.189l-0.022-0.28l-0.741-0.908l-0.966-0.957l0.162-0.969l-0.695-0.71
				l-0.603-0.505l-0.948-0.185l-0.38-0.353l2.188,0.098l2.3,0.734l-0.196,0.285l-0.163,0.44l0.669,1.254l0.643,0.709l1.439,0.873
				l0.177,0.003l0.314-0.223l0.712,0.37l0.581,0.485l1.095,0.037l1.325,0.57l-0.09,0.234l-0.151,0.181l0.375,0.685l0.554-0.101
				l0.929-0.561l2.339,1.983l0.648,0.356l3.729,1.01l1.719,0.094l0.927,0.226l1.349,0.511l1.445,1.023l1.182,0.364l2.154,0.333
				l1.112-0.049l2.754-0.674l3.53-1.803l1.814-1.585l2.894-4.146l0.375-0.972l0.342-2.298l0.019-0.984l-0.421-0.099l-0.554-0.542
				v-1.339l-0.317-0.656l-0.409-3.058l-0.868-0.338l-0.476-0.355l-0.567-0.179l-0.629-0.484l-0.755-1.266l-0.741-0.849l-0.607-1.149
				l-0.375-0.423l-0.273-0.132l0.189,0.582l0.145,0.622l-1.103-0.153l-3.197-2.953l-0.546-0.232l-0.212,0.268l-0.982-0.396
				l-0.315-0.7l-2.719-3.282l-4.823-3.738l-3.297-2.286l-2.463-1.023l-0.245,0.121l-0.249,0.425l-0.721,0.117l-0.631-0.084
				l-2.217-0.915l-0.535-0.126l-2.363,0.036l-0.248,0.258l-0.83,1.938l-0.444,0.391l-0.833,0.358l0.239-0.584l0.57-0.426
				l0.369-1.411l0.022-0.586l0.198-0.773l-0.04-0.615l-0.302-0.199l-0.559,0.204l-1.201,0.744l-0.162-0.197l0.345-0.767
				l-0.092-0.303l-0.503,0.115l-1.071-0.354l-1.124,0.128l-0.204-0.93l-0.734-0.526l-0.302-0.447l0.369-0.517l2.504,0.851
				l0.697,0.049l0.345-0.304l0.078-0.552l-0.02-0.645l-0.287-0.371l-1.632-0.685l-0.753-0.782l-1.765-1.072l-0.066,0.502l0.265,0.99
				l-0.141,0.319l-0.514-0.278l-0.394,0.204l-0.53,1.188l-0.517,0.3l-0.409,0.092l-1.748-0.996l-0.78-0.178l0.236,1.646
				l-0.008,0.571l-0.111,0.554l-0.156,0.283l-0.312,0.123l-0.752-0.051l-1.022-0.646l-0.66-0.611l-0.205-0.025l-0.088,0.074
				l0.159,0.613l-0.042,0.469l-0.1,0.51l-0.138,0.461l-0.194,0.388l-0.404,0.498l-0.7,0.393l-1.927,0.765l-0.152,0.337l-0.621,2.117
				l-0.169,0.309l-0.227,0.261l-0.662,0.339l-0.29,0.149l-0.897,0.588l-0.547,0.395l-0.659,0.29l0.171,0.384l1.095,0.081
				l0.168,0.109l0.122,0.197l0.021,0.314l-0.111,0.508l-1.183,2.782l-0.037,0.583l0.388,1.614l0.542,1.89l1.638,0.836l1.218,0.652
				l0.782,1.535l1.289,2.011l0.684,0.747l0.038,0.232l-0.203,1.373l-0.827,1.37l-0.773,1.149l-0.8,1.378l-0.626,1.169l-0.678,1.395
				l-0.078,0.45l-0.012,0.425l0.116,0.469l0.868,1.688l0.338,0.858l0.404,0.925l0.347,1.004l0.201,0.896l0.348,0.87l0.216,0.444
				l0.359,0.621l0.433,0.92l0.144,0.727l0.654,2.508l0.066,0.636l-0.032,0.469l-0.287,0.116l-0.635,0.074l-0.688,0.308l-0.035,0.102
				l0.449,0.586l-0.396,0.996l-0.058,1.42l-0.423,0.742l-0.04,0.173l0.019,0.144l0.075,0.112l0.784,0.198l0.068,0.2l0.004,0.415
				l-0.07,0.383l-0.394,0.284l-0.423,0.419l-0.094,0.385l0.015,0.343l0.144,0.58l0.278,0.673l0.354,0.422l1.256,0.399l0.162,0.33
				l0.069,0.451l-0.026,0.44l-0.584,0.877l0.005,0.337l0.24,0.813l0.287,0.775l1.224,0.836l0.422,0.458l0.112,0.364l0.062,0.585
				l-0.008,0.633l-0.096,0.561l-0.384,0.721l-0.889,1.418l-0.894,0.549l-0.055,0.119l0.277,0.451l1.575,1.801l1.026,0.839
				l1.385,1.129l0.894,0.888l0.289,0.637l0.387,0.707l0.435,0.576l0.313,0.5l0.118,0.32l-0.011,0.345l-0.419,1.036l-0.238,0.798
				l-0.42,1.167l-0.429,0.811l-1.088,1.473l-1.605,1.823l-0.372,0.549l-0.751,0.954l-1.286,1.904l-0.333,0.419l-1.054,1.508
				l-0.48,0.477l-0.377,0.447l-1.044,1.413l-1.121,1.068l-1.102,0.989l-0.33,0.499l-0.411,0.381l-0.49,0.361l-0.207,0.202
				l-1.107,1.342l-1.537,1.852l1.655-0.307l1.446-0.938l0.282,0.219l0.316,0.366l-0.045,0.6l-0.077,0.451l-0.567-0.427l0.132,0.503
				l0.525,0.945l0.735,0.382l1.112,1.223l1.306,0.135l0.863-0.226l0.658,0.058l0.655,0.647l0.453,0.82l0.361,0.206l0.488,0.393
				l-0.068,0.457l-0.149,0.265l-1.963-0.709l-2.266-0.381l-0.295,0.335l-0.285,0.513l-0.138,0.404l-0.149,0.224l-0.348,0.145
				l-0.517,0.045l-0.624-0.098l-0.371-0.271l-0.279,0.304l-0.131,0.689l-0.386,0.357l-0.53-0.276l-0.352-0.531l-0.318,0.043
				l-0.19,0.487l0.14,0.666l0.076,0.797l-0.223,0.595l0.231,0.265l0.292,0.426l0.078,0.244l-0.099,0.143l-0.29,0.121l-0.066,0.131
				l-0.129,0.222l-0.339,0.04l-0.176,0.164l-0.209,0.719l-0.398,1.186l-0.589,0.9l-0.471,0.491l-0.211,0.377l-0.131,0.452
				l-0.031,0.452l0.452,2.473l-0.006,0.444l-0.106,0.455l-0.077,0.463l0.064,0.401l0.297,0.683l0.317,1.017l0.127,0.647l0.211,0.237
				l0.202,0.174l0.043,0.109l-0.007,0.114l-0.105,0.128l-0.914,0.338l-0.118,0.286l-0.099,0.318l-0.399,0.471l-0.122,0.438
				l-0.076,0.503l-0.01,0.179l0.511,0.033l0.179,0.128l0.12,0.63l0.581,0.496l0.538,0.41l0.138,0.189l0.042,0.365l-0.035,0.426
				l-0.068,0.22l-0.225,0.254l-0.197,0.641l-0.027,0.608l-0.31,1.05l0.07,0.019l0.652-0.189l0.185,0.108l0.142,0.232l0.046,0.656
				l0.214,0.295l0.218,0.46l0.069,0.357l0.414,0.426l0.033,0.275l0.254,0.969l0.097,0.557l0.045,0.43l-0.124,0.545l-0.11,0.369
				l0.59,0.675l0.139,0.026l0.329-0.265l0.065-0.018l0.68-0.023l0.317,0.234l0.233,0.458l0.217,0.366l0.234,0.099l0.662-0.461
				l0.366-0.152l0.241,0.005l0.848,0.412l0.399,0.225l0.091,0.205l0.008,0.24l-0.107,0.358l-0.086,0.387l0.259,0.458l0.3,0.309
				l0.641-0.511l0.236-0.143l0.258-0.005l0.346-0.19l0.251-0.287l0.24-0.1l0.458,0.068l0.828-0.067l0.965,0.449l0.083,0.139
				l0.483,0.526l0.168,0.262l0.16,0.083l0.257,0.255l0.343,0.161l0.239-0.049l0.114,0.085l0.107,0.202l0.008,0.342l-0.035,0.976
				l-0.168,0.282l-0.177,0.229l-0.046,0.177l0.017,0.215l0.273,0.42l0.353,0.65l0.082,0.377v0.282l-0.481,0.827l-0.16,0.194
				l-0.11,0.407l-0.058,0.412l0.033,0.171l0.804,0.655l0.595,0.354l0.134,0.174l0.011,0.107l-0.316,0.7l-0.031,0.189l0.477,0.289
				l0.263,0.456l0.233,0.742l0.453,0.708l0.975,0.626l0.709,0.408l0.147,0.186l0.051,0.22l-0.054,0.484l-0.183,0.587l-0.125,0.327
				l0.289,0.135l0.743-0.036l0.903,0.115l1.083,0.645l0.003,0.29l-0.112,0.263l0.075,0.277l0.118,0.235l0.937,0.719l0.09,0.208
				l0.016,0.348l-0.025,0.255l-0.26,0.053l-0.288,0.12l-0.471,0.305l-0.187,0.431l-0.761,0.594l-0.472,0.268l-0.375,0.012
				l-0.892-0.121l-0.313-0.293l-0.13-0.269l-0.344-0.121l-0.456-0.011l-0.629,0.046l-0.128,0.081l-0.103,0.331l-0.268,0.563
				l-0.191,0.317l0.157,0.194l0.252,0.405l0.389,0.513l0.4,0.455l0.129,0.279l-0.006,0.199l-0.191,0.233l0.029,0.469l0.389,0.618
				l-0.131,0.098l-0.039,0.756l0.003,0.805l0.105,0.194l0.21,0.16l0.176,0.294l0.295,0.669l0.021,0.174l0.082,0.011l0.404,0.201
				l0.426,0.171l0.294,0.011l0.35-0.039l0.41-0.228l0.286-0.218l0.348-1.116l0.122-0.16l0.192-0.088l0.314-0.009l0.596,0.208
				l0.698,0.187l0.405-0.026l1.078-0.595l0.602-0.093l0.714,0.14l0.7,0.008l0.529-0.086l0.362,0.207l0.448,0.453l0.404,0.674
				l0.424,1.241L94.144,463l0.021,0.272l-0.102,0.175l-0.607,0.169l-0.512,0.092l-0.025,0.238l0.136,0.258l0.235,0.377l0.036,0.484
				l-0.012,0.446l0.101,0.392l0.196,0.16l0.025,0.197l-0.227,0.241l-0.063,0.149l0.088,0.079l1.114,0.047l0.545,0.234l0.414,0.213
				l0.208,0.02l0.47-0.137l0.527-0.086l0.32-0.012l0.124,0.157l0.099,0.413l0.185,0.412l0.173,0.117l0.309-0.02l0.185,0.02
				l0.099,0.157l-0.111,0.235l0.024,0.254l0.136,0.313l0.161,0.722l0.148,0.214l0.099,0.273v0.311l-0.124,0.272l-0.086,0.213
				l0.086,0.486l0.333,0.542l0.248,0.135l0.197,0.484l0.359,0.154l0.531-0.405l0.408-0.213l0.509,0.118l0.471,0.076l0.317,0.276
				l0.234,0.38l0.271,0.211l0.273-0.11l0.568,0.11l0.259,0.309l0.259,0.173l0.334-0.25l0.272-0.309l0.995-0.323l0.618-0.081
				l0.173-0.063l0.364-0.231l0.382-0.154l0.346,0.042l0.34,0.479l0.351,0.331l0.099,0.521l0.43,0.714l1.067,0.975l0.419,0.297
				l0.284-0.052l0.149-0.078l0.069-0.102l0.064-0.476l0.135-0.176l0.217-0.006l0.835,0.594l0.437,0.064l0.415,0.012l0.559,0.46
				l0.614,0.4l0.475,0.042l0.378-0.157l0.259-0.095l0.161,0.153l0.148,0.343l0.247,0.267l0.284,0.076l0.409,0.018l0.71,0.517
				l0.668,0.525l0.417,0.029l0.354-0.154l0.313-0.04l0.217,0.133l0.062,0.227l-0.161,0.304v0.436l0.296,0.417l0.01,0.408
				l-0.085,0.369l-0.168,0.34l-0.406,0.466l-0.376,0.434l-0.565,0.181l-0.316,0.189l0.083,0.319l0.207,0.297l0.479,0.24l0.543,0.174
				l0.063,0.193l-0.083,0.096l-0.349,0.09l-0.482-0.092l-0.16,0.168l-0.223,0.281l-0.148,0.503l-0.111,0.466l0.523,0.127l0.305,0.19
				l0.094,0.382l0.109,0.424l0.032,0.382l-0.174,0.186l-0.01,0.189l0.082,0.093l0.224,0.043l0.173,0.084l0.013,0.201l-0.329,0.452
				l-0.308,0.861l-0.166,0.458l0.013,0.496l-0.186,0.275l-0.336,0.023l-1.159,0.048l-1.008-0.023l-0.437-0.072l-0.683-0.042
				l-0.338,0.116l-0.448,0.791l-0.34,0.309l-0.562,0.279l-0.616,0.08l-0.353,0.326l-0.124,0.51l-0.01,0.451l-0.058,0.225
				l-0.134,0.197l-0.048,0.14l0.029,0.155l0.143,0.056l0.173,0.071v0.112l-0.067,0.14l-0.192,0.155l-0.086,0.238l0.02,0.252
				l0.037,0.281l1.172-0.535l0.401-0.404l0.801-0.144l-0.112,0.165l-0.398,0.15l-0.398,0.393l0.502,0.041l1.127-0.202l0.414-0.614
				l0.746,0.022l0.212,0.441l0.212,0.596l-0.019,0.221l-0.08,0.17l-0.624,0.131l-1.412,0.743l-0.739,0.209l-0.833,0.379l0.214,0.511
				l0.057,0.431l-0.683-0.092l-0.493-0.144l-0.305,0.066l-0.83,0.458l-0.437-0.099l-0.437-0.015l0.187,0.654l0.452,0.788
				l0.276,0.148l0.434-0.071l1.03,0.953l0.768,0.945l-0.399,0.066l-0.383-0.096l-0.557,0.003l-0.22,0.573l-0.231,0.423l-0.042-0.218
				l0.018-0.293l-0.259-0.191l-0.352,0.286l-0.399,1.256l-0.745,0.9l-0.246,0.553l-0.011,0.402l0.106,0.081l0.163-0.013l0.004,0.362
				l-0.112,0.323l-1.66,0.407l-0.219,0.238l-0.478-0.188l-0.545-0.496l-0.485-0.268l-0.313,0.107l-0.318,0.233l0.179,0.144
				l0.214,0.051l0.564,0.31l-0.295,0.233l-1.101,0.406l0.037,0.21l0.1,0.152l1.273,0.348l1.129,0.597l0.344,0.409l0.296,0.711
				l0.256,0.322l0.363,0.244l0.336,0.149l0.574,0.057l0.635-0.228l1.43,1.694l0.567,0.273l1.404,0.341l0.353,0.181l2.655,2.351
				l0.812,1.014l1.547,1.522l0.454,0.315l0.197-0.387l0.264-0.406l0.285-0.1l0.832,0.162l0.766,0.182l0.56-0.13l0.666,0.322
				l0.609,0.368l0.612,0.259l1.192,0.244l0.445,0.339l0.52,0.339l2.035,0.172l0.164-0.053l0.149-0.049l0.683-0.123l0.604,0.023
				l0.637,0.409l0.409-0.023l0.435-0.062l0.561,0.219l0.441,0.243l0.037,0.248l0.386,0.358l1.122,0.545l0.91,0.308l0.283,0.216
				l0.691,0.357l0.07,0.114l-0.014,0.145l-0.197,0.268l-0.05,0.238l0.093,0.135l0.286,0.131l0.57,0.029l0.205-0.17l0.426-0.122
				l0.42-0.219l0.563-0.293l0.764-0.265l0.307,0.001l0.294,0.081l0.206,0.147l0.344,0.546l0.344-0.764l0.089-0.057l0.313,0.154
				l0.556,0.212l0.385,0.113l0.208,0.157l0.587,0.695l0.951-0.035l0.402,0.106l0.215,0.115l0.097,0.135l-0.17,0.688l-0.235,0.717
				l0.019,0.173l0.381,0.269l0.518,0.285l0.279,0.229l0.189,0.205l0.41,0.155l0.483,0.097l0.229,0.013l0.239,0.171l0.623,0.324
				l0.08,0.079l0.467,0.119l0.063,0.337l0.083,0.071l0.194-0.04l0.322-0.141l0.256,0.108l0.331,0.401l0.456,0.423l0.247,0.283
				l0.097,0.196l0.233,0.189l0.341,0.223l0.272,0.349l0.242,0.809l0.245,0.188l0.88,0.306l0.309,0.063l0.864,0.108l0.304-0.077
				l0.444-0.697l0.401-0.718l0.374-0.15l0.676-0.348l0.404-0.328l0.17-0.355l0.382-0.672l0.235-0.377l-0.417-0.352l-0.218-0.109
				l-0.185-0.172l-0.35-0.737l-0.323-0.587l-0.643-1.008l-1.118-1.522l-0.229-0.184l-0.182-0.211l-0.08-0.766l-0.322-0.545
				l-0.459-0.376l-0.174-0.193l-0.112-0.208l0.216-1.088l-0.006-0.308l-0.094-0.659l0.083-0.762l0.256-1.045l0.259-0.724
				l0.081-0.471l-0.364,0.299l-0.432,1.671l-0.146-1.343l-0.294-1.28l-0.236-0.66l-0.334-0.537l-0.465-0.418l-0.43-0.493
				l-0.467-0.265l-0.706-0.202l-0.139-0.188l-0.06-0.313l0.039-0.348l0.17-0.582l0.372-0.375l0.504-0.391l0.114-0.262l0.084-0.308
				l0.157,0.233l0.193,0.127l0.134-0.542l0.203-0.389l0.26-0.333l0.324-0.767l0.239-0.418l0.173-0.473l0.095-0.777l0.179-0.074
				l0.149-0.136l0.112-0.22l0.065-0.243l-0.023-0.441l-0.264-0.482l0.069-0.049l0.126,0.083l0.285,0.247l0.257,0.31l0.071-0.449
				l0.223-0.182l0.272,0.125l0.288,0.018l0.965-0.359l0.461-0.099l0.427-0.252l0.994-0.975l0.219-0.045l0.224,0.045l0.21,0.181
				l0.226,0.104l0.173-0.049l0.087-0.147l-0.2-0.346l-0.07-0.327l-0.016-0.358l0.256-0.09l0.292,0.001l1.169-0.553l0.135-0.246
				l0.064-0.332l0.522-0.062l-0.059-0.285l-0.208-0.073l-0.977-0.585l-0.801-0.413l-0.712-0.368l-0.104-0.067l-0.194-0.179
				L155.33,497l-0.03-0.307l0.07-0.225l0.173-0.143l0.203-0.056l0.182,0.046l0.201,0.137l0.359,0.167l0.465,0.031l0.289-0.128
				l0.04-0.308l-0.553-1.14l-0.51-0.923l-0.493-1.029l-0.208-0.374l-0.605-0.865l-0.596-0.854l-0.471-0.763l-0.247-0.235
				l-0.76-0.099l-1.451-0.188l-0.512-0.09l-0.411,0.227l-0.411,0.179l-0.392-0.332l-0.309-0.543l-0.163-0.457l0.08-0.468
				l0.032-0.692l-0.236-0.683l-0.262-0.338l-0.655-0.254l-0.833-0.577l-0.225-1.054l0.406-1.518l0.651-1.079l0.474-0.452
				l0.226-0.396l0.074-0.343l-0.057-0.329l-0.281-0.348l-0.436-0.34l-0.22-0.42l0.091-0.898l0.288-1.299l0.444-1.043l0.597-0.58
				l0.515-0.415l0.203-0.388l0.011-0.551l-0.013-0.522l0.137-0.379l0.217-0.301l0.229-0.27l0.322-0.304l0.417-0.074l0.46,0.242
				l0.624,0.648l0.915,1.274l0.523,0.832l0.189,0.256l0.477,0.495l0.431,0.199l0.718-0.31l0.69-0.36l0.222-0.229l0.143-0.341
				l-0.11-0.584l-0.144-0.382l-0.153-0.486l-0.212-0.848l-0.149-1.335l-0.178-0.425l0.131-0.049l0.345,0.089l0.319,0.038
				l0.457-0.295l0.628-0.556l1.148-0.86l0.243-0.568l0.196-0.634l0.318-0.39l0.73-0.128l0.676-0.205l0.477-0.45l0.749-0.396
				l0.615-0.241l0.271-0.222l0.193-0.334l0.704-0.942l0.554-0.582l0.486-0.599l0.164-0.377l0.384,0.07l0.587,0.262l0.632,0.238
				l0.461,0.37l0.09,0.377l0.045,0.298l0.188,0.153l0.224,0.028l0.335-0.075l0.589-0.013l0.721-0.489l1.004-0.824l0.92-0.256
				l0.485,0.196l0.399,0.606l0.317,0.571l0.325,0.212l0.202,0.006l0.076,0.009l0.403-0.13l0.03,0.002l0.37,0.023l0.356,0.192
				l0.589,0.023l0.819-0.148l0.087-0.06l0.393,0.078l0.48,0.263l0.373,0.312l0.665,1.022l0.383,0.263l0.782,0.363l0.367,0.317
				l0.426,0.512l0.223,0.31l0.463,0.56l0.536,0.916l0.095,0.727l0.122,0.614l0.199,0.29l0.164,0.037l0.178-0.101l0.173-0.279
				l0.06-0.467l-0.053-0.826l-0.137-0.677l-0.176-0.215l-0.085-0.238l0.117-0.304l0.297-0.146l0.371,0.092l0.611,0.39l0.637,0.491
				l0.782,0.856l0.719,0.542l0.786,0.433l0.624,0.129l0.483-0.131l0.57-0.353l0.523-0.408l0.237-0.428l0.171-0.468l0.788-0.627
				l0.719-0.573l0.327,0.103l0.232,0.163l0.737-0.349l0.257-0.096l0.703-0.135l0.725,0.201l0.579,0.614l0.563,0.396l0.501-0.046
				l0.416-0.203l0.274-0.383l0.207-0.453l0.278-0.29l0.044-0.018l0.894,0.157l0.562-0.024l0.059-0.065l0.741,0.123l0.816,0.638
				l0.508,0.705l0.648,0.897l0.302,0.292l0.439,0.125l0.344,0.054l0.462,0.138l1.221,0.188l0.185,0.11l0.125,0.146l-0.113,0.488
				l0.109,0.124l0.989-0.347l0.266-0.26l0.327-0.737l0.292-0.745l0.217-0.277l0.231-0.073l0.232,0.111l0.324,0.44l0.439,0.449
				l0.593,0.17l0.363,0.068l0.561,0.038l1.32-0.217l1.234-0.542l0.705-0.59l0.327-0.887l0.205-1.01l0.316-0.639l-0.132-0.656
				l-0.621-0.625l-0.21-0.188l-1.51-0.35l-0.093-0.253l-0.086-0.058l-1.488-0.556l-0.718-0.238l-0.201-0.368l-0.134-0.483
				l-0.464-0.431l-0.923-0.392l-0.161-0.299l0.152-0.303l0.729-0.338l0.832-0.711l0.32-0.146l0.742-0.032l0.685-0.582l0.474-0.333
				l0.246-0.399l-0.065-0.41l-0.686-1.243l-0.203-0.755l0.121-0.492l0.394-0.534l0.224-0.292l0.267-0.525l0.178-0.281l0.691-0.119
				l0.841-0.05l0.576,0.126l0.805,0.065l0.734,0.097l0.371,0.087l0.273-0.16l0.198-0.283l-0.007-0.374l-0.288-0.363l-1.078-0.476
				l-0.461-0.394l-0.363,0.043l-0.604-0.122l-0.546-0.259l-0.484-0.086l-0.158-0.359l0.1-0.504l0.187-0.288l0.358-0.144l0.388,0.072
				l0.423-0.21l0.121-0.123l0.037-0.158l-0.069-0.227l-0.195-0.188l-0.278-0.049l-0.321,0.159l-0.382,0.104l-0.648-0.234
				l-0.516-0.282l0.026-0.26l0.382-0.387l0.172-0.315v-0.436v-0.509l0.132-0.598l0.379-0.409l0.445-0.22l1.147,0.4l1.433,0.357
				l0.247-0.059l0.072-0.187l0.164-0.167l1.99-0.078l0.387-0.23l0.192-0.184l1.914-0.264l0.228-0.252l0.28-0.234l0.44,0.004
				l0.525-0.094l0.73-0.287l0.517-0.157l0.086-0.014l0.546,0.063l0.68-0.226l0.145-0.094l0.111-0.172l0.592-0.33l1.135-0.273
				l0.277,0.164l0.541,0.073l0.691-0.121l0.509-0.208l0.298,0.207l0.403,0.212l0.301-0.18l0.149-0.57l0.196-0.558l0.341-0.265
				l0.27-0.096l0.243-0.215l0.185-0.224l1.001,0.034l0.895-0.558l0.175,0.253l1.162-0.059l1.443-0.359l0.863-0.169l1.491-0.377
				l0.69-0.305l0.985-0.193l0.905-0.134l0.592-0.536l0.477-0.076l0.581-0.045l0.356-0.129l0.232-0.198l0.15-0.373l-0.081-0.475
				l-0.083-0.346l0.415-0.193l0.592-0.061l0.374-0.078l0.816-0.787l0.564-0.38l0.582-0.237l1.17,0.13l1.067,0.119l1.071,0.376
				l0.564,0.469l0.483,0.353l0.458,0.169l0.413,0.109l0.481-0.16l0.338-0.218l0.198-0.31l0.3-0.222l1.092-0.173l0.226,0.335
				l0.52,1.009l0.354,1.34l0.583,1.769l0.257,0.865l-0.114,0.453l0.002,0.62l-0.033,0.679l-0.431,0.768l0.175,0.357l1.055,0.398
				l1.478-0.145l0.911-0.322l0.508,0.117l0.265-0.192l0.172-0.569l0.35-0.127l0.36,0.397l0.262,0.671l0.251,0.431l-0.019,0.512
				l0.093,0.656l0.184,0.167l0.362-0.25l0.241-0.148l0.058-0.2l-0.103-0.246l-0.049-0.25l0.08-0.23l0.172-0.094l0.514,0.072
				l0.751,0.127l0.89,0.932l0.479,0.169l0.203,0.016l0.451-0.053l0.542-0.268l0.365-0.336l0.122-0.165l0.21,0.028l0.199,0.156
				l0.014,0.34l-0.159,0.491l-0.541,0.449l-0.671,0.416l-0.406,0.763l-0.087,0.795l0.179,0.402l0.152,0.269l0.043,0.376l0.152,0.05
				l0.273-0.155l0.75-0.781l0.383-0.194l0.554-0.123l0.909,0.06l0.613,0.255l0.292,0.355l0.322,0.292l0.222-0.123l0.115-0.336
				l0.005-0.386l0.093-0.318l0.995-0.783l0.662-0.522l0.229-0.061l0.442,0.108l0.275-0.054l0.728-0.493l0.68-0.56l0.067-0.38
				l0.025-0.345l0.169-0.156l0.952-0.12l0.157-0.065l0.814-0.393l1.127-0.67l0.546-0.396l0.997-0.176l0.185-0.114l0.331-0.267
				l0.624-0.37l0.338-0.041l-0.21,0.895l-0.373,1.032l-0.209,0.275l-1.01-0.046l0.001,0.28l0.159,0.43l0.113,0.241l0.123,0.216
				l0.271,0.373l1.063,0.879l1.351,1.116l1.461,1.249l1.019,0.868l0.412,0.448l0.263,0.349l0.752,1.257l0.714,1.189l1.203,2.082
				l1.067,2l1.173,2.184l0.679,1.259l1.388,2.615l0.371,0.799l0.702,1.507l0.622,1.407l0.548,1.239l0.346,0.112l0.027-0.335
				l0.061-0.224l0.178-0.126l0.403-0.366l0.218-0.088l0.324,0.038l0.34-0.187l0.124-0.352l-0.081-0.654l-0.053-0.301l0.116-0.324
				l0.186-0.127l0.259-0.103l0.237-0.052l0.196-0.367l0.367-0.111l0.338,0.068l0.278,0.014l0.246,0.267l0.137,0.366l0.265,0.028
				l0.436-0.036l0.06,0.306l-0.125,0.511l-0.151,0.395l-0.026,0.318l0.23,0.154l0.844-0.138l0.299,0.068l0.095,0.321l0.12,0.265
				l0.06,0.324l-0.087,0.36l0.149,0.214l0.728,0.005l0.513-0.173l0.788-0.013l0.712,0.379l0.494-0.059l0.496-0.153l0.727,0.098
				l0.51-0.3l0.353-0.376l0.111-0.295l0.183-0.164l0.686,0.002l0.434-0.029l0.319-0.434l0.293-0.197l0.492-0.037h0.362l0.972,0.404
				l0.591,0.334l0.616,0.473l0.37,0.297l0.248,0.668l0.42,0.492l0.333,0.573l0.08,0.564l0.275,1.012l0.283,0.332h0.337l0.425,0.138
				l0.47,0.11l1.004,0.75l0.369,0.022l0.284,0.179l0.045,0.344l-0.107,0.398l0.111,0.383l0.328,0.486l0.261,0.475l0.319,0.574
				l0.097,0.328l0.257,0.109l0.346-0.163l0.55,0.123l1.657,0.326l0.23,0.041l0.177,0.34l0.239-0.027l0.275-0.014l0.381,0.041
				l0.266-0.313l0.217-0.274l0.545-0.341l0.452-0.463l0.381-0.41l0.284-0.055l0.23,0.192l0.009,0.355l-0.283,0.26l-0.222,0.313
				l0.053,0.314l0.381,0.027l0.424,0.471l0.611,1.102l0.208,0.23l0.302,0.217l0.336,0.098l0.371,0.157l0.274,0.453l0.113,0.409
				l0.406,0.06l0.258-0.098l0.172-0.204l0.264-0.066l0.398-0.098l0.408-0.123l0.224,0.023l0.018,0.001l0.505-0.016l0.231-0.148
				l0.175-0.217l0.378-0.242l0.081-0.279l0.005-0.551l0.248-0.467l0.629-0.139l0.241-0.068l0.256,0.067l0.399-0.065l0.385-0.024
				l0.215,0.143l0.282,0.122l0.364-0.014l0.124-0.221l0.015-0.306l0.158-0.081l0.196,0.214l0.109,0.159l0.164,0.073l0.438-0.19
				l0.306-0.206l0.099-0.423l0.178-0.209l0.24,0.106l0.418-0.003l0.344-0.327l0.452-0.262l0.325-0.118l0.067-0.221l-0.153-0.488
				l0.041-0.535l0.436-0.302l0.58-0.037l0.43-0.207l0.12-0.572l0.211-0.165l0.217-0.064l0.524-0.09l0.377-0.233l0.232-0.106
				l0.659-0.314l0.599-0.061l0.257-0.25l0.201-0.315l0.335-0.12l0.343-0.274l0.453-0.348l0.179-0.049l0.741-0.202l0.29-0.075
				l0.174-0.045l0.322,0.014l0.136-0.368l0.326-0.271l0.326-0.093l0.162-0.269l0.313-0.344l0.425-0.191l0.66-0.028l0.639,0.038
				l0.384-0.058l0.316-0.51l0.059-0.253l0.073-0.257l0.256-0.099l0.31,0.418l0.261,0.26l0.4,0.271l0.207,0.254l0.238,0.035
				l0.248-0.19l0.176-0.463l0.335-0.071l0.368,0.074l0.096,0.228l0.031,0.222l0.17,0.395l0.404,0.345l0.518-0.018l0.208-0.061
				l0.505,0.048l0.495,0.075l0.54,0.081l0.158,0.013l0.578,0.041l0.843,0.06l0.373-0.027l0.76,0.112l0.156,0.306l0.14,0.723
				l0.119,0.688l0.034,0.552l0.197,0.285l0.253,0.094l0.167,0.222l0.294,0.303l0.217,0.432l0.263-0.029l0.185-0.103l0.404-0.033
				l0.516,0.03l0.358,0.239l0.136,0.314l0.291,0.176l0.238-0.057l0.708-0.002l0.243,0.02l0.244,0.172l0.35,0.029l0.194-0.219
				l0.609-0.149l0.354-0.313l0.271-0.002l0.206,0.15l0.157,0.205l0.234-0.091l0.126-0.169h0.203l0.201,0.11l0.511,0.19l0.37,0.356
				l0.287,0.034l0.37-0.104l0.17-0.048l0.163,0.176l0.239,0.094l0.181-0.13l0.31-0.092l1.188,0.193l0.275,0.355l0.21,0.167
				l0.171,0.29l0.311,0.206l0.655-0.071l0.254-0.211l0.531-0.47l0.21-0.459l0.268-0.148l0.302-0.074l0.281,0.001l0.297-0.016
				l0.358-0.336l0.292-0.117l0.431-0.428l0.081-0.194l0.209-0.499l0.129-0.319l0.218-0.505l0.118-0.817l0.066-0.435l-0.057-0.315
				l-0.256-0.162l-0.327-0.078l-0.287-0.24l-0.213-0.278l-0.124-0.392l-0.17-0.458l0.01-0.332l-0.048-0.257l-0.145-0.219
				l-0.276-0.386l-0.133-0.288l0.045-0.456l0.326-0.782l0.03-0.363l0.041-0.227l-0.018-0.206l0.103-0.47l0.183-0.199l0.21-0.505
				l0.284-0.233l0.354-0.015l0.153-0.138l0.076-0.507l0.17-0.391l0.114-0.276l0.215-0.303l1.248-0.584l0.519-0.727l0.184-0.368
				l0.2-0.791l0.193-0.332l0.281,0.109l0.331,0.467l0.247,0.004l0.368,0.253l1.001,0.528l0.543,0.166l0.349,0.052l0.462,0.146
				l0.297,0.309l0.58,0.504l0.49,0.128l0.849,0.051l1.034,0.026l0.292,0.088l0.757,0.362l0.836,0.399l0.788,0.357l0.598,0.276
				l0.352,0.268l0.333,0.154l0.36-0.131l0.462,0.029l1.085,0.321l0.686,0.269l0.573,0.199l0.192,0.275l0.019,0.366l-0.077,0.309
				l0.042,0.748l0.184,0.392l0.069,0.525l0.069,0.499l-0.049,0.494l0.087,0.262l0.18,0.154l0.174,0.343l-0.058,0.361l-0.076,0.211
				l0.011,0.337l0.209,0.279l0.305,0.054l0.271,0.072l0.334,0.437l0.594,0.504l0.356,0.139l0.408,0.226l0.78,0.221l0.53,0.067
				l0.313,0.179l0.306,0.433l0.506,0.089l0.326,0.149l0.592,0.178l0.392-0.103l0.344-0.15l0.232,0.029l0.444,0.098l0.521,0.02
				l0.438-0.102l0.348-0.304l0.407-0.412l0.488-0.208l0.564-0.075l0.385-0.167l1.265-0.279l0.51-0.047l0.396-0.269l0.35-0.21
				l0.507-0.09l0.685,0.22l0.655,0.184l0.791,0.06l0.526,0.254l0.373,0.24l0.587,0.189l0.653-0.088l0.893-0.076l0.593,0.11
				l0.618,0.435l0.38,0.349l0.429,0.743l0.446,0.361l0.391,0.293l0.494,0.018l1.23,0.024l0.676,0.155l0.563,0.083l0.135,0.155
				l-0.056,0.508l0.017,0.725l-0.009,0.332l0.125,0.251l0.191,0.044l0.105,0.353l0.278,0.209l0.499,0.252l0.841,0.855l0.501,0.364
				l0.395,0.124l0.518-0.085l0.81,0.002l1.374,0.003l0.941,0.256l0.325,0.175l0.961,0.203l1.059,0.223l0.89,0.232l0.527-0.3
				l0.461-0.027l0.442,0.217l0.44,0.327l0.341-0.035l0.512-0.154l1.632-0.914l0.574-0.342l0.402,0.088l0.358-0.122l0.273-0.103
				l0.697-0.141l0.424-0.039l0.438-0.083l0.63-0.054l1.281-0.602l0.519-0.118l0.878,0.167l0.473-0.108l0.47-0.305l0.61-0.313
				l0.159-0.51l0.312-0.7l0.672-0.517l0.548-0.452l0.558-0.44l0.686-0.367l0.645-0.266l0.822-0.699l0.655-0.356l0.326-0.116
				l0.387,0.129l0.727,0.094l0.524-0.028l0.296,0.081l0.592,0.342l0.536,0.3l0.411,0.534l0.765,0.743l0.393,0.25l0.278,0.102
				l0.688,0.07l0.563,0.037l0.336-0.17l0.567-0.311l0.905-0.394l0.356,0.01l0.583,0.21l0.867,0.388l0.348,0.291l0.225,0.357
				l0.892,0.576l0.575,0.299l0.971,0.455l1.004,0.103l0.96,0.491l0.494,0.149h0.264l1.358-1.196l1.149-1.016l1.32-0.795l0.969-0.107
				l0.728-0.232l0.488-0.357l0.287-0.597l0.087-0.838l-0.193-0.508l-0.476-0.176l-0.122-0.177l0.229-0.18l0.17-0.351l0.108-0.522
				l0.275-0.497l0.44-0.471l0.244-0.522l0.045-0.574l0.265-0.573l0.484-0.573l0.264-0.534l0.047-0.495l0.245-0.604l0.667-1.074
				l0.433-1.241l0.738-0.852l1.186-0.878l0.74-0.873l0.297-0.868l-0.023-0.768l-0.343-0.667l-0.065-0.68l0.211-0.693l-0.186-0.519
				l-0.586-0.345l-0.698-0.085l-0.812,0.174l-0.456-0.216l-0.101-0.609l0.218-0.493l0.536-0.377l0.88-0.919l1.227-1.467l1.22-0.814
				l1.821-0.236l1.467-0.482l1.496-0.492l1.079-0.244l0.184,0.163l0.588,0.041l0.993-0.084l0.923-0.212l0.852-0.342l0.674-0.08
				l0.496,0.181l0.284,0.01l0.196,0.021l0.109-0.001l0.208-0.145l0.577,0.259l1.101,0.765l0.692,0.341l0.284-0.083l0.31,0.212
				l0.337,0.506l0.42,0.299l0.754,0.137l0.748,0.554l0.303,0.03l0.106-0.31l0.278-0.178l0.452-0.046l0.653,0.273l0.853,0.592
				l0.536,0.26l0.217-0.071l0.23,0.109l0.185,0.278l0.015,0.34l-0.063,0.183l0.206,0.288h0.237l0.386,0.138l0.302,0.507l0.272,0.234
				l0.19,0.204l0.034,0.168l0.018,0.17l-0.056,0.132l-0.104,0.218l-0.031,0.233l0.129,0.263l0.481,0.19l0.164,0.195l0.036,0.251
				l0.151,0.277l0.326,0.32l0.125,0.267l-0.076,0.215l0.096,0.18l0.161,0.139l0.035,0.509l0.014,0.293l0.264,0.328l0.054,0.67
				l0.184,0.74l0.621,1.012l0.204,0.547l-0.052,0.649l0.089,0.304l0.283,0.147l0.134,0.274l-0.016,0.4l0.111,0.249l0.088,0.263
				l-0.06,0.411l0.089,0.37l0.144,0.216l0.104,0.399l0.057,0.497l0.415,0.786l0.771,1.073l0.472,0.831l0.173,0.591l0.001,0.485
				l-0.169,0.38l-0.009,0.276l0.15,0.173l0.045,0.234l-0.06,0.295l0.251,0.349l0.846,0.606l-0.338,0.926l-0.089,0.65l0.046,0.683
				l0.21,0.48l0.372,0.279l0.232,0.29l0.091,0.303l0.447,0.33l0.804,0.356l1.03,0.063l1.255-0.233l0.769-0.04l0.282,0.155
				l0.095,0.234l-0.09,0.314l0.213,0.206l0.516,0.098l0.355,0.198l0.195,0.296l0.238,0.084l0.282-0.129l0.274,0.018l0.267,0.165
				l0.174-0.056l0.15-0.18h0.243l0.249,0.004l0.154,0.434l0.251,0.244l0.345,0.054l0.527,0.527l1.06,1.496l0.689,0.531l0.691,0.166
				l0.858,0.034l0.277,0.578l-0.223,0.609l-0.059,0.509l0.196,0.181l0.268,0.596l0.381,0.346l0.072,0.273l0.177,0.305l-0.074,0.565
				l-0.326,0.823l0.089,0.702l0.503,0.58l0.289,0.557l0.076,0.535l0.126,0.325l0.177,0.114l0.517-0.039l0.856-0.194l0.628,0.033
				l0.401,0.261l0.991,0.01l1.581-0.241l0.999-0.074l0.416,0.093l0.372-0.344l0.325-0.783l0.305-0.368l0.284,0.046l0.453-0.252
				l0.619-0.551l0.538-0.267l0.681,0.027l0.725,0.028l0.455-0.232l0.427-0.485l0.739-0.428l1.577-0.56l0.379-0.089l0.181,0.03
				l0.525,0.088l0.466,0.219l0.441,0.441l0.067,0.282l-0.05,0.37l-0.095,0.215l-0.182,0.241l-0.171,0.391l0.11,0.305l0.256,0.651
				l0.209,0.469l0.233,0.553l-0.105,0.199l-0.14,0.383l-0.432,0.647l-0.235,0.248l-0.254,0.241l-0.437,0.059l-0.187,0.056
				l-0.211,0.101l-0.133,0.229l-0.152,0.16l-0.249,0.322l-0.02,0.277l0.114,0.41l0.056,0.421l-0.283,0.375l-0.219,0.576
				l-0.065,0.173l-0.11,0.436l-0.033,0.15l-0.069,0.915l-0.282,0.624l-0.394,0.723l0.087,0.43l0.069,0.399l-0.097,0.194
				l-0.024,0.168l-0.058,0.384l-0.124,0.147l-0.358,0.239l-0.215,0.288l0.046,0.437l-0.11,0.378l-0.165,0.334l-0.173,0.217
				l-0.246,0.14l-0.165,0.118l-0.123,0.424l-0.039,0.327l-0.116,0.326l0.072,0.333l-0.126,0.287l-0.351,0.201l-0.2,0.118
				l-0.184,0.048l-0.351,0.311l-0.315,1.068l-0.072,0.62l0.072,0.55l-0.441,0.344l-0.328,0.273l-0.205-0.099l-0.217-0.092
				l-0.501-0.119l-0.25-0.08l-0.505-0.178l-0.807-0.228l-0.787-0.266l-0.495-0.139l-0.389-0.111l-0.296-0.182l-0.249-0.326
				l-0.247,0.132l-0.229,0.385l-0.382,0.228l-0.174,0.422l-0.152,0.324l-0.396,0.432l-0.176,0.177l-0.775,0.293l-0.175,0.097
				l-0.631,0.062l-0.214,0.129l-0.222,0.272l-0.061,0.27l0.157,0.285l0.246,0.569l0.114,0.388l0.169,0.767l0.561,2.399l-0.182,0.413
				l-0.169,1.786l0.04,0.322l-0.015,0.5l0.01,0.367l0.116,0.09l0.151,0.128l0.078,0.214l-0.02,0.327l-0.078,0.24l-0.119,0.474
				l-0.158,0.685l-0.173,0.264l-0.115,0.208l-0.099,0.144l-0.012,0.483l-0.065,0.319l-0.273,0.113l-0.272,0.185l-0.322-0.069
				l-0.283,0.039l-0.35,0.123l-0.63,0.143l-0.365,0.191l-0.175,0.14l-0.121,0.167l-0.021,0.16l0.084,0.084l0.353,0.066l0.242,0.3
				l0.034,0.328l-0.249,0.187l0.118,0.356l0.277,0.346l0.145,0.252l0.028,0.261l0.127,0.148l0.185-0.136l0.452-1.154l-0.541-0.783
				l0.203-0.099l0.822,0.231l0.343-0.066l0.579,0.112l0.377-0.419l0.204-0.439l0.437-0.296l0.534-1.027l0.892-1.22l0.315-0.312
				l0.626-0.277l0.161,0.035l0.16,0.095l-0.498,0.648l-0.137,0.447l0.349-0.001l0.354-0.139l0.886-0.748l0.332-0.406l0.107,0.444
				l-0.133,2.102l0.77-0.156l0.413,0.225l0.574-0.025l0.671,0.483l0.261-0.067l0.315-0.017l0.273,0.502l0.436,0.152l0.735-0.394
				l1.115-0.379l0.532-0.01l1.305-0.693l0.633-0.559l2.322-1.472l0.976-0.808l0.928-0.59l0.56-0.948l0.968-0.9l0.025-0.382
				l0.191-0.436l1.48-2.422l0.488-0.402l0.673-0.298l0.288-0.442l0.184-0.636l0.907-0.945l0.623-0.952l0.577-0.623l0.288-0.558
				l1.489-1.365l1.207-1.521l1.128-1.104l0.363-0.684l1.462-2.008l0.45-1.328l0.55-0.506l0.238-1.27l0.471-0.914l0.127-0.547
				l0.247-0.513l1.798-2.076l0.718-1.609l0.892-1.624l0.641-0.567l0.675-0.741l0.366-0.587l1.031-0.93l0.498-0.644l0.248-0.659
				l0.233-1.63l0.668-1.257l-0.193-0.202l-0.108-0.39l0.072-0.437l0.1-0.258l0.068-0.408l0.151-0.457l0.139-0.276l0.373-1.761
				l-0.025-1.106l-0.203-0.428l-0.008-0.577l0.528-0.819l0.125-0.137l0.049-0.193l-0.263-0.164l-0.124-0.162l-0.256-2.813
				l0.193-1.735l0.541-1.279l0.109-0.444l0.074-1.247l0.654-1.259l0.408-1.43l0.853-0.752l0.559-0.929l0.471-0.42l0.08-0.959
				l0.433-0.855l-0.331-0.394l-0.344-0.26l-0.693-0.688l-0.162-0.477l0.488-0.813l0.091-0.73l-0.044-1.34l-0.733-0.411l-0.92-1.022
				l-0.152-0.346l0.207-0.026l1.275,0.549l0.635-0.59l0.322-0.626l-0.123-0.786l-0.676-0.302l-0.879-0.869l-0.041-0.293
				l-1.379-0.741l-1.476-1.58l-0.457-1.384l-0.273-0.372l-1.389-1.135l-0.273-0.378l-0.382-0.154l-1.681,0.623l-0.931-0.183
				l-1.775-0.757l-0.167,0.16l0.255,0.561l-0.049,0.554l0.074,0.767l-0.096,1.279l-0.168,0.915l-0.65,1.276l-0.261,0.24
				l-0.565,0.103l-0.306-0.008l0.184-0.498l0.498-0.596l0.703-1.058l-0.005-0.942l-0.174-0.094l-0.149,0.002L545,447.75l-0.546,1.34
				l-1.312,0.897l-0.92,0.315l-1.777,0.155l-0.324-0.052l-0.14-0.241l0.4-0.382l0.882-0.551l0.554-1.162l0.613-0.275l0.21-0.319
				l-0.919-0.175l-0.634-0.42l-0.595-0.538l0.278-0.17l0.208-0.051l0.268-0.191l0.663-0.939l-0.611-0.059l-0.639,0.066l-1.024,0.741
				l-0.197,0.396l0.331,0.529l0.371,0.233l-0.445,1.495l-0.593-0.194l-0.573,0.065l-0.364,0.42l-0.363-0.162l-0.156-0.933
				l0.202-0.952l0.178-2.165l0.216-0.735l0.015-0.814l-0.115-0.444l-0.359-0.025l-0.582,0.08l-1.484-0.003l-1.676,0.225
				l-1.794-0.812l-0.487-0.111l-0.294-0.181l-0.2-0.82l0.101-0.469l0.12-0.302l1.206-1.287l0.911-0.355l1.841-1.454l0.763-1.203
				l0.472-0.51l1.446-0.901l0.947-0.777l0.771-0.747l0.842-0.637l0.819-1.064l0.514-0.212l1.658-2.29l0.289-0.513l0.172-0.706
				l0.163-0.318l1.927-2.659l1.316-0.975l0.936-1.384l1.137-0.546l0.273-0.229l0.488-0.783l0.798-0.471l0.252-0.283l0.611-1.117
				l1.927-1.023l0.209-0.421l0.824-2.835l0.456-0.751l0.856-0.935l1.559-0.921l1.109-1.004l0.658-0.802l1.174-2.13l1.322-1.288
				l1.084-0.74l2.653-1.102l1.438,0.225l1.495-0.576l1.105,0.027l1.561,0.272l4.644-0.317l0.875,0.338l0.315,0.369l0.445,1.117
				l0.511,0.236l0.971-0.431l0.741-1.773l0.403-0.226l1.155,0.715l1.025,0.062l2.057,0.824l0.752-0.188l0.81-0.826l1.66-0.223
				l1.013,1.29l1.021,0.037l0.813-0.21l0.219-0.734l-0.325-0.262l-0.631,0.225l-0.153-0.638l0.382-0.714l0.555,0.489l0.902-0.047
				l0.312-0.066l-0.128-0.329l-0.207-0.273l-0.271-0.614l0.977-0.839l0.581-0.28l0.945-0.081l2.428,1.023l0.534,0.106l0.571,0.412
				l0.911,0.294l-0.553,0.268l-0.244,0.261l0.571-0.104l0.495,0.319l0.408,0.071l0.172-0.125l0.211-0.406l0.306-0.413l0.222-0.122
				l0.593,0.021l0.771,0.189l0.596,0.316l1.354,1.709l0.626,0.332l0.703-0.055l0.282,0.107l0.395,0.46l-1.173,0.537l-1.113,0.113
				l-0.99-0.146l-1.665,0.687l0.892,1.742l1.638,0.071l1.662-0.367l0.336-0.727l0.669-0.283l0.352,0.037l0.758,0.607l1.05,0.233
				l0.279-0.107l0.848-1.201l0.513-0.105l0.334,0.026l0.382-1.042l1.448-0.084l0.852,0.933l0.517,0.326l1.023-0.279l0.56-0.668
				l0.356-0.243l1.064,0.635l0.522-0.39l0.836-0.068l0.624,0.046l-0.032-0.678l0.059-0.762l-0.848-0.761l-1.685-0.771l-0.975,0.5
				l-0.371,0.053l-0.257-0.07l-0.273-0.385l0.257-0.613l0.259-0.497l-0.01-0.618l0.115-0.885l0.419-0.375l0.221-0.06l0.596-1.828
				l1.702-2.456l1.982-1.521l1.25-1.169l0.595-0.839l0.878-1.944l1.25-1.428l0.6-0.457l0.638-0.598l0.219-1.881l0.479-0.445
				l0.439-0.323l0.834-1.006l1.242-0.652l0.428-0.475l1.431,0.033l1.174,0.382l0.353-0.103l0.79-0.557l0.925,0.135l1.202-0.361
				l1.094-0.661l0.488-0.066l0.459,0.14l0.555,0.974l0.318,0.244l0.243,0.567l0.736-0.356l1.996-1.325l0.24-0.009l0.31,0.087
				l0.052,0.513l-0.017,0.414l-0.306,1.332l-0.365,1.002l-1.005,1.933l-0.207,0.29l0.133,0.516l0.153,0.951l-0.497,1.026
				l-0.191,0.511l0.402,0.119l0.524-0.572l0.782-0.359l0.42,0.025l0.424,0.173l-0.664,1.728l-0.108,0.904l-0.102,0.344l-0.017,0.462
				l0.493-0.253l0.351-0.367l0.494-0.277l1.234-0.119l0.643-1.238l0.529-0.625l4.992-5.201l0.886-1.105l0.493-0.074l0.439,0.184
				l0.397-0.024l0.081-0.388l0.15-0.147l0.449,0.057l0.285,0.978l0.313,0.487l0.231-0.09l0.165-0.15l0.233-0.372l0.255-0.303
				l0.26-0.499l-0.217-0.339l-0.86-0.503l0.036-0.914l0.492-1.463l-0.055-0.953l0.195-0.99l0.216-0.502l0.194-0.219l0.191-0.337
				l-0.25-0.77l0.185-0.525l0.194-0.371l4.006-1.371l0.706-0.076l0.644,0.275l0.977,0.983l1.091,0.508l1.529,0.216l0.09,0.439
				l-0.594-0.149l-0.288,0.139l0.051,0.396l-0.076,0.297l-0.364-0.35l-1.026-0.191l-0.94-0.392l-0.314,0.03l-1.348,1.159
				l-0.348,0.506l-0.577,2.293l-0.027,1.576l-0.21,1.495l-0.593,0.644l-0.198,0.745l-0.142,0.879l0.73,0.376l0.084,0.287
				l0.058,0.401l-0.486,0.931l-1.187,1.16l-0.132,0.241l-0.155,0.526l0.679,0.971l-0.541,0.353l-0.515,0.243l-0.495,0.438
				l-1.644,0.156l-1.127,1.092l-1.938,1.083l-0.859,0.618l-0.28,0.406l-0.683,1.643l-0.401,0.696l-1.319,1.085l-0.999,1.57
				l-1.577,1.879l-0.624,0.215l-0.711,0.464l-0.854,1.307l-2.181,2.26l-1.11,2.716l-0.602,0.898l-0.625,0.711l-0.424,0.756
				l-0.753,0.791l-1.517,1.176l-1.031,0.973l-0.556,0.651l-0.199,0.609l-0.281-0.133l-1.022,0.321l-1.337-0.276l-0.936,1.796
				l-1.013,0.183l-1.002-0.434l-0.493,0.215l-0.183,0.196l-0.166,0.256l0.47,0.576l0.209,0.495l0.067,0.442l0.057,0.763
				l-0.555,1.414l-0.522,1.102l-0.863,1.044l-2.002,1.898l-0.183,0.234l-0.186,0.448l-1.153,4.869l-0.317,2.152l-0.384,3.407
				l0.039,1.134l0.245,2.526l0.373,2.567l0.86,4.391l0.197,1.348l0.644,5.35l0.05,1.007l0.191,0.851l0.322,0.863l0.59,0.832
				l0.055,1.013l0.488,3.196l0.045,3.056l0.091,0.657l0.096,0.476l0.552,0.586l0.186,0.708l0.046,0.531l0.102,0.534l0.432-0.256
				l1.539-1.42l1.247-1.357l0.178-0.493l0.425-0.38l0.842-0.492l1.216-1.426l0.989-1.973l0.571-1.511l0.129-0.553l0.031-0.548
				l-0.085-1.183l0.23-0.44l0.325-1.325l-0.21-0.348l-0.555-0.253l0.173-0.538l0.401-0.127l0.325,0.253l0.191,0.57l0.268,0.19
				l0.896-0.996l0.798-0.501l1.95-0.87l0.805,0.058l0.763,0.755l0.337-0.032l-0.1-1.05l-0.453-0.766l0.006-0.486l0.246-0.76
				l-0.18-0.5l-0.188-0.378l-0.118-0.812l0.338-1.65l0.384-0.903l0.278-0.43l0.93-0.734l0.99-1.059l1.108-0.823l0.706-0.276
				l0.843-0.148l0.712,0.579l1.434,0.032l0.437-0.124l1.046-1.163l0.601-0.476l-0.109-1.006l-0.365-0.842l-0.746-1.065l-0.17-0.503
				l-0.241-1.16l-0.024-1.053l0.224-1.215l0.644-1.426l0.698-1.927l0.265-0.3l0.815-0.462l0.551-0.371l0.291-0.197l-0.172-1.08
				l0.436-0.437l0.357-0.275l0.894,0.107l0.288-0.248l0.409-0.108l-0.274,0.571l-0.355,0.387l-0.781,0.536l-0.369,0.769l0.92,1.294
				l0.57,0.247l0.328-0.084l0.615-0.717l0.313-0.285l0.321-0.457l-0.18-1.68l-0.22-0.916l0.058-0.972l-0.395-0.295l-0.516-0.125
				l-0.539,0.148l-0.313-0.27l-0.205-0.432l-0.05-0.505l0.103-1.175l-0.03-0.632l-0.201-1.126l0.003-0.322l0.074-0.589l0.77-0.963
				l0.658-0.704l0.343-0.586l0.113-0.4l0.052-0.84l-0.351-0.381l-1.85-0.886l-0.278-0.017l-0.573,0.36l-0.239,1.12l-0.327,0.398
				l0.003-0.226l0.083-0.27l-0.927-0.413l-0.432-0.37l-0.253-0.355l-0.163-0.511l-0.182-0.785l0.387-1.607l0.401-1.441l1.35-2.168
				l0.825-0.762l0.884-1.167l0.379-0.207l0.153-0.189l0.149-0.283l-0.279-0.793l0.152-0.192l0.152-0.094l0.324,0.142l0.815-1.448
				l-0.016-1.849l0.226-1.587l0.189-0.653l0.196-0.46l0.363-0.447l0.35-0.236l0.501-0.556l0.234-0.429l0.157-0.114l0.576,0.035
				l0.454,0.171l0.509,0.286l-0.094,0.75l0.599-0.659l0.544-0.73l0.273-0.127l0.37,0.099l0.626,0.553l0.476,1.065l0.325,0.287
				l0.431-0.023l0.283-0.147l0.237-0.733l0.047-1.325l0.468-0.228l0.402-0.088l0.566-0.611l0.725-0.273l1.557-1.052l1.033-1.083
				l0.745-0.039l-0.191,0.619l-0.068,0.597l-0.271,1.464l-0.267,0.778l-0.14,0.949l0.056,0.495l0.163,0.627l0.375-0.059l0.255-0.139
				l0.523-0.644l2.218-3.129l1.139-0.869l1.732-0.549l0.52-0.356l1.697-0.568l1.411-0.161l0.9,0.258l0.511-0.008l1.901-0.283
				l0.213,0.346l1.485,1.043l0.852,1.511l0.171,0.132l0.142,0.282l0.046,0.61l0.129,0.378l0.24,0.323l0.743,0.702l0.854,0.178
				l0.197-0.383l0.117-0.33l0.385-1.841l0.331-0.728l0.005-0.445l0.08-0.362l0.829-0.54l0.65-0.233l2.344-1.79l1.039-1.041
				l0.438,0.051l0.379-0.238l0.346-0.325l0.302-0.133l0.633-0.733l0.778-0.571l-0.132-0.492l0.146-0.455l0.438-0.166l0.381-0.041
				l0.486-0.529l-0.03-0.413l0.176-0.174l0.253,0.034l0.342,0.158l0.174-0.167l-0.304-0.577l-0.134-0.548l0.215-0.3l0.859,0.571
				l0.335-0.004l1.122-1.361l1.009-1.452l0.863,0.335l1.372-1.059l0.633-0.205l0.995-0.056l0.417-0.403l0.453-0.738l0.358,0.083
				l1.712-0.881l0.327-0.628l0.425-0.176l0.33-0.061l0.746-0.523l3.098-1.504l0.469-0.605l1.153-0.889l0.888-0.284l1.093-0.234
				l0.131-0.288l-0.788-0.329l-0.187-0.302l-0.006-0.327l0.116-0.273l0.145-0.521l0.293-0.116l0.353,0.371l0.373-0.001l0.172-0.32
				l0.176,0.028l0.09,0.419l-0.19,0.489l-0.086,0.384l-0.015,0.428l0.255,0.109l1.352,0.043l1.544,0.337l4.096,1.795l0.35,0.295
				l0.33,0.031l0.057-0.71l0.187-0.681l0.484-0.386l0.818-0.965l0.404-0.701v-0.813l-0.258-0.847l-0.563-0.198l-0.342-0.534
				l-0.185-0.652l0.301-0.474l0.33-0.189l-0.071-0.666l-0.244-0.412l-1.319-0.887l-0.463-0.603l-0.013-0.534l-0.544-1.358
				l-0.076,0.292l0.049,0.658l-0.185,0.461l-0.284-0.073l-0.042-0.364l0.163-0.791l-0.229-0.342l-0.813-0.169l-0.112-0.307
				l0.805-0.44h0.24l0.217-0.16l-0.169-1.716l-0.183-1.21l-0.495-0.102l-0.367-0.353l0.102-0.768l0.01-0.386l-0.415-1.323
				l-0.297-0.534l-0.362-0.5l-0.285,0.553l-0.144,0.737l-0.373,0.156l-0.396-0.027l-1.152-0.823l-1.104-1.399l-0.1-1.291
				l0.248-1.659l-0.172-0.27l-0.173-0.108l-1.464,0.556l-0.898,0.865l-0.485,0.09l-0.968-0.582l-1.59,0.976l0.34-0.566l0.277-0.222
				l0.294-0.418l-0.218-0.799l-0.233-0.602l-0.337-0.426l-0.489-0.204l-0.48,0.404l-0.378,0.406l-0.784,0.436l-1.505,0.364h-1.013
				l-1.728,0.661l-0.649-0.025l2.38-0.943l1.295-0.069l1.668-0.615l1.214-1.193l1.597,1.08l0.551,0.155l1.19-0.094l1.031,0.636
				l0.345-0.184l0.323-0.579l-0.431-0.872l-0.374-0.538l-0.421-0.168l-1.277,0.09l-0.839-0.185l-0.481-0.226l0.312-0.246
				l0.918,0.345l1.11-0.455l1.294,0.696l0.315,0.62l0.369,0.228l1.061,1.564l0.724,0.617l2.327,0.454l1.015,0.7l0.776-0.284
				l1.958-1.525l1.293-0.411l0.881-1.009l0.763-1.159l0.749-0.34l1.28-1.235l0.301-0.588l0.502-1.475l0.294-0.614l0.432-0.745
				l0.033-0.612l-0.094-0.665l-0.36-0.517l-0.831-0.735l-0.38-0.488l-0.266-1.028l0.026-1.245l0.186-0.937l0.249-0.839l0.292,0.603
				l0.839-0.141l0.414-0.231l0.047-0.614l-0.104-0.728l0.204-0.189l0.436-0.081l0.062-0.44l0.151-0.234l0.159,0.312l0.008,1.23
				l0.342,0.305l0.479,0.253l0.206-0.076l0.205-0.168l0.295-0.372l0.594-1.27l0.387-0.501l-0.033,0.918l-0.227,1.27l-0.129,0.348
				l-0.336,0.448l-0.16,0.929l-0.07,0.251l-0.483-0.254l-0.351,0.051l0.259,1.025l0.383,0.76l0.485,0.734l0.523,0.437l0.14-0.013
				l0.104,0.156l0.013,0.461l-0.115,1.088l0.092,0.585l0.4,0.435l0.443,0.111l2.652-0.05l0.91-0.146l1.359-1.025l0.516-0.126
				l0.582,0.129l1.624,0.563l1.97,0.8l0.738,1.234l0.29,1.24l0.112,1.313l-0.127,0.527l0.025,0.445l0.598,0.663l0.846,0.807
				l0.163,0.188l0.178,0.325l0.204,0.145l0.603,0.086l0.478-0.156l0.476-0.044l0.891,0.383l1.127,0.591l1.095,0.811l0.491,0.605
				l0.882,1.296l0.449,0.394l0.729,0.453l0.276,0.072l0.271-0.082l0.558-0.633l0.343-0.506l0.296-0.609l0.079,0.525v0.449
				l-0.287,0.324l-0.001,0.556l0.434,0.652l0.512,0.099l0.643-0.177l0.213-0.302l0.192-0.418l-0.144-1.384l0.199-0.188l0.484,0.273
				l0.154,0.392l0.073,0.478l0.193,0.052l1.271-0.068l0.099-0.177l-0.066-0.433l-0.185-0.409l-0.22-0.291l-0.559-0.339l-0.567-0.257
				l-0.465-0.067l-0.202-0.191l0.051-0.356l-0.152-0.414l0.093-0.246l0.395-0.325l0.045-0.298l-0.415-0.362l-0.439-0.112
				l-0.38,0.201l0.085-0.303l0.291-0.301l0.441-0.128l0.455,0.064l0.865-0.255l0.842-0.581l0.409-0.383l0.395-0.472l-0.045-0.828
				l-0.27-0.794l-0.402-0.217l-0.448,0.05l-0.395-0.066l-0.385-0.21l1.529-0.28l0.171-0.281l0.252-1.272l-0.092-0.318l-0.316,0.082
				l-0.486-0.018l0.112-0.261l0.165-0.224l-0.878-1.214l-0.984-0.725l0.278-0.12l0.484,0.026l0.746,0.214l0.491,0.547l0.174,0.369
				l0.21,0.125l0.444,0.036l0.756,0.26l0.043,0.357l0.173,0.126l0.507-0.152l1.405-0.236l0.445,0.061l0.64,0.255l0.2,0.008
				l0.278-0.094l0.224-0.407l-0.348-0.818l-0.732-0.74l-0.427-0.561l-0.214-0.449l0.128-0.17l0.194,0.067l0.628,0.708l0.49,0.441
				l0.509,0.317l0.454,0.234l1,0.221l0.456-0.364l0.085-0.568l-0.094-1.196l0.097-0.443l0.606-0.669l1.047-0.846l0.675-0.271
				l0.236,0.027l0.25,0.265l0.26,0.076l0.445-0.631L769.789,340.304z M658.574,405.951l-0.239-0.048l-1.367,1.103l-1.913,0.683
				l0.024,0.359l0.078,0.357l-0.251,1.098l-0.65,1.315l-0.648,0.514l0.02,0.272l0.067,0.179l0.104,0.126l0.711-0.78l1.408-1.168
				l1.382-0.788l1.461-0.398l0.199-0.714l-0.14-1.19L658.574,405.951z M666.842,440.011l-0.326-0.42l-0.677-1.208l-0.078-0.583
				l0.198-0.529l-0.277-0.091l-1.217-0.209l-0.437,0.339l-0.344,0.094l1.044,0.79l0.323,0.414l0.069,0.448l0.162,0.349l0.478,0.707
				l0.412,0.542l0.247,0.199l0.355,0.084l0.25,0.444l0.536,0.551l0.023-1.087l-0.316-0.516L666.842,440.011z M623.036,469.355
				l-0.708,0.53l-0.196,0.361l0.123,0.203l0.561,0.431l0.172,0.036l0.172-0.163l0.339-0.639l0.019-0.628l-0.138-0.113
				L623.036,469.355z M672.926,441.959l-0.745-0.597l-0.513-0.207l-0.35-0.444l-0.304,0.008l0.202,0.457l0.82,0.73l1.752,1.381
				l-0.184-0.39L672.926,441.959z M543.492,439.231l-0.393-0.297l-0.13-0.132l-1.445-0.658l-0.146,0.257l-0.469,1.112l-0.221,0.116
				l-0.474,0.826l-0.183,0.754l0.187-0.013l0.809-0.609l0.273,0.358l0.588,1.293l0.261-0.075l0.298-0.252l0.347-0.394l0.387-0.296
				l0.138-0.238l0.11-0.603l0.346-0.678l0.476-0.321l-0.148-0.201L543.492,439.231z M572.345,482.713l-0.341-0.425l-0.759-0.759
				l-0.393-0.856l-0.3-0.866l-0.139-0.801l-0.175-0.784l-0.253-0.745l-0.405-1.569l-1.005-2.607l-0.347-1.52l-0.875-5.069
				l-0.197-0.212l-0.069-0.154l-0.024-0.711l-0.052-0.482l-0.163-0.342l-0.422-0.435l-0.091-0.342l-0.02-0.781l-0.192-0.724
				l-0.26-0.677l-0.152-0.979l0.072-1.875l0.125-0.663l0.274-0.254l0.134-0.359l0.124-0.601l0.039-0.616l-0.035-1.883l-0.159-1.233
				l-0.121-0.598l-0.158-0.57l-0.555-1.397l-0.77-2.229l0.08-0.123l-0.108-0.494l0.065-0.568l0.176-0.538l0.082-0.419l-0.043-0.408
				L564,444.171l-0.296-0.165l-0.115,0.43l-0.219,0.405l-0.277,0.183l-0.94-0.013l0.571,0.978l0.883,1.327l0.155,0.535l-0.1,0.584
				l-0.174,0.58l0.2,0.048l-0.041,0.408l-0.55,0.159l-0.189,0.474l0.323,0.37l-0.249,0.65l-0.443,0.266l-0.232,0.06l-0.223-0.021
				l-0.603-0.571l-0.165-0.084l-0.77,0.285l-0.485,0.486l-0.125,0.362l0.066,1.453l0.151,0.717l-0.079,1.76l-0.226,1.697
				l-0.242,0.716l-0.282,0.679l-0.094,0.609l0.033,2.392l0.228,0.606l0.377,0.403l-0.156,0.261l-0.215,0.108l0.215,0.323
				l0.438,0.419l0.576,0.762l0.368,0.633l0.503,1.431l0.005,1.544l-0.263,0.743l-0.203,0.778l-0.149,0.997l0.022,0.786l0.312,1.377
				l0.044,0.645l-0.047,4.347l-0.146,0.862l-0.183,0.847l-0.201,1.546l-0.176,0.701l-0.491,1.459l0.029,0.316l0.105,0.309l0.57,1.16
				l0.463,1.218l0.201,1.793l-0.141,0.718l-0.318,0.604l-0.262,0.693l-0.223,0.726l-0.007,0.279l0.094,1.254l0.142,0.656
				l0.094,0.664l-0.119,0.698l-0.627,2.125l-0.157,1.529l0.373,1.754l0.059,0.514l0.137,0.466l0.234,0.323l0.267,0.277l0.315-0.512
				l0.255-0.557l0.414-1.679l0.199-0.634l0.245-0.603l0.314-0.563l0.43-0.356l0.25-0.098l0.244,0.034l0.24,0.254l0.209,0.317
				l0.147,0.094l0.947,0.08l1.017,0.211l0.302,0.52l0.079,0.738l0.21,0.854l0.056,1.205l0.138-0.254l0.082-0.289l0.036-0.366
				l0.078-0.347l0.312-0.817l-0.008-0.284l-0.167-1.061l-0.237-1.115l-0.166-0.252l-0.273-0.086l-0.285-0.011l-0.438,0.079
				l-0.172-0.31l-0.384-0.992l-0.363-1.41l-0.283-0.637l-0.151-0.25l-0.18-0.191l-0.274-0.155l-0.24-0.232l-0.327-0.541
				l-0.395-0.943l-0.096-0.346l-0.047-0.946l0.122-1.21l0.333-1.132l1.391-4.384l0.239-1.237l0.339-0.618l0.569-0.423l0.633-0.185
				l1.518-0.141l0.376,0.022l0.645,0.214l0.351,0.18l0.333,0.269l0.686,0.917l0.555,0.55l0.54,0.611l0.367,0.517l0.224,0.894
				l0.178,0.25l-0.031-1.175L572.345,482.713z M216.129,76.526l0.181,0.416l1.352,0.719l2.791,0.366l0.53-0.379l0.57-1.205
				l-0.065-0.429l-0.25-0.693l-3.966-0.951l-2.216,0.373l-0.77,0.816l1.773,0.605L216.129,76.526z M208.738,97.07l1.362-0.569
				l1.436-1.678l0.413-1.092l-0.477-1.5l-3.775,0.455l-1.904,1.981l-0.3,0.485l-0.087,0.403l1.139,0.803L208.738,97.07z
				 M218.663,96.047l-1.285,2.008l-0.984,1.114l-0.313,0.848l1.041,1.604l1.048,1.342l0.804,0.409l0.808-0.067l5.092-1.488
				l1.948-1.719l1.907-3.057l-0.283-1.028l-0.052-1.112l0.095-1.35l-0.313-1.109l-0.597-1.337l-0.626-0.718l-0.978-0.786
				l-0.983-0.034l-1.15,0.659l-0.236,0.868l-0.197,1.07l-0.193,1.972l-0.304,1.039l-1.04,0.475l-1.046,0.007L218.663,96.047z
				 M202.145,105.504l-0.078,1.197l0.07,1.35l0.182,0.434l1.316,1.931l1.085-0.387l1.64-1.266l1.925,1.564l1.426,0.419l1.014-2.254
				l1.355-0.795l0.363-1.358l0.381-0.39l1.33-0.423l0.168-1.781l0.335-1.249l0.156-1.733l-0.261-1.096l-0.281-0.868l-1.094-0.529
				l-1.097-0.191l-1.233,0.828l-2.138,0.983l-1.468,0.606l-0.882,0.075l-0.187-0.986l-0.609-0.295l-1.642,0.333l-0.536,0.54
				l-0.186,0.892l-0.235,0.463l-0.471,1.453L202.145,105.504z M196.329,75.07l1.433-0.587l4.601-1.321l0.001-0.665l0.224-1.353
				l-0.636-0.878l-4.887,0.801l-0.649,0.942l-0.173,1.49l-0.155,0.782l0.049,0.344L196.329,75.07z M186.613,118.79l0.38,0.444
				l1.686,0.269l3.41,0.125l0.404-0.584l-0.032-1.13l0.2-1.384l0.016-3.152l-0.19-0.876l-0.582-0.394l-1.029,0.074l-0.226,0.853
				l-2.735-0.284l-0.15,0.548l0.097,2.977l-0.303,1.033L186.613,118.79z M197.305,92.494l-0.38-0.552l-0.229-0.118l-1.705,2.429
				l-1.067-0.424l-0.864,0.825l0.842,2.816l1.494,0.714l0.816,2.607l1.508,0.77l1.545-0.083l0.945-0.309l0.306-1.419l-0.121-1.801
				l-0.378-0.987l-0.234-1.583l-0.603-1.407l-0.498-0.561L197.305,92.494z M186.581,89.85l2.061-1.006l0.746,1.285l0.644,0.096
				l0.679-0.653l0.662-1.125l1.464,1.686l1.264,1.211l1.382-0.963l0.621-0.787l0.444-1.629l-0.449-1.385l-0.23-1.864l2.225-0.547
				l0.832-0.912l-0.554-1.332l-1.819-0.574l-0.667-0.665l-0.227-1.165l-0.406-0.549l-1.129,0.643l-0.396,0.225l-1.186-0.176
				l-0.513,0.902l-1.103,2.547l-1.362,1.055l-1.075,2.418l-1.625-0.757l-1.37,0.524l0.463,2.374L186.581,89.85z M200.467,121.803
				l0.785,0.509l0.299,0.394l0.145,0.381l0.555,0.246l1.553-0.813l0.964-0.958l-0.475-2.215l-1.115-0.913l-2.354,1.636l-0.24,0.29
				L200.467,121.803z M201.238,86.895l0.937-0.371l0.266-0.569l-0.406-1.183l-0.893-0.914l-0.843,0.17l-1.067,0.911l-0.105,0.665
				l0.472,0.682L201.238,86.895z M192.47,108.776l-0.276,0.672l0.313,0.604l0.446,1.276l0.11,0.72l0.01,1.039l0.293,3.444l0.22,0.91
				l0.26,0.479l1.768,0.888l0.678-0.485l0.897-1.859l0.4-0.134l0.131-1.183l-0.008-1.275l0.495-0.539l3.718-0.631l-0.605-1.172
				l-0.626-0.713l-2.129-1.276l-4.156-0.279L192.47,108.776z M162.018,119.557l0.089-0.886l1.071-1.592l-0.04-0.338l-0.256-0.862
				l-1.593-0.274l-1.42,1.815l0.14,0.577l1.659,1.901L162.018,119.557z M166.46,123.111l1.54,0.285l0.016-0.284l-0.112-0.305
				l-0.357-0.698l-0.365-0.472l-0.021-0.477l0.072-0.958l-1.379-1.147l-1.13,1.149l-0.881,0.328l-1.653,1.372l1.573,1.395
				L166.46,123.111z M157.256,301.596l-0.471,0.18l-0.926,0.725l-0.943,1.112l-0.407,0.937l-0.103,1.043l-0.069,1.061l-0.006,0.683
				l0.067,0.679l0.094,0.505l0.534,1.652l0.988,0.858l1.055-0.118l1.171-0.423l1.933-0.975l0.926-1.373l0.351-0.962l0.751-0.877
				l0.204,0.333l0.102,0.735l0.243-0.136l0.271-0.486l-0.077-1.177l-0.425-0.873l-0.741-0.641l-3.344-2.486L157.256,301.596z
				 M141.802,107.028l1.09,0.616l1.424-0.859l0.236,0.756l0.157,1.501l0.354,0.97l1.026-0.263l0.588-0.49l0.478-1.713l0.233-0.545
				l1.446-0.021l0.58-1.243l0.231-0.158l0.459,0.233l0.478-1.821l0.425-0.36l0.381-1.451l0.456-0.627l0.313,0.241l1.157,2.367
				l2.52,1.037l0.252-0.106l0.013-2.261l-0.604-1.653l-0.441-0.73l-0.435-0.353l-0.442-0.122l-1.491,0.294l-1.984-1.115l-0.388,0.02
				l-1.439,1.048l-0.96,1.602l-2.045,0.541l-5.216,2.223l-0.952,1.091l1.059,0.333L141.802,107.028z M163.58,92.779l0.46,1.084
				l0.425,0.12l0.597-0.172l0.152-0.681l0.682-1.017l-0.293-1.201l-0.705-0.558l-0.538,0.035l-0.305,0.317l-0.067,0.393
				l-0.178,0.507l-0.419,0.104l0.039,0.555L163.58,92.779z M157.838,108.202l-2.006,0.197l-0.695-1.312l-0.269-0.284l-0.419,0.191
				l-0.425,0.467l-1.354,0.392l-1.039,0.75l-1.098,1.46l-3.289,3.744l0.407,1.096l0.467,0.523l0.629,1.388l1.117,0.065l0.409-0.211
				l0.44-1.061l0.858-0.388l1.087,0.155l0.367,0.682l-1.104,1.555l-0.393,0.997l0.455,0.763l0.878-0.174l0.373-0.273l0.304-0.577
				l0.309-0.264l0.95,0.933l0.349-0.361l0.285-1.218l0.096-0.636l0.117-0.307l0.935,0.87l0.41,0.147l0.371-0.184l0.144-1.14
				l-0.086-0.893l-0.136-0.596l-0.163-0.286l-1.01-0.346l-0.051-0.251l0.58-1.385l0.369-0.401l2.991-0.191l0.903-1.268l-0.192-1.221
				l0.417-0.671l1.88-0.78l2.954-0.347l0.803-1.68l2.417-2.232l-0.488-1.427l-0.59-0.105l-2.329-3.96l-0.506-0.651l-1.603,0.09
				L163,97.137l-0.667,0.092l-2.673,1.604l-1.143,1.197l-0.42,2.953l0.196,1.502l-0.032,2.587L157.838,108.202z M180.768,100.964
				l0.68,0.107l0.392,0.481l0.195,0.717l1.946-0.357l1.836,1.307l0.746,1.765l0.741,0.237l1.873-0.118l2.165-0.821l3.32-2.466
				l0.493-0.996l-0.548-0.744l-2.853-2.545l-1.897-2.354l-1.31-0.858l-3.033,0.258l-3.259-2.683l-0.369,0.078l-0.941,3.53
				l-0.215,2.278l-0.55,0.054l-0.846,0.818l0.092,1.589L180.768,100.964z M172.852,116.329l0.246,0.272l0.125,0.313l0.956,0.142
				l2.883-0.304l0.571-0.951l0.542-0.147l0.319-1.025l-1.585-1.416l-0.608-1.109l-0.072-0.936l-0.623-0.267l-1.438,0.267
				l-0.598,1.421l-0.153,0.75l-0.451,0.556l-1.329,0.53l-0.246,0.323l0.564,1.291L172.852,116.329z M180.938,109.33l0.096-0.678
				l-0.131-1.092l-0.875-0.571l-0.124-0.333l-1.299-0.82l-0.079,1.12l0.185,0.542l-0.006,0.713l-0.218,0.304l-0.165,0.726
				l2.012,1.433L180.938,109.33z M168.655,267.81l-0.434,1.284l-0.168,0.635l-0.065,1.516l0.044,0.676l0.315,1.778l0.343,1.057
				l0.438,0.629l0.525,0.463l0.543,0.226l1.05-0.212l1.036-0.637l1.126,0.427l0.999,0.145l1.972-0.637l0.207,0.157l-0.343,0.723
				l-0.058,1.062l0.394,0.801l0.457-0.033l0.463,0.133l-0.136,0.488l1.281,1.353l1.168,0.95l-0.267,0.271l-0.745-0.433l-0.381,0.145
				l0.099,0.753l-0.809-0.22l-0.359,0.462l0.021,0.688l0.1,0.663l-0.009,0.48l-0.632,0.186l-0.365,0.358l1.469,0.78l2.068,0.653
				l0.578,0.265l0.801,0.674l0.363,0.174l0.031-0.435l0.16-0.375l0.962,0.836l0.8,0.148l0.804,0.01l1.952-0.343l0.084,0.222
				l0.001,0.436l0.391,0.344l0.478-0.14l0.149-0.3l0.631,0.404l0.12-0.363l0.12-0.153l1.267,1.238l0.282-0.045l0.267-0.353
				l-0.625-0.933l-0.357-0.154l-0.324-0.499l0.545-0.254l0.539,0.07l0.254,0.411l0.23,0.551l0.118,0.116l2.155,0.749l0.438-0.208
				l0.073-0.404l0.795-0.327l0.773-0.888l-0.299-0.486l-0.316-0.349l-1.812-1.105l-0.741-0.675l-1.909-2.403l-1.783-3.207
				l-0.971-2.203l-0.892-2.503l-0.29-1.292l-0.328-1.194l-0.751-0.922l0.334-1.113l0.123-1.295l0.397-1.066l0.101-0.543
				l-0.516-1.323l-0.038-0.917l-0.133-0.442l-0.016-0.81l0.264-0.522l-0.059-0.689l0.165-0.381l0.759-0.343l0.367-1.054l0.076-0.726
				l0.021-0.656l0.418-0.337l1.145,0.001l0.164-0.252l0.212-0.609l0.097-0.837l-0.112-1.156l0.095-0.739l0.631-1.2l0.273-0.381
				l0.139-0.928l-0.343-0.366l-0.922-0.46l-1.52-0.187l-2.027-0.598l-0.86-0.734l-0.784-0.4l-0.593-0.066l-0.554,0.267l-1.511,1.066
				l-0.543,0.273l-0.483,0.074l-0.977-0.34l-0.488,0.087l-0.518,0.497l-0.527,0.329l-0.67,0.207l-0.462,0.624l-0.23,0.53
				l-0.039,0.65l0.209,1.38l0.044,0.564l0.531,0.833l-0.504,0.192l-0.514-0.14l-0.481-0.005l-0.481,0.201l-0.438,0.364l-1.01,1.231
				l-0.124,0.334l-0.096,0.456l0.332,0.486l0.339,0.316l1.012,0.196l-0.336,0.72l-0.069,0.407l0.175,0.599l-0.498,0.964
				l-0.151,0.662l-0.035,0.66l-0.19,0.773l-0.173,0.512l-0.156,0.242l-0.538,0.451l-0.24,0.789l-0.322,0.605l-0.348,0.343
				l-0.796-0.02l-0.794-0.312l-0.347,0.156l-0.66,0.604L168.655,267.81z M175.691,280.335l-0.054-0.747l-0.222-0.358l-0.292,0.053
				l-0.347-0.719l-0.394-0.998l-0.548-0.472l-0.193-0.053l-0.052,0.189l0.04,0.47l-0.486-0.383l-0.455-0.023l-0.936,0.383
				l-0.246,0.43l0.042,0.543l0.173,0.196l0.589,0.42l0.525-0.151l0.832,0.939l0.219,0.881l0.202,0.389l0.495,0.431l0.238,0.56
				l0.079,0.57l0.426-0.177l-0.066-0.229l-0.25-0.422l0.102-0.455L175.691,280.335z"/>
		</defs>
		<clipPath id="SVGID_00000178171797566074623120000012654639563159247240_">
			<use xlink:href="#SVGID_1_"  style="overflow:visible;"/>
		</clipPath>
		
			<rect x="30" y="70.266" style="clip-path:url(#SVGID_00000178171797566074623120000012654639563159247240_);fill:#FFFFFF;" width="740" height="259.508"/>
		
			<rect x="30" y="329.774" style="clip-path:url(#SVGID_00000178171797566074623120000012654639563159247240_);fill:#D52B1E;" width="740" height="200"/>
		
			<rect x="30" y="263.108" style="clip-path:url(#SVGID_00000178171797566074623120000012654639563159247240_);fill:#0039A6;" width="740" height="133.333"/>
		<use xlink:href="#SVGID_1_"  style="overflow:visible;fill:none;stroke:#000000;stroke-width:0.5;stroke-miterlimit:10;"/>
	</g>
</g>
<g id="Copyright">
	<text transform="matrix(1 0 0 1 681.6426 577.5911)" class="st3 st4"> Vemaps.com</text>
</g>
</svg>
