<?xml version="1.0" encoding="utf-8"?>
<!-- Generator: Adobe Illustrator 19.1.0, SVG Export Plug-In . SVG Version: 6.00 Build 0)  -->
<svg version="1.1" xmlns="http://www.w3.org/2000/svg" xmlns:xlink="http://www.w3.org/1999/xlink" x="0px" y="0px"
	 viewBox="0 0 800 600" style="enable-background:new 0 0 800 600;" xml:space="preserve">
<style type="text/css">
	.st0{clip-path:url(#SVGID_2_);fill:#00247D;}
	.st1{clip-path:url(#SVGID_2_);}
	.st2{fill:#FFFFFF;}
	.st3{fill:#CF142B;}
	.st4{font-family:'Roboto-Regular';}
	.st5{font-size:14px;}
</style>
<g id="United_Kingdom">
	<g>
		<defs>
			<path id="SVGID_1_" d="M414.979,498.724l-2.099,1.896l-6.662,1.91l-2.871,1.945l-5.029,4.389l-0.967,0.363l-7.589-1.054
				l-5.647-5.693l-3.61-2.339l-1.491-0.265l-1.541,0.696l-3.296,0.711l-3.362-0.121l1.716-2.636l2.33-1.475l-5.219-1.025
				l-1.451-0.804l-1.653-1.852l-4.093-0.317l-1.953,0.472l-3.293,2.448l-5.205,2.602l-6.27-3.607l-1.229-1.582l0.032-3.059
				l-0.94-2.426l-1.74-0.856l2.225-3.167l2.685-2.11l5.907-2.099l8.945-4.99l5.016-2.129l4.663-3.679l1.927-2.245l1.398-3.077
				l1.387-3.783l1.979-3.077l-1.92-0.734l-0.859-2.325l0.231-2.361l0.886-2.097l-0.794-2.632l-1.412-2.756l0.079-2.148l0.374-2.298
				l-3.599,0.123l-3.588,0.719l-3.252,1.629l-3.153,2.211l-2.801,0.409l0.046-1.768l1.215-2.188l3.175-3.129l3.399-2.598
				l1.208-1.975l0.952-2.297l1.687-1.846l4.44-3.491l8.505-3.936l1.27-0.232l3.335,0.457l3.278-0.595l2.871-1.418l2.863-0.306
				l6.444,4.087l-1.917-6.326l2.842-1.518l4.12,5.725l1.533,0.602l3.231-0.829l-1.247-0.965l-1.456-0.057l-1.907-0.862l-1.603-1.836
				l-2.667-5.838l0.144-3.473l1.797-3.618l1.99-3.335l-1.669-0.664l-1.338-1.277l-0.383-3.346l0.524-2.96l3.577-2.617l1.055-3.978
				l0.449-4.385l-0.595-2.014l-3.549,0.324l-1.726,0.821l-1.548,1.301l-1.587-0.077l-4.385-4.861l-2.501-3.684l-4.485-7.822
				l-0.639-4.688l3.592-10.151l5.544-6.519l6.53-2.275l-1.263-0.435l-9.95-0.089l-3.28,0.801l-3.04,2.669l-1.718,0.819l-1.804,0.303
				l-1.645,1.326l-1.606,1.84l-1.672,1.177l-3.322-0.305l-1.612,0.388l-1.157-1.065l-0.969-1.761l-1.269-0.47l-1.416,0.541
				l-2.995,2.373l-3.032,1.4l-3.666-1.495l-4.806-2.788l-0.948,1.018l-1.065,2.587l-0.612,4.033l-3.413-3.502l-2.908-4.692
				l-0.976-2.953l-0.073-3.329l1.579-1.293l1.715,1.183l2.556-7.924l5.084-10.361l1.795-3.049l1.251-3.984l-0.215-2.613
				l-1.122-2.208l-4.726-5.026l0.062-4.101l0.506-4.643l1.285-2.79l0.542-0.532l6.278,0.074l-2.448-1.442l-4.88-4.215l0.087-1.496
				l1.148-3.91l-0.531,0.397l-1.046,1.807l-1.997,4.365l-1.219,1.017l-3.452,1.034L346,292.816l-0.555,0.559l-1.724,0.243
				l-0.529,1.997l-0.384,0.127l-0.49-2.154l-0.048-3.575l0.687-3.294l1.311-2.58l5.058-5.879l-2.462,1.815l-5.581,5.428l-2.85,3.561
				l-0.761,1.201l-0.238,1.011l0.017,1.166l1.28,6.237l-0.365,2.88l-4.809,18.933l-0.911,1.89l-0.837,0.988l-0.791,0.227
				l-2.371-0.36l-1.058-1.41l0.01-1.6l0.445-2.403l1.994-8.971l0.866-2.5l1.285-2.327l2.834-4.081l-0.069-0.266l-1.887,0.801
				l-0.804-0.264l-0.577-0.809l0.374-12.158l1.53-4.018l0.573-5.857l1.327-5.03l1.536-3.672l1.168-4.709l1.762-2.097l0.472-3.212
				l1.976-3.483l1.528-3.65l-0.823,0.361l-9.77,9.483l-2.487,1.722l-3.392-0.461l-2.594-1.064l-2.027-2.24l-0.906-4.307
				l-2.503-0.115l-2.141-0.745l0.026-0.581l2.763-2.354l4.427-0.807l4.144-3.774l-3.687-2.554l0.311-0.81l3.216-2.178l4.086-7.325
				l0.829-6.764l-1.954-3.185l-0.707-2.091l-3.906-2.332l-0.652-2.991l0.454-1.67l1.274-1.633l1.92-1.273l3.011-1.218l-2.733-1.306
				l-1.02-1.543l-0.773-2.237l-0.072-1.297l1.415-5.79l0.824-2.392l1.61-3.057l7.309,0.173l0.841-1.351l0.829-0.052l3.736,1.23
				l-0.555-1.326l-6.112-7.279l-0.548-1.389l1.742-3.939l0.127-1.758l-0.256-1.882l0.498-1.432l1.938-0.679l5.907,0.068l1.456-0.668
				l-0.663-1.907l-1.375-2.511l-0.268-2.111l0.322-1.867l0.076-3.763l0.268-1.667l1.402-2.498l1.159-0.743l1.437-0.435l3.242,0.835
				l1.236,1.009l1.419,2.382l1.049-0.192l4.038-2.587l1.214-0.371l1.653,2.998l6.895-2.392l9.276-1.072l5.572-1.576l5.87-0.572
				l5.48-1.789l5.808,0.821l0.194,1.042l-0.304,1.445l-1.485,3.952l0.241,4.401l-0.332,1.333l-0.673,1.641l-2.13,3.06l-5.599,4.366
				l-10.26,9.998l-6.061,4.941l-0.834,2.373l-0.45,3.294l3.629,0.653l1.401,1.114l-0.868,1.671l-5.369,5.789l-1.581,5.218
				l4.116-0.184l3.391-1.002l6.763-3.253l6.354-2.42l3.051-0.1l5.936,1.93l1.35,0.062l2.519-0.891l2.547-0.159l17.254,0.601
				l4.793-1.133l3.172,1.354l2.653,3.38l2.521,6.219l-0.077,1.032l-1.523,2.826l-2.812,3.537l-2.419,4.859l-0.71,2.617l-0.475,2.859
				l-0.767,2.639l-4.811,12.349l-4.69,6.812l-2.095,4.821l-2.585,3.832l-2.488,2.406l-2.656,1.602l-7.672,1.71l-2.147,1.225
				l-2.561,2.102l-2.692,1.039l3.156-0.132l3.128-1.168l5.689-0.429l6.551,4.023l-0.607,3.286l-2.63,2.594l-5.981,0.407
				l-5.593,5.753l-2.524,1.766l-2.663,0.878l-3.331-0.26l-6.051-1.537l-2.648-1.607l2.393,2.623l2.715,1.367l15.758,3.221
				l0.948-0.334l5.023-3.403l6.695-0.052l12.747,6.247l3.67,4.761l5.259,6.806l2.861,2.65l2.068,2.399l1.274,3.591l2.469,11.81
				l2.816,11.47l3.69,12.352l1.672,3.418l2.199,2.394l11.135,5.49l2.479,1.817l4.32,5.262l4.165,5.591l3.875,4.285l4.185,3.461
				l-2.027,1.796l-1.389,2.821l1.038,3.829l1.705,3.65l3.348,5.826l2.953,6.339l-1.089-0.956l-1.145-0.526l-1.565,0.158l-1.53-0.306
				l-2.821-1.984l-2.711-2.438l-5.393,0.979l-2.996-0.439l-2.6,0.065l4.928,1.408l5.393,0.097l11.895,10.612l4.021,6.262
				l2.389,8.249l-1.627,3.695l-2.532,2.389l-2.362,2.731l-2.213,3.078l6.592,4.513l1.42-0.136l1.459-0.632l1.401-1.534l2.364-3.739
				l1.219-1.333l4.107-0.481l3.446,0.287l3.432,0.827l3.017-0.262l6.08,1.606l3.124,1.448l7.74,6.505l1.674,3.549l0.768,4.573
				l0.091,5.061l-1.302,4.614l-1.495,4.157l-0.922,5.355l-0.655,1.926l-0.914,1.506l-4.101,4.209l-2.725,1.727l-1.151-0.757
				l-1.228,0.105l-0.129,1.009l1.296,2.144l0.016,2.584l-2.422,1.91l-2.461,0.815l-4.118-1.017l-5.717,3.554l4.109,1.823
				l0.828,1.939l-1.029,3.404l-2.585,1.517l-2.865,0.671l-2.934,0.161l-2.431,0.832l-2.331,1.6l2.926-0.851l2.029,0.745l1.274,2.854
				l1.156,0.816l5.717,1.218l3.54-0.009l6.826-0.693l3.278,0.018l1.17,0.514l0.019,2.36l-0.509,5.785l-0.903,1.191l-9.05,4.844
				l-1.855,3.377l-0.52,2.044l-5.293-0.362l-2.48,2.159l-4.286,1.431l-3.314,1.523l-3.242,1.922l-2.667,0.575l-11.527-2.282
				l-6.958,0.187l-9.427,1.989l-2.428-0.328l-3.641-1.904l-3.728-1.289l-4.29-0.567l-3.703-1.762l2.311,3.388l-5.138,3.261
				l-2.37,0.648l-2.454-0.102l-5.021,0.885l-4.652-0.451l0.699,2.314l1.246,2.015l-1.01,0.876l-1.069,0.218l-8.859-1.521
				l-1.255,0.288l-1.093,1.404l-3.222-0.757l-3.131-2.368l-3.329-1.59l-3.493-0.748l-2.777,0.258l-11.42,3.734l-2.279,3.74
				l-1.14,5.292l-1.649,4.687l-2.689,3.602l-3.201,0.47l-3.011-2.492l-5.728-2.755l-1.949-1.863l-0.621-0.11l-0.64,0.667
				l-2.246,0.841l-2.326,0.039l-3.585,0.742l-6.237,2.24l-2.52,1.518l-5.415,4.182l-1.102,1.156l-1.969,4.207L342.893,570
				l-2.751-2.695l-3.132-0.941l-3.304,0.922l-1.998,1.433l-0.932-1.163l-0.03-2.394l2.413-2.856l6.437-2.16l5.651-5.615l2.772-3.431
				l1.1-1.932l1.354-1.232l1.771-0.466l0.91-2.139l7.846-8.621l0.647-1.983l0.391-3.551l0.648-3.424l6.387-2.22l3.052-7.225
				l0.84-0.574l8.908-1.328l6.607,0.105l6.562,1.418l3.364,0.127l3.376-0.489l2.648-1.955l4.532-7.067l2.549-3.118l2.92-2.821
				l2.732-3.227l4.432-5.99l-2.996,2.065L414.979,498.724z M371.881,420.321l1.181,0.876l2.974-0.138l-0.984,1.95l-3.273,2.173
				l-2.205,2.143l-2.662,1.793l-1.291-2.056l-1.497,0.078l-2.29-3.948l-0.413-5.933l2.992-1.548l4.133,0.097L371.881,420.321z
				 M418.327,120.179l-3.19,0.064l1.647-3.255l1.916-0.818l3.626,0.363l-0.644,1.461L418.327,120.179z M460.784,48.271l-0.714,0.661
				l-2.752-5.816l2.035-6.68l2.472,0.213l0.394,1.752l-0.245,1.61l-1.259,0.143l-0.113,0.493l0.392,3.097l0.025,3.592
				L460.784,48.271z M453.299,46.919l0.584,4.027l1.456-1.043l2.198,3.856l1.122,0.006l1.847-1.531l-0.373,3.584l-1.917,9.915
				l-0.538,1.678l-0.365,3.001l-0.381,0.585l-0.566,6.051l-1.296,1.989l-1.084,4.735l-0.442,0.463l-1.589-1.822l1.588-7.238
				l0.658-4.22l-0.416-2.193l-0.899-1.975l-2.43-0.064l-2.042,0.912l-0.433-1.166l-0.063-1.573l-0.493-0.523l-2.718,0.108
				l-0.798-0.435l-0.527-1.445l-0.105-1.15l2.455-0.901l2.318,0.335l3.377-2.297l-2.112-7.728l-2.798-0.728l-0.647-0.75l0.539-1.314
				l1.536-0.709l2.366-3.945l1.416-0.622l1.755,0.109L453.299,46.919z M468.345,31.15l-0.001,0.662l-1.462,4.858l0.019,1.853
				l-2.357-0.177l-0.37-0.589l-0.446-2.784l0.297-2.969l0.33-0.766l0.688-0.316l0.746,0.583l1.17-1.505l0.61,0.037L468.345,31.15z
				 M400.963,144.069l-1.612,0.718l-1.598-0.053l-2.491-3.141l-0.948-2.287l0.172-1.516l1.051-0.511l2.41,0.748l1.248,2.618
				l0.156,1.702l0.296,0.669l1.496,0.671L400.963,144.069z M407.602,146.922l-0.27,0.161l-1.027-0.993l-1.693-3.568l2.656-0.709
				l1.262,0.441l-0.469,1.52L407.602,146.922z M403.994,131.24l-0.374,1.348l2.143-0.032l3.103,1.15l1.879,0.144l1.563,1.423
				l-0.862,2.665l-0.936,0.745l-1.058,0.149l-3.694-2.661l-4.842,1.105l-0.963-0.338l-0.636-0.735l-0.261-0.913l-0.005-1.863
				l-0.263-0.549l-1.753,1.762l-0.769-0.208l-0.435-0.845l-0.187-1.75l0.194-2.529l1.028-3.606l1.741-0.72l2.596,0.418l2.97,2.045
				l0.899,1.259l-0.022,1.005L403.994,131.24z M413.239,122.629l-2.419,1.365l-1.032-1.129l-0.27-3.538l-2.885-1.516l-1.401-0.941
				l-1.087-1.787l0.277-0.549l1.88-0.733l3.211,3.242l1.313,2.616l2.378,0.773l0.303,0.4L413.239,122.629z M303.93,260.382
				l-1.602,0.284l-0.116-0.723l2.78-3.458l1.8-0.57l0.63,0.338l-1.307,2.003L303.93,260.382z M346.27,317.559l-3.553,0.036
				l-1.284-0.429l-1.535-1.206l-1.724-6.826l0.617-2.421l0.707-1.186l0.778-0.921l1.874-0.388l1.865,1.297l0.706,1.206l1.562,4.623
				l0.289,3.958L346.27,317.559z M327.317,272.635l-11.226,2.821l-3.869-0.25l-0.35-1.384l0.771-0.924l3.202-0.9l1.296-6.802
				l-4.842-3.137l-0.255-0.882l0.379-1.499l0.561-0.669l2.938-1.59l1.234-0.352l1.002,0.215l2.062,1.833l2.337,3.844l3.119,0.61
				l2.119,1.625L327.317,272.635z M317.423,293.522l1.017,6.437l0.992,3.981l0.065,1.358l-0.932,1.885l-4.645,2.506l-1.463,0.015
				l-0.061-0.608l1.049-2.55l-0.903-2.897l0.44-2.206l-0.432-0.405l-0.906,0.313l-3.328,3.503l-1.111,0.346l-0.121-0.712
				l0.823-2.869l0.102-1.964l0.495-1.208l0.904-1.115l1.078-0.837l0.868-0.12l0.926,0.864l2.695-2.412L317.423,293.522z
				 M321.9,299.338l-0.588,0.538l-1.427-0.149l-0.53-0.807l-0.292-1.24l-0.036-2.279l0.864-1.632l3.651-2.468l-1.65-0.876
				l-0.066-0.616l0.947-2.054l3.93-3.202l1.053-0.581l1.046,0.089l-2.031,5.69L321.9,299.338z M315.456,167.323l-3.584,9.332
				l-1.402,0.229l-1.232,2.325l-3.814,2.562l3.328,0.052l0.934,0.852l0.026,1.836l-0.641,1.066l-4.31,4.241l-2.964,1.606
				l-3.193,4.416l-1.612,0.054l-1.595,2.805l-1.313,1.231l-0.738,0.003l-0.848-0.621l-1.98-2.744l3.593-2.702l0.333-1.522
				l2.461-1.582l-0.206-0.494l-3.9-2.229l-1.537-1.5l0.146-0.786l1.877-1.728l-0.89-0.228l-0.601-0.932l-1.09-0.356l-0.326-0.87
				l-0.201-2.286l0.292-2.341l1.137-1.035l0.465-1.108l0.461-0.342l1.762,0.59l1.785,1.874l2.084-0.722l2.419,0.357l0.049-0.435
				l-1.777-4.614l0.318-0.943l0.963-1.077l5.583-3.299l6.962-5.561l1.683-0.873l0.508,0.76l0.71,2.884L315.456,167.323z
				 M313.191,240.89l-0.837,0.665l-1.057-0.128l-1.047-0.857l-1.387-2.428l3.107-1.686l1.244,0.99l0.478,1.13l0.021,1.253
				L313.191,240.89z M316.977,212.807l-0.04,2.313l-0.497,2.715l0.647,2.879l0.149,2.054l1.188,0.653l0.727,0.946l5.281,1.057
				l4.912-0.297l0.945,0.846l0.107,1.34l-0.776,1.479l-2.797,2.693l-3.336,4.345l-0.995,0.904l-1.078,0.038l-0.773-0.389
				l-0.553-7.736l-3.618,0.991l-2.914-0.114l-1.595-0.943l-1.119-1.819l-2.256-4.684l-6.567-1.846l-1.857-2.587l-0.559-1.564
				l0.237-0.866l1.368-1.926l1.712,0.688l1.06-0.422l0.644-0.862l-0.014-0.708l-0.896-1.681l-0.043-0.522l6.716-2.132l0.588-3.336
				l1.457-0.272l1.664,1.091l2.279,3.463L316.977,212.807z M287.077,203.465l3.179,2.96l-2.532,4.899l-3.888-0.023l-5.473-3.578
				l-0.025-0.731l0.457-1.075l0.82-0.852l0.853-0.203l1.357,0.588l1.89-0.942l1.512,0.298L287.077,203.465z M285.829,233.102
				l-1.189,0.288l-1.561-0.278l-0.961-0.805l-0.97-3.189l-0.182-1.933l0.432-3.597l-0.099-4.307l3.218-0.135l0.824,0.622
				l0.552,12.761L285.829,233.102z M281.121,240.852l-2.477,0.71l-0.919-0.416l-0.157-0.652l0.564-1.777l1.902-0.628l1.375,0.964
				l0.219,0.875L281.121,240.852z M314.911,383.871l-2.414-0.295l-1.691,0.852l-1.097,0.789l-1.062-0.143l-3.04,0.304l-2.865-0.065
				l-0.406-1.252l0.489-3.775l-0.638-1.023l-2.736-0.523l-1.014-0.901l-1.572-2.613l-0.307-1.223l-0.226-1.69l-1.66-2.182
				l-2.018-1.564l-1.183-0.076l-2.362,2.553l-1.947,2.583l0.691,1.296l0.637,1.704l-1.06,1.221l-3.204,2.792l-0.501,1.083
				l-0.864,0.586l-1.529-0.771l-3.805,0.178l-1.751-0.492l-2.035-2.057l-4.966-1.375l-0.833-3.297l-0.958-0.616l-5.631-5.678
				l-0.749-1.898l0.729-1.134l2.103-1.719l7.061-2.85l1.111-1.149l0.228-1.015l-2.073-1.16l-1.869-1.282l-0.637-0.841l-0.052-0.729
				l1.061-0.951l2.133-0.069l1.685,0.43l1.339-0.856l2.355-0.861l1.58-1.085l1.358-2.804l1.435-2.524l0.149-1.37l1.256-4.809
				l0.691-1.195l4.46-3.158l1.129,1.725l2.198,0.422l1.969-1.588l2.356-5.013l1.64-0.315l1.807,0.406l3.552-0.63l6.307-2.345
				l2.812-0.038l3.976,1.23l2.962-0.026l2.631,3.588l1.411,5.643l3.285,5.56l4.294,4.825l0.172,2.946l-1.535,1.579l-3.211,1.961
				l0.014,2.094l2.118-1.056l1.828-0.487l4.4,0.468l1.539,2.128l1.064,3.182l0.557,2.61l-0.38,2.833l-1.184-0.897l-1.203-2.536
				l-1.336-1.169l-1.554-0.632l0.705,3.482l-0.278,4.648l0.679,0.439l2.088,0.08l-1.38,4.746l-2.854,1.286l-3.329,0.482
				l-0.802,1.677l-0.604,2.158l-1.738,3.215l-2.291,1.811l-2.832-0.365L314.911,383.871z M460.135,540.533l-2.362,1.531
				l-0.746,1.794l-0.571,0.709l-1.561,0.461l-1.545,0.013l-5.892-3.6l-1.356,0.162l1.346-1.651l3.659-1.342l2.059-1.775l4.751,1.723
				L460.135,540.533z"/>
		</defs>
		<clipPath id="SVGID_2_">
			<use xlink:href="#SVGID_1_"  style="overflow:visible;"/>
		</clipPath>
		<path id="path3408" inkscape:connector-curvature="0" class="st0" d="M-104.826,30v540h836.236V30L-104.826,30z"/>
		<g id="g3504" transform="matrix(0.99923007,0,0,0.99796116,-41.704693,34.67408)" class="st1">
			<path id="path3410" inkscape:connector-curvature="0" sodipodi:nodetypes="ccccccccccccccccc" class="st2" d="M-63.073,117.57
				l-0.072,47.381l324.731,162.453l-324.64,162.308l-0.116,46.537l93.519,0.113l324.726-162.245l325.302,162.248l93.312,0.054
				l-0.003-46.268L448.591,327.405l325.077-162.488l0.042-47.452l-92.984-0.017L355.073,280.665L28.823,117.527L-63.073,117.57z"/>
			<g id="g3475" transform="matrix(1.000467,0,0,1.0025461,-90.083492,-1.0167386)">
				<path id="path3473" inkscape:connector-curvature="0" sodipodi:nodetypes="ccccccccccccccccccccccccc" class="st3" d="
					M444.776,327.635l62.345-0.224L863.39,505.815l-0.584,30.018L444.776,327.635L444.776,327.635z M800.245,118.164l60.417,0.086
					L444.743,327.733l-0.028-31.395L800.25,118.164L800.245,118.164z M204.45,237.578L26.9,148.613v-30.45l417.931,209.4
					l-61.592,0.081L204.45,237.578L204.45,237.578z M444.756,327.566v30.45L89.268,536.033L27.1,536.072L444.756,327.566
					L444.756,327.566z"/>
			</g>
		</g>
		<g id="g3457" transform="matrix(0.99923007,0,0,0.99796116,-71.704693,6.7005857)" class="st1">
			<g id="g3500">
				<path id="path3414" inkscape:connector-curvature="0" class="st2" d="M315.553,145.478v139.657h-348.7v139.657h348.7V564.45
					h139.48V424.793h348.7V285.136h-348.7V145.478L315.553,145.478L315.553,145.478z"/>
				<path id="path3416" inkscape:connector-curvature="0" class="st3" d="M343.449,145.478v167.589H-33.147v83.794h376.596V564.45
					h83.688V396.862h376.596v-83.794H427.137V145.478C427.137,145.478,343.449,145.478,343.449,145.478z"/>
			</g>
		</g>
		<use xlink:href="#SVGID_1_"  style="overflow:visible;fill:none;stroke:#000000;stroke-width:0.5;stroke-miterlimit:10;"/>
	</g>
</g>
<g id="Copyright">
	<text transform="matrix(1 0 0 1 681.6426 577.5916)" class="st4 st5">© Vemaps.com</text>
</g>
</svg>
